<svg width="212" height="40" viewBox="0 0 212 40" fill="none" xmlns="http://www.w3.org/2000/svg">
<path d="M35.3056 11.1912C35.4595 12.9451 35.6994 14.6274 35.7298 16.3134C35.7692 18.393 35.7137 20.4816 35.5526 22.5541C35.3611 25.0257 34.7938 27.424 33.5821 29.6253C32.0107 32.4817 29.5123 34.1193 26.4519 35.0088C24.4277 35.5976 22.3498 35.8571 20.2523 35.943C16.8106 36.0844 13.3851 36.0075 10.0079 35.1914C5.06648 33.9976 2.00964 30.9426 0.812313 26.0047C0.339826 24.0593 0.112531 22.0834 0.0409423 20.0915C-0.0628615 17.2029 0.00514783 14.3196 0.545644 11.4668C0.871373 9.75046 1.38144 8.09854 2.23872 6.56475C3.70987 3.93207 5.9864 2.3249 8.80521 1.40498C11.1444 0.640772 13.5623 0.366946 16.0035 0.27925C18.8634 0.175446 21.7163 0.255982 24.5387 0.78753C24.655 0.809007 24.7677 0.841222 24.9002 0.871647C23.6402 4.10567 24.0322 7.08377 26.4805 9.56254C28.9378 12.0502 31.9141 12.4708 35.302 11.1876L35.3056 11.1912ZM13.403 18.6776C13.8111 18.9944 14.1851 19.2843 14.5574 19.576C15.846 20.5854 17.1292 21.6002 18.4214 22.6042C19.2411 23.2396 19.9874 23.1412 20.621 22.3268C22.3355 20.1183 24.0518 17.9098 25.761 15.6959C26.323 14.9693 26.2496 14.1389 25.6071 13.6377C24.9718 13.142 24.1395 13.2977 23.5794 14.0207C22.6237 15.2556 21.6715 16.4941 20.7158 17.729C20.2111 18.3823 19.701 19.0302 19.1874 19.687C19.089 19.6172 19.0406 19.585 18.9941 19.5492C17.3654 18.2749 15.7422 16.9953 14.1064 15.7299C13.3457 15.1429 12.6048 15.2485 12.0052 16.002C11.5793 16.5371 11.1659 17.0829 10.7488 17.6252C9.37792 19.4042 7.99983 21.1778 6.63965 22.9658C6.04546 23.7461 6.31571 24.7644 7.18193 25.117C7.7976 25.3676 8.39178 25.1832 8.86606 24.5729C9.6947 23.5027 10.5162 22.4271 11.343 21.355C12.0213 20.4745 12.6996 19.5939 13.403 18.6794V18.6776Z" fill="#04C000"/>
<path d="M31.9926 8.23278C29.6588 8.21668 27.8727 6.38937 27.8888 4.03768C27.9031 1.84706 29.7913 -0.0124651 31.989 6.29376e-05C34.2673 0.0143807 36.1197 1.88822 36.1036 4.16653C36.0893 6.40727 34.228 8.2471 31.9926 8.23278Z" fill="#04C000"/>
<path d="M56.964 14L55.974 10.598H51.582L50.592 14H48L52.32 1.094H55.218L59.556 14H56.964ZM54.372 5.306C54.324 5.114 54.258 4.886 54.174 4.622C54.102 4.346 54.03 4.064 53.958 3.776C53.898 3.488 53.838 3.218 53.778 2.966C53.73 3.254 53.67 3.542 53.598 3.83C53.526 4.106 53.454 4.37 53.382 4.622C53.322 4.874 53.262 5.102 53.202 5.306L52.194 8.618H55.398L54.372 5.306ZM64.7328 14.18C63.8328 14.18 63.0528 14.006 62.3928 13.658C61.7448 13.298 61.2408 12.752 60.8808 12.02C60.5328 11.276 60.3588 10.328 60.3588 9.176C60.3588 7.976 60.5508 7.004 60.9348 6.26C61.3308 5.504 61.8708 4.952 62.5548 4.604C63.2508 4.244 64.0368 4.064 64.9128 4.064C65.4648 4.064 65.9808 4.124 66.4608 4.244C66.9528 4.364 67.3608 4.508 67.6848 4.676L66.9648 6.422C66.6408 6.29 66.3168 6.176 65.9928 6.08C65.6688 5.984 65.3448 5.936 65.0208 5.936C64.5288 5.936 64.1208 6.056 63.7968 6.296C63.4728 6.536 63.2208 6.896 63.0408 7.376C62.8728 7.844 62.7888 8.438 62.7888 9.158C62.7888 9.854 62.8728 10.436 63.0408 10.904C63.2208 11.372 63.4728 11.726 63.7968 11.966C64.1208 12.194 64.5168 12.308 64.9848 12.308C65.4528 12.308 65.8848 12.242 66.2808 12.11C66.6888 11.978 67.0728 11.798 67.4328 11.57V13.532C67.0608 13.76 66.6648 13.922 66.2448 14.018C65.8248 14.126 65.3208 14.18 64.7328 14.18ZM73.3093 12.362C73.5733 12.362 73.8253 12.338 74.0653 12.29C74.3173 12.23 74.5513 12.164 74.7673 12.092V13.784C74.5153 13.892 74.2093 13.982 73.8493 14.054C73.4893 14.138 73.0873 14.18 72.6433 14.18C72.0913 14.18 71.5993 14.09 71.1673 13.91C70.7353 13.718 70.3933 13.394 70.1413 12.938C69.9013 12.482 69.7813 11.846 69.7813 11.03V5.954H68.5573V4.964L69.9253 4.172L70.6453 2.102H72.1573V4.244H74.6773V5.954H72.1573V11.012C72.1573 11.468 72.2593 11.81 72.4633 12.038C72.6793 12.254 72.9613 12.362 73.3093 12.362ZM78.9361 4.244V14H76.5601V4.244H78.9361ZM77.7661 0.481999C78.1141 0.481999 78.4141 0.571999 78.6661 0.751999C78.9181 0.919999 79.0441 1.226 79.0441 1.67C79.0441 2.102 78.9181 2.414 78.6661 2.606C78.4141 2.786 78.1141 2.876 77.7661 2.876C77.3941 2.876 77.0821 2.786 76.8301 2.606C76.5781 2.414 76.4521 2.102 76.4521 1.67C76.4521 1.226 76.5781 0.919999 76.8301 0.751999C77.0821 0.571999 77.3941 0.481999 77.7661 0.481999ZM83.7483 14L80.2383 4.244H82.7403L84.4863 9.878C84.5703 10.106 84.6363 10.358 84.6843 10.634C84.7443 10.898 84.7983 11.162 84.8463 11.426C84.8943 11.678 84.9183 11.9 84.9183 12.092H84.9903C85.0143 11.888 85.0443 11.66 85.0803 11.408C85.1283 11.144 85.1883 10.88 85.2603 10.616C85.3323 10.352 85.3983 10.106 85.4583 9.878L87.2223 4.244H89.7243L86.2143 14H83.7483ZM93.4205 4.244V14H91.0445V4.244H93.4205ZM92.2505 0.481999C92.5985 0.481999 92.8985 0.571999 93.1505 0.751999C93.4025 0.919999 93.5285 1.226 93.5285 1.67C93.5285 2.102 93.4025 2.414 93.1505 2.606C92.8985 2.786 92.5985 2.876 92.2505 2.876C91.8785 2.876 91.5665 2.786 91.3145 2.606C91.0625 2.414 90.9365 2.102 90.9365 1.67C90.9365 1.226 91.0625 0.919999 91.3145 0.751999C91.5665 0.571999 91.8785 0.481999 92.2505 0.481999ZM99.8347 12.362C100.099 12.362 100.351 12.338 100.591 12.29C100.843 12.23 101.077 12.164 101.293 12.092V13.784C101.041 13.892 100.735 13.982 100.375 14.054C100.015 14.138 99.6127 14.18 99.1687 14.18C98.6167 14.18 98.1247 14.09 97.6927 13.91C97.2607 13.718 96.9187 13.394 96.6667 12.938C96.4267 12.482 96.3067 11.846 96.3067 11.03V5.954H95.0827V4.964L96.4507 4.172L97.1707 2.102H98.6827V4.244H101.203V5.954H98.6827V11.012C98.6827 11.468 98.7847 11.81 98.9887 12.038C99.2047 12.254 99.4867 12.362 99.8347 12.362ZM101.771 4.244H104.327L106.073 9.752C106.157 9.98 106.223 10.208 106.271 10.436C106.331 10.664 106.379 10.892 106.415 11.12C106.463 11.348 106.499 11.576 106.523 11.804H106.577C106.625 11.504 106.685 11.174 106.757 10.814C106.841 10.454 106.937 10.1 107.045 9.752L108.755 4.244H111.275L107.405 15.278C107.177 15.926 106.889 16.478 106.541 16.934C106.205 17.39 105.791 17.732 105.299 17.96C104.819 18.2 104.243 18.32 103.571 18.32C103.295 18.32 103.049 18.302 102.833 18.266C102.629 18.242 102.449 18.212 102.293 18.176V16.376C102.413 16.4 102.563 16.424 102.743 16.448C102.923 16.472 103.109 16.484 103.301 16.484C103.649 16.484 103.943 16.406 104.183 16.25C104.435 16.106 104.645 15.902 104.813 15.638C104.981 15.386 105.107 15.092 105.191 14.756L105.443 13.964L101.771 4.244ZM117.188 14V1.148H119.6V12.056H124.55V14H117.188ZM130.228 4.064C131.068 4.064 131.788 4.244 132.388 4.604C133 4.952 133.474 5.456 133.81 6.116C134.146 6.764 134.314 7.556 134.314 8.492V9.644H128.338C128.362 10.532 128.578 11.222 128.986 11.714C129.406 12.194 129.994 12.434 130.75 12.434C131.35 12.434 131.884 12.374 132.352 12.254C132.82 12.122 133.306 11.936 133.81 11.696V13.514C133.354 13.742 132.88 13.91 132.388 14.018C131.896 14.126 131.29 14.18 130.57 14.18C129.658 14.18 128.848 14 128.14 13.64C127.444 13.268 126.898 12.71 126.502 11.966C126.106 11.222 125.908 10.298 125.908 9.194C125.908 8.078 126.088 7.142 126.448 6.386C126.808 5.618 127.312 5.042 127.96 4.658C128.62 4.262 129.376 4.064 130.228 4.064ZM130.264 5.738C129.724 5.738 129.286 5.936 128.95 6.332C128.626 6.716 128.434 7.292 128.374 8.06H132.046C132.046 7.604 131.98 7.202 131.848 6.854C131.716 6.506 131.518 6.236 131.254 6.044C131.002 5.84 130.672 5.738 130.264 5.738ZM138.24 14L134.73 4.244H137.232L138.978 9.878C139.062 10.106 139.128 10.358 139.176 10.634C139.236 10.898 139.29 11.162 139.338 11.426C139.386 11.678 139.41 11.9 139.41 12.092H139.482C139.506 11.888 139.536 11.66 139.572 11.408C139.62 11.144 139.68 10.88 139.752 10.616C139.824 10.352 139.89 10.106 139.95 9.878L141.714 4.244H144.216L140.706 14H138.24ZM149.353 4.064C150.193 4.064 150.913 4.244 151.513 4.604C152.125 4.952 152.599 5.456 152.935 6.116C153.271 6.764 153.439 7.556 153.439 8.492V9.644H147.463C147.487 10.532 147.703 11.222 148.111 11.714C148.531 12.194 149.119 12.434 149.875 12.434C150.475 12.434 151.009 12.374 151.477 12.254C151.945 12.122 152.431 11.936 152.935 11.696V13.514C152.479 13.742 152.005 13.91 151.513 14.018C151.021 14.126 150.415 14.18 149.695 14.18C148.783 14.18 147.973 14 147.265 13.64C146.569 13.268 146.023 12.71 145.627 11.966C145.231 11.222 145.033 10.298 145.033 9.194C145.033 8.078 145.213 7.142 145.573 6.386C145.933 5.618 146.437 5.042 147.085 4.658C147.745 4.262 148.501 4.064 149.353 4.064ZM149.389 5.738C148.849 5.738 148.411 5.936 148.075 6.332C147.751 6.716 147.559 7.292 147.499 8.06H151.171C151.171 7.604 151.105 7.202 150.973 6.854C150.841 6.506 150.643 6.236 150.379 6.044C150.127 5.84 149.797 5.738 149.389 5.738ZM157.879 14H155.485V0.319999H157.879V14Z" fill="black"/>
<path d="M60.11 26.004L57.618 36H56.344L54.566 29.448C54.51 29.252 54.454 29.0513 54.398 28.846C54.3513 28.6407 54.3047 28.4447 54.258 28.258C54.2113 28.0713 54.174 27.9127 54.146 27.782C54.118 27.642 54.0993 27.5393 54.09 27.474C54.0807 27.5393 54.062 27.642 54.034 27.782C54.006 27.9127 53.9733 28.0713 53.936 28.258C53.8987 28.4447 53.852 28.6453 53.796 28.86C53.7493 29.0653 53.698 29.2753 53.642 29.49L51.906 36H50.618L48.14 26.004H49.442L50.884 32.108C50.9307 32.3227 50.9773 32.5373 51.024 32.752C51.0707 32.9573 51.108 33.1627 51.136 33.368C51.1733 33.564 51.206 33.7553 51.234 33.942C51.2713 34.1287 51.2993 34.3107 51.318 34.488C51.346 34.3013 51.374 34.11 51.402 33.914C51.4393 33.718 51.4767 33.5173 51.514 33.312C51.5607 33.0973 51.6073 32.8827 51.654 32.668C51.71 32.4533 51.766 32.2433 51.822 32.038L53.446 26.004H54.734L56.428 32.08C56.484 32.2947 56.5353 32.514 56.582 32.738C56.638 32.9527 56.6847 33.1627 56.722 33.368C56.7687 33.5733 56.806 33.774 56.834 33.97C56.8713 34.1567 56.904 34.3293 56.932 34.488C56.96 34.2547 56.9973 34.012 57.044 33.76C57.0907 33.4987 57.142 33.228 57.198 32.948C57.2633 32.668 57.3287 32.3833 57.394 32.094L58.822 26.004H60.11ZM62.5877 28.482C62.5877 28.6593 62.5783 28.8413 62.5597 29.028C62.5503 29.2147 62.5363 29.3827 62.5177 29.532H62.6017C62.751 29.2707 62.9377 29.056 63.1617 28.888C63.395 28.72 63.647 28.594 63.9177 28.51C64.1977 28.4167 64.487 28.37 64.7857 28.37C65.355 28.37 65.831 28.468 66.2137 28.664C66.5963 28.8507 66.8857 29.1447 67.0817 29.546C67.2777 29.9473 67.3757 30.47 67.3757 31.114V36H66.1577V31.198C66.1577 30.5913 66.0317 30.1387 65.7797 29.84C65.5277 29.5413 65.1403 29.392 64.6177 29.392C64.1043 29.392 63.6983 29.4993 63.3997 29.714C63.101 29.9193 62.891 30.2273 62.7697 30.638C62.6483 31.0393 62.5877 31.534 62.5877 32.122V36H61.3697V25.36H62.5877V28.482ZM72.2475 28.37C73.1061 28.37 73.7455 28.5707 74.1655 28.972C74.5948 29.3733 74.8095 30.0127 74.8095 30.89V36H73.9275L73.6895 34.936H73.6335C73.4281 35.2067 73.2181 35.4353 73.0035 35.622C72.7981 35.7993 72.5555 35.93 72.2755 36.014C72.0048 36.098 71.6688 36.14 71.2675 36.14C70.8475 36.14 70.4695 36.0607 70.1335 35.902C69.7975 35.7433 69.5315 35.5007 69.3355 35.174C69.1395 34.838 69.0415 34.418 69.0415 33.914C69.0415 33.1673 69.3168 32.5933 69.8675 32.192C70.4181 31.7813 71.2675 31.5573 72.4155 31.52L73.6055 31.478V31.03C73.6055 30.4047 73.4795 29.9707 73.2275 29.728C72.9848 29.4853 72.6348 29.364 72.1775 29.364C71.8135 29.364 71.4635 29.4247 71.1275 29.546C70.8008 29.658 70.4881 29.7887 70.1895 29.938L69.8115 29.014C70.1288 28.8367 70.4975 28.6873 70.9175 28.566C71.3375 28.4353 71.7808 28.37 72.2475 28.37ZM72.5835 32.374C71.7248 32.4113 71.1275 32.5607 70.7915 32.822C70.4648 33.0833 70.3015 33.452 70.3015 33.928C70.3015 34.348 70.4181 34.656 70.6515 34.852C70.8848 35.048 71.1881 35.146 71.5615 35.146C72.1401 35.146 72.6255 34.9733 73.0175 34.628C73.4095 34.2733 73.6055 33.732 73.6055 33.004V32.332L72.5835 32.374ZM79.405 35.132C79.5823 35.132 79.7643 35.118 79.951 35.09C80.1376 35.0527 80.2916 35.0153 80.413 34.978V35.916C80.2823 35.9813 80.0956 36.0327 79.853 36.07C79.6196 36.1167 79.3956 36.14 79.181 36.14C78.8076 36.14 78.4623 36.0747 78.145 35.944C77.8276 35.804 77.571 35.566 77.375 35.23C77.1883 34.894 77.095 34.4227 77.095 33.816V29.448H76.101V28.86L77.123 28.37L77.585 26.774H78.313V28.496H80.357V29.448H78.313V33.788C78.313 34.2453 78.4156 34.586 78.621 34.81C78.8263 35.0247 79.0876 35.132 79.405 35.132ZM83.1049 26.004L82.8389 29.616H82.0829L81.8169 26.004H83.1049ZM89.3005 33.928C89.3005 34.4133 89.1839 34.8193 88.9505 35.146C88.7265 35.4727 88.4045 35.72 87.9845 35.888C87.5645 36.056 87.0605 36.14 86.4725 36.14C85.9779 36.14 85.5485 36.098 85.1845 36.014C84.8299 35.93 84.5172 35.8133 84.2465 35.664V34.544C84.5359 34.6933 84.8812 34.8333 85.2825 34.964C85.6839 35.0853 86.0899 35.146 86.5005 35.146C87.0699 35.146 87.4805 35.048 87.7325 34.852C87.9939 34.6467 88.1245 34.376 88.1245 34.04C88.1245 33.8533 88.0732 33.6853 87.9705 33.536C87.8772 33.3867 87.7045 33.2373 87.4525 33.088C87.2099 32.9387 86.8552 32.7707 86.3885 32.584C85.9405 32.3973 85.5532 32.2107 85.2265 32.024C84.9092 31.8373 84.6619 31.6133 84.4845 31.352C84.3165 31.0907 84.2325 30.7547 84.2325 30.344C84.2325 29.7093 84.4752 29.2193 84.9605 28.874C85.4552 28.5287 86.0992 28.356 86.8925 28.356C87.3219 28.356 87.7232 28.4027 88.0965 28.496C88.4699 28.58 88.8245 28.7013 89.1605 28.86L88.7545 29.84C88.5585 29.7467 88.3532 29.6673 88.1385 29.602C87.9239 29.5273 87.7045 29.4713 87.4805 29.434C87.2659 29.3873 87.0465 29.364 86.8225 29.364C86.3652 29.364 86.0152 29.448 85.7725 29.616C85.5299 29.7747 85.4085 29.994 85.4085 30.274C85.4085 30.4793 85.4645 30.6567 85.5765 30.806C85.6885 30.9553 85.8705 31.1 86.1225 31.24C86.3839 31.3707 86.7385 31.5247 87.1865 31.702C87.6345 31.8793 88.0172 32.0613 88.3345 32.248C88.6519 32.4347 88.8899 32.6633 89.0485 32.934C89.2165 33.1953 89.3005 33.5267 89.3005 33.928ZM97.0606 30.918L99.4686 26.004H100.813L97.6906 32.122V36H96.4446V32.178L93.3086 26.004H94.6666L97.0606 30.918ZM107.438 32.234C107.438 32.8593 107.359 33.4147 107.2 33.9C107.051 34.376 106.832 34.782 106.542 35.118C106.253 35.454 105.903 35.7107 105.492 35.888C105.082 36.056 104.624 36.14 104.12 36.14C103.654 36.14 103.22 36.056 102.818 35.888C102.426 35.7107 102.081 35.454 101.782 35.118C101.493 34.782 101.269 34.376 101.11 33.9C100.952 33.4147 100.872 32.8593 100.872 32.234C100.872 31.4033 101.003 30.7033 101.264 30.134C101.535 29.5553 101.918 29.1167 102.412 28.818C102.907 28.51 103.49 28.356 104.162 28.356C104.806 28.356 105.371 28.51 105.856 28.818C106.351 29.1167 106.738 29.5553 107.018 30.134C107.298 30.7033 107.438 31.4033 107.438 32.234ZM102.132 32.234C102.132 32.822 102.202 33.3353 102.342 33.774C102.482 34.2033 102.702 34.5347 103 34.768C103.299 35.0013 103.682 35.118 104.148 35.118C104.615 35.118 104.998 35.0013 105.296 34.768C105.595 34.5347 105.814 34.2033 105.954 33.774C106.104 33.3353 106.178 32.822 106.178 32.234C106.178 31.6367 106.104 31.128 105.954 30.708C105.814 30.288 105.595 29.966 105.296 29.742C104.998 29.5087 104.61 29.392 104.134 29.392C103.434 29.392 102.926 29.644 102.608 30.148C102.291 30.652 102.132 31.3473 102.132 32.234ZM115.199 28.496V36H114.219L114.037 35.006H113.981C113.831 35.2673 113.635 35.482 113.393 35.65C113.159 35.818 112.903 35.9393 112.623 36.014C112.343 36.098 112.049 36.14 111.741 36.14C111.181 36.14 110.709 36.0467 110.327 35.86C109.944 35.664 109.655 35.3653 109.459 34.964C109.272 34.5627 109.179 34.0447 109.179 33.41V28.496H110.411V33.326C110.411 33.9233 110.537 34.3713 110.789 34.67C111.041 34.9687 111.428 35.118 111.951 35.118C112.464 35.118 112.865 35.0153 113.155 34.81C113.453 34.5953 113.663 34.2873 113.785 33.886C113.915 33.4753 113.981 32.9807 113.981 32.402V28.496H115.199ZM120.757 28.356C120.887 28.356 121.027 28.3653 121.177 28.384C121.326 28.3933 121.457 28.412 121.569 28.44L121.429 29.574C121.317 29.546 121.191 29.5227 121.051 29.504C120.92 29.4853 120.794 29.476 120.673 29.476C120.402 29.476 120.145 29.5367 119.903 29.658C119.66 29.7793 119.441 29.952 119.245 30.176C119.058 30.3907 118.909 30.652 118.797 30.96C118.685 31.268 118.629 31.6133 118.629 31.996V36H117.411V28.496H118.405L118.545 29.868H118.601C118.75 29.588 118.927 29.336 119.133 29.112C119.347 28.8787 119.59 28.6967 119.861 28.566C120.131 28.426 120.43 28.356 120.757 28.356ZM132.345 36L131.253 32.906H127.543L126.465 36H125.191L128.831 25.962H130.007L133.633 36H132.345ZM129.853 28.762C129.835 28.6873 129.793 28.552 129.727 28.356C129.671 28.16 129.611 27.9593 129.545 27.754C129.489 27.5393 129.443 27.376 129.405 27.264C129.359 27.4507 129.307 27.642 129.251 27.838C129.205 28.0247 129.158 28.1973 129.111 28.356C129.065 28.5147 129.023 28.65 128.985 28.762L127.949 31.786H130.889L129.853 28.762ZM137.589 36.14C136.954 36.14 136.394 36.0047 135.909 35.734C135.423 35.4633 135.041 35.0433 134.761 34.474C134.49 33.9047 134.355 33.1767 134.355 32.29C134.355 31.366 134.499 30.6147 134.789 30.036C135.078 29.4573 135.47 29.0327 135.965 28.762C136.469 28.4913 137.038 28.356 137.673 28.356C138.037 28.356 138.387 28.398 138.723 28.482C139.068 28.5567 139.348 28.65 139.563 28.762L139.185 29.784C138.97 29.7 138.718 29.6207 138.429 29.546C138.149 29.4713 137.887 29.434 137.645 29.434C137.187 29.434 136.809 29.5413 136.511 29.756C136.212 29.9707 135.988 30.288 135.839 30.708C135.689 31.128 135.615 31.6507 135.615 32.276C135.615 32.8733 135.689 33.382 135.839 33.802C135.988 34.222 136.207 34.5393 136.497 34.754C136.795 34.9687 137.159 35.076 137.589 35.076C137.971 35.076 138.312 35.034 138.611 34.95C138.909 34.866 139.185 34.7633 139.437 34.642V35.734C139.194 35.8647 138.928 35.9627 138.639 36.028C138.349 36.1027 137.999 36.14 137.589 36.14ZM143.526 35.132C143.703 35.132 143.885 35.118 144.072 35.09C144.259 35.0527 144.413 35.0153 144.534 34.978V35.916C144.403 35.9813 144.217 36.0327 143.974 36.07C143.741 36.1167 143.517 36.14 143.302 36.14C142.929 36.14 142.583 36.0747 142.266 35.944C141.949 35.804 141.692 35.566 141.496 35.23C141.309 34.894 141.216 34.4227 141.216 33.816V29.448H140.222V28.86L141.244 28.37L141.706 26.774H142.434V28.496H144.478V29.448H142.434V33.788C142.434 34.2453 142.537 34.586 142.742 34.81C142.947 35.0247 143.209 35.132 143.526 35.132ZM147.162 28.496V36H145.944V28.496H147.162ZM146.56 25.682C146.747 25.682 146.91 25.7473 147.05 25.878C147.19 25.9993 147.26 26.1953 147.26 26.466C147.26 26.7273 147.19 26.9233 147.05 27.054C146.91 27.1847 146.747 27.25 146.56 27.25C146.364 27.25 146.196 27.1847 146.056 27.054C145.916 26.9233 145.846 26.7273 145.846 26.466C145.846 26.1953 145.916 25.9993 146.056 25.878C146.196 25.7473 146.364 25.682 146.56 25.682ZM150.944 36L148.27 28.496H149.572L151.056 32.92C151.13 33.1253 151.205 33.354 151.28 33.606C151.354 33.858 151.42 34.1007 151.476 34.334C151.541 34.558 151.583 34.7493 151.602 34.908H151.658C151.686 34.7493 151.732 34.5533 151.798 34.32C151.863 34.0867 151.933 33.844 152.008 33.592C152.092 33.34 152.166 33.116 152.232 32.92L153.716 28.496H155.018L152.33 36H150.944ZM157.361 28.496V36H156.143V28.496H157.361ZM156.759 25.682C156.946 25.682 157.109 25.7473 157.249 25.878C157.389 25.9993 157.459 26.1953 157.459 26.466C157.459 26.7273 157.389 26.9233 157.249 27.054C157.109 27.1847 156.946 27.25 156.759 27.25C156.563 27.25 156.395 27.1847 156.255 27.054C156.115 26.9233 156.045 26.7273 156.045 26.466C156.045 26.1953 156.115 25.9993 156.255 25.878C156.395 25.7473 156.563 25.682 156.759 25.682ZM161.997 35.132C162.174 35.132 162.356 35.118 162.543 35.09C162.729 35.0527 162.883 35.0153 163.005 34.978V35.916C162.874 35.9813 162.687 36.0327 162.445 36.07C162.211 36.1167 161.987 36.14 161.773 36.14C161.399 36.14 161.054 36.0747 160.737 35.944C160.419 35.804 160.163 35.566 159.967 35.23C159.78 34.894 159.687 34.4227 159.687 33.816V29.448H158.693V28.86L159.715 28.37L160.177 26.774H160.905V28.496H162.949V29.448H160.905V33.788C160.905 34.2453 161.007 34.586 161.213 34.81C161.418 35.0247 161.679 35.132 161.997 35.132ZM163.309 28.496H164.625L166.123 32.766C166.216 33.018 166.3 33.2607 166.375 33.494C166.45 33.7273 166.515 33.956 166.571 34.18C166.627 34.3947 166.669 34.6047 166.697 34.81H166.739C166.795 34.5767 166.874 34.2733 166.977 33.9C167.089 33.5173 167.206 33.1347 167.327 32.752L168.741 28.496H170.071L167.033 37.036C166.865 37.5027 166.664 37.9087 166.431 38.254C166.207 38.6087 165.932 38.8793 165.605 39.066C165.278 39.262 164.886 39.36 164.429 39.36C164.224 39.36 164.037 39.346 163.869 39.318C163.71 39.2993 163.575 39.276 163.463 39.248V38.268C163.556 38.2867 163.673 38.3053 163.813 38.324C163.953 38.3427 164.098 38.352 164.247 38.352C164.518 38.352 164.751 38.296 164.947 38.184C165.143 38.0813 165.311 37.9273 165.451 37.722C165.591 37.526 165.708 37.2927 165.801 37.022L166.151 36.028L163.309 28.496ZM174.768 36V26.004H176.014V34.88H180.102V36H174.768ZM184.289 28.356C184.896 28.356 185.419 28.496 185.857 28.776C186.296 29.056 186.632 29.4527 186.865 29.966C187.108 30.47 187.229 31.0627 187.229 31.744V32.486H182.413C182.432 33.3353 182.633 33.984 183.015 34.432C183.398 34.8707 183.935 35.09 184.625 35.09C185.073 35.09 185.47 35.048 185.815 34.964C186.17 34.8707 186.534 34.74 186.907 34.572V35.65C186.543 35.818 186.184 35.9393 185.829 36.014C185.484 36.098 185.064 36.14 184.569 36.14C183.897 36.14 183.305 35.9953 182.791 35.706C182.278 35.4167 181.877 34.9873 181.587 34.418C181.298 33.8393 181.153 33.1347 181.153 32.304C181.153 31.4827 181.284 30.778 181.545 30.19C181.807 29.602 182.171 29.1493 182.637 28.832C183.113 28.5147 183.664 28.356 184.289 28.356ZM184.289 29.364C183.748 29.364 183.319 29.5553 183.001 29.938C182.684 30.3113 182.497 30.834 182.441 31.506H185.969C185.969 31.0767 185.909 30.7033 185.787 30.386C185.666 30.0687 185.479 29.8213 185.227 29.644C184.985 29.4573 184.672 29.364 184.289 29.364ZM190.305 36L187.631 28.496H188.933L190.417 32.92C190.492 33.1253 190.566 33.354 190.641 33.606C190.716 33.858 190.781 34.1007 190.837 34.334C190.902 34.558 190.944 34.7493 190.963 34.908H191.019C191.047 34.7493 191.094 34.5533 191.159 34.32C191.224 34.0867 191.294 33.844 191.369 33.592C191.453 33.34 191.528 33.116 191.593 32.92L193.077 28.496H194.379L191.691 36H190.305ZM198.235 28.356C198.841 28.356 199.364 28.496 199.803 28.776C200.241 29.056 200.577 29.4527 200.811 29.966C201.053 30.47 201.175 31.0627 201.175 31.744V32.486H196.359C196.377 33.3353 196.578 33.984 196.961 34.432C197.343 34.8707 197.88 35.09 198.571 35.09C199.019 35.09 199.415 35.048 199.761 34.964C200.115 34.8707 200.479 34.74 200.853 34.572V35.65C200.489 35.818 200.129 35.9393 199.775 36.014C199.429 36.098 199.009 36.14 198.515 36.14C197.843 36.14 197.25 35.9953 196.737 35.706C196.223 35.4167 195.822 34.9873 195.533 34.418C195.243 33.8393 195.099 33.1347 195.099 32.304C195.099 31.4827 195.229 30.778 195.491 30.19C195.752 29.602 196.116 29.1493 196.583 28.832C197.059 28.5147 197.609 28.356 198.235 28.356ZM198.235 29.364C197.693 29.364 197.264 29.5553 196.947 29.938C196.629 30.3113 196.443 30.834 196.387 31.506H199.915C199.915 31.0767 199.854 30.7033 199.733 30.386C199.611 30.0687 199.425 29.8213 199.173 29.644C198.93 29.4573 198.617 29.364 198.235 29.364ZM204.16 36H202.942V25.36H204.16V36ZM207.116 32.808C207.116 32.4533 207.148 32.15 207.214 31.898C207.279 31.6367 207.391 31.3893 207.55 31.156C207.718 30.9227 207.942 30.68 208.222 30.428C208.558 30.12 208.819 29.8633 209.006 29.658C209.192 29.4527 209.323 29.252 209.398 29.056C209.482 28.86 209.524 28.622 209.524 28.342C209.524 27.894 209.388 27.5487 209.118 27.306C208.847 27.0633 208.464 26.942 207.97 26.942C207.54 26.942 207.158 27.0027 206.822 27.124C206.486 27.236 206.164 27.3713 205.856 27.53L205.422 26.55C205.776 26.354 206.168 26.1907 206.598 26.06C207.036 25.9293 207.522 25.864 208.054 25.864C208.894 25.864 209.542 26.0833 210 26.522C210.457 26.9607 210.686 27.558 210.686 28.314C210.686 28.734 210.62 29.0933 210.49 29.392C210.359 29.6813 210.177 29.9473 209.944 30.19C209.72 30.4327 209.449 30.6987 209.132 30.988C208.842 31.2493 208.623 31.478 208.474 31.674C208.324 31.87 208.222 32.066 208.166 32.262C208.119 32.4487 208.096 32.6773 208.096 32.948V33.186H207.116V32.808ZM206.808 35.244C206.808 34.8987 206.887 34.656 207.046 34.516C207.214 34.376 207.419 34.306 207.662 34.306C207.876 34.306 208.068 34.376 208.236 34.516C208.404 34.656 208.488 34.8987 208.488 35.244C208.488 35.58 208.404 35.8227 208.236 35.972C208.068 36.1213 207.876 36.196 207.662 36.196C207.419 36.196 207.214 36.1213 207.046 35.972C206.887 35.8227 206.808 35.58 206.808 35.244Z" fill="black"/>
</svg>
