<svg width="398" height="225" viewBox="0 0 398 225" fill="none" xmlns="http://www.w3.org/2000/svg">
<path d="M323.539 208.842H303.402V208.994H323.539V208.842Z" fill="#EBEBEB"/>
<path d="M251.382 210.496H246.099V210.648H251.382V210.496Z" fill="#EBEBEB"/>
<path d="M302.794 203.2H291.127V203.352H302.794V203.2Z" fill="#EBEBEB"/>
<path d="M108.155 204.221H81.8955V204.373H108.155V204.221Z" fill="#EBEBEB"/>
<path d="M117.421 204.221H113.572V204.373H117.421V204.221Z" fill="#EBEBEB"/>
<path d="M186.891 206.787H129.934V206.939H186.891V206.787Z" fill="#EBEBEB"/>
<path d="M194.096 171.942H76.7031C75.7824 171.942 74.8993 171.577 74.2483 170.926C73.5972 170.275 73.2314 169.391 73.2314 168.471V3.44131C73.2395 2.52584 73.6088 1.6506 74.259 1.00609C74.9092 0.361585 75.7876 -4.57979e-06 76.7031 3.05201e-05H194.096C195.017 3.05201e-05 195.9 0.365796 196.551 1.01686C197.202 1.66793 197.567 2.55096 197.567 3.47171V168.471C197.567 169.391 197.202 170.275 196.551 170.926C195.9 171.577 195.017 171.942 194.096 171.942ZM76.7031 0.121631C75.8232 0.123238 74.9797 0.473505 74.3575 1.09572C73.7353 1.71793 73.3851 2.56137 73.3834 3.44131V168.471C73.3851 169.351 73.7353 170.194 74.3575 170.816C74.9797 171.439 75.8232 171.789 76.7031 171.79H194.096C194.976 171.789 195.819 171.439 196.441 170.816C197.064 170.194 197.414 169.351 197.415 168.471V3.44131C197.414 2.56137 197.064 1.71793 196.441 1.09572C195.819 0.473505 194.976 0.123238 194.096 0.121631H76.7031Z" fill="#EBEBEB"/>
<path d="M325.613 171.942H208.208C207.288 171.941 206.406 171.575 205.755 170.924C205.104 170.273 204.738 169.391 204.736 168.471V3.44131C204.746 2.52634 205.116 1.65201 205.766 1.00785C206.415 0.363681 207.293 0.00157988 208.208 3.05176e-05H325.613C326.526 0.00319485 327.402 0.366198 328.049 1.01036C328.697 1.65452 329.064 2.52794 329.072 3.44131V168.471C329.072 169.389 328.708 170.271 328.06 170.921C327.411 171.572 326.531 171.939 325.613 171.942ZM208.208 0.121631C207.328 0.123238 206.485 0.473505 205.862 1.09572C205.24 1.71793 204.89 2.56137 204.888 3.44131V168.471C204.89 169.351 205.24 170.194 205.862 170.816C206.485 171.439 207.328 171.789 208.208 171.79H325.613C326.493 171.789 327.336 171.439 327.958 170.816C328.581 170.194 328.931 169.351 328.932 168.471V3.44131C328.931 2.56137 328.581 1.71793 327.958 1.09572C327.336 0.473505 326.493 0.123238 325.613 0.121631H208.208Z" fill="#EBEBEB"/>
<path d="M354 199.059H50V199.211H354V199.059Z" fill="#EBEBEB"/>
<path d="M239.477 26.9102C239.477 26.9102 259.541 29.1719 257.523 23.5175C255.985 19.1703 253.127 23.2257 251.747 22.7575C250.531 22.3441 251.011 19.2919 247.722 19.6385C244.433 19.985 245.643 23.2074 244.591 24.0647C243.539 24.922 239.35 22.7575 239.477 26.9102Z" fill="#FAFAFA"/>
<path d="M313.683 148.96H89.0455C88.6162 148.961 88.191 148.877 87.7941 148.713C87.3973 148.55 87.0367 148.309 86.7328 148.006C86.429 147.703 86.188 147.342 86.0235 146.946C85.8591 146.549 85.7744 146.124 85.7744 145.695C85.7744 144.828 86.119 143.996 86.7325 143.382C87.3459 142.769 88.1779 142.424 89.0455 142.424H313.683C314.551 142.424 315.383 142.769 315.996 143.382C316.61 143.996 316.954 144.828 316.954 145.695C316.954 146.124 316.87 146.549 316.705 146.946C316.541 147.342 316.3 147.703 315.996 148.006C315.692 148.309 315.331 148.55 314.935 148.713C314.538 148.877 314.113 148.961 313.683 148.96Z" fill="#E6E6E6"/>
<path d="M102.957 153.131C102.343 153.129 101.755 152.885 101.321 152.451C100.887 152.017 100.642 151.428 100.641 150.814V144.826H105.274V150.814C105.274 151.429 105.03 152.018 104.595 152.452C104.161 152.887 103.571 153.131 102.957 153.131Z" fill="#F0F0F0"/>
<path d="M150.988 153.131C150.374 153.129 149.786 152.885 149.352 152.451C148.918 152.017 148.673 151.428 148.672 150.814V144.826H153.305V150.814C153.303 151.428 153.059 152.017 152.625 152.451C152.191 152.885 151.602 153.129 150.988 153.131Z" fill="#F0F0F0"/>
<path d="M196.704 144.826H201.337V150.784C201.337 151.398 201.093 151.988 200.659 152.422C200.224 152.856 199.635 153.1 199.021 153.1C198.406 153.1 197.817 152.856 197.383 152.422C196.948 151.988 196.704 151.398 196.704 150.784V144.826Z" fill="#F0F0F0"/>
<path d="M247.053 153.131C246.438 153.131 245.849 152.887 245.415 152.452C244.98 152.018 244.736 151.429 244.736 150.814V144.826H249.363V150.814C249.363 151.428 249.12 152.016 248.687 152.45C248.254 152.884 247.666 153.129 247.053 153.131Z" fill="#F0F0F0"/>
<path d="M295.079 153.131C294.466 153.129 293.878 152.884 293.445 152.45C293.012 152.016 292.769 151.428 292.769 150.814V144.826H297.395V150.814C297.395 151.429 297.151 152.018 296.717 152.452C296.283 152.887 295.693 153.131 295.079 153.131Z" fill="#F0F0F0"/>
<path d="M313.683 147.136H89.0455C88.6162 147.137 88.191 147.053 87.7941 146.889C87.3973 146.725 87.0367 146.485 86.7328 146.182C86.429 145.879 86.188 145.518 86.0235 145.122C85.8591 144.725 85.7744 144.3 85.7744 143.871C85.7744 143.004 86.119 142.172 86.7325 141.558C87.3459 140.945 88.1779 140.6 89.0455 140.6H313.683C314.551 140.6 315.383 140.945 315.996 141.558C316.61 142.172 316.954 143.004 316.954 143.871C316.954 144.3 316.87 144.725 316.705 145.122C316.541 145.518 316.3 145.879 315.996 146.182C315.692 146.485 315.331 146.725 314.935 146.889C314.538 147.053 314.113 147.137 313.683 147.136Z" fill="#F5F5F5"/>
<path d="M302.223 32.595H249.017V133.912H302.223V32.595Z" fill="#F0F0F0"/>
<path d="M252.665 34.4189H250.841V132.088H252.665V34.4189Z" fill="#E0E0E0"/>
<path d="M302.223 63.2929V45.0285L249.017 93.5956V111.866L302.223 63.2929Z" fill="#FAFAFA"/>
<path d="M249.017 77.8667L298.605 32.595H294.598L249.017 74.2065V77.8667Z" fill="#FAFAFA"/>
<path d="M302.222 101.633V97.9732L262.854 133.912H266.867L302.222 101.633Z" fill="#FAFAFA"/>
<path d="M302.223 77.2404V70.5402L249.017 119.113V125.813L302.223 77.2404Z" fill="#FAFAFA"/>
<path d="M304.046 135.736H247.192V30.771H304.046V135.736ZM250.84 132.088H300.398V34.419H250.84V132.088Z" fill="#EBEBEB"/>
<path d="M119.312 54.489H134.755C137.658 54.489 140.442 55.642 142.494 57.6944C144.546 59.7468 145.699 62.5304 145.699 65.433V149.446C145.699 150.807 145.159 152.113 144.196 153.075C143.234 154.037 141.929 154.578 140.568 154.578H113.524C112.848 154.581 112.178 154.451 111.553 154.194C110.927 153.938 110.359 153.56 109.88 153.084C109.401 152.607 109.02 152.04 108.761 151.416C108.502 150.792 108.368 150.122 108.368 149.446V65.4147C108.368 62.5122 109.521 59.7286 111.574 57.6762C113.626 55.6238 116.41 54.4707 119.312 54.4707V54.489Z" fill="#F0F0F0"/>
<path d="M113.524 154.578H140.556C141.917 154.578 143.222 154.037 144.184 153.075C145.147 152.113 145.687 150.807 145.687 149.446V133.03C145.688 133.63 145.571 134.223 145.342 134.777C145.113 135.331 144.777 135.835 144.354 136.259C143.93 136.683 143.427 137.019 142.874 137.249C142.32 137.478 141.727 137.597 141.127 137.597H112.959C112.358 137.6 111.764 137.485 111.208 137.258C110.652 137.031 110.147 136.697 109.721 136.274C109.294 135.852 108.955 135.35 108.723 134.796C108.491 134.243 108.371 133.649 108.368 133.049V149.465C108.371 150.139 108.506 150.806 108.766 151.429C109.027 152.051 109.407 152.615 109.886 153.09C110.365 153.565 110.933 153.941 111.557 154.196C112.181 154.451 112.85 154.581 113.524 154.578Z" fill="#E0E0E0"/>
<path d="M145.687 71.4279H108.393V75.3373H145.687V71.4279Z" fill="#E0E0E0"/>
<path d="M108.368 65.4147V67.3238H145.663V65.4147C145.66 64.7414 145.595 64.0697 145.468 63.4083H108.587C108.452 64.0689 108.379 64.7406 108.368 65.4147Z" fill="#E0E0E0"/>
<path d="M127.039 30.7101C126.298 30.7113 125.574 30.4927 124.957 30.0819C124.34 29.6711 123.859 29.0865 123.575 28.4023C123.291 27.718 123.215 26.9648 123.359 26.2379C123.503 25.511 123.859 24.8431 124.383 24.3187C124.906 23.7943 125.574 23.437 126.3 23.292C127.027 23.1469 127.78 23.2208 128.465 23.5041C129.15 23.7873 129.735 24.2674 130.147 24.8834C130.559 25.4995 130.779 26.2238 130.779 26.9648C130.779 27.9571 130.385 28.9088 129.684 29.611C128.983 30.3132 128.032 30.7085 127.039 30.7101ZM127.039 25.2381C126.694 25.2381 126.356 25.3406 126.069 25.5326C125.782 25.7246 125.559 25.9975 125.427 26.3167C125.295 26.6359 125.261 26.9871 125.328 27.3257C125.396 27.6644 125.563 27.9753 125.808 28.2191C126.052 28.4629 126.364 28.6286 126.703 28.6952C127.042 28.7619 127.393 28.7264 127.711 28.5934C128.03 28.4604 128.302 28.2358 128.493 27.9481C128.684 27.6603 128.786 27.3224 128.784 26.977C128.786 26.7471 128.742 26.5192 128.655 26.3064C128.568 26.0936 128.44 25.9002 128.277 25.7374C128.115 25.5745 127.922 25.4455 127.71 25.3577C127.497 25.2699 127.269 25.2251 127.039 25.2259V25.2381Z" fill="#E0E0E0"/>
<path d="M127.04 63.4083C126.909 63.4091 126.779 63.3839 126.658 63.3341C126.536 63.2842 126.426 63.2108 126.333 63.1181C126.24 63.0253 126.167 62.9151 126.117 62.7937C126.067 62.6724 126.042 62.5424 126.043 62.4112V29.7069H128.037V62.4112C128.038 62.5424 128.013 62.6724 127.963 62.7937C127.913 62.9151 127.84 63.0253 127.747 63.1181C127.654 63.2108 127.544 63.2842 127.423 63.3341C127.301 63.3839 127.171 63.4091 127.04 63.4083Z" fill="#E0E0E0"/>
<path d="M144.155 62.9706L127.38 29.8528L129.161 28.9469L145.936 62.0708C146.054 62.307 146.074 62.5806 145.991 62.8314C145.908 63.0822 145.728 63.2897 145.492 63.4084C145.376 63.468 145.249 63.504 145.118 63.5143C144.988 63.5245 144.857 63.5089 144.732 63.4682C144.608 63.4275 144.493 63.3625 144.394 63.2771C144.295 63.1917 144.213 63.0876 144.155 62.9706Z" fill="#E0E0E0"/>
<path d="M108.587 63.4084C108.47 63.3498 108.366 63.2685 108.28 63.1694C108.195 63.0702 108.13 62.9552 108.089 62.8308C108.048 62.7065 108.033 62.5753 108.043 62.4448C108.053 62.3144 108.089 62.1873 108.149 62.0708L124.918 28.9531L126.699 29.8529L109.93 62.9707C109.871 63.0878 109.789 63.1921 109.69 63.2776C109.59 63.3631 109.474 63.428 109.35 63.4687C109.225 63.5094 109.093 63.525 108.962 63.5146C108.831 63.5043 108.704 63.4682 108.587 63.4084Z" fill="#E0E0E0"/>
<path d="M127.04 25.834C126.798 25.834 126.566 25.7379 126.395 25.5669C126.224 25.3958 126.128 25.1639 126.128 24.922V0.40744H127.952V24.9281C127.95 25.1689 127.854 25.3993 127.683 25.569C127.512 25.7388 127.281 25.834 127.04 25.834Z" fill="#EBEBEB"/>
<path d="M199 224.151C308.905 224.151 398 221.017 398 217.151C398 213.285 308.905 210.151 199 210.151C89.0953 210.151 0 213.285 0 217.151C0 221.017 89.0953 224.151 199 224.151Z" fill="#F5F5F5"/>
<path d="M272.321 209.827H270.953C270.699 209.827 270.447 209.776 270.212 209.679C269.977 209.581 269.763 209.438 269.584 209.258C269.404 209.078 269.262 208.864 269.165 208.629C269.068 208.394 269.019 208.142 269.02 207.887C269.02 207.374 269.223 206.883 269.586 206.52C269.948 206.157 270.44 205.954 270.953 205.954H272.321V209.827Z" fill="#F96118"/>
<path d="M303.749 205.954H282.226V209.827H303.749V205.954Z" fill="#F96118"/>
<path d="M313.653 205.954H315.015C315.27 205.953 315.522 206.002 315.757 206.099C315.992 206.196 316.206 206.338 316.386 206.518C316.566 206.697 316.709 206.911 316.807 207.146C316.905 207.381 316.955 207.633 316.955 207.887C316.955 208.402 316.75 208.895 316.387 209.259C316.023 209.622 315.53 209.827 315.015 209.827H313.653V205.954Z" fill="#F96118"/>
<path d="M278.924 201.053H275.622V214.715H278.924V201.053Z" fill="#263238"/>
<path d="M275.623 203.339H272.321V212.435H275.623V203.339Z" fill="#263238"/>
<path d="M282.225 198.767H278.924V217.001H282.225V198.767Z" fill="#263238"/>
<path d="M307.044 214.721H310.346V201.059H307.044V214.721Z" fill="#263238"/>
<path opacity="0.2" d="M278.924 201.053H275.622V214.715H278.924V201.053Z" fill="white"/>
<path opacity="0.2" d="M307.044 214.721H310.346V201.059H307.044V214.721Z" fill="white"/>
<path d="M310.345 212.435H313.646V203.339H310.345V212.435Z" fill="#263238"/>
<path opacity="0.4" d="M275.623 203.339H272.321V212.435H275.623V203.339Z" fill="white"/>
<path opacity="0.4" d="M310.345 212.435H313.646V203.339H310.345V212.435Z" fill="white"/>
<path d="M303.743 217.007H307.044V198.773H303.743V217.007Z" fill="#263238"/>
<path d="M275.623 191.818H274.255C273.742 191.818 273.25 191.614 272.888 191.251C272.525 190.889 272.321 190.397 272.321 189.884C272.32 189.63 272.37 189.378 272.467 189.143C272.564 188.907 272.706 188.693 272.885 188.513C273.065 188.333 273.278 188.19 273.513 188.093C273.748 187.995 274 187.945 274.255 187.945H275.623V191.818Z" fill="#F96118"/>
<path d="M303.749 187.945H282.226V191.818H303.749V187.945Z" fill="#F96118"/>
<path d="M310.425 187.945H311.787C312.301 187.945 312.794 188.149 313.158 188.513C313.522 188.877 313.726 189.37 313.726 189.884C313.726 190.139 313.676 190.391 313.579 190.626C313.481 190.861 313.338 191.074 313.158 191.254C312.978 191.433 312.764 191.576 312.528 191.672C312.293 191.769 312.041 191.819 311.787 191.818H310.425V187.945Z" fill="#F96118"/>
<path d="M278.924 183.05H275.622V196.712H278.924V183.05Z" fill="#263238"/>
<path d="M282.225 180.764H278.924V198.998H282.225V180.764Z" fill="#263238"/>
<path d="M307.044 196.718H310.346V183.056H307.044V196.718Z" fill="#263238"/>
<path opacity="0.4" d="M278.924 183.05H275.622V196.712H278.924V183.05Z" fill="white"/>
<path opacity="0.4" d="M307.044 196.718H310.346V183.056H307.044V196.718Z" fill="white"/>
<path d="M303.743 199.004H307.044V180.77H303.743V199.004Z" fill="#263238"/>
<path opacity="0.2" d="M282.225 180.764H278.924V198.998H282.225V180.764Z" fill="white"/>
<path opacity="0.2" d="M303.743 199.004H307.044V180.77H303.743V199.004Z" fill="white"/>
<path d="M278.924 173.815H277.556C277.302 173.815 277.05 173.765 276.816 173.668C276.581 173.57 276.368 173.428 276.188 173.249C276.009 173.069 275.866 172.856 275.769 172.621C275.672 172.387 275.622 172.135 275.622 171.881C275.621 171.627 275.671 171.375 275.768 171.14C275.864 170.904 276.007 170.69 276.186 170.51C276.366 170.33 276.579 170.187 276.814 170.09C277.049 169.992 277.301 169.942 277.556 169.942H278.924V173.815Z" fill="#F96118"/>
<path d="M303.749 169.942H282.226V173.815H303.749V169.942Z" fill="#F96118"/>
<path d="M307.05 169.942H308.4C308.914 169.942 309.408 170.146 309.771 170.51C310.135 170.874 310.34 171.367 310.34 171.881C310.34 172.136 310.289 172.388 310.192 172.623C310.094 172.858 309.951 173.071 309.771 173.251C309.591 173.43 309.377 173.573 309.142 173.669C308.906 173.766 308.654 173.816 308.4 173.815H307.038L307.05 169.942Z" fill="#F96118"/>
<path d="M282.225 162.761H278.924V180.995H282.225V162.761Z" fill="#263238"/>
<path d="M303.743 181.001H307.044V162.767H303.743V181.001Z" fill="#263238"/>
<path opacity="0.4" d="M282.225 162.761H278.924V180.995H282.225V162.761Z" fill="white"/>
<path opacity="0.4" d="M303.743 181.001H307.044V162.767H303.743V181.001Z" fill="white"/>
<path d="M246.81 154.602C242.134 154.602 238.298 149.404 238.298 147.72C238.298 145.288 243.642 144.607 246.81 144.607C249.978 144.607 255.322 145.263 255.322 147.72C255.316 149.404 251.491 154.602 246.81 154.602ZM239.952 147.744C240.037 148.625 243.058 152.961 246.81 152.961C250.561 152.961 253.577 148.625 253.68 147.744C253.474 147.312 251.194 146.266 246.822 146.266C242.45 146.266 240.158 147.3 239.952 147.744Z" fill="#F96118"/>
<g opacity="0.4">
<path d="M246.81 154.602C242.134 154.602 238.298 149.404 238.298 147.72C238.298 145.288 243.642 144.607 246.81 144.607C249.978 144.607 255.322 145.263 255.322 147.72C255.316 149.404 251.491 154.602 246.81 154.602ZM239.952 147.744C240.037 148.625 243.058 152.961 246.81 152.961C250.561 152.961 253.577 148.625 253.68 147.744C253.474 147.312 251.194 146.266 246.822 146.266C242.45 146.266 240.158 147.3 239.952 147.744Z" fill="black"/>
</g>
<path d="M246.81 144.333C245.064 144.3 243.32 144.481 241.618 144.874C241.337 144.947 241.096 145.128 240.947 145.377C240.798 145.626 240.753 145.924 240.821 146.206C240.855 146.348 240.917 146.482 241.004 146.599C241.09 146.717 241.198 146.817 241.323 146.893C241.448 146.969 241.587 147.019 241.731 147.041C241.876 147.063 242.023 147.056 242.165 147.02C243.688 146.67 245.247 146.502 246.81 146.522C248.375 146.5 249.937 146.67 251.461 147.026C251.609 147.062 251.762 147.067 251.912 147.041C252.061 147.015 252.204 146.959 252.331 146.876C252.458 146.792 252.567 146.684 252.65 146.557C252.734 146.431 252.791 146.288 252.817 146.139C252.867 145.863 252.811 145.579 252.66 145.343C252.509 145.107 252.274 144.937 252.002 144.868C250.3 144.477 248.556 144.297 246.81 144.333Z" fill="#263238"/>
<path d="M244.323 165.771H249.296C251.079 165.18 252.593 163.974 253.567 162.368C254.541 160.763 254.912 158.863 254.612 157.009C254.313 155.155 253.363 153.468 251.934 152.251C250.504 151.033 248.687 150.364 246.809 150.364C244.931 150.364 243.115 151.033 241.685 152.251C240.255 153.468 239.306 155.155 239.006 157.009C238.707 158.863 239.078 160.763 240.052 162.368C241.026 163.974 242.54 165.18 244.323 165.771Z" fill="#263238"/>
<path opacity="0.9" d="M250.178 156.779C250.178 157.445 249.98 158.096 249.61 158.65C249.24 159.204 248.714 159.636 248.099 159.891C247.483 160.146 246.806 160.212 246.153 160.082C245.499 159.952 244.899 159.632 244.428 159.161C243.957 158.689 243.636 158.089 243.506 157.436C243.376 156.783 243.443 156.105 243.698 155.49C243.953 154.874 244.384 154.348 244.938 153.978C245.492 153.608 246.144 153.41 246.81 153.41C247.252 153.41 247.69 153.498 248.099 153.667C248.507 153.836 248.879 154.084 249.191 154.397C249.504 154.71 249.752 155.081 249.922 155.49C250.091 155.898 250.178 156.336 250.178 156.779Z" fill="white"/>
<path d="M263.548 162.196H256.385C255.283 162.198 254.226 162.636 253.446 163.416C252.667 164.195 252.228 165.252 252.227 166.355V217.317H254.111V166.355C254.113 165.752 254.353 165.175 254.779 164.749C255.205 164.322 255.783 164.082 256.385 164.081H263.548C264.15 164.082 264.728 164.322 265.154 164.749C265.58 165.175 265.82 165.752 265.821 166.355V217.317H267.706V166.355C267.705 165.252 267.266 164.195 266.486 163.416C265.707 162.636 264.65 162.198 263.548 162.196Z" fill="#F96118"/>
<path d="M268.205 165.485H220.678V167.656H268.205V165.485Z" fill="#263238"/>
<path opacity="0.5" d="M268.266 167.066H222.191V169.17H268.266V167.066Z" fill="white"/>
<path opacity="0.5" d="M237.161 165.485H220.678V167.656H237.161V165.485Z" fill="black"/>
<path d="M268.205 200.81H220.678V202.981H268.205V200.81Z" fill="#263238"/>
<path opacity="0.5" d="M268.266 201.315H222.191V203.418H268.266V201.315Z" fill="white"/>
<path opacity="0.5" d="M237.161 200.81H220.678V202.981H237.161V200.81Z" fill="black"/>
<path d="M232.504 162.196H225.341C224.239 162.198 223.182 162.636 222.402 163.416C221.623 164.195 221.184 165.252 221.183 166.355V217.317H223.067V166.355C223.069 165.752 223.309 165.175 223.735 164.749C224.161 164.322 224.739 164.082 225.341 164.081H232.504C233.106 164.082 233.684 164.322 234.11 164.749C234.536 165.175 234.776 165.752 234.778 166.355V217.317H236.656V166.355C236.655 165.253 236.217 164.197 235.439 163.418C234.66 162.639 233.605 162.199 232.504 162.196Z" fill="#F96118"/>
<path d="M246.809 187.604C241.216 187.604 236.644 181.385 236.644 179.372C236.644 176.435 243.034 175.651 246.809 175.651C250.585 175.651 256.981 176.435 256.981 179.372C256.981 181.385 252.403 187.604 246.809 187.604ZM238.613 179.39C238.711 180.448 242.322 185.634 246.809 185.634C251.296 185.634 254.902 180.46 255.011 179.39C254.762 178.873 252.038 177.621 246.809 177.621C241.581 177.621 238.857 178.873 238.613 179.39Z" fill="#F96118"/>
<g opacity="0.4">
<path d="M246.809 187.604C241.216 187.604 236.644 181.385 236.644 179.372C236.644 176.435 243.034 175.651 246.809 175.651C250.585 175.651 256.981 176.435 256.981 179.372C256.981 181.385 252.403 187.604 246.809 187.604ZM238.613 179.39C238.711 180.448 242.322 185.634 246.809 185.634C251.296 185.634 254.902 180.46 255.011 179.39C254.762 178.873 252.038 177.621 246.809 177.621C241.581 177.621 238.857 178.873 238.613 179.39Z" fill="black"/>
</g>
<path d="M246.81 175.323C244.722 175.284 242.637 175.5 240.602 175.967C240.265 176.056 239.977 176.273 239.799 176.572C239.62 176.871 239.566 177.228 239.647 177.566C239.687 177.737 239.761 177.897 239.863 178.039C239.966 178.181 240.096 178.301 240.245 178.392C240.394 178.483 240.56 178.543 240.733 178.57C240.906 178.596 241.083 178.588 241.252 178.545C243.074 178.121 244.94 177.917 246.81 177.937C248.682 177.914 250.55 178.118 252.373 178.545C252.549 178.588 252.732 178.594 252.911 178.563C253.09 178.533 253.261 178.466 253.413 178.367C253.565 178.267 253.695 178.138 253.795 177.987C253.896 177.836 253.964 177.666 253.996 177.487C254.054 177.156 253.986 176.816 253.805 176.533C253.623 176.25 253.342 176.046 253.017 175.961C250.982 175.496 248.897 175.282 246.81 175.323Z" fill="#263238"/>
<path d="M243.836 200.962H249.782C251.91 200.256 253.716 198.815 254.878 196.898C256.04 194.982 256.482 192.714 256.124 190.501C255.767 188.288 254.633 186.275 252.926 184.821C251.219 183.368 249.051 182.57 246.809 182.57C244.568 182.57 242.399 183.368 240.692 184.821C238.986 186.275 237.852 188.288 237.494 190.501C237.136 192.714 237.578 194.982 238.74 196.898C239.902 198.815 241.709 200.256 243.836 200.962Z" fill="#263238"/>
<path opacity="0.9" d="M250.84 190.207C250.84 191.004 250.604 191.783 250.161 192.446C249.718 193.109 249.089 193.626 248.352 193.931C247.615 194.236 246.805 194.316 246.023 194.16C245.241 194.005 244.523 193.621 243.959 193.057C243.395 192.493 243.011 191.775 242.856 190.993C242.7 190.211 242.78 189.401 243.085 188.664C243.39 187.927 243.907 187.298 244.57 186.855C245.233 186.412 246.012 186.176 246.809 186.176C247.878 186.176 248.904 186.6 249.66 187.356C250.416 188.112 250.84 189.137 250.84 190.207Z" fill="white"/>
<path d="M149.84 217.007H141.541C140.608 217.006 139.685 216.818 138.827 216.455C137.968 216.092 137.19 215.561 136.539 214.893C135.888 214.226 135.377 213.434 135.037 212.566C134.696 211.698 134.532 210.771 134.555 209.839L135.363 178.563C135.4 176.738 136.153 175.001 137.461 173.727C138.768 172.453 140.524 171.744 142.349 171.754H144.447C146.093 171.75 147.687 172.328 148.948 173.386C150.209 174.444 151.054 175.914 151.336 177.536L156.729 208.811C156.901 209.815 156.853 210.844 156.586 211.827C156.319 212.81 155.841 213.723 155.185 214.502C154.529 215.281 153.711 215.907 152.788 216.336C151.864 216.766 150.858 216.989 149.84 216.989V217.007ZM142.349 173.639C141.015 173.63 139.732 174.147 138.776 175.078C137.82 176.009 137.269 177.278 137.242 178.612L136.434 209.888C136.416 210.569 136.536 211.247 136.785 211.881C137.034 212.516 137.408 213.094 137.883 213.582C138.359 214.07 138.928 214.457 139.556 214.722C140.184 214.986 140.859 215.123 141.541 215.122H149.84C150.584 215.123 151.319 214.96 151.993 214.647C152.668 214.333 153.265 213.876 153.745 213.307C154.224 212.739 154.574 212.072 154.769 211.355C154.964 210.637 155 209.885 154.874 209.152L149.481 177.876C149.282 176.686 148.667 175.604 147.745 174.825C146.823 174.045 145.654 173.618 144.447 173.62L142.349 173.639Z" fill="black"/>
<path d="M152.91 186.431H82.6377V188.601H152.91V186.431Z" fill="#263238"/>
<path opacity="0.5" d="M152.91 186.431H82.6377V188.601H152.91V186.431Z" fill="white"/>
<path opacity="0.5" d="M99.1206 186.431H82.6377V188.601H99.1206V186.431Z" fill="black"/>
<path d="M156.516 209.298H82.6377V211.468H156.516V209.298Z" fill="#263238"/>
<path opacity="0.5" d="M156.516 209.298H82.6377V211.468H156.516V209.298Z" fill="white"/>
<path opacity="0.5" d="M102.519 209.298H82.6377V211.468H102.519V209.298Z" fill="black"/>
<path d="M134.196 180.235L132.469 177.238C132.269 176.891 131.981 176.603 131.634 176.402C131.287 176.202 130.894 176.096 130.493 176.095H123.568C123.166 176.095 122.772 176.2 122.424 176.401C122.076 176.601 121.787 176.89 121.586 177.238L119.859 180.235C119.659 180.582 119.554 180.975 119.554 181.375C119.554 181.776 119.659 182.169 119.859 182.515L121.586 185.513C121.787 185.861 122.076 186.15 122.424 186.35C122.772 186.551 123.166 186.656 123.568 186.656H130.469C130.869 186.655 131.263 186.549 131.61 186.349C131.956 186.148 132.244 185.86 132.445 185.513L134.171 182.515C134.375 182.171 134.485 181.779 134.489 181.379C134.493 180.978 134.392 180.584 134.196 180.235Z" fill="#F96118"/>
<path opacity="0.1" d="M134.196 180.235L132.469 177.238C132.269 176.891 131.981 176.603 131.634 176.402C131.287 176.202 130.894 176.096 130.493 176.095H123.568C123.166 176.095 122.772 176.2 122.424 176.401C122.076 176.601 121.787 176.89 121.586 177.238L119.859 180.235C119.659 180.582 119.554 180.975 119.554 181.375C119.554 181.776 119.659 182.169 119.859 182.515L121.586 185.513C121.787 185.861 122.076 186.15 122.424 186.35C122.772 186.551 123.166 186.656 123.568 186.656H130.469C130.869 186.655 131.263 186.549 131.61 186.349C131.956 186.148 132.244 185.86 132.445 185.513L134.171 182.515C134.375 182.171 134.485 181.779 134.489 181.379C134.493 180.978 134.392 180.584 134.196 180.235Z" fill="black"/>
<path opacity="0.2" d="M130.494 176.095H127.034C126.634 176.096 126.24 176.202 125.894 176.402C125.547 176.603 125.259 176.891 125.058 177.238L123.332 180.235C123.129 180.581 123.021 180.975 123.021 181.375C123.021 181.776 123.129 182.17 123.332 182.515L125.058 185.513C125.259 185.86 125.547 186.148 125.894 186.349C126.24 186.549 126.634 186.655 127.034 186.656H130.494C130.895 186.655 131.288 186.549 131.635 186.349C131.982 186.148 132.27 185.86 132.47 185.513L134.197 182.515C134.397 182.169 134.502 181.776 134.502 181.375C134.502 180.975 134.397 180.582 134.197 180.235L132.47 177.238C132.27 176.891 131.982 176.603 131.635 176.402C131.288 176.202 130.895 176.096 130.494 176.095Z" fill="black"/>
<path d="M143.784 181.378C143.784 182.801 140.403 183.956 136.239 183.956C132.074 183.956 128.693 182.801 128.693 181.378C128.693 179.956 132.074 178.794 136.239 178.794C140.403 178.794 143.784 179.968 143.784 181.378Z" fill="#F96118"/>
<path opacity="0.1" d="M143.784 181.378C143.784 182.801 140.403 183.956 136.239 183.956C132.074 183.956 128.693 182.801 128.693 181.378C128.693 179.956 132.074 178.794 136.239 178.794C140.403 178.794 143.784 179.968 143.784 181.378Z" fill="black"/>
<path d="M153.397 180.235L151.67 177.238C151.47 176.891 151.182 176.603 150.835 176.402C150.488 176.202 150.095 176.096 149.694 176.095H142.787C142.387 176.096 141.993 176.202 141.647 176.402C141.3 176.603 141.012 176.891 140.811 177.238L139.085 180.235C138.885 180.582 138.779 180.975 138.779 181.375C138.779 181.776 138.885 182.169 139.085 182.515L140.811 185.513C141.012 185.86 141.3 186.148 141.647 186.349C141.993 186.549 142.387 186.655 142.787 186.656H149.713C150.113 186.655 150.507 186.549 150.853 186.349C151.2 186.148 151.488 185.86 151.689 185.513L153.415 182.515C153.613 182.167 153.715 181.773 153.712 181.373C153.708 180.973 153.6 180.58 153.397 180.235Z" fill="#F96118"/>
<path opacity="0.1" d="M153.397 180.235L151.67 177.238C151.47 176.891 151.182 176.603 150.835 176.402C150.488 176.202 150.095 176.096 149.694 176.095H142.787C142.387 176.096 141.993 176.202 141.647 176.402C141.3 176.603 141.012 176.891 140.811 177.238L139.085 180.235C138.885 180.582 138.779 180.975 138.779 181.375C138.779 181.776 138.885 182.169 139.085 182.515L140.811 185.513C141.012 185.86 141.3 186.148 141.647 186.349C141.993 186.549 142.387 186.655 142.787 186.656H149.713C150.113 186.655 150.507 186.549 150.853 186.349C151.2 186.148 151.488 185.86 151.689 185.513L153.415 182.515C153.613 182.167 153.715 181.773 153.712 181.373C153.708 180.973 153.6 180.58 153.397 180.235Z" fill="black"/>
<path d="M149.712 176.095H146.253C145.852 176.096 145.458 176.202 145.112 176.402C144.765 176.603 144.477 176.891 144.277 177.238L142.544 180.235C142.344 180.582 142.238 180.975 142.238 181.375C142.238 181.776 142.344 182.169 142.544 182.515L144.277 185.513C144.477 185.86 144.765 186.148 145.112 186.349C145.458 186.549 145.852 186.655 146.253 186.656H149.712C150.113 186.655 150.506 186.549 150.853 186.349C151.2 186.148 151.488 185.86 151.688 185.513L153.415 182.515C153.615 182.169 153.72 181.776 153.72 181.375C153.72 180.975 153.615 180.582 153.415 180.235L151.688 177.238C151.488 176.891 151.2 176.603 150.853 176.402C150.506 176.202 150.113 176.096 149.712 176.095Z" fill="#F96118"/>
<path d="M111.706 181.518L110.32 179.123C110.159 178.845 109.929 178.615 109.652 178.455C109.374 178.295 109.059 178.211 108.739 178.211H103.218C102.897 178.209 102.581 178.293 102.302 178.453C102.023 178.613 101.792 178.844 101.631 179.123L100.251 181.518C100.091 181.796 100.007 182.11 100.007 182.43C100.007 182.75 100.091 183.065 100.251 183.342L101.631 185.738C101.791 186.017 102.022 186.249 102.301 186.411C102.58 186.572 102.896 186.657 103.218 186.656H108.739C109.06 186.655 109.375 186.57 109.653 186.409C109.93 186.248 110.16 186.016 110.32 185.738L111.706 183.342C111.866 183.065 111.95 182.75 111.95 182.43C111.95 182.11 111.866 181.796 111.706 181.518Z" fill="#F96118"/>
<path opacity="0.1" d="M111.706 181.518L110.32 179.123C110.159 178.845 109.929 178.615 109.652 178.455C109.374 178.295 109.059 178.211 108.739 178.211H103.218C102.897 178.209 102.581 178.293 102.302 178.453C102.023 178.613 101.792 178.844 101.631 179.123L100.251 181.518C100.091 181.796 100.007 182.11 100.007 182.43C100.007 182.75 100.091 183.065 100.251 183.342L101.631 185.738C101.791 186.017 102.022 186.249 102.301 186.411C102.58 186.572 102.896 186.657 103.218 186.656H108.739C109.06 186.655 109.375 186.57 109.653 186.409C109.93 186.248 110.16 186.016 110.32 185.738L111.706 183.342C111.866 183.065 111.95 182.75 111.95 182.43C111.95 182.11 111.866 181.796 111.706 181.518Z" fill="black"/>
<path opacity="0.2" d="M108.74 178.211H105.973C105.653 178.211 105.338 178.295 105.06 178.455C104.783 178.615 104.553 178.845 104.392 179.123L103.006 181.518C102.846 181.796 102.762 182.11 102.762 182.43C102.762 182.75 102.846 183.065 103.006 183.342L104.392 185.738C104.552 186.016 104.782 186.248 105.059 186.409C105.337 186.57 105.652 186.655 105.973 186.656H108.74C109.061 186.655 109.376 186.57 109.653 186.409C109.931 186.248 110.161 186.016 110.32 185.738L111.707 183.342C111.867 183.065 111.951 182.75 111.951 182.43C111.951 182.11 111.867 181.796 111.707 181.518L110.32 179.123C110.16 178.845 109.93 178.615 109.652 178.455C109.375 178.295 109.06 178.211 108.74 178.211Z" fill="black"/>
<path d="M113.335 184.497C116.67 184.497 119.373 183.572 119.373 182.43C119.373 181.289 116.67 180.363 113.335 180.363C110.001 180.363 107.298 181.289 107.298 182.43C107.298 183.572 110.001 184.497 113.335 184.497Z" fill="#F96118"/>
<path opacity="0.1" d="M113.335 184.497C116.67 184.497 119.373 183.572 119.373 182.43C119.373 181.289 116.67 180.363 113.335 180.363C110.001 180.363 107.298 181.289 107.298 182.43C107.298 183.572 110.001 184.497 113.335 184.497Z" fill="black"/>
<path d="M127.064 181.518L125.678 179.123C125.518 178.845 125.287 178.615 125.01 178.455C124.732 178.295 124.418 178.211 124.097 178.211H118.577C118.256 178.211 117.941 178.295 117.664 178.455C117.386 178.615 117.156 178.845 116.996 179.123L115.61 181.518C115.45 181.796 115.365 182.11 115.365 182.43C115.365 182.75 115.45 183.065 115.61 183.342L116.996 185.738C117.155 186.016 117.385 186.248 117.663 186.409C117.94 186.57 118.256 186.655 118.577 186.656H124.097C124.418 186.655 124.733 186.57 125.011 186.409C125.289 186.248 125.519 186.016 125.678 185.738L127.064 183.342C127.224 183.065 127.309 182.75 127.309 182.43C127.309 182.11 127.224 181.796 127.064 181.518Z" fill="#F96118"/>
<path opacity="0.1" d="M127.064 181.518L125.678 179.123C125.518 178.845 125.287 178.615 125.01 178.455C124.732 178.295 124.418 178.211 124.097 178.211H118.577C118.256 178.211 117.941 178.295 117.664 178.455C117.386 178.615 117.156 178.845 116.996 179.123L115.61 181.518C115.45 181.796 115.365 182.11 115.365 182.43C115.365 182.75 115.45 183.065 115.61 183.342L116.996 185.738C117.155 186.016 117.385 186.248 117.663 186.409C117.94 186.57 118.256 186.655 118.577 186.656H124.097C124.418 186.655 124.733 186.57 125.011 186.409C125.289 186.248 125.519 186.016 125.678 185.738L127.064 183.342C127.224 183.065 127.309 182.75 127.309 182.43C127.309 182.11 127.224 181.796 127.064 181.518Z" fill="black"/>
<path d="M124.098 178.211H121.331C121.011 178.211 120.696 178.295 120.419 178.455C120.141 178.615 119.911 178.845 119.751 179.123L118.37 181.518C118.21 181.796 118.126 182.11 118.126 182.43C118.126 182.75 118.21 183.065 118.37 183.342L119.751 185.738C119.91 186.016 120.14 186.248 120.418 186.409C120.695 186.57 121.01 186.655 121.331 186.656H124.098C124.419 186.655 124.734 186.57 125.011 186.409C125.289 186.248 125.519 186.016 125.679 185.738L127.065 183.342C127.225 183.065 127.309 182.75 127.309 182.43C127.309 182.11 127.225 181.796 127.065 181.518L125.679 179.123C125.518 178.845 125.288 178.615 125.01 178.455C124.733 178.295 124.418 178.211 124.098 178.211Z" fill="#F96118"/>
<path d="M94.8707 182.546L93.7763 180.631C93.6494 180.407 93.4655 180.221 93.2433 180.092C93.0212 179.963 92.7687 179.895 92.5117 179.895H88.0854C87.8276 179.895 87.5744 179.963 87.3513 180.092C87.1282 180.221 86.9431 180.407 86.8147 180.631L85.7082 182.546C85.5795 182.767 85.5117 183.019 85.5117 183.275C85.5117 183.532 85.5795 183.783 85.7082 184.005L86.8147 185.92C86.9431 186.144 87.1282 186.33 87.3513 186.459C87.5744 186.588 87.8276 186.656 88.0854 186.656H92.4995C92.7586 186.658 93.0136 186.591 93.2381 186.462C93.4626 186.333 93.6484 186.146 93.7763 185.92L94.8829 184.005C95.0097 183.782 95.0754 183.53 95.0733 183.274C95.0711 183.017 95.0012 182.766 94.8707 182.546Z" fill="#F96118"/>
<path opacity="0.1" d="M94.8707 182.546L93.7763 180.631C93.6494 180.407 93.4655 180.221 93.2433 180.092C93.0212 179.963 92.7687 179.895 92.5117 179.895H88.0854C87.8276 179.895 87.5744 179.963 87.3513 180.092C87.1282 180.221 86.9431 180.407 86.8147 180.631L85.7082 182.546C85.5795 182.767 85.5117 183.019 85.5117 183.275C85.5117 183.532 85.5795 183.783 85.7082 184.005L86.8147 185.92C86.9431 186.144 87.1282 186.33 87.3513 186.459C87.5744 186.588 87.8276 186.656 88.0854 186.656H92.4995C92.7586 186.658 93.0136 186.591 93.2381 186.462C93.4626 186.333 93.6484 186.146 93.7763 185.92L94.8829 184.005C95.0097 183.782 95.0754 183.53 95.0733 183.274C95.0711 183.017 95.0012 182.766 94.8707 182.546Z" fill="black"/>
<path opacity="0.2" d="M92.4995 179.895H90.2864C90.0294 179.895 89.7769 179.963 89.5547 180.092C89.3326 180.221 89.1486 180.407 89.0218 180.631L87.9152 182.546C87.7865 182.767 87.7188 183.019 87.7188 183.275C87.7188 183.532 87.7865 183.783 87.9152 184.005L89.0218 185.92C89.1486 186.144 89.3326 186.33 89.5547 186.459C89.7769 186.588 90.0294 186.656 90.2864 186.656H92.4995C92.7586 186.658 93.0136 186.591 93.2381 186.462C93.4626 186.333 93.6484 186.146 93.7763 185.92L94.8829 184.005C95.0115 183.783 95.0793 183.532 95.0793 183.275C95.0793 183.019 95.0115 182.767 94.8829 182.546L93.7763 180.631C93.6484 180.405 93.4626 180.218 93.2381 180.089C93.0136 179.96 92.7586 179.893 92.4995 179.895Z" fill="black"/>
<path d="M101.006 183.275C101.006 184.187 98.8414 184.929 96.1783 184.929C93.5153 184.929 91.3447 184.187 91.3447 183.275C91.3447 182.363 93.5031 181.622 96.1722 181.622C98.8414 181.622 101.006 182.363 101.006 183.275Z" fill="#F96118"/>
<path opacity="0.1" d="M101.006 183.275C101.006 184.187 98.8414 184.929 96.1783 184.929C93.5153 184.929 91.3447 184.187 91.3447 183.275C91.3447 182.363 93.5031 181.622 96.1722 181.622C98.8414 181.622 101.006 182.363 101.006 183.275Z" fill="black"/>
<path d="M107.153 182.546L106.046 180.631C105.919 180.407 105.735 180.221 105.513 180.092C105.291 179.963 105.039 179.895 104.782 179.895H100.374C100.116 179.895 99.8625 179.963 99.6394 180.092C99.4163 180.221 99.2312 180.407 99.1028 180.631L97.9962 182.546C97.8676 182.767 97.7998 183.019 97.7998 183.275C97.7998 183.532 97.8676 183.783 97.9962 184.005L99.1028 185.92C99.2312 186.144 99.4163 186.33 99.6394 186.459C99.8625 186.588 100.116 186.656 100.374 186.656H104.788C105.045 186.656 105.297 186.588 105.519 186.459C105.741 186.33 105.925 186.144 106.052 185.92L107.153 184.005C107.281 183.783 107.349 183.532 107.349 183.275C107.349 183.019 107.281 182.767 107.153 182.546Z" fill="#F96118"/>
<path opacity="0.1" d="M107.153 182.546L106.046 180.631C105.919 180.407 105.735 180.221 105.513 180.092C105.291 179.963 105.039 179.895 104.782 179.895H100.374C100.116 179.895 99.8625 179.963 99.6394 180.092C99.4163 180.221 99.2312 180.407 99.1028 180.631L97.9962 182.546C97.8676 182.767 97.7998 183.019 97.7998 183.275C97.7998 183.532 97.8676 183.783 97.9962 184.005L99.1028 185.92C99.2312 186.144 99.4163 186.33 99.6394 186.459C99.8625 186.588 100.116 186.656 100.374 186.656H104.788C105.045 186.656 105.297 186.588 105.519 186.459C105.741 186.33 105.925 186.144 106.052 185.92L107.153 184.005C107.281 183.783 107.349 183.532 107.349 183.275C107.349 183.019 107.281 182.767 107.153 182.546Z" fill="black"/>
<path d="M104.788 179.895H102.574C102.317 179.895 102.065 179.963 101.843 180.092C101.621 180.221 101.437 180.407 101.31 180.631L100.203 182.546C100.075 182.767 100.007 183.019 100.007 183.275C100.007 183.532 100.075 183.783 100.203 184.005L101.31 185.92C101.437 186.144 101.621 186.33 101.843 186.459C102.065 186.588 102.317 186.656 102.574 186.656H104.788C105.045 186.656 105.297 186.588 105.519 186.459C105.741 186.33 105.925 186.144 106.052 185.92L107.153 184.005C107.281 183.783 107.349 183.532 107.349 183.275C107.349 183.019 107.281 182.767 107.153 182.546L106.046 180.631C105.92 180.408 105.737 180.223 105.516 180.094C105.295 179.964 105.044 179.896 104.788 179.895Z" fill="#F96118"/>
<path d="M134.197 203.121L132.47 200.123C132.269 199.777 131.981 199.489 131.634 199.29C131.287 199.09 130.894 198.986 130.494 198.986H123.569C123.168 198.984 122.773 199.089 122.425 199.288C122.077 199.488 121.788 199.776 121.587 200.123L119.86 203.121C119.66 203.468 119.555 203.862 119.555 204.264C119.555 204.665 119.66 205.059 119.86 205.407L121.587 208.398C121.788 208.746 122.077 209.035 122.424 209.235C122.772 209.436 123.167 209.541 123.569 209.541H130.47C130.87 209.54 131.264 209.434 131.611 209.234C131.957 209.033 132.245 208.745 132.446 208.398L134.172 205.407C134.376 205.061 134.486 204.668 134.49 204.267C134.494 203.866 134.393 203.47 134.197 203.121Z" fill="#F96118"/>
<path opacity="0.1" d="M134.197 203.121L132.47 200.123C132.269 199.777 131.981 199.489 131.634 199.29C131.287 199.09 130.894 198.986 130.494 198.986H123.569C123.168 198.984 122.773 199.089 122.425 199.288C122.077 199.488 121.788 199.776 121.587 200.123L119.86 203.121C119.66 203.468 119.555 203.862 119.555 204.264C119.555 204.665 119.66 205.059 119.86 205.407L121.587 208.398C121.788 208.746 122.077 209.035 122.424 209.235C122.772 209.436 123.167 209.541 123.569 209.541H130.47C130.87 209.54 131.264 209.434 131.611 209.234C131.957 209.033 132.245 208.745 132.446 208.398L134.172 205.407C134.376 205.061 134.486 204.668 134.49 204.267C134.494 203.866 134.393 203.47 134.197 203.121Z" fill="black"/>
<path opacity="0.2" d="M130.494 198.986H127.034C126.634 198.986 126.241 199.09 125.894 199.29C125.547 199.489 125.259 199.777 125.058 200.123L123.332 203.121C123.129 203.467 123.021 203.862 123.021 204.264C123.021 204.665 123.129 205.06 123.332 205.407L125.058 208.398C125.259 208.745 125.547 209.033 125.893 209.234C126.24 209.434 126.634 209.54 127.034 209.541H130.494C130.894 209.54 131.288 209.434 131.635 209.234C131.981 209.033 132.269 208.745 132.47 208.398L134.197 205.407C134.397 205.059 134.502 204.665 134.502 204.264C134.502 203.862 134.397 203.468 134.197 203.121L132.47 200.123C132.269 199.777 131.981 199.489 131.634 199.29C131.287 199.09 130.894 198.986 130.494 198.986Z" fill="black"/>
<path d="M136.239 206.848C140.406 206.848 143.784 205.691 143.784 204.264C143.784 202.836 140.406 201.68 136.239 201.68C132.071 201.68 128.693 202.836 128.693 204.264C128.693 205.691 132.071 206.848 136.239 206.848Z" fill="#F96118"/>
<path opacity="0.1" d="M136.239 206.848C140.406 206.848 143.784 205.691 143.784 204.264C143.784 202.836 140.406 201.68 136.239 201.68C132.071 201.68 128.693 202.836 128.693 204.264C128.693 205.691 132.071 206.848 136.239 206.848Z" fill="black"/>
<path d="M153.397 203.121L151.67 200.123C151.47 199.777 151.181 199.489 150.835 199.29C150.488 199.09 150.094 198.986 149.694 198.986H142.787C142.387 198.986 141.994 199.09 141.647 199.29C141.3 199.489 141.012 199.777 140.811 200.123L139.085 203.121C138.885 203.468 138.779 203.862 138.779 204.264C138.779 204.665 138.885 205.059 139.085 205.407L140.811 208.398C141.012 208.745 141.3 209.033 141.646 209.234C141.993 209.434 142.387 209.54 142.787 209.541H149.712C150.113 209.54 150.507 209.434 150.853 209.234C151.2 209.033 151.488 208.745 151.688 208.398L153.415 205.407C153.612 205.057 153.715 204.662 153.711 204.261C153.708 203.86 153.6 203.467 153.397 203.121Z" fill="#F96118"/>
<path opacity="0.1" d="M153.397 203.121L151.67 200.123C151.47 199.777 151.181 199.489 150.835 199.29C150.488 199.09 150.094 198.986 149.694 198.986H142.787C142.387 198.986 141.994 199.09 141.647 199.29C141.3 199.489 141.012 199.777 140.811 200.123L139.085 203.121C138.885 203.468 138.779 203.862 138.779 204.264C138.779 204.665 138.885 205.059 139.085 205.407L140.811 208.398C141.012 208.745 141.3 209.033 141.646 209.234C141.993 209.434 142.387 209.54 142.787 209.541H149.712C150.113 209.54 150.507 209.434 150.853 209.234C151.2 209.033 151.488 208.745 151.688 208.398L153.415 205.407C153.612 205.057 153.715 204.662 153.711 204.261C153.708 203.86 153.6 203.467 153.397 203.121Z" fill="black"/>
<path d="M149.712 198.986H146.252C145.852 198.986 145.459 199.09 145.112 199.29C144.765 199.489 144.477 199.777 144.276 200.123L142.544 203.121C142.344 203.468 142.238 203.862 142.238 204.264C142.238 204.665 142.344 205.059 142.544 205.407L144.276 208.398C144.477 208.745 144.765 209.033 145.112 209.234C145.458 209.434 145.852 209.54 146.252 209.541H149.712C150.113 209.54 150.506 209.434 150.853 209.234C151.2 209.033 151.488 208.745 151.688 208.398L153.415 205.407C153.615 205.059 153.72 204.665 153.72 204.264C153.72 203.862 153.615 203.468 153.415 203.121L151.688 200.123C151.487 199.777 151.199 199.489 150.852 199.29C150.505 199.09 150.112 198.986 149.712 198.986Z" fill="#F96118"/>
<path d="M111.706 204.403L110.32 202.008C110.159 201.73 109.929 201.5 109.652 201.34C109.374 201.18 109.059 201.096 108.739 201.096H103.218C102.897 201.095 102.581 201.178 102.302 201.338C102.023 201.499 101.792 201.73 101.631 202.008L100.251 204.403C100.091 204.681 100.007 204.995 100.007 205.315C100.007 205.636 100.091 205.95 100.251 206.227L101.631 208.617C101.791 208.896 102.022 209.129 102.301 209.29C102.58 209.451 102.896 209.536 103.218 209.535H108.739C109.06 209.535 109.375 209.449 109.653 209.288C109.93 209.127 110.16 208.895 110.32 208.617L111.706 206.227C111.866 205.95 111.95 205.636 111.95 205.315C111.95 204.995 111.866 204.681 111.706 204.403Z" fill="#F96118"/>
<path opacity="0.1" d="M111.706 204.403L110.32 202.008C110.159 201.73 109.929 201.5 109.652 201.34C109.374 201.18 109.059 201.096 108.739 201.096H103.218C102.897 201.095 102.581 201.178 102.302 201.338C102.023 201.499 101.792 201.73 101.631 202.008L100.251 204.403C100.091 204.681 100.007 204.995 100.007 205.315C100.007 205.636 100.091 205.95 100.251 206.227L101.631 208.617C101.791 208.896 102.022 209.129 102.301 209.29C102.58 209.451 102.896 209.536 103.218 209.535H108.739C109.06 209.535 109.375 209.449 109.653 209.288C109.93 209.127 110.16 208.895 110.32 208.617L111.706 206.227C111.866 205.95 111.95 205.636 111.95 205.315C111.95 204.995 111.866 204.681 111.706 204.403Z" fill="black"/>
<path opacity="0.2" d="M108.74 201.096H105.973C105.653 201.096 105.338 201.18 105.06 201.34C104.783 201.5 104.553 201.73 104.392 202.008L103.006 204.403C102.846 204.681 102.762 204.995 102.762 205.315C102.762 205.636 102.846 205.95 103.006 206.227L104.392 208.617C104.552 208.895 104.782 209.127 105.059 209.288C105.337 209.449 105.652 209.535 105.973 209.535H108.74C109.061 209.535 109.376 209.449 109.653 209.288C109.931 209.127 110.161 208.895 110.32 208.617L111.707 206.227C111.867 205.95 111.951 205.636 111.951 205.315C111.951 204.995 111.867 204.681 111.707 204.403L110.32 202.008C110.16 201.73 109.93 201.5 109.652 201.34C109.375 201.18 109.06 201.096 108.74 201.096Z" fill="black"/>
<path d="M119.373 205.315C119.373 206.458 116.667 207.383 113.335 207.383C110.003 207.383 107.298 206.458 107.298 205.315C107.298 204.172 110.003 203.248 113.335 203.248C116.667 203.248 119.373 204.178 119.373 205.315Z" fill="#F96118"/>
<path opacity="0.1" d="M119.373 205.315C119.373 206.458 116.667 207.383 113.335 207.383C110.003 207.383 107.298 206.458 107.298 205.315C107.298 204.172 110.003 203.248 113.335 203.248C116.667 203.248 119.373 204.178 119.373 205.315Z" fill="black"/>
<path d="M127.064 204.403L125.678 202.008C125.518 201.73 125.287 201.5 125.01 201.34C124.732 201.18 124.418 201.096 124.097 201.096H118.577C118.256 201.096 117.941 201.18 117.664 201.34C117.386 201.5 117.156 201.73 116.996 202.008L115.61 204.403C115.45 204.681 115.365 204.995 115.365 205.315C115.365 205.636 115.45 205.95 115.61 206.227L116.996 208.617C117.155 208.895 117.385 209.127 117.663 209.288C117.94 209.449 118.256 209.535 118.577 209.535H124.097C124.418 209.535 124.733 209.449 125.011 209.288C125.289 209.127 125.519 208.895 125.678 208.617L127.064 206.227C127.224 205.95 127.309 205.636 127.309 205.315C127.309 204.995 127.224 204.681 127.064 204.403Z" fill="#F96118"/>
<path opacity="0.1" d="M127.064 204.403L125.678 202.008C125.518 201.73 125.287 201.5 125.01 201.34C124.732 201.18 124.418 201.096 124.097 201.096H118.577C118.256 201.096 117.941 201.18 117.664 201.34C117.386 201.5 117.156 201.73 116.996 202.008L115.61 204.403C115.45 204.681 115.365 204.995 115.365 205.315C115.365 205.636 115.45 205.95 115.61 206.227L116.996 208.617C117.155 208.895 117.385 209.127 117.663 209.288C117.94 209.449 118.256 209.535 118.577 209.535H124.097C124.418 209.535 124.733 209.449 125.011 209.288C125.289 209.127 125.519 208.895 125.678 208.617L127.064 206.227C127.224 205.95 127.309 205.636 127.309 205.315C127.309 204.995 127.224 204.681 127.064 204.403Z" fill="black"/>
<path d="M124.098 201.096H121.331C121.011 201.096 120.696 201.18 120.419 201.34C120.141 201.5 119.911 201.73 119.751 202.008L118.37 204.403C118.21 204.681 118.126 204.995 118.126 205.315C118.126 205.636 118.21 205.95 118.37 206.227L119.751 208.617C119.91 208.895 120.14 209.127 120.418 209.288C120.695 209.449 121.01 209.535 121.331 209.535H124.098C124.419 209.535 124.734 209.449 125.011 209.288C125.289 209.127 125.519 208.895 125.679 208.617L127.065 206.227C127.225 205.95 127.309 205.636 127.309 205.315C127.309 204.995 127.225 204.681 127.065 204.403L125.679 202.008C125.518 201.73 125.288 201.5 125.01 201.34C124.733 201.18 124.418 201.096 124.098 201.096Z" fill="#F96118"/>
<path d="M94.8707 205.431L93.7763 203.516C93.6486 203.293 93.4644 203.109 93.2423 202.981C93.0202 202.852 92.7681 202.785 92.5117 202.786H88.0854C87.8281 202.785 87.575 202.852 87.3519 202.98C87.1287 203.108 86.9434 203.293 86.8147 203.516L85.7082 205.431C85.5795 205.653 85.5117 205.904 85.5117 206.16C85.5117 206.417 85.5795 206.668 85.7082 206.89L86.8147 208.811C86.9443 209.033 87.1298 209.218 87.3528 209.346C87.5758 209.474 87.8284 209.541 88.0854 209.541H92.4995C92.7557 209.541 93.0073 209.473 93.2292 209.345C93.4511 209.217 93.6355 209.033 93.7642 208.811L94.8707 206.89C94.9994 206.668 95.0672 206.417 95.0672 206.16C95.0672 205.904 94.9994 205.653 94.8707 205.431Z" fill="#F96118"/>
<path opacity="0.1" d="M94.8707 205.431L93.7763 203.516C93.6486 203.293 93.4644 203.109 93.2423 202.981C93.0202 202.852 92.7681 202.785 92.5117 202.786H88.0854C87.8281 202.785 87.575 202.852 87.3519 202.98C87.1287 203.108 86.9434 203.293 86.8147 203.516L85.7082 205.431C85.5795 205.653 85.5117 205.904 85.5117 206.16C85.5117 206.417 85.5795 206.668 85.7082 206.89L86.8147 208.811C86.9443 209.033 87.1298 209.218 87.3528 209.346C87.5758 209.474 87.8284 209.541 88.0854 209.541H92.4995C92.7557 209.541 93.0073 209.473 93.2292 209.345C93.4511 209.217 93.6355 209.033 93.7642 208.811L94.8707 206.89C94.9994 206.668 95.0672 206.417 95.0672 206.16C95.0672 205.904 94.9994 205.653 94.8707 205.431Z" fill="black"/>
<path opacity="0.2" d="M92.4995 202.786H90.2864C90.03 202.785 89.7779 202.852 89.5558 202.981C89.3337 203.109 89.1494 203.293 89.0218 203.516L87.9152 205.431C87.7865 205.653 87.7188 205.904 87.7188 206.161C87.7188 206.417 87.7865 206.669 87.9152 206.89L89.0218 208.811C89.1504 209.033 89.3348 209.217 89.5567 209.345C89.7786 209.473 90.0302 209.541 90.2864 209.541H92.4995C92.7557 209.541 93.0073 209.473 93.2292 209.345C93.4511 209.217 93.6355 209.033 93.7642 208.811L94.8707 206.89C94.9994 206.669 95.0672 206.417 95.0672 206.161C95.0672 205.904 94.9994 205.653 94.8707 205.431L93.7763 203.516C93.6476 203.292 93.4615 203.106 93.237 202.978C93.0126 202.849 92.758 202.783 92.4995 202.786Z" fill="black"/>
<path d="M101.006 206.161C101.006 207.073 98.8414 207.814 96.1783 207.814C93.5153 207.814 91.3447 207.073 91.3447 206.161C91.3447 205.249 93.5031 204.507 96.1722 204.507C98.8414 204.507 101.006 205.249 101.006 206.161Z" fill="#F96118"/>
<path opacity="0.1" d="M101.006 206.161C101.006 207.073 98.8414 207.814 96.1783 207.814C93.5153 207.814 91.3447 207.073 91.3447 206.161C91.3447 205.249 93.5031 204.507 96.1722 204.507C98.8414 204.507 101.006 205.249 101.006 206.161Z" fill="black"/>
<path d="M107.153 205.431L106.046 203.516C105.918 203.293 105.734 203.109 105.512 202.981C105.29 202.852 105.038 202.785 104.782 202.786H100.374C100.116 202.785 99.8631 202.852 99.6399 202.98C99.4168 203.108 99.2315 203.293 99.1028 203.516L97.9962 205.431C97.8676 205.653 97.7998 205.904 97.7998 206.16C97.7998 206.417 97.8676 206.668 97.9962 206.89L99.1028 208.811C99.2324 209.033 99.4179 209.218 99.6409 209.346C99.8638 209.474 100.116 209.541 100.374 209.541H104.788C105.044 209.541 105.295 209.473 105.517 209.345C105.739 209.217 105.924 209.033 106.052 208.811L107.153 206.89C107.281 206.668 107.349 206.417 107.349 206.16C107.349 205.904 107.281 205.653 107.153 205.431Z" fill="#F96118"/>
<path opacity="0.1" d="M107.153 205.431L106.046 203.516C105.918 203.293 105.734 203.109 105.512 202.981C105.29 202.852 105.038 202.785 104.782 202.786H100.374C100.116 202.785 99.8631 202.852 99.6399 202.98C99.4168 203.108 99.2315 203.293 99.1028 203.516L97.9962 205.431C97.8676 205.653 97.7998 205.904 97.7998 206.16C97.7998 206.417 97.8676 206.668 97.9962 206.89L99.1028 208.811C99.2324 209.033 99.4179 209.218 99.6409 209.346C99.8638 209.474 100.116 209.541 100.374 209.541H104.788C105.044 209.541 105.295 209.473 105.517 209.345C105.739 209.217 105.924 209.033 106.052 208.811L107.153 206.89C107.281 206.668 107.349 206.417 107.349 206.16C107.349 205.904 107.281 205.653 107.153 205.431Z" fill="black"/>
<path d="M104.788 202.786H102.574C102.318 202.785 102.066 202.852 101.844 202.981C101.622 203.109 101.438 203.293 101.31 203.516L100.203 205.431C100.075 205.653 100.007 205.904 100.007 206.161C100.007 206.417 100.075 206.669 100.203 206.89L101.31 208.811C101.438 209.033 101.623 209.217 101.845 209.345C102.067 209.473 102.318 209.541 102.574 209.541H104.788C105.044 209.541 105.295 209.473 105.517 209.345C105.739 209.217 105.924 209.033 106.052 208.811L107.153 206.89C107.281 206.669 107.349 206.417 107.349 206.161C107.349 205.904 107.281 205.653 107.153 205.431L106.046 203.516C105.919 203.294 105.736 203.11 105.515 202.982C105.294 202.854 105.043 202.786 104.788 202.786Z" fill="#F96118"/>
<path d="M96.4698 217.007H88.1706C87.2381 217.006 86.3153 216.818 85.4564 216.455C84.5975 216.092 83.8198 215.561 83.169 214.893C82.5181 214.226 82.0074 213.434 81.6666 212.567C81.3258 211.699 81.162 210.771 81.1847 209.839L81.9933 178.563C82.0316 176.739 82.7854 175.002 84.0923 173.729C85.3991 172.455 87.1543 171.745 88.9792 171.754H91.0768C92.7228 171.75 94.3171 172.328 95.5778 173.386C96.8385 174.444 97.6842 175.914 97.9655 177.536L103.358 208.811C103.531 209.815 103.482 210.844 103.216 211.827C102.949 212.81 102.471 213.723 101.815 214.502C101.159 215.281 100.341 215.907 99.4175 216.336C98.4942 216.766 97.4882 216.989 96.4698 216.989V217.007ZM88.9792 173.639C87.6458 173.63 86.3629 174.148 85.4081 175.079C84.4534 176.009 83.9037 177.279 83.8781 178.612L83.0695 209.888C83.0516 210.569 83.1704 211.246 83.4187 211.881C83.6671 212.515 84.04 213.094 84.5154 213.581C84.9909 214.069 85.5593 214.457 86.1871 214.722C86.8149 214.986 87.4893 215.123 88.1706 215.123H96.4698C97.2136 215.123 97.9485 214.96 98.623 214.647C99.2975 214.333 99.8954 213.876 100.375 213.307C100.854 212.739 101.204 212.072 101.399 211.355C101.594 210.637 101.63 209.885 101.504 209.152L96.1111 177.876C95.9123 176.686 95.297 175.604 94.375 174.825C93.453 174.045 92.2842 173.618 91.0768 173.62L88.9792 173.639Z" fill="black"/>
<path d="M155.956 109.397C155.924 109.396 155.892 109.389 155.863 109.375C155.834 109.362 155.808 109.342 155.786 109.318C151.852 104.789 149.402 98.2709 149.062 91.4248C149.07 91.3707 149.098 91.3215 149.14 91.2861C149.182 91.2506 149.235 91.2311 149.29 91.2311C149.344 91.2311 149.397 91.2506 149.439 91.2861C149.481 91.3215 149.509 91.3707 149.518 91.4248C149.852 98.1614 152.266 104.582 156.126 109.057C156.168 109.1 156.192 109.158 156.192 109.218C156.192 109.278 156.168 109.336 156.126 109.379C156.074 109.407 156.013 109.413 155.956 109.397Z" fill="#F96118"/>
<path d="M149.262 89.9231C149.201 89.9215 149.144 89.8967 149.101 89.8537C149.058 89.8107 149.033 89.7528 149.031 89.692C149.031 88.8044 149.031 88.2936 149.104 87.406C149.11 87.3468 149.139 87.2924 149.184 87.2539C149.23 87.2154 149.288 87.1958 149.347 87.1992C149.378 87.2008 149.407 87.2083 149.434 87.2215C149.461 87.2346 149.485 87.2531 149.505 87.2758C149.525 87.2985 149.54 87.3249 149.55 87.3535C149.559 87.3822 149.563 87.4124 149.56 87.4424C149.499 88.324 149.481 88.8044 149.487 89.692C149.488 89.7221 149.483 89.752 149.472 89.78C149.461 89.808 149.445 89.8335 149.424 89.8551C149.403 89.8766 149.378 89.8937 149.35 89.9054C149.322 89.9171 149.292 89.9231 149.262 89.9231Z" fill="#F96118"/>
<path d="M149.53 85.7766C149.47 85.7675 149.415 85.735 149.379 85.686C149.342 85.637 149.327 85.5756 149.335 85.5151C149.494 84.3709 149.715 83.2362 149.998 82.1164C150.019 82.064 150.058 82.0209 150.108 81.9954C150.159 81.9699 150.217 81.9636 150.271 81.9778C150.326 81.9921 150.373 82.0257 150.405 82.0725C150.436 82.1193 150.449 82.176 150.442 82.2319C150.16 83.3353 149.941 84.4538 149.785 85.582C149.782 85.6116 149.772 85.6403 149.757 85.6662C149.742 85.6921 149.722 85.7147 149.698 85.7329C149.675 85.751 149.647 85.7642 149.619 85.7717C149.59 85.7792 149.56 85.7808 149.53 85.7766Z" fill="#F96118"/>
<path d="M162.711 112.389C162.663 112.387 162.617 112.372 162.577 112.346C155.53 107.348 151.207 97.3529 151.822 87.4607C151.823 87.4312 151.831 87.4023 151.844 87.3758C151.858 87.3493 151.876 87.3256 151.898 87.3061C151.92 87.2866 151.946 87.2717 151.974 87.2623C152.002 87.2528 152.032 87.249 152.062 87.251C152.091 87.253 152.12 87.2608 152.147 87.2739C152.173 87.2871 152.197 87.3053 152.216 87.3276C152.236 87.3499 152.251 87.3758 152.26 87.4039C152.27 87.4319 152.273 87.4616 152.271 87.4911C151.663 97.2191 155.919 107.069 162.845 111.975C162.869 111.992 162.89 112.014 162.906 112.039C162.922 112.064 162.933 112.092 162.938 112.122C162.943 112.151 162.942 112.181 162.936 112.211C162.929 112.24 162.917 112.267 162.899 112.291C162.877 112.321 162.849 112.345 162.816 112.362C162.784 112.379 162.748 112.388 162.711 112.389Z" fill="#F96118"/>
<path d="M220.283 71.0447C220.249 71.0447 220.215 71.0371 220.185 71.0223C220.154 71.0076 220.128 70.9861 220.107 70.9596C218.629 69.1431 216.82 67.6244 214.774 66.4847C214.743 66.4732 214.715 66.4552 214.691 66.4318C214.668 66.4084 214.65 66.3802 214.638 66.3491C214.626 66.3181 214.621 66.2848 214.624 66.2517C214.626 66.2186 214.635 66.1864 214.651 66.1572C214.667 66.1281 214.689 66.1027 214.716 66.0828C214.742 66.0629 214.773 66.049 214.805 66.042C214.838 66.035 214.871 66.0351 214.904 66.0422C214.936 66.0494 214.967 66.0634 214.993 66.0834C217.092 67.2502 218.949 68.8061 220.465 70.6677C220.493 70.7014 220.51 70.7422 220.515 70.7853C220.521 70.8284 220.514 70.8722 220.495 70.9116C220.477 70.9509 220.448 70.9843 220.411 71.0079C220.375 71.0314 220.332 71.0442 220.289 71.0447H220.283Z" fill="#F96118"/>
<path d="M226.861 88.9928C226.802 88.9929 226.745 88.9703 226.702 88.9295C226.659 88.8888 226.633 88.8331 226.63 88.774C226.421 82.9294 224.553 77.2651 221.243 72.4431C221.226 72.4188 221.214 72.3913 221.207 72.3622C221.2 72.3331 221.199 72.303 221.204 72.2735C221.21 72.2441 221.22 72.216 221.237 72.1908C221.253 72.1656 221.274 72.1439 221.298 72.1269C221.323 72.1094 221.351 72.0968 221.38 72.0901C221.41 72.0833 221.441 72.0824 221.471 72.0875C221.5 72.0926 221.529 72.1035 221.555 72.1197C221.581 72.1358 221.603 72.1569 221.62 72.1816C224.977 77.0766 226.875 82.8243 227.092 88.7557C227.094 88.815 227.073 88.8727 227.033 88.9168C226.994 88.961 226.939 88.9882 226.88 88.9928H226.861Z" fill="#F96118"/>
<path d="M216.982 71.6953C216.952 71.6961 216.923 71.6906 216.896 71.679C216.868 71.6675 216.844 71.6502 216.824 71.6284C214.554 69.2019 211.611 67.5083 208.373 66.7644C208.319 66.7469 208.273 66.7101 208.244 66.6611C208.216 66.6121 208.206 66.5544 208.217 66.4988C208.229 66.4432 208.26 66.3937 208.305 66.3597C208.351 66.3257 208.407 66.3096 208.464 66.3145C211.79 67.0779 214.813 68.8159 217.146 71.3062C217.188 71.3493 217.211 71.4071 217.211 71.4673C217.211 71.5275 217.188 71.5853 217.146 71.6284C217.102 71.6711 217.043 71.695 216.982 71.6953Z" fill="#F96118"/>
<path d="M219.827 75.2095C219.788 75.2088 219.751 75.1991 219.717 75.1811C219.683 75.1632 219.654 75.1375 219.632 75.1061C219.161 74.3992 218.654 73.7173 218.112 73.0633C218.088 73.0409 218.068 73.0137 218.055 72.9833C218.043 72.9529 218.036 72.9201 218.037 72.8871C218.038 72.8541 218.046 72.8217 218.06 72.792C218.075 72.7623 218.095 72.736 218.121 72.715C218.146 72.694 218.176 72.6786 218.208 72.67C218.24 72.6614 218.273 72.6597 218.306 72.665C218.338 72.6704 218.369 72.6826 218.397 72.701C218.424 72.7193 218.447 72.7433 218.465 72.7714C219.016 73.44 219.534 74.1361 220.015 74.8569C220.047 74.9078 220.059 74.9695 220.046 75.0286C220.034 75.0877 219.998 75.1395 219.948 75.173C219.912 75.1969 219.87 75.2096 219.827 75.2095Z" fill="#F96118"/>
<path d="M223.888 84.901C223.837 84.9012 223.786 84.8838 223.745 84.8518C223.705 84.8199 223.676 84.7751 223.664 84.7247C223.055 81.917 222.031 79.216 220.624 76.7113C220.594 76.6589 220.586 76.5968 220.602 76.5386C220.618 76.4805 220.656 76.431 220.709 76.4012C220.761 76.3714 220.823 76.3636 220.881 76.3795C220.939 76.3955 220.989 76.4339 221.019 76.4863C222.453 79.0304 223.501 81.7743 224.126 84.6274C224.137 84.6862 224.124 84.7468 224.091 84.7967C224.058 84.8466 224.008 84.8818 223.949 84.895L223.888 84.901Z" fill="#F96118"/>
<path d="M161.982 72.0419L160.559 69.312C160.413 69.0044 160.183 68.744 159.896 68.5602C159.609 68.3765 159.276 68.2767 158.936 68.2723H153.257C152.915 68.2756 152.581 68.3748 152.293 68.5586C152.005 68.7424 151.775 69.0035 151.628 69.312L150.205 72.0298C150.04 72.3505 149.954 72.7059 149.954 73.0664C149.954 73.427 150.04 73.7824 150.205 74.1031L151.628 76.8208C151.775 77.1294 152.005 77.3904 152.293 77.5742C152.581 77.7581 152.915 77.8572 153.257 77.8605H158.936C159.276 77.8561 159.609 77.7564 159.896 77.5726C160.183 77.3889 160.413 77.1284 160.559 76.8208L161.982 74.1031C162.148 73.7848 162.234 73.4313 162.234 73.0725C162.234 72.7137 162.148 72.3602 161.982 72.0419Z" fill="#F96118"/>
<path opacity="0.2" d="M161.982 72.0419L160.559 69.312C160.413 69.0044 160.183 68.744 159.896 68.5602C159.609 68.3765 159.276 68.2767 158.936 68.2723H153.257C152.915 68.2756 152.581 68.3748 152.293 68.5586C152.005 68.7424 151.775 69.0035 151.628 69.312L150.205 72.0298C150.04 72.3505 149.954 72.7059 149.954 73.0664C149.954 73.427 150.04 73.7824 150.205 74.1031L151.628 76.8208C151.775 77.1294 152.005 77.3904 152.293 77.5742C152.581 77.7581 152.915 77.8572 153.257 77.8605H158.936C159.276 77.8561 159.609 77.7564 159.896 77.5726C160.183 77.3889 160.413 77.1284 160.559 76.8208L161.982 74.1031C162.148 73.7848 162.234 73.4313 162.234 73.0725C162.234 72.7137 162.148 72.3602 161.982 72.0419Z" fill="black"/>
<path d="M158.833 68.2845H156.212C155.851 68.2841 155.496 68.3832 155.188 68.5709C154.879 68.7585 154.627 69.0276 154.461 69.3485L152.99 72.1635C152.841 72.4445 152.764 72.7576 152.764 73.0755C152.764 73.3934 152.841 73.7065 152.99 73.9875L154.461 76.8086C154.629 77.128 154.881 77.3953 155.189 77.5818C155.498 77.7683 155.852 77.8668 156.212 77.8665H158.833C159.192 77.8657 159.545 77.7667 159.852 77.5803C160.16 77.3938 160.411 77.127 160.578 76.8086L162.055 73.9875C162.201 73.7055 162.277 73.3928 162.277 73.0755C162.277 72.7582 162.201 72.4455 162.055 72.1635L160.578 69.3485C160.412 69.0285 160.162 68.7601 159.854 68.5725C159.546 68.3849 159.193 68.2852 158.833 68.2845Z" fill="#F96118"/>
<path d="M169.868 73.0816C169.868 74.3766 167.089 75.4285 163.66 75.4285C160.231 75.4285 157.452 74.3766 157.452 73.0816C157.452 71.7866 160.237 70.7347 163.66 70.7347C167.083 70.7347 169.868 71.7866 169.868 73.0816Z" fill="#F96118"/>
<path opacity="0.2" d="M169.868 73.0816C169.868 74.3766 167.089 75.4285 163.66 75.4285C160.231 75.4285 157.452 74.3766 157.452 73.0816C157.452 71.7866 160.237 70.7347 163.66 70.7347C167.083 70.7347 169.868 71.7866 169.868 73.0816Z" fill="black"/>
<path d="M221.073 95.8208L221.638 92.7808C221.707 92.4346 221.68 92.0765 221.563 91.7439C221.445 91.4113 221.24 91.1163 220.97 90.8899L216.349 87.096C216.074 86.8767 215.745 86.7346 215.397 86.6844C215.048 86.6342 214.693 86.6776 214.367 86.8103L211.485 87.9655C211.148 88.0994 210.851 88.3161 210.62 88.5957C210.389 88.8752 210.233 89.2084 210.166 89.5645L209.6 92.6045C209.531 92.9507 209.557 93.309 209.675 93.6418C209.793 93.9745 209.998 94.2694 210.269 94.4954L214.89 98.2893C215.164 98.5109 215.493 98.6545 215.841 98.7048C216.19 98.7551 216.546 98.7103 216.872 98.5751L219.754 97.4259C220.091 97.2905 220.388 97.0725 220.619 96.792C220.849 96.5115 221.005 96.1776 221.073 95.8208Z" fill="#F96118"/>
<path opacity="0.2" d="M221.073 95.8208L221.638 92.7808C221.707 92.4346 221.68 92.0765 221.563 91.7439C221.445 91.4113 221.24 91.1163 220.97 90.8899L216.349 87.096C216.074 86.8767 215.745 86.7346 215.397 86.6844C215.048 86.6342 214.693 86.6776 214.367 86.8103L211.485 87.9655C211.148 88.0994 210.851 88.3161 210.62 88.5957C210.389 88.8752 210.233 89.2084 210.166 89.5645L209.6 92.6045C209.531 92.9507 209.557 93.309 209.675 93.6418C209.793 93.9745 209.998 94.2694 210.269 94.4954L214.89 98.2893C215.164 98.5109 215.493 98.6545 215.841 98.7048C216.19 98.7551 216.546 98.7103 216.872 98.5751L219.754 97.4259C220.091 97.2905 220.388 97.0725 220.619 96.792C220.849 96.5115 221.005 96.1776 221.073 95.8208Z" fill="black"/>
<path d="M220.934 90.8474L218.702 89.0234C218.422 88.792 218.084 88.6406 217.724 88.5849C217.365 88.5293 216.997 88.5716 216.659 88.7072L213.729 89.8746C213.417 90.0062 213.142 90.2136 212.93 90.4778C212.717 90.7421 212.574 91.0551 212.513 91.3885L211.935 94.4954C211.869 94.8513 211.9 95.2184 212.024 95.5584C212.148 95.8985 212.361 96.199 212.641 96.4288L214.872 98.2528C215.152 98.4825 215.489 98.6329 215.847 98.6885C216.205 98.7441 216.572 98.7029 216.909 98.569L219.845 97.4016C220.158 97.27 220.432 97.0627 220.645 96.7984C220.857 96.5341 221 96.2211 221.061 95.8877L221.639 92.7808C221.704 92.425 221.672 92.0583 221.549 91.7185C221.425 91.3787 221.212 91.078 220.934 90.8474Z" fill="#F96118"/>
<path d="M194.704 77.6111C194.704 77.6111 201.344 76.7782 202.864 84.2991C203.701 88.4055 204.165 92.5792 204.25 96.7692C205.833 96.8575 207.408 97.0607 208.962 97.3772C210.823 97.6934 211.941 98.1251 216.228 98.9276C216.228 98.9276 218.575 95.5654 219.748 94.8723C220.356 94.4953 221.973 94.0758 222.66 94.3615C223.268 94.5987 224.861 95.4377 225.013 96.0518C225.129 96.5139 224.004 98.6358 224.004 98.6358C224.004 98.6358 219.28 101.481 218.155 101.724C214.477 102.539 212.02 102.831 205.746 103.39C197.556 104.12 198.279 100.697 197.076 96.9212C195.872 93.1456 192.151 76.1459 194.704 77.6111Z" fill="#FFB473"/>
<path d="M191.865 76.912C191.845 76.9091 191.824 76.9121 191.805 76.9205C191.786 76.929 191.77 76.9425 191.759 76.9597C191.747 76.9768 191.741 76.9969 191.74 77.0175C191.74 77.0381 191.745 77.0584 191.756 77.0762C192.297 78.0125 194.358 82.0253 189.403 82.0314C184.448 82.0375 182.016 77.8848 181.584 77.0336C181.56 76.9878 181.525 76.9485 181.483 76.9188C181.441 76.8892 181.392 76.8702 181.341 76.8634C180.246 76.7357 174.312 76.2554 174.081 80.6391C173.832 85.5031 178.897 92.489 179.827 107.823C183.388 109.755 187.439 110.601 191.476 110.255C198.055 109.647 200.754 107.482 200.754 107.482C200.76 104.01 201.008 100.542 201.496 97.1037C202.84 87.4608 202.25 84.3357 195.154 77.2951L191.865 76.912Z" fill="#263238"/>
<path d="M205.418 208.988C205.819 210.597 205.888 212.27 205.618 213.907C205.114 216.095 205.229 218.205 206.403 218.229C210.257 218.315 209.674 217.439 212.483 217.621C215.292 217.804 219.286 218.023 219.639 217.062C220.162 215.615 215.164 215.007 213.334 213.773C210.835 212.095 210.452 207.206 210.452 207.206L205.418 208.988Z" fill="#FFB473"/>
<path d="M210.896 209.815L205.685 210.459C203.733 203.905 199.392 189.179 197.982 182.783C197.355 179.816 196.899 176.816 196.614 173.797C196.06 168.325 196.462 166.245 196.006 163.795C195.507 161.138 193.215 156.226 192.187 153.739C191.306 151.617 189.688 147.361 188.272 143.573C188.199 143.391 188.132 143.208 188.065 143.032C186.673 139.329 185.518 136.204 185.518 136.204C175.893 127.838 179.219 115.143 180.921 110.431C181.079 109.993 181.225 109.628 181.347 109.337C181.541 108.85 181.669 108.583 181.669 108.583L185.572 108.388L190.09 108.157L193.203 107.999L198.164 107.75L200.462 107.634L200.535 108.571L200.675 110.395L201.599 122.244L206.998 162.251L210.896 209.815Z" fill="#F96118"/>
<path opacity="0.2" d="M191.245 121.193H184.654L181.937 132.106C182.919 133.636 184.117 135.016 185.493 136.204C185.493 136.204 188.248 143.677 190.357 149.222C191.665 140.618 191.245 121.193 191.245 121.193Z" fill="black"/>
<path d="M165.739 207.237C165.681 209.231 165.269 211.199 164.523 213.049C163.35 215.658 162.669 217.007 165.739 217.214C168.809 217.421 169.655 217.384 172.391 218.004C175.127 218.625 178.732 218.144 178.525 217.062C178.319 215.98 174.938 216.454 172.725 214.022C170.512 211.59 170.293 209.383 170.7 208.143L165.739 207.237Z" fill="#FFB473"/>
<path d="M193.622 108.37C193.622 108.406 193.622 108.571 193.573 108.844C193.537 109.221 193.482 109.805 193.409 110.534C193.361 111.039 193.306 111.617 193.239 112.255C192.771 116.876 191.993 124.36 191.506 127.522C190.898 131.565 189.749 137.086 188.302 143.373C188.302 143.433 188.272 143.494 188.26 143.561C182.143 170.027 170.701 209.833 170.701 209.833L165.417 209.024C165.922 202.203 167.125 186.881 168.08 180.448C168.55 177.5 169.19 174.581 169.995 171.705C171.418 166.519 172.531 164.823 172.968 162.397C173.443 159.764 173.06 154.268 172.968 151.55C172.847 146.808 173.005 132.629 173.005 132.629C173.078 122.007 178.373 110.686 179.571 108.267C179.723 107.957 179.808 107.792 179.808 107.792C179.808 107.792 188.253 108.151 190.059 108.127L193.622 108.37Z" fill="#F96118"/>
<path opacity="0.2" d="M200.535 108.571C199.653 109.908 195.786 110.285 193.409 110.541C189.344 111.017 185.223 110.602 181.334 109.325C181.097 109.245 180.854 109.154 180.611 109.063C180.477 109.014 180.349 108.941 180.215 108.893C180.075 108.844 179.947 108.763 179.842 108.658C179.737 108.553 179.657 108.425 179.607 108.285C179.759 107.975 179.845 107.811 179.845 107.811C179.845 107.811 188.29 108.169 190.095 108.145L193.208 107.987L198.17 107.738L200.468 107.622L200.535 108.571Z" fill="black"/>
<path d="M180.173 81.0829C180.313 76.608 175.395 74.7476 171.455 83.5696C170.216 86.4696 169.2 89.4594 168.415 92.5133C168.415 92.5133 164.852 85.4848 163.405 78.7178C163.405 78.7178 167.053 75.3069 167.326 73.6836C167.491 72.7837 166.919 70.6983 166.11 70.2362C165.065 69.6282 162.152 70.1754 161.307 71.0509C159.982 72.4189 160.261 78.5962 160.261 78.5962C160.025 84.2676 160.793 89.9362 162.529 95.3405C165.739 105.47 172.579 100.502 175.188 95.6749C177.291 91.808 180.04 85.5396 180.173 81.0829Z" fill="#FFB473"/>
<path d="M179.875 60.4474C179.686 61.8336 178.592 63.6819 177.169 64.1927C176.953 64.2816 176.717 64.3066 176.487 64.2645C176.257 64.2225 176.045 64.1152 175.874 63.9555C175.773 63.8988 175.684 63.8221 175.613 63.7302C175.542 63.6382 175.49 63.5329 175.461 63.4205C175.064 63.4103 174.669 63.3614 174.281 63.2746C173.673 63.1347 173.26 62.241 173.795 61.8397C176.227 60.0643 177.048 57.4256 176.507 56.2704C173.777 50.4275 179.79 44.1104 184.569 48.5184C189.919 53.4675 182.52 55.2064 179.808 55.0848C179.668 55.0787 180.392 58.2099 179.875 60.4474Z" fill="#263238"/>
<path d="M181.833 56.1245C181.833 56.1245 180.264 53.6925 182.064 51.8077C183.863 49.9229 186.222 51.5037 186.222 51.5037L181.833 56.1245Z" fill="#F96118"/>
<path d="M182.423 76.8998H180.83C181.742 78.5171 185.743 83.983 190.412 83.6243C194.796 83.2838 194.589 78.6387 193.215 77.0093C192.716 76.9965 192.219 76.9354 191.732 76.8269C189.689 76.2918 189.148 73.9389 189.452 72.0115L183.42 67.5853C184.072 70.2464 184.21 73.0074 183.828 75.7203C183.771 76.0515 183.599 76.352 183.342 76.568C183.085 76.7841 182.759 76.9017 182.423 76.8998Z" fill="#FFB473"/>
<path d="M181.9 60.119C181.808 65.1228 181.656 67.2387 183.967 69.9929C187.445 74.1334 193.604 73.1545 195.19 68.2844C196.613 63.8947 196.528 56.4588 191.816 54.0876C190.78 53.5582 189.625 53.3029 188.463 53.346C187.3 53.3892 186.168 53.7292 185.173 54.3339C184.179 54.9385 183.357 55.7876 182.783 56.8003C182.21 57.8129 181.906 58.9554 181.9 60.119Z" fill="#FFB473"/>
<path d="M192.765 63.6941C193.11 64.6289 193.58 65.5124 194.163 66.3207C193.954 66.4655 193.715 66.5624 193.464 66.6044C193.212 66.6464 192.955 66.6326 192.71 66.5639L192.765 63.6941Z" fill="#EC883E"/>
<path d="M188.971 61.104C188.939 61.0916 188.91 61.073 188.885 61.0493C188.867 61.0311 188.852 61.0094 188.842 60.9854C188.831 60.9614 188.826 60.9355 188.826 60.9094C188.826 60.8834 188.831 60.8575 188.842 60.8335C188.852 60.8095 188.867 60.7877 188.885 60.7696C189.144 60.5022 189.462 60.3012 189.815 60.1837C190.167 60.0661 190.543 60.0356 190.91 60.0947C190.961 60.1077 191.005 60.1394 191.033 60.1834C191.061 60.2274 191.071 60.2804 191.062 60.3318C191.05 60.382 191.02 60.4257 190.977 60.454C190.934 60.4823 190.882 60.493 190.831 60.4838C190.526 60.4389 190.215 60.4673 189.923 60.5667C189.631 60.6661 189.367 60.8336 189.153 61.0554C189.129 61.0783 189.1 61.0948 189.068 61.1033C189.036 61.1118 189.003 61.112 188.971 61.104Z" fill="#2E353A"/>
<path d="M195.811 61.3107C195.778 61.3018 195.746 61.2852 195.72 61.2621C195.507 61.0429 195.245 60.8782 194.955 60.7819C194.665 60.6856 194.356 60.6605 194.054 60.7088C194.003 60.7217 193.948 60.7136 193.902 60.6862C193.857 60.6588 193.824 60.6145 193.811 60.5629C193.8 60.5106 193.81 60.456 193.838 60.4107C193.866 60.3653 193.911 60.3327 193.963 60.3197C194.33 60.2589 194.707 60.2867 195.061 60.4009C195.415 60.5151 195.737 60.7124 196 60.9763C196.019 60.9945 196.034 61.0162 196.044 61.0402C196.054 61.0643 196.059 61.0901 196.059 61.1162C196.059 61.1423 196.054 61.1681 196.044 61.1921C196.034 61.2162 196.019 61.2379 196 61.256C195.974 61.2837 195.941 61.3035 195.904 61.3132C195.868 61.3229 195.829 61.322 195.793 61.3107H195.811Z" fill="#2E353A"/>
<path d="M189.36 62.9827C189.36 63.3901 189.531 63.7306 189.798 63.7488C190.066 63.7671 190.297 63.4509 190.315 63.0375C190.333 62.624 190.145 62.2957 189.883 62.2775C189.622 62.2592 189.385 62.5754 189.36 62.9827Z" fill="#2E353A"/>
<path d="M193.944 63.2624C193.944 63.6637 194.115 64.0041 194.382 64.0224C194.65 64.0406 194.881 63.7245 194.905 63.3171C194.929 62.9097 194.735 62.5693 194.473 62.551C194.212 62.5328 193.969 62.8489 193.944 63.2624Z" fill="#2E353A"/>
<path d="M194.352 62.5692L195.343 62.3503C195.343 62.3503 194.795 63.0739 194.352 62.5692Z" fill="#2E353A"/>
<path d="M189.768 62.2956L190.759 62.0707C190.759 62.0707 190.211 62.8003 189.768 62.2956Z" fill="#2E353A"/>
<path d="M193.008 68.0534C193.008 68.0534 191.89 67.5244 188.552 66.9712C188.667 68.2358 189.16 69.3241 190.886 69.6038C191.343 69.6794 191.81 69.5789 192.195 69.3227C192.58 69.0665 192.853 68.6736 192.96 68.2236C192.978 68.1628 192.996 68.096 193.008 68.0534Z" fill="#2E353A"/>
<path d="M190.315 68.5216C190.985 68.5874 191.605 68.9072 192.048 69.4154C191.697 69.6057 191.29 69.668 190.899 69.5917C190.23 69.5297 189.611 69.2116 189.172 68.704C189.518 68.5054 189.924 68.4405 190.315 68.5216Z" fill="#882B29"/>
<path d="M192.88 67.9987C192.823 68.1321 192.733 68.2486 192.618 68.337C192.503 68.4254 192.367 68.4827 192.224 68.5034C191.237 68.329 190.27 68.0602 189.336 67.7008C189.179 67.6477 189.039 67.5529 188.932 67.4265C188.825 67.3001 188.754 67.1469 188.728 66.9834C190.141 67.1897 191.531 67.5296 192.88 67.9987Z" fill="white"/>
<path d="M182.709 63.0982C183.38 62.74 183.957 62.2275 184.391 61.6027C184.826 60.978 185.105 60.259 185.208 59.5049C185.499 56.9696 188.065 57.4195 188.065 57.4195C188.065 57.4195 195.458 59.8515 197.611 57.0851C199.763 54.3187 195.282 54.495 195.282 54.495C195.282 54.495 197.106 49.783 192.613 52.3549C192.613 52.3549 187.056 49.2237 183.207 52.3245C176.987 57.3405 180.234 62.703 180.234 62.703C180.234 62.703 177.802 65.9254 180.781 65.9437C180.781 65.9437 178.957 67.032 180.781 68.1446C183.651 69.8774 182.709 63.0982 182.709 63.0982Z" fill="#263238"/>
<path d="M195.653 58.216C188.709 55.4679 182.794 57.9242 179.614 61.1527C179.614 61.2499 179.614 61.3229 179.583 61.3837C179.532 61.6438 179.568 61.9135 179.684 62.1516C179.8 62.3898 179.991 62.5835 180.228 62.7031C180.538 62.4052 187.086 55.857 195.701 59.7056C195.701 59.7056 196.133 59.4077 196.097 59.1402C196.06 58.8727 195.975 58.368 195.653 58.216Z" fill="#F96118"/>
<path d="M177.784 72.0419L176.361 69.312C176.214 69.0035 175.984 68.7424 175.695 68.5586C175.407 68.3748 175.073 68.2756 174.732 68.2723H169.053C168.712 68.2804 168.38 68.3816 168.093 68.5648C167.806 68.7481 167.574 69.0065 167.424 69.312L166.001 72.0298C165.836 72.3505 165.75 72.7059 165.75 73.0664C165.75 73.427 165.836 73.7824 166.001 74.1031L167.424 76.8208C167.574 77.1263 167.806 77.3847 168.093 77.568C168.38 77.7513 168.712 77.8524 169.053 77.8605H174.732C175.073 77.8572 175.407 77.7581 175.695 77.5742C175.984 77.3904 176.214 77.1294 176.361 76.8208L177.784 74.1031C177.947 73.7839 178.032 73.4308 178.032 73.0725C178.032 72.7142 177.947 72.3611 177.784 72.0419Z" fill="#F96118"/>
<path opacity="0.2" d="M177.784 72.0419L176.361 69.312C176.214 69.0035 175.984 68.7424 175.695 68.5586C175.407 68.3748 175.073 68.2756 174.732 68.2723H169.053C168.712 68.2804 168.38 68.3816 168.093 68.5648C167.806 68.7481 167.574 69.0065 167.424 69.312L166.001 72.0298C165.836 72.3505 165.75 72.7059 165.75 73.0664C165.75 73.427 165.836 73.7824 166.001 74.1031L167.424 76.8208C167.574 77.1263 167.806 77.3847 168.093 77.568C168.38 77.7513 168.712 77.8524 169.053 77.8605H174.732C175.073 77.8572 175.407 77.7581 175.695 77.5742C175.984 77.3904 176.214 77.1294 176.361 76.8208L177.784 74.1031C177.947 73.7839 178.032 73.4308 178.032 73.0725C178.032 72.7142 177.947 72.3611 177.784 72.0419Z" fill="black"/>
<path d="M174.641 68.2845H172.014C171.654 68.2852 171.301 68.3849 170.993 68.5725C170.685 68.7601 170.435 69.0285 170.269 69.3485L168.792 72.1635C168.646 72.4455 168.57 72.7582 168.57 73.0755C168.57 73.3928 168.646 73.7055 168.792 73.9875L170.269 76.8086C170.436 77.127 170.687 77.3938 170.995 77.5803C171.302 77.7667 171.655 77.8657 172.014 77.8665H174.641C175.001 77.8668 175.355 77.7683 175.664 77.5818C175.973 77.3953 176.224 77.128 176.392 76.8086L177.863 73.9875C178.012 73.7065 178.089 73.3934 178.089 73.0755C178.089 72.7576 178.012 72.4445 177.863 72.1635L176.392 69.3485C176.226 69.0276 175.974 68.7585 175.666 68.5709C175.357 68.3832 175.002 68.2841 174.641 68.2845Z" fill="#F96118"/>
<path d="M226.004 101.39C225.184 102.387 222.253 101.348 219.462 99.0554C216.671 96.7632 215.079 94.0941 215.899 93.0909C216.72 92.0877 219.651 93.1334 222.441 95.4256C225.232 97.7178 226.825 100.387 226.004 101.39Z" fill="#F96118"/>
<path opacity="0.2" d="M226.004 101.39C225.184 102.387 222.253 101.348 219.462 99.0554C216.671 96.7632 215.079 94.0941 215.899 93.0909C216.72 92.0877 219.651 93.1334 222.441 95.4256C225.232 97.7178 226.825 100.387 226.004 101.39Z" fill="black"/>
<path d="M231.841 104.947L232.406 101.907C232.475 101.561 232.449 101.202 232.332 100.87C232.214 100.537 232.009 100.242 231.738 100.016L227.117 96.2221C226.843 96.0005 226.514 95.8569 226.165 95.8066C225.816 95.7563 225.46 95.8011 225.135 95.9364L222.253 97.0855C221.917 97.2218 221.62 97.4401 221.389 97.7204C221.159 98.0008 221.002 98.3343 220.934 98.6906L220.368 101.731C220.3 102.077 220.326 102.435 220.444 102.768C220.561 103.1 220.766 103.395 221.037 103.621L225.658 107.415C225.932 107.637 226.261 107.781 226.609 107.831C226.958 107.881 227.314 107.836 227.64 107.701L230.522 106.552C230.858 106.416 231.155 106.197 231.385 105.917C231.616 105.637 231.772 105.303 231.841 104.947Z" fill="#F96118"/>
<path opacity="0.2" d="M231.841 104.947L232.406 101.907C232.475 101.561 232.449 101.202 232.332 100.87C232.214 100.537 232.009 100.242 231.738 100.016L227.117 96.2221C226.843 96.0005 226.514 95.8569 226.165 95.8066C225.816 95.7563 225.46 95.8011 225.135 95.9364L222.253 97.0855C221.917 97.2218 221.62 97.4401 221.389 97.7204C221.159 98.0008 221.002 98.3343 220.934 98.6906L220.368 101.731C220.3 102.077 220.326 102.435 220.444 102.768C220.561 103.1 220.766 103.395 221.037 103.621L225.658 107.415C225.932 107.637 226.261 107.781 226.609 107.831C226.958 107.881 227.314 107.836 227.64 107.701L230.522 106.552C230.858 106.416 231.155 106.197 231.385 105.917C231.616 105.637 231.772 105.303 231.841 104.947Z" fill="black"/>
<path d="M231.701 99.9735L229.469 98.1495C229.188 97.9193 228.85 97.7686 228.491 97.713C228.132 97.6574 227.764 97.6989 227.427 97.8333L224.496 98.9946C224.183 99.1248 223.907 99.3317 223.695 99.5963C223.482 99.8608 223.34 100.174 223.28 100.509L222.702 103.609C222.636 103.966 222.666 104.334 222.79 104.675C222.914 105.016 223.127 105.318 223.408 105.549L225.639 107.373C225.919 107.603 226.256 107.753 226.614 107.809C226.972 107.864 227.339 107.823 227.676 107.689L230.576 106.522C230.888 106.392 231.164 106.186 231.376 105.923C231.588 105.659 231.731 105.347 231.792 105.014L232.37 101.907C232.439 101.554 232.413 101.19 232.296 100.85C232.178 100.511 231.973 100.208 231.701 99.9735Z" fill="#F96118"/>
</svg>
