<svg width="30" height="30" viewBox="0 0 30 30" fill="none" xmlns="http://www.w3.org/2000/svg">
<path d="M15.5311 18.1417C15.0572 18.6261 14.6068 19.0859 14.1388 19.5645C14.0532 19.4847 13.9758 19.4167 13.903 19.3451C10.478 15.9224 7.06235 12.4904 3.62442 9.08059C2.29429 7.76101 1.67614 6.17987 1.66206 4.32894C1.65033 2.88034 1.99753 1.51268 2.55586 0.190753C2.5887 0.112165 2.71303 0.0382685 2.80452 0.02302C3.40038 -0.0731624 3.83672 0.135624 4.28127 0.582521C12.5154 8.84717 20.7695 17.0907 29.0213 25.3378C29.5092 25.8257 29.8529 26.377 29.9362 27.0843C30.0945 28.4297 29.1691 29.7176 27.8366 29.951C26.8595 30.1211 26.0138 29.8501 25.3499 29.11C22.5653 26.0087 19.7901 22.9004 17.0114 19.7944C16.5305 19.2572 16.0472 18.7211 15.5288 18.144L15.5311 18.1417Z" fill="black"/>
<path d="M22.7049 8.46818C23.1541 8.92095 23.5518 9.32092 23.9764 9.74788C25.5399 8.18316 27.1175 6.60553 28.6811 5.0408C29.0952 5.45486 29.494 5.85484 29.9725 6.3334C29.8975 6.37563 29.786 6.41082 29.7133 6.48471C27.785 8.40719 25.8472 10.3215 23.94 12.265C23.0333 13.1882 21.9612 13.689 20.6827 13.777C20.644 13.7793 20.5983 13.7711 20.5666 13.7887C20.1572 14.021 19.9215 13.7735 19.6552 13.5025C18.5468 12.3741 17.4266 11.2586 16.3005 10.149C16.1211 9.97191 16.0695 9.82764 16.1375 9.56959C16.2618 9.10158 16.2853 8.60659 16.4049 8.13741C16.5914 7.40549 16.9844 6.77678 17.5169 6.24309C19.5438 4.21152 21.5742 2.18465 23.6045 0.155439C23.6386 0.121423 23.6773 0.0932725 23.6913 0.081543C24.1054 0.495597 24.5089 0.900267 24.9136 1.30494C23.3641 2.85324 21.7912 4.42383 20.244 5.96979C20.6768 6.40143 21.0815 6.80493 21.485 7.20726C23.0157 5.67655 24.5933 4.09892 26.1534 2.53889C26.5839 2.97171 26.9873 3.37755 27.392 3.78457C25.8425 5.3317 24.2637 6.90815 22.7037 8.46701L22.7049 8.46818Z" fill="black"/>
<path d="M12.8509 20.8666C12.3231 21.3909 11.7741 21.9328 11.2287 22.4782C9.05402 24.6517 6.87936 26.824 4.70705 28.9999C4.28009 29.428 3.80973 29.7611 3.20683 29.9113C1.75589 30.2737 0.202891 29.2004 0.0234284 27.712C-0.0821377 26.8358 0.168876 26.0862 0.779986 25.4728C3.54113 22.6988 6.31282 19.9353 9.081 17.1694C9.10094 17.1495 9.12792 17.1342 9.12557 17.1366C10.3619 18.3741 11.5935 19.608 12.8509 20.8666Z" fill="black"/>
</svg>
