<svg width="30" height="30" viewBox="0 0 30 30" fill="none" xmlns="http://www.w3.org/2000/svg">
<circle cx="15" cy="15" r="15" fill="white"/>
<path d="M15.8093 11.8101C16.2664 11.3849 16.6891 10.9911 17.1118 10.5978C17.4055 10.3242 17.6979 10.0493 17.9928 9.7775C18.2189 9.56898 18.4963 9.57462 18.6954 9.8013C19.8632 11.1313 20.7718 12.6091 21.2459 14.3299C21.4794 15.1778 21.5984 16.0425 21.5671 16.923C21.46 19.9431 19.264 22.3614 16.4912 22.8905C16.2627 22.9344 16.0316 22.9632 15.7968 22.9801C16.1593 22.8705 16.4975 22.7208 16.7868 22.4766C17.49 21.8836 17.7655 21.1222 17.6434 20.2198C17.5056 19.1985 16.9427 18.4108 16.2169 17.7232C16.0172 17.5341 15.7961 17.3663 15.577 17.1991C15.4186 17.0782 15.2326 17.0588 15.0648 17.1703C14.0679 17.8316 13.2858 18.6669 12.9927 19.8629C12.7598 20.8128 12.9332 21.6745 13.6677 22.3689C13.8205 22.5136 14.004 22.6332 14.1893 22.7346C14.3728 22.8354 14.577 22.8987 14.7717 23.0001C14.5074 22.9582 14.2382 22.9363 13.9796 22.8724C11.5218 22.2625 9.92499 20.7446 9.21427 18.3125C8.97444 17.4928 8.96129 16.6512 9.05146 15.8046C9.27751 13.6787 10.1892 11.8565 11.5224 10.224C12.508 9.01731 13.6527 7.98347 14.9552 7.12559C15.2395 6.93836 15.5112 6.95715 15.6866 7.20574C15.7642 7.31533 15.8037 7.47438 15.8049 7.61151C15.8137 8.93528 15.8099 10.259 15.8099 11.5828V11.8114L15.8093 11.8101Z" fill="#026900"/>
<path d="M15.2689 18.1333C15.9702 18.7388 16.5407 19.3838 16.7116 20.2974C16.8882 21.2398 16.1881 22.0908 15.2489 22.072C14.4993 22.057 13.8719 21.4396 13.8431 20.6907C13.8155 19.9837 14.0998 19.3932 14.5413 18.871C14.761 18.6111 15.0197 18.3838 15.2689 18.1333Z" fill="#026900"/>
</svg>
