<svg width="20" height="20" viewBox="0 0 20 20" fill="none" xmlns="http://www.w3.org/2000/svg">
<path d="M0 10.0012C0 4.48846 4.48455 -0.00156215 9.99179 4.07714e-07C15.4975 0.00156297 19.9797 4.49471 19.9766 10.0082C19.9734 15.5194 15.4834 20.0047 9.97539 20C4.47908 19.9945 0.000781447 15.5061 0.000781447 10.0012H0ZM18.4234 10.0027C18.4281 5.33927 14.6459 1.5524 9.98633 1.55397C5.33068 1.55631 1.56959 5.31661 1.5524 9.98633C1.53522 14.6396 5.31583 18.4335 9.97929 18.4445C14.6326 18.4554 18.4187 14.6701 18.4226 10.0027H18.4234Z" fill="#026900"/>
<path d="M9.20973 7.719C9.20973 6.96429 9.2066 6.20957 9.21129 5.45485C9.21363 5.12359 9.35114 4.86186 9.66209 4.71733C9.94647 4.58607 10.2207 4.62045 10.4668 4.8103C10.6903 4.98218 10.766 5.22438 10.766 5.49861C10.7653 6.826 10.7684 8.1534 10.7621 9.48079C10.7621 9.62845 10.809 9.71283 10.9254 9.79955C11.7911 10.4425 12.6528 11.091 13.5122 11.7426C13.8466 11.9965 13.9412 12.3614 13.781 12.7075C13.5724 13.1583 13.0294 13.3005 12.6145 12.9981C12.0426 12.5809 11.4801 12.1504 10.9137 11.7254C10.4777 11.3981 10.0465 11.0629 9.60349 10.7433C9.32457 10.5426 9.20582 10.28 9.20738 9.94331C9.21129 9.20187 9.20895 8.45966 9.20895 7.71822L9.20973 7.719Z" fill="#026900"/>
</svg>
