<svg width="32" height="28" viewBox="0 0 32 28" fill="none" xmlns="http://www.w3.org/2000/svg">
<path d="M15.6 13.1699C20.3937 13.1699 25.1861 13.1699 29.9798 13.1699C30.1116 13.1699 30.2446 13.1699 30.3751 13.1809C30.8912 13.2285 31.2072 13.5689 31.2023 14.0886C31.1743 16.6764 30.4252 19.0422 28.9818 21.1858C28.2168 22.323 27.3005 23.3259 26.2317 24.1836C26.1244 24.2702 25.9621 24.3324 25.8255 24.3324C19.0113 24.3397 12.1972 24.3397 5.38303 24.3324C5.2537 24.3324 5.09631 24.2861 4.9987 24.2055C2.58173 22.2095 0.9334 19.7205 0.287978 16.6288C0.112287 15.7894 0.0732442 14.9195 0.00857997 14.0618C-0.0280224 13.5835 0.3136 13.237 0.794311 13.1858C0.93462 13.1711 1.07859 13.1711 1.22012 13.1711C6.01381 13.1711 10.8063 13.1711 15.6 13.1711V13.1699Z" fill="#2E2E2E"/>
<path d="M7.49863 6.33505C7.08869 5.91534 6.6824 5.49441 6.27001 5.07715C5.71244 4.51469 5.15852 3.94613 4.5863 3.3971C4.05557 2.88832 3.2491 3.1116 3.07341 3.80704C2.98556 4.15354 3.10635 4.4427 3.35402 4.69038C4.2459 5.58104 5.13534 6.47292 6.026 7.36479C6.10164 7.44166 6.17363 7.52218 6.30052 7.65639C5.7527 7.65639 5.27199 7.65151 4.79006 7.65761C4.19588 7.66615 3.81033 8.05048 3.82985 8.60195C3.84816 9.11195 4.23736 9.45845 4.8169 9.46211C5.832 9.46821 6.84833 9.45601 7.86344 9.47187C8.01351 9.47431 8.19286 9.55484 8.30511 9.65854C8.86268 10.1746 9.40318 10.7103 9.94977 11.2398C9.93269 11.2727 9.91439 11.3069 9.89731 11.3398C9.79116 11.3398 9.68501 11.3398 9.57887 11.3398C6.87761 11.3398 4.17636 11.3362 1.4751 11.3459C1.21767 11.3459 1.10054 11.2617 1.01147 11.0287C0.572243 9.86962 0.589324 8.7264 1.10298 7.59783C1.18228 7.42214 1.19204 7.31355 1.05417 7.15006C-1.07852 4.62206 0.184258 0.825168 3.40893 0.111422C4.79982 -0.196038 6.06504 0.137044 7.15945 1.0582C7.2961 1.17411 7.38883 1.19485 7.55354 1.11799C10.2536 -0.125274 13.2977 1.54868 13.6954 4.50371C13.8052 5.3236 13.6832 6.12641 13.3099 6.87554C13.2293 7.03659 13.2452 7.13176 13.3599 7.27329C14.2652 8.39088 14.5727 9.6561 14.2713 11.069C14.2262 11.2776 14.1432 11.3532 13.9272 11.3435C13.4819 11.3227 12.9865 11.4472 12.6022 11.2898C12.2179 11.1336 11.9409 10.709 11.6225 10.3967C10.9332 9.72077 10.2426 9.04606 9.56545 8.35794C9.46662 8.25667 9.39342 8.0822 9.3922 7.94067C9.37755 6.9036 9.38854 5.86654 9.38243 4.82947C9.38 4.3512 9.07985 3.98761 8.65039 3.91197C8.21726 3.8351 7.81707 4.04008 7.667 4.4427C7.60844 4.60009 7.59258 4.77945 7.5877 4.94904C7.57672 5.39437 7.58404 5.84091 7.58404 6.28746C7.55598 6.3021 7.52792 6.31674 7.49985 6.33139L7.49863 6.33505Z" fill="#2E2E2E"/>
<path d="M25.9291 5.34074C26.1536 4.57209 26.1561 3.83395 25.9792 3.08848C25.8096 2.37595 26.2268 1.81716 26.8979 1.84644C27.2883 1.86352 27.6177 2.1295 27.7275 2.537C27.9484 3.35202 27.9801 4.17923 27.8703 5.01376C27.8642 5.06257 27.8642 5.11137 27.8618 5.13943C28.3852 5.13943 28.8976 5.11747 29.4088 5.14675C29.77 5.16749 30.1323 5.23582 30.4849 5.32366C31.001 5.45055 31.2975 5.93248 31.1865 6.40343C31.0669 6.90733 30.6167 7.1672 30.0664 7.09888C29.5369 7.03299 29.0013 6.99029 28.4681 6.97687C28.2217 6.97077 27.9728 7.05618 27.6812 7.10742C27.7397 7.20869 27.7739 7.27457 27.8142 7.33679C28.6109 8.52637 28.4803 10.0295 27.4957 11.0617C27.3115 11.2557 27.1151 11.3496 26.832 11.3484C23.6635 11.3374 20.4937 11.3411 17.3251 11.3411H16.8859C17.3142 10.8213 17.69 10.3638 18.0682 9.9075C19.2016 8.53735 20.3631 7.19039 21.4612 5.79339C22.5898 4.35736 24.5065 4.14873 25.8157 5.27486C25.8376 5.29316 25.8669 5.30414 25.9316 5.33952L25.9291 5.34074Z" fill="#2E2E2E"/>
<path d="M15.6048 26.1675C19.3102 26.1675 23.0156 26.1675 26.7222 26.1675C27.2871 26.1675 27.5958 26.3639 27.7422 26.8068C27.9057 27.3034 27.6043 27.8512 27.0956 27.9598C26.9382 27.994 26.7735 27.9988 26.6112 27.9988C19.2712 28.0001 11.9312 28.0001 4.58997 28.0001C3.96163 28.0001 3.63587 27.8219 3.47604 27.3949C3.27351 26.8544 3.61513 26.2663 4.18491 26.1846C4.31424 26.1663 4.44845 26.1675 4.58021 26.1675C8.25509 26.1675 11.9312 26.1675 15.6061 26.1675H15.6048Z" fill="#2E2E2E"/>
<path d="M14.2054 1.15214C16.5712 -0.987875 21.8541 0.0528532 22.7204 2.79437C22.2372 3.03107 21.7455 3.2397 21.2855 3.50446C20.4913 3.96199 19.9923 4.72454 19.4213 5.40778C18.3927 6.63762 17.3752 7.87844 16.3528 9.11438C16.3076 9.16807 16.2576 9.21687 16.1819 9.29983C16.1319 9.07046 16.1087 8.86305 16.0404 8.67271C15.8403 8.12246 15.6158 7.58196 15.4145 7.03171C15.3669 6.90116 15.3316 6.74133 15.3621 6.612C15.8135 4.67939 15.4767 2.90906 14.2957 1.3071C14.2664 1.26683 14.2384 1.22413 14.2115 1.18143C14.2066 1.17411 14.2079 1.16191 14.2066 1.15214H14.2054Z" fill="#2E2E2E"/>
</svg>
