<svg width="30" height="30" viewBox="0 0 30 30" fill="none" xmlns="http://www.w3.org/2000/svg">
<path d="M29.966 15.017C29.959 23.2825 23.2204 30.0094 14.9584 30C6.70457 29.9906 -0.0128726 23.2404 1.85231e-05 14.9678C0.0129096 6.70458 6.75731 -0.0152091 15.0229 2.58542e-05C23.2638 0.0152608 29.973 6.75731 29.9672 15.017H29.966ZM14.9736 1.11335C7.34678 1.12155 1.12389 7.35148 1.11334 14.9865C1.10397 22.6263 7.34326 28.8796 14.9795 28.8832C22.6134 28.8867 28.8562 22.638 28.8538 14.9947C28.8515 7.3503 22.6063 1.10397 14.9736 1.11218V1.11335Z" fill="black"/>
<path d="M19.3836 19.5219C19.3578 20.0938 19.3296 20.7653 19.2957 21.4356C19.2253 22.8197 19.1515 24.2037 19.0789 25.5878C19.0578 25.9874 19.0484 26.3882 19.0109 26.7866C19.0027 26.8722 18.9124 26.9976 18.8328 27.0234C16.9776 27.621 15.085 27.8097 13.1536 27.4956C12.8278 27.4429 12.5056 27.3632 12.1786 27.3163C12.0087 27.2917 11.9512 27.2226 11.943 27.055C11.8669 25.4272 11.786 23.7982 11.7028 22.1704C11.6547 21.2247 11.5973 20.2801 11.5493 19.3344C11.5399 19.1504 11.5481 18.9652 11.5481 18.7613C11.6817 18.7098 11.8223 18.643 11.97 18.5996C13.1161 18.2633 13.8802 17.4734 14.3853 16.4444C15.1365 14.9116 15.3803 13.2861 14.9725 11.6103C14.6385 10.2368 13.8931 9.10822 12.7282 8.2914C11.2973 7.28823 9.71756 7.3937 8.36165 8.58555C6.82644 9.9356 6.18188 11.6548 6.34127 13.6822C6.42447 14.7522 6.68347 15.7729 7.23075 16.7093C7.78976 17.6679 8.5644 18.3558 9.64959 18.6465C9.8957 18.7121 9.95078 18.8293 9.93437 19.0766C9.84882 20.4301 9.78554 21.786 9.71405 23.1408C9.6578 24.2107 9.60155 25.2807 9.54529 26.3612C5.27365 24.4498 1.78953 19.5055 2.41651 13.6564C3.10208 7.25893 8.39564 2.56423 14.5248 2.35328C20.9082 2.13413 26.2147 6.61907 27.376 12.5197C28.5866 18.6711 25.1658 23.8158 21.3231 25.8842C21.2809 25.1588 21.2352 24.4416 21.1989 23.7244C21.1297 22.3697 21.0723 21.0138 20.9949 19.659C20.9821 19.4399 21.0664 19.3813 21.2516 19.3274C22.0508 19.093 22.6942 18.623 23.2345 17.9937C23.5345 17.6445 23.6435 17.232 23.6341 16.8019C23.6048 15.5046 23.5743 14.2061 23.4864 12.9123C23.4009 11.6478 23.2474 10.3891 23.1161 9.12815C23.0646 8.63477 22.9931 8.14256 22.9274 7.63043H22.3286V16.087H21.5551V7.63043H20.6633V16.0952H19.891V7.63278H19.032V16.0929H18.2609V7.63512H17.4464C17.328 8.68399 17.1944 9.727 17.096 10.7735C16.9717 12.0943 16.8592 13.4162 16.7737 14.7393C16.7292 15.4401 16.7503 16.1444 16.7467 16.8476C16.7421 17.6175 17.1745 18.1601 17.7487 18.5726C18.2386 18.9254 18.7953 19.1856 19.3824 19.5207L19.3836 19.5219Z" fill="black"/>
<path d="M7.13232 14.0231C7.2003 13.0375 7.37022 12.1644 7.8847 11.3957C7.94329 11.3078 8.06986 11.2644 8.16361 11.2C8.18119 11.3136 8.23862 11.4367 8.21166 11.5375C7.63976 13.7008 8.09564 15.6392 9.46093 17.3853C9.51366 17.4521 9.52773 17.5494 9.56054 17.6326C9.46444 17.635 9.33553 17.6795 9.27694 17.6338C8.86794 17.3103 8.40737 17.0209 8.09095 16.6201C7.48273 15.849 7.1792 14.9349 7.13232 14.0231Z" fill="black"/>
</svg>
