<svg width="24" height="24" viewBox="0 0 24 24" fill="none" xmlns="http://www.w3.org/2000/svg">
<path d="M21.2585 10.7196C21.7788 11.4945 21.7788 12.5057 21.2585 13.2806C20.381 14.5874 19.2335 15.6985 17.8872 16.5354C16.12 17.6338 14.0808 18.216 12 18.216C9.91924 18.216 7.87997 17.6338 6.11278 16.5354C4.76646 15.6985 3.61896 14.5874 2.74153 13.2806C2.2212 12.5057 2.2212 11.4945 2.74153 10.7196C3.61896 9.41276 4.76646 8.30165 6.11278 7.46479C7.87997 6.36632 9.91924 5.78418 12 5.78418C14.0808 5.78418 16.12 6.36632 17.8872 7.46479C19.2335 8.30165 20.381 9.41276 21.2585 10.7196Z" stroke="#858DAB" stroke-width="1.5" stroke-linecap="round" stroke-linejoin="round"/>
<path d="M12 14.9997C13.6569 14.9997 15 13.6566 15 11.9997C15 10.3429 13.6569 8.99973 12 8.99973C10.3431 8.99973 9 10.3429 9 11.9997C9 13.6566 10.3431 14.9997 12 14.9997Z" stroke="#858DAB" stroke-width="1.5" stroke-linecap="round" stroke-linejoin="round"/>
<path d="M21.7981 17.6569L2.20215 6.34315" stroke="#858DAB" stroke-width="1.5" stroke-linecap="round"/>
</svg>
