<svg width="157" height="44" viewBox="0 0 157 44" fill="none" xmlns="http://www.w3.org/2000/svg">
<path d="M40.654 6.07983C41.2364 2.6983 38.4398 -0.309494 35.0249 0.0255759C32.7114 0.252574 30.83 1.98831 30.4178 4.27605L24.4395 37.4512C23.8127 40.9297 26.685 44.043 30.2025 43.6979C32.5892 43.4637 34.5253 41.6636 34.9323 39.3002L36.0927 32.5628C36.6394 29.3889 39.2394 26.9715 42.4446 26.657L43.4851 26.5549C45.9804 26.3101 48.027 24.472 48.5376 22.0173L48.9705 19.9361C49.5433 17.1821 47.2806 14.6627 44.4812 14.9374C41.7414 15.2062 39.4977 12.7931 39.965 10.0801L40.654 6.07983Z" fill="#026900"/>
<path d="M24.6513 11.9845C25.2435 8.59821 22.4444 5.57988 19.0231 5.91558C16.7189 6.14166 14.842 7.8644 14.4197 10.1408L10.2998 32.3488C9.65464 35.8268 12.5237 38.9526 16.0441 38.6072C18.4199 38.3741 20.3488 36.5853 20.7601 34.2337L24.6513 11.9845Z" fill="#026900"/>
<path d="M8.12426 24.5658C8.6688 22.0504 6.60516 19.7338 4.0438 19.9851C2.44734 20.1417 1.1217 21.2851 0.73227 22.8412L0.117213 25.2989C-0.526831 27.8725 1.57313 30.3073 4.21338 30.0482C5.87187 29.8855 7.23562 28.6707 7.58821 27.0419L8.12426 24.5658Z" fill="#026900"/>
<path d="M61.7131 30.5363H58.0831V13.1415H68.0473V16.1624H61.7131V20.6451H67.6088V23.6661H61.7131V30.5363Z" fill="#3E3E3E"/>
<path d="M77.9587 30.5363H70.0409V28.4411L72.1604 27.4666V16.2111L70.0409 15.2366V13.1415H77.9587V15.2366L75.8391 16.2111V27.4666L77.9587 28.4411V30.5363Z" fill="#3E3E3E"/>
<path d="M87.6226 30.5363H83.9439V16.2111H79.2175V13.1415H92.3489V16.2111H87.6226V30.5363Z" fill="#3E3E3E"/>
<path d="M100.099 13.1415C101.674 13.1415 102.973 13.3364 103.997 13.7262C105.02 14.0997 105.783 14.6763 106.287 15.4559C106.79 16.2192 107.042 17.1856 107.042 18.355C107.042 19.1509 106.888 19.8493 106.579 20.4502C106.287 21.0349 105.889 21.5384 105.385 21.9607C104.898 22.3667 104.37 22.6997 103.802 22.9595L108.918 30.5363H104.825L100.683 23.861H98.71V30.5363H95.0313V13.1415H100.099ZM99.8307 16.1624H98.71V20.8644H99.9038C100.716 20.8644 101.374 20.775 101.877 20.5964C102.381 20.4177 102.746 20.1497 102.973 19.7924C103.201 19.4189 103.315 18.9722 103.315 18.4525C103.315 17.9003 103.185 17.4617 102.925 17.1369C102.681 16.7958 102.299 16.5522 101.78 16.406C101.276 16.2436 100.627 16.1624 99.8307 16.1624Z" fill="#3E3E3E"/>
<path d="M121.761 30.5363L120.494 26.3947H114.16L112.893 30.5363H108.922L115.061 13.0684H119.568L125.732 30.5363H121.761ZM118.35 19.2564C118.269 18.9803 118.163 18.6311 118.033 18.2089C117.903 17.7866 117.773 17.3562 117.643 16.9176C117.514 16.4791 117.408 16.0974 117.327 15.7726C117.246 16.0974 117.132 16.5035 116.986 16.9907C116.856 17.4617 116.726 17.9165 116.596 18.355C116.482 18.7773 116.393 19.0778 116.328 19.2564L115.085 23.3006H119.617L118.35 19.2564Z" fill="#3E3E3E"/>
<path d="M134.841 15.9675C134.143 15.9675 133.517 16.1056 132.965 16.3817C132.429 16.6578 131.974 17.0557 131.601 17.5754C131.227 18.0789 130.943 18.6961 130.748 19.427C130.569 20.1579 130.48 20.9781 130.48 21.8876C130.48 23.122 130.626 24.1777 130.919 25.0547C131.227 25.9155 131.706 26.5733 132.356 27.0281C133.006 27.4828 133.834 27.7102 134.841 27.7102C135.556 27.7102 136.262 27.629 136.96 27.4666C137.675 27.3042 138.447 27.0768 139.275 26.7845V29.8785C138.512 30.1871 137.756 30.4145 137.009 30.5606C136.262 30.7068 135.426 30.7799 134.5 30.7799C132.713 30.7799 131.235 30.4145 130.066 29.6836C128.913 28.9365 128.06 27.897 127.508 26.5652C126.956 25.2171 126.68 23.6498 126.68 21.8632C126.68 20.5477 126.858 19.3458 127.215 18.2576C127.573 17.1531 128.093 16.203 128.775 15.4072C129.473 14.6113 130.326 13.9941 131.333 13.5556C132.356 13.1171 133.525 12.8978 134.841 12.8978C135.702 12.8978 136.563 13.0115 137.423 13.2389C138.3 13.45 139.137 13.7424 139.933 14.116L138.739 17.1125C138.089 16.8039 137.431 16.536 136.766 16.3086C136.116 16.0812 135.474 15.9675 134.841 15.9675Z" fill="#3E3E3E"/>
<path d="M156.955 30.5363H152.765L148.209 23.2032L146.65 24.3238V30.5363H142.971V13.1415H146.65V21.108C146.894 20.7669 147.137 20.4258 147.381 20.0848C147.624 19.7437 147.868 19.4026 148.112 19.0615L152.814 13.1415H156.907L150.84 20.84L156.955 30.5363Z" fill="#3E3E3E"/>
</svg>
