<svg width="263" height="94" viewBox="0 0 263 94" fill="none" xmlns="http://www.w3.org/2000/svg">
<path d="M68.1904 8.864C69.6144 8.864 70.7904 9.048 71.7184 9.416C72.6464 9.784 73.3344 10.344 73.7824 11.096C74.2304 11.832 74.4544 12.768 74.4544 13.904C74.4544 14.736 74.3184 15.448 74.0464 16.04C73.7744 16.632 73.4064 17.128 72.9424 17.528C72.4944 17.912 72.0064 18.224 71.4784 18.464L76.0864 26H72.4384L68.7184 19.232H66.6304V26H63.4144V8.864H68.1904ZM68.0464 11.432H66.6304V16.712H68.0944C68.7824 16.712 69.3504 16.608 69.7984 16.4C70.2624 16.192 70.6064 15.888 70.8304 15.488C71.0704 15.088 71.1904 14.592 71.1904 14C71.1904 13.376 71.0784 12.88 70.8544 12.512C70.6304 12.128 70.2864 11.856 69.8224 11.696C69.3584 11.52 68.7664 11.432 68.0464 11.432ZM82.9572 12.752C84.0772 12.752 85.0372 12.992 85.8372 13.472C86.6532 13.936 87.2852 14.608 87.7332 15.488C88.1812 16.352 88.4052 17.408 88.4052 18.656V20.192H80.4372C80.4692 21.376 80.7572 22.296 81.3012 22.952C81.8612 23.592 82.6452 23.912 83.6532 23.912C84.4532 23.912 85.1652 23.832 85.7892 23.672C86.4132 23.496 87.0612 23.248 87.7332 22.928V25.352C87.1252 25.656 86.4932 25.88 85.8372 26.024C85.1812 26.168 84.3732 26.24 83.4132 26.24C82.1972 26.24 81.1172 26 80.1732 25.52C79.2452 25.024 78.5172 24.28 77.9892 23.288C77.4612 22.296 77.1972 21.064 77.1972 19.592C77.1972 18.104 77.4372 16.856 77.9172 15.848C78.3972 14.824 79.0692 14.056 79.9332 13.544C80.8132 13.016 81.8212 12.752 82.9572 12.752ZM83.0052 14.984C82.2852 14.984 81.7012 15.248 81.2532 15.776C80.8212 16.288 80.5652 17.056 80.4852 18.08H85.3812C85.3812 17.472 85.2932 16.936 85.1172 16.472C84.9412 16.008 84.6772 15.648 84.3252 15.392C83.9892 15.12 83.5492 14.984 83.0052 14.984ZM96.3423 12.752C97.9103 12.752 99.1103 13.12 99.9423 13.856C100.774 14.576 101.19 15.712 101.19 17.264V26H98.9583L98.3343 24.2H98.2383C97.8863 24.664 97.5263 25.056 97.1583 25.376C96.7903 25.68 96.3663 25.896 95.8863 26.024C95.4063 26.168 94.8303 26.24 94.1583 26.24C93.4383 26.24 92.7903 26.096 92.2143 25.808C91.6383 25.52 91.1823 25.08 90.8463 24.488C90.5103 23.88 90.3423 23.12 90.3423 22.208C90.3423 20.864 90.8063 19.856 91.7343 19.184C92.6623 18.496 94.0543 18.12 95.9103 18.056L97.9983 17.984V17.336C97.9983 16.504 97.8223 15.912 97.4703 15.56C97.1183 15.208 96.6383 15.032 96.0303 15.032C95.4543 15.032 94.8703 15.128 94.2783 15.32C93.7023 15.512 93.1343 15.736 92.5742 15.992L91.5903 13.88C92.2463 13.544 92.9743 13.272 93.7743 13.064C94.5743 12.856 95.4303 12.752 96.3423 12.752ZM96.6543 19.904C95.5183 19.952 94.7263 20.184 94.2783 20.6C93.8303 21 93.6063 21.544 93.6063 22.232C93.6063 22.84 93.7583 23.28 94.0623 23.552C94.3823 23.824 94.7983 23.96 95.3103 23.96C96.0623 23.96 96.7023 23.712 97.2303 23.216C97.7583 22.704 98.0223 21.952 98.0223 20.96V19.856L96.6543 19.904ZM108.596 26.24C107.204 26.24 106.076 25.68 105.212 24.56C104.348 23.424 103.916 21.744 103.916 19.52C103.916 17.296 104.356 15.616 105.236 14.48C106.116 13.328 107.268 12.752 108.692 12.752C109.284 12.752 109.796 12.84 110.228 13.016C110.676 13.176 111.06 13.4 111.38 13.688C111.7 13.976 111.98 14.296 112.22 14.648H112.316C112.284 14.424 112.244 14.08 112.196 13.616C112.148 13.152 112.124 12.72 112.124 12.32V7.76H115.316V26H112.868L112.268 24.296H112.124C111.916 24.648 111.652 24.976 111.332 25.28C111.012 25.568 110.628 25.8 110.18 25.976C109.732 26.152 109.204 26.24 108.596 26.24ZM109.652 23.792C110.628 23.792 111.316 23.472 111.716 22.832C112.116 22.192 112.316 21.224 112.316 19.928V19.544C112.316 18.136 112.124 17.064 111.74 16.328C111.356 15.592 110.652 15.224 109.628 15.224C108.828 15.224 108.212 15.608 107.78 16.376C107.364 17.128 107.156 18.192 107.156 19.568C107.156 20.944 107.372 21.992 107.804 22.712C108.236 23.432 108.852 23.792 109.652 23.792ZM117.039 12.992H120.447L122.775 20.336C122.887 20.64 122.975 20.944 123.039 21.248C123.119 21.552 123.183 21.856 123.231 22.16C123.295 22.464 123.343 22.768 123.375 23.072H123.447C123.511 22.672 123.591 22.232 123.687 21.752C123.799 21.272 123.927 20.8 124.071 20.336L126.351 12.992H129.711L124.551 27.704C124.247 28.568 123.863 29.304 123.399 29.912C122.951 30.52 122.399 30.976 121.743 31.28C121.103 31.6 120.335 31.76 119.439 31.76C119.071 31.76 118.743 31.736 118.455 31.688C118.183 31.656 117.943 31.616 117.735 31.568V29.168C117.895 29.2 118.095 29.232 118.335 29.264C118.575 29.296 118.823 29.312 119.079 29.312C119.543 29.312 119.935 29.208 120.255 29C120.591 28.808 120.871 28.536 121.095 28.184C121.319 27.848 121.487 27.456 121.599 27.008L121.935 25.952L117.039 12.992ZM142.394 23.816C142.746 23.816 143.082 23.784 143.402 23.72C143.738 23.64 144.05 23.552 144.338 23.456V25.712C144.002 25.856 143.594 25.976 143.114 26.072C142.634 26.184 142.098 26.24 141.506 26.24C140.77 26.24 140.114 26.12 139.538 25.88C138.962 25.624 138.506 25.192 138.17 24.584C137.85 23.976 137.69 23.128 137.69 22.04V15.272H136.058V13.952L137.882 12.896L138.842 10.136H140.858V12.992H144.218V15.272H140.858V22.016C140.858 22.624 140.994 23.08 141.266 23.384C141.554 23.672 141.93 23.816 142.394 23.816ZM157.889 19.472C157.889 20.56 157.753 21.52 157.481 22.352C157.209 23.184 156.809 23.896 156.281 24.488C155.769 25.064 155.145 25.504 154.409 25.808C153.673 26.096 152.849 26.24 151.937 26.24C151.089 26.24 150.297 26.096 149.561 25.808C148.841 25.504 148.217 25.064 147.689 24.488C147.177 23.896 146.777 23.184 146.489 22.352C146.201 21.52 146.057 20.56 146.057 19.472C146.057 18.032 146.289 16.816 146.753 15.824C147.233 14.816 147.921 14.056 148.817 13.544C149.713 13.016 150.777 12.752 152.009 12.752C153.161 12.752 154.177 13.016 155.057 13.544C155.937 14.056 156.625 14.816 157.121 15.824C157.633 16.816 157.889 18.032 157.889 19.472ZM149.297 19.472C149.297 20.384 149.393 21.168 149.585 21.824C149.777 22.464 150.065 22.952 150.449 23.288C150.849 23.624 151.361 23.792 151.985 23.792C152.609 23.792 153.113 23.624 153.497 23.288C153.897 22.952 154.185 22.464 154.361 21.824C154.553 21.168 154.649 20.384 154.649 19.472C154.649 18.544 154.553 17.768 154.361 17.144C154.169 16.504 153.873 16.024 153.473 15.704C153.089 15.368 152.585 15.2 151.961 15.2C151.017 15.2 150.337 15.568 149.921 16.304C149.505 17.04 149.297 18.096 149.297 19.472ZM173.325 16.592H179.589V25.304C178.741 25.608 177.837 25.84 176.877 26C175.933 26.16 174.893 26.24 173.757 26.24C172.141 26.24 170.757 25.896 169.605 25.208C168.469 24.52 167.597 23.52 166.989 22.208C166.381 20.896 166.077 19.296 166.077 17.408C166.077 15.616 166.405 14.064 167.061 12.752C167.717 11.44 168.669 10.424 169.917 9.704C171.165 8.984 172.693 8.624 174.501 8.624C175.413 8.624 176.285 8.72 177.117 8.912C177.965 9.088 178.733 9.336 179.421 9.656L178.341 12.176C177.781 11.904 177.173 11.68 176.517 11.504C175.877 11.312 175.189 11.216 174.453 11.216C173.365 11.216 172.445 11.472 171.693 11.984C170.957 12.496 170.389 13.224 169.989 14.168C169.605 15.096 169.413 16.192 169.413 17.456C169.413 18.672 169.581 19.752 169.917 20.696C170.253 21.624 170.757 22.352 171.429 22.88C172.117 23.392 173.005 23.648 174.093 23.648C174.429 23.648 174.741 23.632 175.029 23.6C175.317 23.568 175.581 23.528 175.821 23.48C176.077 23.432 176.301 23.384 176.493 23.336V19.208H173.325V16.592ZM194.17 19.472C194.17 20.56 194.034 21.52 193.762 22.352C193.49 23.184 193.09 23.896 192.562 24.488C192.05 25.064 191.426 25.504 190.69 25.808C189.954 26.096 189.13 26.24 188.218 26.24C187.37 26.24 186.578 26.096 185.842 25.808C185.122 25.504 184.498 25.064 183.97 24.488C183.458 23.896 183.058 23.184 182.77 22.352C182.482 21.52 182.338 20.56 182.338 19.472C182.338 18.032 182.57 16.816 183.034 15.824C183.514 14.816 184.202 14.056 185.098 13.544C185.994 13.016 187.058 12.752 188.29 12.752C189.442 12.752 190.458 13.016 191.338 13.544C192.218 14.056 192.906 14.816 193.402 15.824C193.914 16.816 194.17 18.032 194.17 19.472ZM185.578 19.472C185.578 20.384 185.674 21.168 185.866 21.824C186.058 22.464 186.346 22.952 186.73 23.288C187.13 23.624 187.642 23.792 188.266 23.792C188.89 23.792 189.394 23.624 189.778 23.288C190.178 22.952 190.466 22.464 190.642 21.824C190.834 21.168 190.93 20.384 190.93 19.472C190.93 18.544 190.834 17.768 190.642 17.144C190.45 16.504 190.154 16.024 189.754 15.704C189.37 15.368 188.866 15.2 188.242 15.2C187.298 15.2 186.618 15.568 186.202 16.304C185.786 17.04 185.578 18.096 185.578 19.472ZM199.715 20.648H197.123L196.619 8.864H200.243L199.715 20.648ZM196.547 24.464C196.547 23.792 196.723 23.32 197.075 23.048C197.443 22.76 197.883 22.616 198.395 22.616C198.907 22.616 199.339 22.752 199.691 23.024C200.059 23.296 200.243 23.776 200.243 24.464C200.243 25.12 200.059 25.592 199.691 25.88C199.339 26.168 198.907 26.312 198.395 26.312C197.883 26.312 197.443 26.168 197.075 25.88C196.723 25.592 196.547 25.12 196.547 24.464Z" fill="black"/>
<path d="M78.6603 53.16L81.8103 47.148H83.8983L79.6143 55.014V60H77.6883V55.086L73.4043 47.148H75.5103L78.6603 53.16ZM93.046 55.14C93.046 55.944 92.938 56.658 92.722 57.282C92.506 57.906 92.2 58.434 91.804 58.866C91.408 59.298 90.928 59.628 90.364 59.856C89.8 60.072 89.164 60.18 88.456 60.18C87.808 60.18 87.208 60.072 86.656 59.856C86.104 59.628 85.624 59.298 85.216 58.866C84.82 58.434 84.508 57.906 84.28 57.282C84.052 56.658 83.938 55.938 83.938 55.122C83.938 54.054 84.118 53.148 84.478 52.404C84.85 51.66 85.378 51.096 86.062 50.712C86.758 50.316 87.574 50.118 88.51 50.118C89.398 50.118 90.178 50.316 90.85 50.712C91.534 51.096 92.068 51.66 92.452 52.404C92.848 53.148 93.046 54.06 93.046 55.14ZM85.9 55.14C85.9 55.86 85.99 56.484 86.17 57.012C86.35 57.528 86.632 57.924 87.016 58.2C87.4 58.476 87.892 58.614 88.492 58.614C89.092 58.614 89.584 58.476 89.968 58.2C90.352 57.924 90.634 57.528 90.814 57.012C90.994 56.484 91.084 55.86 91.084 55.14C91.084 54.396 90.988 53.772 90.796 53.268C90.616 52.764 90.334 52.38 89.95 52.116C89.578 51.84 89.086 51.702 88.474 51.702C87.574 51.702 86.92 52.002 86.512 52.602C86.104 53.202 85.9 54.048 85.9 55.14ZM103.817 50.298V60H102.287L102.017 58.722H101.927C101.723 59.058 101.459 59.334 101.135 59.55C100.811 59.766 100.457 59.922 100.073 60.018C99.6887 60.126 99.2927 60.18 98.8847 60.18C98.1287 60.18 97.4867 60.06 96.9587 59.82C96.4427 59.568 96.0467 59.184 95.7707 58.668C95.5067 58.14 95.3747 57.468 95.3747 56.652V50.298H97.3007V56.364C97.3007 57.12 97.4567 57.684 97.7687 58.056C98.0927 58.428 98.5907 58.614 99.2627 58.614C99.9347 58.614 100.463 58.482 100.847 58.218C101.231 57.954 101.501 57.57 101.657 57.066C101.825 56.55 101.909 55.932 101.909 55.212V50.298H103.817ZM108.405 47.148L108.045 51.792H106.839L106.479 47.148H108.405ZM115.317 50.118C115.485 50.118 115.671 50.13 115.875 50.154C116.079 50.166 116.247 50.184 116.379 50.208L116.181 51.99C116.049 51.954 115.893 51.924 115.713 51.9C115.533 51.876 115.365 51.864 115.209 51.864C114.849 51.864 114.501 51.936 114.165 52.08C113.841 52.212 113.547 52.41 113.283 52.674C113.019 52.926 112.809 53.238 112.653 53.61C112.509 53.982 112.437 54.408 112.437 54.888V60H110.529V50.298H112.041L112.293 52.026H112.365C112.569 51.678 112.815 51.36 113.103 51.072C113.391 50.784 113.721 50.556 114.093 50.388C114.465 50.208 114.873 50.118 115.317 50.118ZM121.64 50.118C122.492 50.118 123.224 50.298 123.836 50.658C124.448 51.006 124.916 51.51 125.24 52.17C125.576 52.83 125.744 53.61 125.744 54.51V55.554H119.228C119.252 56.55 119.51 57.312 120.002 57.84C120.506 58.368 121.208 58.632 122.108 58.632C122.732 58.632 123.284 58.578 123.764 58.47C124.256 58.35 124.76 58.176 125.276 57.948V59.532C124.796 59.748 124.304 59.91 123.8 60.018C123.308 60.126 122.72 60.18 122.036 60.18C121.1 60.18 120.272 59.994 119.552 59.622C118.832 59.25 118.268 58.698 117.86 57.966C117.464 57.222 117.266 56.31 117.266 55.23C117.266 54.138 117.446 53.214 117.806 52.458C118.178 51.702 118.688 51.126 119.336 50.73C119.996 50.322 120.764 50.118 121.64 50.118ZM121.64 51.594C120.956 51.594 120.404 51.816 119.984 52.26C119.576 52.704 119.336 53.334 119.264 54.15H123.836C123.836 53.646 123.758 53.202 123.602 52.818C123.446 52.434 123.206 52.134 122.882 51.918C122.558 51.702 122.144 51.594 121.64 51.594ZM141.027 60L139.659 56.292H134.691L133.323 60H131.307L136.185 47.094H138.201L143.061 60H141.027ZM137.823 50.982C137.787 50.85 137.721 50.652 137.625 50.388C137.541 50.112 137.457 49.836 137.373 49.56C137.289 49.272 137.223 49.038 137.175 48.858C137.115 49.098 137.043 49.362 136.959 49.65C136.887 49.926 136.815 50.184 136.743 50.424C136.671 50.652 136.611 50.838 136.563 50.982L135.267 54.6H139.119L137.823 50.982ZM146.486 60H144.578V46.32H146.486V60ZM151.39 60H149.482V46.32H151.39V60ZM166.658 56.526C166.658 57.294 166.472 57.948 166.1 58.488C165.728 59.028 165.194 59.448 164.498 59.748C163.802 60.036 162.974 60.18 162.014 60.18C161.546 60.18 161.096 60.15 160.664 60.09C160.232 60.042 159.83 59.97 159.458 59.874C159.086 59.778 158.756 59.658 158.468 59.514V57.678C158.948 57.894 159.512 58.092 160.16 58.272C160.808 58.44 161.468 58.524 162.14 58.524C162.716 58.524 163.196 58.446 163.58 58.29C163.964 58.134 164.252 57.918 164.444 57.642C164.636 57.366 164.732 57.042 164.732 56.67C164.732 56.274 164.63 55.944 164.426 55.68C164.234 55.404 163.928 55.152 163.508 54.924C163.1 54.684 162.548 54.432 161.852 54.168C161.372 53.988 160.934 53.79 160.538 53.574C160.154 53.346 159.812 53.082 159.512 52.782C159.224 52.482 159.002 52.134 158.846 51.738C158.69 51.342 158.612 50.88 158.612 50.352C158.612 49.644 158.786 49.038 159.134 48.534C159.494 48.03 159.986 47.646 160.61 47.382C161.234 47.106 161.96 46.968 162.788 46.968C163.484 46.968 164.126 47.04 164.714 47.184C165.314 47.316 165.884 47.502 166.424 47.742L165.812 49.344C165.32 49.14 164.822 48.972 164.318 48.84C163.814 48.708 163.286 48.642 162.734 48.642C162.254 48.642 161.852 48.714 161.528 48.858C161.204 49.002 160.958 49.2 160.79 49.452C160.634 49.704 160.556 49.998 160.556 50.334C160.556 50.73 160.646 51.06 160.826 51.324C161.006 51.588 161.294 51.834 161.69 52.062C162.086 52.278 162.608 52.518 163.256 52.782C163.976 53.058 164.588 53.358 165.092 53.682C165.608 54.006 165.998 54.396 166.262 54.852C166.526 55.296 166.658 55.854 166.658 56.526ZM172.775 50.118C173.627 50.118 174.359 50.298 174.971 50.658C175.583 51.006 176.051 51.51 176.375 52.17C176.711 52.83 176.879 53.61 176.879 54.51V55.554H170.363C170.387 56.55 170.645 57.312 171.137 57.84C171.641 58.368 172.343 58.632 173.243 58.632C173.867 58.632 174.419 58.578 174.899 58.47C175.391 58.35 175.895 58.176 176.411 57.948V59.532C175.931 59.748 175.439 59.91 174.935 60.018C174.443 60.126 173.855 60.18 173.171 60.18C172.235 60.18 171.407 59.994 170.687 59.622C169.967 59.25 169.403 58.698 168.995 57.966C168.599 57.222 168.401 56.31 168.401 55.23C168.401 54.138 168.581 53.214 168.941 52.458C169.313 51.702 169.823 51.126 170.471 50.73C171.131 50.322 171.899 50.118 172.775 50.118ZM172.775 51.594C172.091 51.594 171.539 51.816 171.119 52.26C170.711 52.704 170.471 53.334 170.399 54.15H174.971C174.971 53.646 174.893 53.202 174.737 52.818C174.581 52.434 174.341 52.134 174.017 51.918C173.693 51.702 173.279 51.594 172.775 51.594ZM182.752 58.632C183.004 58.632 183.262 58.608 183.526 58.56C183.79 58.512 184.018 58.458 184.21 58.398V59.838C184.006 59.934 183.73 60.012 183.382 60.072C183.034 60.144 182.686 60.18 182.338 60.18C181.81 60.18 181.324 60.09 180.88 59.91C180.448 59.73 180.1 59.418 179.836 58.974C179.572 58.53 179.44 57.912 179.44 57.12V51.756H178.09V50.892L179.512 50.172L180.178 48.12H181.348V50.298H184.12V51.756H181.348V57.084C181.348 57.612 181.474 58.002 181.726 58.254C181.99 58.506 182.332 58.632 182.752 58.632ZM187.806 56.184H186.456L186.006 47.148H188.256L187.806 56.184ZM185.88 58.938C185.88 58.47 186 58.14 186.24 57.948C186.48 57.756 186.774 57.66 187.122 57.66C187.458 57.66 187.746 57.756 187.986 57.948C188.226 58.14 188.346 58.47 188.346 58.938C188.346 59.406 188.226 59.742 187.986 59.946C187.746 60.15 187.458 60.252 187.122 60.252C186.774 60.252 186.48 60.15 186.24 59.946C186 59.742 185.88 59.406 185.88 58.938Z" fill="black"/>
<path d="M1.71754 90V79.29H3.05254V88.8H7.43254V90H1.71754ZM11.9189 81.81C12.5689 81.81 13.1289 81.96 13.5989 82.26C14.0689 82.56 14.4289 82.985 14.6789 83.535C14.9389 84.075 15.0689 84.71 15.0689 85.44V86.235H9.90895C9.92895 87.145 10.1439 87.84 10.5539 88.32C10.9639 88.79 11.5389 89.025 12.2789 89.025C12.7589 89.025 13.1839 88.98 13.5539 88.89C13.9339 88.79 14.3239 88.65 14.7239 88.47V89.625C14.3339 89.805 13.9489 89.935 13.5689 90.015C13.1989 90.105 12.7489 90.15 12.2189 90.15C11.4989 90.15 10.8639 89.995 10.3139 89.685C9.76395 89.375 9.33395 88.915 9.02395 88.305C8.71395 87.685 8.55895 86.93 8.55895 86.04C8.55895 85.16 8.69895 84.405 8.97895 83.775C9.25895 83.145 9.64895 82.66 10.1489 82.32C10.6589 81.98 11.2489 81.81 11.9189 81.81ZM11.9189 82.89C11.3389 82.89 10.8789 83.095 10.5389 83.505C10.1989 83.905 9.99895 84.465 9.93895 85.185H13.7189C13.7189 84.725 13.6539 84.325 13.5239 83.985C13.3939 83.645 13.1939 83.38 12.9239 83.19C12.6639 82.99 12.3289 82.89 11.9189 82.89ZM19.5573 89.07C19.7473 89.07 19.9423 89.055 20.1423 89.025C20.3423 88.985 20.5073 88.945 20.6373 88.905V89.91C20.4973 89.98 20.2973 90.035 20.0373 90.075C19.7873 90.125 19.5473 90.15 19.3173 90.15C18.9173 90.15 18.5473 90.08 18.2073 89.94C17.8673 89.79 17.5923 89.535 17.3823 89.175C17.1823 88.815 17.0823 88.31 17.0823 87.66V82.98H16.0173V82.35L17.1123 81.825L17.6073 80.115H18.3873V81.96H20.5773V82.98H18.3873V87.63C18.3873 88.12 18.4973 88.485 18.7173 88.725C18.9373 88.955 19.2173 89.07 19.5573 89.07ZM23.5216 79.29L23.2366 83.16H22.4266L22.1416 79.29H23.5216ZM30.1598 87.78C30.1598 88.3 30.0348 88.735 29.7848 89.085C29.5448 89.435 29.1998 89.7 28.7498 89.88C28.2998 90.06 27.7598 90.15 27.1298 90.15C26.5998 90.15 26.1398 90.105 25.7498 90.015C25.3698 89.925 25.0348 89.8 24.7448 89.64V88.44C25.0548 88.6 25.4248 88.75 25.8548 88.89C26.2848 89.02 26.7198 89.085 27.1598 89.085C27.7698 89.085 28.2098 88.98 28.4798 88.77C28.7598 88.55 28.8998 88.26 28.8998 87.9C28.8998 87.7 28.8448 87.52 28.7348 87.36C28.6348 87.2 28.4498 87.04 28.1798 86.88C27.9198 86.72 27.5398 86.54 27.0398 86.34C26.5598 86.14 26.1448 85.94 25.7948 85.74C25.4548 85.54 25.1898 85.3 24.9998 85.02C24.8198 84.74 24.7298 84.38 24.7298 83.94C24.7298 83.26 24.9898 82.735 25.5098 82.365C26.0398 81.995 26.7298 81.81 27.5798 81.81C28.0398 81.81 28.4698 81.86 28.8698 81.96C29.2698 82.05 29.6498 82.18 30.0098 82.35L29.5748 83.4C29.3648 83.3 29.1448 83.215 28.9148 83.145C28.6848 83.065 28.4498 83.005 28.2098 82.965C27.9798 82.915 27.7448 82.89 27.5048 82.89C27.0148 82.89 26.6398 82.98 26.3798 83.16C26.1198 83.33 25.9898 83.565 25.9898 83.865C25.9898 84.085 26.0498 84.275 26.1698 84.435C26.2898 84.595 26.4848 84.75 26.7548 84.9C27.0348 85.04 27.4148 85.205 27.8948 85.395C28.3748 85.585 28.7848 85.78 29.1248 85.98C29.4648 86.18 29.7198 86.425 29.8898 86.715C30.0698 86.995 30.1598 87.35 30.1598 87.78ZM40.6041 87.78C40.6041 88.3 40.4791 88.735 40.2291 89.085C39.9891 89.435 39.6441 89.7 39.1941 89.88C38.7441 90.06 38.2041 90.15 37.5741 90.15C37.0441 90.15 36.5841 90.105 36.1941 90.015C35.8141 89.925 35.4791 89.8 35.1891 89.64V88.44C35.4991 88.6 35.8691 88.75 36.2991 88.89C36.7291 89.02 37.1641 89.085 37.6041 89.085C38.2141 89.085 38.6541 88.98 38.9241 88.77C39.2041 88.55 39.3441 88.26 39.3441 87.9C39.3441 87.7 39.2891 87.52 39.1791 87.36C39.0791 87.2 38.8941 87.04 38.6241 86.88C38.3641 86.72 37.9841 86.54 37.4841 86.34C37.0041 86.14 36.5891 85.94 36.2391 85.74C35.8991 85.54 35.6341 85.3 35.4441 85.02C35.2641 84.74 35.1741 84.38 35.1741 83.94C35.1741 83.26 35.4341 82.735 35.9541 82.365C36.4841 81.995 37.1741 81.81 38.0241 81.81C38.4841 81.81 38.9141 81.86 39.3141 81.96C39.7141 82.05 40.0941 82.18 40.4541 82.35L40.0191 83.4C39.8091 83.3 39.5891 83.215 39.3591 83.145C39.1291 83.065 38.8941 83.005 38.6541 82.965C38.4241 82.915 38.1891 82.89 37.9491 82.89C37.4591 82.89 37.0841 82.98 36.8241 83.16C36.5641 83.33 36.4341 83.565 36.4341 83.865C36.4341 84.085 36.4941 84.275 36.6141 84.435C36.7341 84.595 36.9291 84.75 37.1991 84.9C37.4791 85.04 37.8591 85.205 38.3391 85.395C38.8191 85.585 39.2291 85.78 39.5691 85.98C39.9091 86.18 40.1641 86.425 40.3341 86.715C40.5141 86.995 40.6041 87.35 40.6041 87.78ZM45.0163 89.07C45.2063 89.07 45.4013 89.055 45.6013 89.025C45.8013 88.985 45.9663 88.945 46.0963 88.905V89.91C45.9563 89.98 45.7563 90.035 45.4963 90.075C45.2463 90.125 45.0063 90.15 44.7763 90.15C44.3763 90.15 44.0063 90.08 43.6663 89.94C43.3263 89.79 43.0513 89.535 42.8413 89.175C42.6413 88.815 42.5413 88.31 42.5413 87.66V82.98H41.4763V82.35L42.5713 81.825L43.0663 80.115H43.8463V81.96H46.0363V82.98H43.8463V87.63C43.8463 88.12 43.9563 88.485 44.1763 88.725C44.3963 88.955 44.6763 89.07 45.0163 89.07ZM50.4872 81.825C51.4072 81.825 52.0922 82.04 52.5422 82.47C53.0022 82.9 53.2322 83.585 53.2322 84.525V90H52.2872L52.0322 88.86H51.9722C51.7522 89.15 51.5272 89.395 51.2972 89.595C51.0772 89.785 50.8172 89.925 50.5172 90.015C50.2272 90.105 49.8672 90.15 49.4372 90.15C48.9872 90.15 48.5822 90.065 48.2222 89.895C47.8622 89.725 47.5772 89.465 47.3672 89.115C47.1572 88.755 47.0522 88.305 47.0522 87.765C47.0522 86.965 47.3472 86.35 47.9372 85.92C48.5272 85.48 49.4372 85.24 50.6672 85.2L51.9422 85.155V84.675C51.9422 84.005 51.8072 83.54 51.5372 83.28C51.2772 83.02 50.9022 82.89 50.4122 82.89C50.0222 82.89 49.6472 82.955 49.2872 83.085C48.9372 83.205 48.6022 83.345 48.2822 83.505L47.8772 82.515C48.2172 82.325 48.6122 82.165 49.0622 82.035C49.5122 81.895 49.9872 81.825 50.4872 81.825ZM50.8472 86.115C49.9272 86.155 49.2872 86.315 48.9272 86.595C48.5772 86.875 48.4022 87.27 48.4022 87.78C48.4022 88.23 48.5272 88.56 48.7772 88.77C49.0272 88.98 49.3522 89.085 49.7522 89.085C50.3722 89.085 50.8922 88.9 51.3122 88.53C51.7322 88.15 51.9422 87.57 51.9422 86.79V86.07L50.8472 86.115ZM59.146 81.81C59.286 81.81 59.436 81.82 59.596 81.84C59.756 81.85 59.896 81.87 60.016 81.9L59.866 83.115C59.746 83.085 59.611 83.06 59.461 83.04C59.321 83.02 59.186 83.01 59.056 83.01C58.766 83.01 58.491 83.075 58.231 83.205C57.971 83.335 57.736 83.52 57.526 83.76C57.326 83.99 57.166 84.27 57.046 84.6C56.926 84.93 56.866 85.3 56.866 85.71V90H55.561V81.96H56.626L56.776 83.43H56.836C56.996 83.13 57.186 82.86 57.406 82.62C57.636 82.37 57.896 82.175 58.186 82.035C58.476 81.885 58.796 81.81 59.146 81.81ZM64.0154 89.07C64.2054 89.07 64.4004 89.055 64.6004 89.025C64.8004 88.985 64.9654 88.945 65.0954 88.905V89.91C64.9554 89.98 64.7554 90.035 64.4954 90.075C64.2454 90.125 64.0054 90.15 63.7754 90.15C63.3754 90.15 63.0054 90.08 62.6654 89.94C62.3254 89.79 62.0504 89.535 61.8404 89.175C61.6404 88.815 61.5404 88.31 61.5404 87.66V82.98H60.4754V82.35L61.5704 81.825L62.0654 80.115H62.8454V81.96H65.0354V82.98H62.8454V87.63C62.8454 88.12 62.9554 88.485 63.1754 88.725C63.3954 88.955 63.6754 89.07 64.0154 89.07ZM72.8484 89.07C73.0384 89.07 73.2334 89.055 73.4334 89.025C73.6334 88.985 73.7984 88.945 73.9284 88.905V89.91C73.7884 89.98 73.5884 90.035 73.3284 90.075C73.0784 90.125 72.8384 90.15 72.6084 90.15C72.2084 90.15 71.8384 90.08 71.4984 89.94C71.1584 89.79 70.8834 89.535 70.6734 89.175C70.4734 88.815 70.3734 88.31 70.3734 87.66V82.98H69.3084V82.35L70.4034 81.825L70.8984 80.115H71.6784V81.96H73.8684V82.98H71.6784V87.63C71.6784 88.12 71.7884 88.485 72.0084 88.725C72.2284 88.955 72.5084 89.07 72.8484 89.07ZM79.0093 81.81C79.1493 81.81 79.2993 81.82 79.4593 81.84C79.6193 81.85 79.7593 81.87 79.8793 81.9L79.7293 83.115C79.6093 83.085 79.4743 83.06 79.3243 83.04C79.1843 83.02 79.0493 83.01 78.9193 83.01C78.6293 83.01 78.3543 83.075 78.0943 83.205C77.8343 83.335 77.5993 83.52 77.3893 83.76C77.1893 83.99 77.0293 84.27 76.9093 84.6C76.7893 84.93 76.7293 85.3 76.7293 85.71V90H75.4243V81.96H76.4893L76.6393 83.43H76.6993C76.8593 83.13 77.0493 82.86 77.2693 82.62C77.4993 82.37 77.7593 82.175 78.0493 82.035C78.3393 81.885 78.6593 81.81 79.0093 81.81ZM83.9003 81.825C84.8203 81.825 85.5053 82.04 85.9553 82.47C86.4153 82.9 86.6453 83.585 86.6453 84.525V90H85.7003L85.4453 88.86H85.3853C85.1653 89.15 84.9403 89.395 84.7103 89.595C84.4903 89.785 84.2303 89.925 83.9303 90.015C83.6403 90.105 83.2803 90.15 82.8503 90.15C82.4003 90.15 81.9953 90.065 81.6353 89.895C81.2753 89.725 80.9903 89.465 80.7803 89.115C80.5703 88.755 80.4653 88.305 80.4653 87.765C80.4653 86.965 80.7603 86.35 81.3503 85.92C81.9403 85.48 82.8503 85.24 84.0803 85.2L85.3553 85.155V84.675C85.3553 84.005 85.2203 83.54 84.9503 83.28C84.6903 83.02 84.3153 82.89 83.8253 82.89C83.4353 82.89 83.0603 82.955 82.7003 83.085C82.3503 83.205 82.0153 83.345 81.6953 83.505L81.2903 82.515C81.6303 82.325 82.0253 82.165 82.4753 82.035C82.9253 81.895 83.4003 81.825 83.9003 81.825ZM84.2603 86.115C83.3403 86.155 82.7003 86.315 82.3403 86.595C81.9903 86.875 81.8153 87.27 81.8153 87.78C81.8153 88.23 81.9403 88.56 82.1903 88.77C82.4403 88.98 82.7653 89.085 83.1653 89.085C83.7853 89.085 84.3053 88.9 84.7253 88.53C85.1453 88.15 85.3553 87.57 85.3553 86.79V86.07L84.2603 86.115ZM92.0191 90.15C91.3391 90.15 90.7391 90.005 90.2191 89.715C89.6991 89.425 89.2891 88.975 88.9891 88.365C88.6991 87.755 88.5541 86.975 88.5541 86.025C88.5541 85.035 88.7091 84.23 89.0191 83.61C89.3291 82.99 89.7491 82.535 90.2791 82.245C90.8191 81.955 91.4291 81.81 92.1091 81.81C92.4991 81.81 92.8741 81.855 93.2341 81.945C93.6041 82.025 93.9041 82.125 94.1341 82.245L93.7291 83.34C93.4991 83.25 93.2291 83.165 92.9191 83.085C92.6191 83.005 92.3391 82.965 92.0791 82.965C91.5891 82.965 91.1841 83.08 90.8641 83.31C90.5441 83.54 90.3041 83.88 90.1441 84.33C89.9841 84.78 89.9041 85.34 89.9041 86.01C89.9041 86.65 89.9841 87.195 90.1441 87.645C90.3041 88.095 90.5391 88.435 90.8491 88.665C91.1691 88.895 91.5591 89.01 92.0191 89.01C92.4291 89.01 92.7941 88.965 93.1141 88.875C93.4341 88.785 93.7291 88.675 93.9991 88.545V89.715C93.7391 89.855 93.4541 89.96 93.1441 90.03C92.8341 90.11 92.4591 90.15 92.0191 90.15ZM97.0756 84.555C97.0756 84.715 97.0656 84.925 97.0456 85.185C97.0356 85.445 97.0256 85.67 97.0156 85.86H97.0756C97.1356 85.78 97.2206 85.665 97.3306 85.515C97.4406 85.365 97.5556 85.215 97.6756 85.065C97.7956 84.905 97.9006 84.775 97.9906 84.675L100.376 81.96H101.891L98.8306 85.395L102.101 90H100.541L97.9456 86.25L97.0756 87.045V90H95.7856V78.6H97.0756V84.555ZM104.723 81.96V90H103.418V81.96H104.723ZM104.078 78.945C104.278 78.945 104.453 79.015 104.603 79.155C104.753 79.285 104.828 79.495 104.828 79.785C104.828 80.065 104.753 80.275 104.603 80.415C104.453 80.555 104.278 80.625 104.078 80.625C103.868 80.625 103.688 80.555 103.538 80.415C103.388 80.275 103.313 80.065 103.313 79.785C103.313 79.495 103.388 79.285 103.538 79.155C103.688 79.015 103.868 78.945 104.078 78.945ZM110.784 81.81C111.684 81.81 112.364 82.045 112.824 82.515C113.294 82.975 113.529 83.725 113.529 84.765V90H112.224V84.855C112.224 84.205 112.089 83.72 111.819 83.4C111.549 83.08 111.134 82.92 110.574 82.92C109.754 82.92 109.184 83.17 108.864 83.67C108.554 84.17 108.399 84.89 108.399 85.83V90H107.094V81.96H108.144L108.339 83.055H108.414C108.574 82.775 108.779 82.545 109.029 82.365C109.279 82.175 109.554 82.035 109.854 81.945C110.154 81.855 110.464 81.81 110.784 81.81ZM118.524 81.81C119.024 81.81 119.469 81.91 119.859 82.11C120.259 82.31 120.599 82.615 120.879 83.025H120.954L121.119 81.96H122.169V90.135C122.169 90.895 122.044 91.53 121.794 92.04C121.554 92.56 121.179 92.95 120.669 93.21C120.169 93.47 119.529 93.6 118.749 93.6C118.199 93.6 117.699 93.555 117.249 93.465C116.799 93.385 116.389 93.26 116.019 93.09V91.875C116.269 92.005 116.539 92.115 116.829 92.205C117.129 92.305 117.444 92.38 117.774 92.43C118.114 92.48 118.464 92.505 118.824 92.505C119.464 92.505 119.964 92.3 120.324 91.89C120.694 91.49 120.879 90.94 120.879 90.24V89.925C120.879 89.805 120.884 89.635 120.894 89.415C120.904 89.185 120.914 89.025 120.924 88.935H120.864C120.604 89.345 120.279 89.65 119.889 89.85C119.499 90.05 119.049 90.15 118.539 90.15C117.569 90.15 116.809 89.785 116.259 89.055C115.709 88.325 115.434 87.305 115.434 85.995C115.434 85.135 115.554 84.395 115.794 83.775C116.044 83.145 116.399 82.66 116.859 82.32C117.329 81.98 117.884 81.81 118.524 81.81ZM118.734 82.92C118.324 82.92 117.969 83.04 117.669 83.28C117.379 83.52 117.159 83.87 117.009 84.33C116.859 84.79 116.784 85.35 116.784 86.01C116.784 87 116.949 87.76 117.279 88.29C117.619 88.81 118.114 89.07 118.764 89.07C119.134 89.07 119.454 89.02 119.724 88.92C119.994 88.81 120.214 88.645 120.384 88.425C120.554 88.195 120.679 87.905 120.759 87.555C120.849 87.205 120.894 86.79 120.894 86.31V85.995C120.894 85.265 120.814 84.675 120.654 84.225C120.504 83.775 120.269 83.445 119.949 83.235C119.639 83.025 119.234 82.92 118.734 82.92ZM127.033 81.96H128.443L130.048 86.535C130.148 86.805 130.238 87.065 130.318 87.315C130.398 87.565 130.468 87.81 130.528 88.05C130.588 88.28 130.633 88.505 130.663 88.725H130.708C130.768 88.475 130.853 88.15 130.963 87.75C131.083 87.34 131.208 86.93 131.338 86.52L132.853 81.96H134.278L131.023 91.11C130.843 91.61 130.628 92.045 130.378 92.415C130.138 92.795 129.843 93.085 129.493 93.285C129.143 93.495 128.723 93.6 128.233 93.6C128.013 93.6 127.813 93.585 127.633 93.555C127.463 93.535 127.318 93.51 127.198 93.48V92.43C127.298 92.45 127.423 92.47 127.573 92.49C127.723 92.51 127.878 92.52 128.038 92.52C128.328 92.52 128.578 92.46 128.788 92.34C128.998 92.23 129.178 92.065 129.328 91.845C129.478 91.635 129.603 91.385 129.703 91.095L130.078 90.03L127.033 81.96ZM142.083 85.965C142.083 86.635 141.998 87.23 141.828 87.75C141.668 88.26 141.433 88.695 141.123 89.055C140.813 89.415 140.438 89.69 139.998 89.88C139.558 90.06 139.068 90.15 138.528 90.15C138.028 90.15 137.563 90.06 137.133 89.88C136.713 89.69 136.343 89.415 136.023 89.055C135.713 88.695 135.473 88.26 135.303 87.75C135.133 87.23 135.048 86.635 135.048 85.965C135.048 85.075 135.188 84.325 135.468 83.715C135.758 83.095 136.168 82.625 136.698 82.305C137.228 81.975 137.853 81.81 138.573 81.81C139.263 81.81 139.868 81.975 140.388 82.305C140.918 82.625 141.333 83.095 141.633 83.715C141.933 84.325 142.083 85.075 142.083 85.965ZM136.398 85.965C136.398 86.595 136.473 87.145 136.623 87.615C136.773 88.075 137.008 88.43 137.328 88.68C137.648 88.93 138.058 89.055 138.558 89.055C139.058 89.055 139.468 88.93 139.788 88.68C140.108 88.43 140.343 88.075 140.493 87.615C140.653 87.145 140.733 86.595 140.733 85.965C140.733 85.325 140.653 84.78 140.493 84.33C140.343 83.88 140.108 83.535 139.788 83.295C139.468 83.045 139.053 82.92 138.543 82.92C137.793 82.92 137.248 83.19 136.908 83.73C136.568 84.27 136.398 85.015 136.398 85.965ZM150.398 81.96V90H149.348L149.153 88.935H149.093C148.933 89.215 148.723 89.445 148.463 89.625C148.213 89.805 147.938 89.935 147.638 90.015C147.338 90.105 147.023 90.15 146.693 90.15C146.093 90.15 145.588 90.05 145.178 89.85C144.768 89.64 144.458 89.32 144.248 88.89C144.048 88.46 143.948 87.905 143.948 87.225V81.96H145.268V87.135C145.268 87.775 145.403 88.255 145.673 88.575C145.943 88.895 146.358 89.055 146.918 89.055C147.468 89.055 147.898 88.945 148.208 88.725C148.528 88.495 148.753 88.165 148.883 87.735C149.023 87.295 149.093 86.765 149.093 86.145V81.96H150.398ZM156.353 81.81C156.493 81.81 156.643 81.82 156.803 81.84C156.963 81.85 157.103 81.87 157.223 81.9L157.073 83.115C156.953 83.085 156.818 83.06 156.668 83.04C156.528 83.02 156.393 83.01 156.263 83.01C155.973 83.01 155.698 83.075 155.438 83.205C155.178 83.335 154.943 83.52 154.733 83.76C154.533 83.99 154.373 84.27 154.253 84.6C154.133 84.93 154.073 85.3 154.073 85.71V90H152.768V81.96H153.833L153.983 83.43H154.043C154.203 83.13 154.393 82.86 154.613 82.62C154.843 82.37 155.103 82.175 155.393 82.035C155.683 81.885 156.003 81.81 156.353 81.81ZM165.829 82.98H163.939V90H162.619V82.98H161.314V82.365L162.619 81.915V81.45C162.619 80.76 162.714 80.2 162.904 79.77C163.104 79.34 163.389 79.025 163.759 78.825C164.129 78.625 164.574 78.525 165.094 78.525C165.404 78.525 165.684 78.555 165.934 78.615C166.194 78.665 166.419 78.725 166.609 78.795L166.264 79.83C166.104 79.78 165.924 79.73 165.724 79.68C165.534 79.63 165.334 79.605 165.124 79.605C164.724 79.605 164.424 79.755 164.224 80.055C164.034 80.345 163.939 80.805 163.939 81.435V81.96H165.829V82.98ZM168.499 81.96V90H167.194V81.96H168.499ZM167.854 78.945C168.054 78.945 168.229 79.015 168.379 79.155C168.529 79.285 168.604 79.495 168.604 79.785C168.604 80.065 168.529 80.275 168.379 80.415C168.229 80.555 168.054 80.625 167.854 80.625C167.644 80.625 167.464 80.555 167.314 80.415C167.164 80.275 167.089 80.065 167.089 79.785C167.089 79.495 167.164 79.285 167.314 79.155C167.464 79.015 167.644 78.945 167.854 78.945ZM173.468 89.07C173.658 89.07 173.853 89.055 174.053 89.025C174.253 88.985 174.418 88.945 174.548 88.905V89.91C174.408 89.98 174.208 90.035 173.948 90.075C173.698 90.125 173.458 90.15 173.228 90.15C172.828 90.15 172.458 90.08 172.118 89.94C171.778 89.79 171.503 89.535 171.293 89.175C171.093 88.815 170.993 88.31 170.993 87.66V82.98H169.928V82.35L171.023 81.825L171.518 80.115H172.298V81.96H174.488V82.98H172.298V87.63C172.298 88.12 172.408 88.485 172.628 88.725C172.848 88.955 173.128 89.07 173.468 89.07ZM179.734 81.81C180.634 81.81 181.314 82.045 181.774 82.515C182.244 82.975 182.479 83.725 182.479 84.765V90H181.174V84.855C181.174 84.205 181.039 83.72 180.769 83.4C180.499 83.08 180.084 82.92 179.524 82.92C178.704 82.92 178.134 83.17 177.814 83.67C177.504 84.17 177.349 84.89 177.349 85.83V90H176.044V81.96H177.094L177.289 83.055H177.364C177.524 82.775 177.729 82.545 177.979 82.365C178.229 82.175 178.504 82.035 178.804 81.945C179.104 81.855 179.414 81.81 179.734 81.81ZM187.744 81.81C188.394 81.81 188.954 81.96 189.424 82.26C189.894 82.56 190.254 82.985 190.504 83.535C190.764 84.075 190.894 84.71 190.894 85.44V86.235H185.734C185.754 87.145 185.969 87.84 186.379 88.32C186.789 88.79 187.364 89.025 188.104 89.025C188.584 89.025 189.009 88.98 189.379 88.89C189.759 88.79 190.149 88.65 190.549 88.47V89.625C190.159 89.805 189.774 89.935 189.394 90.015C189.024 90.105 188.574 90.15 188.044 90.15C187.324 90.15 186.689 89.995 186.139 89.685C185.589 89.375 185.159 88.915 184.849 88.305C184.539 87.685 184.384 86.93 184.384 86.04C184.384 85.16 184.524 84.405 184.804 83.775C185.084 83.145 185.474 82.66 185.974 82.32C186.484 81.98 187.074 81.81 187.744 81.81ZM187.744 82.89C187.164 82.89 186.704 83.095 186.364 83.505C186.024 83.905 185.824 84.465 185.764 85.185H189.544C189.544 84.725 189.479 84.325 189.349 83.985C189.219 83.645 189.019 83.38 188.749 83.19C188.489 82.99 188.154 82.89 187.744 82.89ZM197.753 87.78C197.753 88.3 197.628 88.735 197.378 89.085C197.138 89.435 196.793 89.7 196.343 89.88C195.893 90.06 195.353 90.15 194.723 90.15C194.193 90.15 193.733 90.105 193.343 90.015C192.963 89.925 192.628 89.8 192.338 89.64V88.44C192.648 88.6 193.018 88.75 193.448 88.89C193.878 89.02 194.313 89.085 194.753 89.085C195.363 89.085 195.803 88.98 196.073 88.77C196.353 88.55 196.493 88.26 196.493 87.9C196.493 87.7 196.438 87.52 196.328 87.36C196.228 87.2 196.043 87.04 195.773 86.88C195.513 86.72 195.133 86.54 194.633 86.34C194.153 86.14 193.738 85.94 193.388 85.74C193.048 85.54 192.783 85.3 192.593 85.02C192.413 84.74 192.323 84.38 192.323 83.94C192.323 83.26 192.583 82.735 193.103 82.365C193.633 81.995 194.323 81.81 195.173 81.81C195.633 81.81 196.063 81.86 196.463 81.96C196.863 82.05 197.243 82.18 197.603 82.35L197.168 83.4C196.958 83.3 196.738 83.215 196.508 83.145C196.278 83.065 196.043 83.005 195.803 82.965C195.573 82.915 195.338 82.89 195.098 82.89C194.608 82.89 194.233 82.98 193.973 83.16C193.713 83.33 193.583 83.565 193.583 83.865C193.583 84.085 193.643 84.275 193.763 84.435C193.883 84.595 194.078 84.75 194.348 84.9C194.628 85.04 195.008 85.205 195.488 85.395C195.968 85.585 196.378 85.78 196.718 85.98C197.058 86.18 197.313 86.425 197.483 86.715C197.663 86.995 197.753 87.35 197.753 87.78ZM204.535 87.78C204.535 88.3 204.41 88.735 204.16 89.085C203.92 89.435 203.575 89.7 203.125 89.88C202.675 90.06 202.135 90.15 201.505 90.15C200.975 90.15 200.515 90.105 200.125 90.015C199.745 89.925 199.41 89.8 199.12 89.64V88.44C199.43 88.6 199.8 88.75 200.23 88.89C200.66 89.02 201.095 89.085 201.535 89.085C202.145 89.085 202.585 88.98 202.855 88.77C203.135 88.55 203.275 88.26 203.275 87.9C203.275 87.7 203.22 87.52 203.11 87.36C203.01 87.2 202.825 87.04 202.555 86.88C202.295 86.72 201.915 86.54 201.415 86.34C200.935 86.14 200.52 85.94 200.17 85.74C199.83 85.54 199.565 85.3 199.375 85.02C199.195 84.74 199.105 84.38 199.105 83.94C199.105 83.26 199.365 82.735 199.885 82.365C200.415 81.995 201.105 81.81 201.955 81.81C202.415 81.81 202.845 81.86 203.245 81.96C203.645 82.05 204.025 82.18 204.385 82.35L203.95 83.4C203.74 83.3 203.52 83.215 203.29 83.145C203.06 83.065 202.825 83.005 202.585 82.965C202.355 82.915 202.12 82.89 201.88 82.89C201.39 82.89 201.015 82.98 200.755 83.16C200.495 83.33 200.365 83.565 200.365 83.865C200.365 84.085 200.425 84.275 200.545 84.435C200.665 84.595 200.86 84.75 201.13 84.9C201.41 85.04 201.79 85.205 202.27 85.395C202.75 85.585 203.16 85.78 203.5 85.98C203.84 86.18 204.095 86.425 204.265 86.715C204.445 86.995 204.535 87.35 204.535 87.78ZM209.159 93.6C208.919 93.6 208.709 93.58 208.529 93.54C208.339 93.51 208.179 93.47 208.049 93.42V92.355C208.189 92.395 208.334 92.43 208.484 92.46C208.634 92.49 208.799 92.505 208.979 92.505C209.289 92.505 209.539 92.415 209.729 92.235C209.929 92.065 210.029 91.735 210.029 91.245V81.96H211.334V91.2C211.334 91.7 211.259 92.13 211.109 92.49C210.959 92.85 210.724 93.125 210.404 93.315C210.084 93.505 209.669 93.6 209.159 93.6ZM209.924 79.785C209.924 79.495 209.999 79.285 210.149 79.155C210.299 79.015 210.479 78.945 210.689 78.945C210.889 78.945 211.064 79.015 211.214 79.155C211.364 79.285 211.439 79.495 211.439 79.785C211.439 80.065 211.364 80.275 211.214 80.415C211.064 80.555 210.889 80.625 210.689 80.625C210.479 80.625 210.299 80.555 210.149 80.415C209.999 80.275 209.924 80.065 209.924 79.785ZM220.321 85.965C220.321 86.635 220.236 87.23 220.066 87.75C219.906 88.26 219.671 88.695 219.361 89.055C219.051 89.415 218.676 89.69 218.236 89.88C217.796 90.06 217.306 90.15 216.766 90.15C216.266 90.15 215.801 90.06 215.371 89.88C214.951 89.69 214.581 89.415 214.261 89.055C213.951 88.695 213.711 88.26 213.541 87.75C213.371 87.23 213.286 86.635 213.286 85.965C213.286 85.075 213.426 84.325 213.706 83.715C213.996 83.095 214.406 82.625 214.936 82.305C215.466 81.975 216.091 81.81 216.811 81.81C217.501 81.81 218.106 81.975 218.626 82.305C219.156 82.625 219.571 83.095 219.871 83.715C220.171 84.325 220.321 85.075 220.321 85.965ZM214.636 85.965C214.636 86.595 214.711 87.145 214.861 87.615C215.011 88.075 215.246 88.43 215.566 88.68C215.886 88.93 216.296 89.055 216.796 89.055C217.296 89.055 217.706 88.93 218.026 88.68C218.346 88.43 218.581 88.075 218.731 87.615C218.891 87.145 218.971 86.595 218.971 85.965C218.971 85.325 218.891 84.78 218.731 84.33C218.581 83.88 218.346 83.535 218.026 83.295C217.706 83.045 217.291 82.92 216.781 82.92C216.031 82.92 215.486 83.19 215.146 83.73C214.806 84.27 214.636 85.015 214.636 85.965ZM228.635 81.96V90H227.585L227.39 88.935H227.33C227.17 89.215 226.96 89.445 226.7 89.625C226.45 89.805 226.175 89.935 225.875 90.015C225.575 90.105 225.26 90.15 224.93 90.15C224.33 90.15 223.825 90.05 223.415 89.85C223.005 89.64 222.695 89.32 222.485 88.89C222.285 88.46 222.185 87.905 222.185 87.225V81.96H223.505V87.135C223.505 87.775 223.64 88.255 223.91 88.575C224.18 88.895 224.595 89.055 225.155 89.055C225.705 89.055 226.135 88.945 226.445 88.725C226.765 88.495 226.99 88.165 227.12 87.735C227.26 87.295 227.33 86.765 227.33 86.145V81.96H228.635ZM234.59 81.81C234.73 81.81 234.88 81.82 235.04 81.84C235.2 81.85 235.34 81.87 235.46 81.9L235.31 83.115C235.19 83.085 235.055 83.06 234.905 83.04C234.765 83.02 234.63 83.01 234.5 83.01C234.21 83.01 233.935 83.075 233.675 83.205C233.415 83.335 233.18 83.52 232.97 83.76C232.77 83.99 232.61 84.27 232.49 84.6C232.37 84.93 232.31 85.3 232.31 85.71V90H231.005V81.96H232.07L232.22 83.43H232.28C232.44 83.13 232.63 82.86 232.85 82.62C233.08 82.37 233.34 82.175 233.63 82.035C233.92 81.885 234.24 81.81 234.59 81.81ZM240.555 81.81C241.455 81.81 242.135 82.045 242.595 82.515C243.065 82.975 243.3 83.725 243.3 84.765V90H241.995V84.855C241.995 84.205 241.86 83.72 241.59 83.4C241.32 83.08 240.905 82.92 240.345 82.92C239.525 82.92 238.955 83.17 238.635 83.67C238.325 84.17 238.17 84.89 238.17 85.83V90H236.865V81.96H237.915L238.11 83.055H238.185C238.345 82.775 238.55 82.545 238.8 82.365C239.05 82.175 239.325 82.035 239.625 81.945C239.925 81.855 240.235 81.81 240.555 81.81ZM248.564 81.81C249.214 81.81 249.774 81.96 250.244 82.26C250.714 82.56 251.074 82.985 251.324 83.535C251.584 84.075 251.714 84.71 251.714 85.44V86.235H246.554C246.574 87.145 246.789 87.84 247.199 88.32C247.609 88.79 248.184 89.025 248.924 89.025C249.404 89.025 249.829 88.98 250.199 88.89C250.579 88.79 250.969 88.65 251.369 88.47V89.625C250.979 89.805 250.594 89.935 250.214 90.015C249.844 90.105 249.394 90.15 248.864 90.15C248.144 90.15 247.509 89.995 246.959 89.685C246.409 89.375 245.979 88.915 245.669 88.305C245.359 87.685 245.204 86.93 245.204 86.04C245.204 85.16 245.344 84.405 245.624 83.775C245.904 83.145 246.294 82.66 246.794 82.32C247.304 81.98 247.894 81.81 248.564 81.81ZM248.564 82.89C247.984 82.89 247.524 83.095 247.184 83.505C246.844 83.905 246.644 84.465 246.584 85.185H250.364C250.364 84.725 250.299 84.325 250.169 83.985C250.039 83.645 249.839 83.38 249.569 83.19C249.309 82.99 248.974 82.89 248.564 82.89ZM252.16 81.96H253.57L255.175 86.535C255.275 86.805 255.365 87.065 255.445 87.315C255.525 87.565 255.595 87.81 255.655 88.05C255.715 88.28 255.76 88.505 255.79 88.725H255.835C255.895 88.475 255.98 88.15 256.09 87.75C256.21 87.34 256.335 86.93 256.465 86.52L257.98 81.96H259.405L256.15 91.11C255.97 91.61 255.755 92.045 255.505 92.415C255.265 92.795 254.97 93.085 254.62 93.285C254.27 93.495 253.85 93.6 253.36 93.6C253.14 93.6 252.94 93.585 252.76 93.555C252.59 93.535 252.445 93.51 252.325 93.48V92.43C252.425 92.45 252.55 92.47 252.7 92.49C252.85 92.51 253.005 92.52 253.165 92.52C253.455 92.52 253.705 92.46 253.915 92.34C254.125 92.23 254.305 92.065 254.455 91.845C254.605 91.635 254.73 91.385 254.83 91.095L255.205 90.03L252.16 81.96ZM259.844 89.19C259.844 88.82 259.929 88.56 260.099 88.41C260.269 88.26 260.479 88.185 260.729 88.185C260.979 88.185 261.194 88.26 261.374 88.41C261.554 88.56 261.644 88.82 261.644 89.19C261.644 89.55 261.554 89.81 261.374 89.97C261.194 90.13 260.979 90.21 260.729 90.21C260.479 90.21 260.269 90.13 260.099 89.97C259.929 89.81 259.844 89.55 259.844 89.19Z" fill="black"/>
</svg>
