<svg width="470" height="470" viewBox="0 0 470 470" fill="none" xmlns="http://www.w3.org/2000/svg">
<path d="M422.906 374.581H391.773V374.816H422.906V374.581Z" fill="#EBEBEB"/>
<path d="M311.346 377.137H303.178V377.372H311.346V377.137Z" fill="#EBEBEB"/>
<path d="M390.834 365.857H372.795V366.092H390.834V365.857Z" fill="#EBEBEB"/>
<path d="M89.9111 367.437H49.3125V367.672H89.9111V367.437Z" fill="#EBEBEB"/>
<path d="M104.236 367.437H98.2861V367.672H104.236V367.437Z" fill="#EBEBEB"/>
<path d="M211.641 371.403H123.582V371.638H211.641V371.403Z" fill="#EBEBEB"/>
<path d="M222.78 317.532H41.275C39.8531 317.53 38.4903 316.963 37.4857 315.957C36.4812 314.95 35.917 313.587 35.917 312.165V57.0204C35.9294 55.6067 36.499 54.2549 37.5022 53.2587C38.5055 52.2626 39.8612 51.7024 41.275 51.7H222.78C224.203 51.7 225.568 52.2655 226.575 53.2721C227.582 54.2787 228.147 55.6439 228.147 57.0674V312.165C228.147 313.588 227.582 314.953 226.575 315.96C225.568 316.967 224.203 317.532 222.78 317.532ZM41.275 51.888C39.9154 51.8905 38.6124 52.4323 37.6519 53.3946C36.6914 54.3568 36.152 55.6608 36.152 57.0204V312.165C36.152 313.524 36.6914 314.828 37.6519 315.79C38.6124 316.753 39.9154 317.295 41.275 317.297H222.78C224.14 317.295 225.444 316.753 226.406 315.791C227.368 314.829 227.91 313.525 227.912 312.165V57.0204C227.91 55.66 227.368 54.356 226.406 53.394C225.444 52.432 224.14 51.8905 222.78 51.888H41.275Z" fill="#EBEBEB"/>
<path d="M426.112 317.532H244.598C243.175 317.53 241.811 316.963 240.805 315.957C239.799 314.951 239.233 313.587 239.23 312.165V57.0204C239.245 55.6058 239.817 54.2541 240.822 53.2581C241.826 52.2622 243.183 51.7024 244.598 51.7H426.112C427.524 51.7049 428.877 52.2661 429.879 53.262C430.88 54.2579 431.448 55.6083 431.46 57.0204V312.165C431.46 313.585 430.898 314.947 429.895 315.953C428.893 316.959 427.532 317.527 426.112 317.532ZM244.598 51.888C243.237 51.8905 241.933 52.432 240.971 53.394C240.009 54.356 239.468 55.66 239.465 57.0204V312.165C239.468 313.525 240.009 314.829 240.971 315.791C241.933 316.753 243.237 317.295 244.598 317.297H426.112C427.472 317.295 428.776 316.753 429.738 315.791C430.7 314.829 431.242 313.525 431.244 312.165V57.0204C431.242 55.66 430.7 54.356 429.738 53.394C428.776 52.432 427.472 51.8905 426.112 51.888H244.598Z" fill="#EBEBEB"/>
<path d="M470 359.456H0V359.691H470V359.456Z" fill="#EBEBEB"/>
<path d="M47.6204 297.736L77.7004 297.623C78.8721 297.623 79.9958 298.088 80.8244 298.917C81.6529 299.745 82.1184 300.869 82.1184 302.041V312.653C82.1184 313.828 82.5848 314.954 83.4151 315.784C84.2454 316.614 85.3715 317.081 86.5458 317.081H130.726C131.899 317.081 133.025 316.616 133.856 315.788C134.688 314.96 135.158 313.836 135.163 312.663V273.69C135.164 273.111 135.279 272.537 135.503 272.002C135.726 271.467 136.053 270.981 136.464 270.572C136.875 270.164 137.363 269.84 137.899 269.62C138.436 269.401 139.01 269.289 139.59 269.291H148.99C150.164 269.291 151.29 268.825 152.121 267.994C152.951 267.164 153.417 266.038 153.417 264.864V243.601C153.417 242.429 153.883 241.306 154.711 240.477C155.54 239.648 156.664 239.183 157.835 239.183H173.242C174.413 239.186 175.535 239.652 176.363 240.48C177.191 241.308 177.657 242.43 177.66 243.601V249.861C177.66 251.036 178.126 252.162 178.957 252.992C179.787 253.822 180.913 254.289 182.087 254.289H183.526C184.697 254.289 185.821 253.823 186.65 252.995C187.478 252.166 187.944 251.043 187.944 249.871V226.728C187.944 225.554 188.41 224.428 189.24 223.597C190.071 222.767 191.197 222.301 192.371 222.301H207.627C208.801 222.303 209.925 222.77 210.755 223.6C211.585 224.43 212.052 225.555 212.055 226.728V249.908C212.055 251.08 212.52 252.204 213.349 253.032C214.177 253.861 215.301 254.326 216.473 254.326H221.229C222.401 254.326 223.524 253.861 224.353 253.032C225.181 252.204 225.647 251.08 225.647 249.908V203.19V179.784H226.587V194.204C226.669 194.076 226.76 193.953 226.86 193.837L261.969 173.674C262.711 172.866 263.134 173.674 263.134 172.593V143.735L265.55 142.006L309.41 110.582V98.0702H310.35V109.905L310.529 109.773V249.918C310.529 251.092 310.995 252.218 311.826 253.048C312.656 253.879 313.782 254.345 314.956 254.345H320.719C321.3 254.346 321.875 254.233 322.412 254.012C322.949 253.79 323.437 253.465 323.849 253.055C324.26 252.644 324.586 252.157 324.809 251.62C325.031 251.083 325.146 250.508 325.146 249.927L326.528 197.607C326.538 197.102 326.657 196.605 326.876 196.15L335.448 178.29H336.088V158.023C336.088 157.075 336.464 156.166 337.133 155.494C337.803 154.823 338.711 154.445 339.66 154.442H341.389V140.116H342.329V154.442H343.269C344.218 154.445 345.128 154.823 345.799 155.494C346.47 156.165 346.848 157.074 346.851 158.023V158.963H350.864V158.023C350.864 157.075 351.24 156.166 351.91 155.494C352.58 154.823 353.488 154.445 354.436 154.442H355.959V140.116H356.899V154.442H358.008C358.957 154.445 359.867 154.823 360.538 155.494C361.209 156.165 361.587 157.074 361.59 158.023V178.252H362.229L370.811 196.112C371.026 196.569 371.144 197.065 371.159 197.569L372.569 249.833C372.569 251.007 373.035 252.134 373.866 252.964C374.696 253.794 375.822 254.261 376.996 254.261H385.09C386.261 254.263 387.383 254.729 388.211 255.557C389.039 256.385 389.505 257.508 389.508 258.679V264.77C389.507 265.35 389.62 265.925 389.842 266.462C390.063 266.999 390.388 267.486 390.799 267.897C391.209 268.307 391.697 268.632 392.234 268.854C392.77 269.076 393.345 269.189 393.926 269.188H399.707C400.749 269.182 401.76 269.546 402.559 270.216C403.357 270.885 403.892 271.817 404.068 272.844L419.466 353.76C419.522 354.035 419.55 354.315 419.55 354.596C419.545 355.77 419.076 356.893 418.244 357.721C417.413 358.549 416.287 359.014 415.113 359.014H47.6674C46.7368 359.08 47.6204 297.736 47.6204 297.736Z" fill="#F5F5F5"/>
<path d="M411.325 94.3948H349.389C341.455 94.3948 339.538 83.284 347.029 80.6802L347.321 80.5862C339.03 73.6772 357.2 59.1166 376.94 79.2796C375.399 72.5586 392.92 74.9838 398.325 84.1582C400.271 78.1328 417.022 88.595 411.325 94.3948Z" fill="#F5F5F5"/>
<path d="M99.7341 179.474H64.7379C64.7379 179.474 56.5317 176.382 57.5939 168.194C58.6561 160.007 71.0453 166.831 71.0453 166.831C71.0453 166.831 67.2853 155.41 79.2891 158.653C82.6716 159.517 85.7242 161.359 88.065 163.949C90.4058 166.539 91.9308 169.762 92.4491 173.214C92.4491 173.214 108.222 170.469 99.7341 179.474Z" fill="#F5F5F5"/>
<path d="M349.013 269.47H340.158V301.214H349.013V269.47Z" fill="#E0E0E0"/>
<path d="M366.403 289.868H357.548V301.214H366.403V289.868Z" fill="#EBEBEB"/>
<path d="M383.784 284.247H374.929V301.204H383.784V284.247Z" fill="#EBEBEB"/>
<path d="M401.173 294.709H392.318V301.214H401.173V294.709Z" fill="#EBEBEB"/>
<path d="M418.563 277.836H409.708V301.204H418.563V277.836Z" fill="#E6E6E6"/>
<path d="M115.837 271.848H51.4277V279.735H115.837V271.848Z" fill="#EBEBEB"/>
<path d="M138.857 283.043H51.4277V290.93H138.857V283.043Z" fill="#E0E0E0"/>
<path d="M76.9299 294.135H51.4277V302.022H76.9299V294.135Z" fill="#EBEBEB"/>
<path d="M285.113 128.555H288.725V130.139H282.377V128.879L285.617 125.819C286.361 125.111 286.493 124.679 286.493 124.271C286.493 123.611 286.037 123.227 285.149 123.227C284.429 123.227 283.817 123.503 283.409 124.067L281.993 123.155C282.641 122.207 283.817 121.595 285.329 121.595C287.201 121.595 288.449 122.555 288.449 124.079C288.449 124.895 288.221 125.639 287.045 126.731L285.113 128.555ZM293.452 125.159C294.964 125.399 295.732 126.335 295.732 127.571C295.732 128.987 294.64 130.283 292.252 130.283C291.076 130.283 289.864 129.959 289.048 129.383L289.804 127.895C290.44 128.375 291.328 128.651 292.204 128.651C293.176 128.651 293.776 128.255 293.776 127.571C293.776 126.935 293.308 126.539 292.204 126.539H291.316V125.255L293.044 123.299H289.468V121.739H295.348V122.999L293.452 125.159ZM292.445 145.139H290.621L290.609 140.099L288.137 144.251H287.261L284.801 140.207V145.139H282.977V136.739H284.585L287.729 141.959L290.825 136.739H292.421L292.445 145.139ZM294.438 145.139V136.739H296.382V145.139H294.438ZM298.376 145.139V136.739H300.32V143.555H304.532V145.139H298.376ZM307.55 143.579H312.122V145.139H305.618V136.739H311.966V138.299H307.55V140.123H311.45V141.635H307.55V143.579ZM316.429 145.283C315.097 145.283 313.753 144.887 313.009 144.311L313.669 142.847C314.377 143.363 315.433 143.723 316.441 143.723C317.593 143.723 318.061 143.339 318.061 142.823C318.061 141.251 313.177 142.331 313.177 139.211C313.177 137.783 314.329 136.595 316.717 136.595C317.773 136.595 318.853 136.847 319.633 137.339L319.033 138.815C318.253 138.371 317.449 138.155 316.705 138.155C315.553 138.155 315.109 138.587 315.109 139.115C315.109 140.663 319.993 139.595 319.993 142.679C319.993 144.083 318.829 145.283 316.429 145.283Z" fill="#E0E0E0"/>
<path d="M235 401.389C335.657 401.389 417.256 396.625 417.256 390.749C417.256 384.872 335.657 380.108 235 380.108C134.342 380.108 52.7432 384.872 52.7432 390.749C52.7432 396.625 134.342 401.389 235 401.389Z" fill="#F5F5F5"/>
<path d="M322.007 155.636H297.135L272.272 180.499L225.507 203.886H176.514L128.264 252.136H93.4932V260.474H131.714L179.964 212.224H227.471L277.207 187.351L300.594 163.974H323.972L358.789 146.565V137.24L322.007 155.636Z" fill="#FF7A00"/>
<path d="M93.2013 216.388C92.0864 216.382 90.9812 216.596 89.9494 217.018C88.9176 217.441 87.9794 218.063 87.1888 218.849C86.3982 219.635 85.7709 220.57 85.3428 221.6C84.9147 222.629 84.6943 223.733 84.6943 224.848C84.6943 227.837 88.1441 233.938 90.6445 238.008C92.0733 240.311 93.2013 241.947 93.2013 241.947C93.2013 241.947 94.3293 240.311 95.7393 238.008C98.2491 233.975 101.69 227.875 101.69 224.848C101.69 223.735 101.47 222.632 101.043 221.604C100.616 220.576 99.9903 219.642 99.2017 218.856C98.4131 218.07 97.4772 217.447 96.4475 217.024C95.4178 216.6 94.3147 216.384 93.2013 216.388ZM93.2013 229.069C92.4346 229.07 91.6845 228.845 91.0462 228.42C90.4079 227.995 89.91 227.39 89.6157 226.682C89.3215 225.974 89.244 225.195 89.3931 224.443C89.5422 223.69 89.9113 223 90.4535 222.457C90.9956 221.915 91.6866 221.546 92.4387 221.397C93.1908 221.248 93.9703 221.325 94.6783 221.62C95.3864 221.914 95.9911 222.412 96.416 223.05C96.8408 223.688 97.0666 224.438 97.0647 225.205C97.0647 226.23 96.6577 227.212 95.9332 227.937C95.2086 228.662 94.226 229.069 93.2013 229.069Z" fill="#FF7A00"/>
<g opacity="0.5">
<path d="M322.007 155.636H297.135L272.272 180.499L225.507 203.886H176.514L128.264 252.136H93.4932V260.474H131.714L179.964 212.224H227.471L277.207 187.351L300.594 163.974H323.972L358.789 146.565V137.24L322.007 155.636Z" fill="white"/>
<path d="M93.2013 216.388C92.0864 216.382 90.9812 216.596 89.9494 217.018C88.9176 217.441 87.9794 218.063 87.1888 218.849C86.3982 219.635 85.7709 220.57 85.3428 221.6C84.9147 222.629 84.6943 223.733 84.6943 224.848C84.6943 227.837 88.1441 233.938 90.6445 238.008C92.0733 240.311 93.2013 241.947 93.2013 241.947C93.2013 241.947 94.3293 240.311 95.7393 238.008C98.2491 233.975 101.69 227.875 101.69 224.848C101.69 223.735 101.47 222.632 101.043 221.604C100.616 220.576 99.9903 219.642 99.2017 218.856C98.4131 218.07 97.4772 217.447 96.4475 217.024C95.4178 216.6 94.3147 216.384 93.2013 216.388ZM93.2013 229.069C92.4346 229.07 91.6845 228.845 91.0462 228.42C90.4079 227.995 89.91 227.39 89.6157 226.682C89.3215 225.974 89.244 225.195 89.3931 224.443C89.5422 223.69 89.9113 223 90.4535 222.457C90.9956 221.915 91.6866 221.546 92.4387 221.397C93.1908 221.248 93.9703 221.325 94.6783 221.62C95.3864 221.914 95.9911 222.412 96.416 223.05C96.8408 223.688 97.0666 224.438 97.0647 225.205C97.0647 226.23 96.6577 227.212 95.9332 227.937C95.2086 228.662 94.226 229.069 93.2013 229.069Z" fill="white"/>
</g>
<path d="M358.789 97.2994C357.37 97.2981 355.964 97.5765 354.652 98.1186C353.34 98.6608 352.147 99.456 351.143 100.459C350.138 101.462 349.341 102.653 348.796 103.964C348.252 105.275 347.971 106.68 347.97 108.1C347.97 111.86 352.35 119.671 355.546 124.804C357.36 127.746 358.789 129.823 358.789 129.823C358.789 129.823 360.227 127.746 362.032 124.804C365.219 119.671 369.599 111.898 369.599 108.1C369.597 105.235 368.457 102.487 366.43 100.462C364.403 98.437 361.654 97.2994 358.789 97.2994ZM358.789 113.439C357.815 113.439 356.863 113.15 356.053 112.609C355.243 112.068 354.611 111.299 354.238 110.399C353.866 109.498 353.768 108.508 353.958 107.553C354.148 106.597 354.617 105.72 355.306 105.031C355.995 104.342 356.873 103.873 357.828 103.683C358.784 103.493 359.774 103.59 360.674 103.963C361.574 104.336 362.343 104.967 362.885 105.777C363.426 106.587 363.715 107.539 363.715 108.514C363.716 109.161 363.589 109.802 363.342 110.4C363.095 110.998 362.732 111.542 362.275 111.999C361.817 112.457 361.274 112.82 360.676 113.067C360.077 113.314 359.436 113.44 358.789 113.439Z" fill="#FF7A00"/>
<g opacity="0.5">
<path d="M358.789 97.2994C357.37 97.2981 355.964 97.5765 354.652 98.1186C353.34 98.6608 352.147 99.456 351.143 100.459C350.138 101.462 349.341 102.653 348.796 103.964C348.252 105.275 347.971 106.68 347.97 108.1C347.97 111.86 352.35 119.671 355.546 124.804C357.36 127.746 358.789 129.823 358.789 129.823C358.789 129.823 360.227 127.746 362.032 124.804C365.219 119.671 369.599 111.898 369.599 108.1C369.597 105.235 368.457 102.487 366.43 100.462C364.403 98.437 361.654 97.2994 358.789 97.2994ZM358.789 113.439C357.815 113.439 356.863 113.15 356.053 112.609C355.243 112.068 354.611 111.299 354.238 110.399C353.866 109.498 353.768 108.508 353.958 107.553C354.148 106.597 354.617 105.72 355.306 105.031C355.995 104.342 356.873 103.873 357.828 103.683C358.784 103.493 359.774 103.59 360.674 103.963C361.574 104.336 362.343 104.967 362.885 105.777C363.426 106.587 363.715 107.539 363.715 108.514C363.716 109.161 363.589 109.802 363.342 110.4C363.095 110.998 362.732 111.542 362.275 111.999C361.817 112.457 361.274 112.82 360.676 113.067C360.077 113.314 359.436 113.44 358.789 113.439Z" fill="white"/>
</g>
<path d="M156.492 98.4274C156.133 98.1875 155.699 98.0884 155.272 98.1491C154.846 98.2098 154.456 98.4261 154.179 98.7564L151.857 102.225L140.69 95.457C140.334 95.255 139.918 95.1839 139.514 95.256C139.111 95.3281 138.746 95.5388 138.481 95.8518L134.637 100.787C134.498 100.937 134.392 101.114 134.327 101.308C134.261 101.501 134.238 101.706 134.257 101.909C134.277 102.113 134.339 102.31 134.44 102.487C134.541 102.665 134.679 102.819 134.843 102.939C135.202 103.179 135.636 103.278 136.063 103.218C136.489 103.157 136.879 102.941 137.156 102.61L140.032 98.8504L142.457 100.317L137.287 106.991L128.273 118.553C128.141 118.708 128.044 118.89 127.987 119.086C127.931 119.282 127.917 119.488 127.947 119.69C127.976 119.891 128.048 120.085 128.158 120.257C128.267 120.428 128.412 120.575 128.583 120.687C128.845 120.861 129.152 120.952 129.467 120.95C129.738 120.952 130.006 120.892 130.25 120.775C130.494 120.658 130.709 120.486 130.877 120.273L138.679 110.281L138.904 109.989C139.13 109.643 139.481 109.397 139.883 109.302C140.286 109.208 140.71 109.272 141.066 109.482L143.285 110.92L137.325 114.295C137.14 114.389 136.976 114.519 136.843 114.677C136.709 114.836 136.609 115.02 136.547 115.218C136.486 115.416 136.465 115.624 136.485 115.831C136.506 116.037 136.568 116.237 136.667 116.419C136.905 116.771 137.268 117.018 137.683 117.109C138.098 117.2 138.532 117.128 138.895 116.908L147.092 112.264C147.328 112.135 147.53 111.951 147.679 111.726C147.828 111.502 147.92 111.244 147.947 110.976C147.966 110.72 147.916 110.464 147.802 110.234C147.688 110.004 147.514 109.809 147.298 109.67L145.287 108.373L148.52 103.964L151.199 105.59C151.454 105.738 151.742 105.819 152.036 105.825C152.296 105.821 152.552 105.763 152.788 105.654C153.024 105.546 153.236 105.39 153.408 105.195L156.698 100.58C156.837 100.43 156.943 100.253 157.008 100.059C157.074 99.8658 157.097 99.6606 157.078 99.4573C157.058 99.254 156.996 99.0571 156.895 98.8796C156.794 98.7021 156.656 98.548 156.492 98.4274Z" fill="#FF7A00"/>
<path d="M149.179 99.1512C150.021 99.1658 150.839 98.8655 151.471 98.3092C152.104 97.7529 152.507 96.9805 152.6 96.1432C152.619 95.742 152.554 95.3413 152.409 94.9664C152.265 94.5916 152.045 94.2507 151.762 93.9654C151.479 93.68 151.141 93.4564 150.767 93.3087C150.394 93.1609 149.994 93.0923 149.592 93.107C148.75 93.0924 147.932 93.3927 147.299 93.949C146.667 94.5053 146.264 95.2776 146.171 96.115C146.151 96.5166 146.215 96.9179 146.358 97.2934C146.502 97.6689 146.722 98.0103 147.005 98.296C147.288 98.5816 147.628 98.8052 148.002 98.9524C148.376 99.0996 148.777 99.1674 149.179 99.1512Z" fill="#FF7A00"/>
<path d="M138.369 130.98V132.474H132.409V131.29L135.455 128.413C136.15 127.746 136.272 127.342 136.272 126.956C136.272 126.336 135.849 126.016 135.013 126.016C134.696 126.005 134.382 126.071 134.097 126.209C133.812 126.346 133.565 126.551 133.377 126.806L132.052 125.951C132.412 125.466 132.886 125.079 133.432 124.823C133.978 124.567 134.58 124.451 135.182 124.484C136.94 124.484 138.115 125.424 138.115 126.815C138.104 127.305 137.978 127.786 137.748 128.218C137.518 128.651 137.189 129.023 136.789 129.306L134.975 131.017L138.369 130.98Z" fill="#FF7A00"/>
<path d="M139.12 128.526C139.12 125.922 140.558 124.447 142.504 124.447C144.45 124.447 145.879 125.922 145.879 128.526C145.879 131.13 144.45 132.606 142.504 132.606C140.558 132.606 139.12 131.13 139.12 128.526ZM144.046 128.526C144.046 126.731 143.416 125.988 142.504 125.988C141.592 125.988 140.963 126.731 140.963 128.526C140.963 130.322 141.602 131.064 142.504 131.064C143.407 131.064 144.036 130.322 144.036 128.526H144.046Z" fill="#FF7A00"/>
<path d="M287.442 89.7418C287.442 87.138 288.89 85.6622 290.826 85.6622C292.763 85.6622 294.21 87.138 294.21 89.7418C294.21 92.3456 292.782 93.8214 290.826 93.8214C288.871 93.8214 287.442 92.3456 287.442 89.7418ZM292.368 89.7418C292.368 87.9464 291.738 87.2038 290.826 87.2038C289.915 87.2038 289.294 87.9464 289.294 89.7418C289.294 91.5372 289.924 92.2798 290.826 92.2798C291.729 92.2798 292.34 91.5372 292.34 89.7418H292.368Z" fill="#FF7A00"/>
<path d="M301.618 91.18C301.608 91.5534 301.521 91.9207 301.363 92.2589C301.204 92.5971 300.978 92.8989 300.697 93.1452C300.416 93.3915 300.087 93.5771 299.731 93.6902C299.375 93.8034 299 93.8416 298.629 93.8026C296.457 93.8026 295.104 92.4396 295.104 89.8922C295.104 87.1662 296.749 85.6434 299.127 85.6434C299.896 85.6198 300.657 85.8084 301.326 86.1886L300.65 87.5234C300.208 87.2483 299.694 87.1108 299.174 87.1286C298.871 87.1095 298.568 87.1564 298.285 87.2659C298.002 87.3755 297.746 87.5452 297.535 87.7633C297.324 87.9814 297.163 88.2427 297.063 88.5291C296.963 88.8155 296.926 89.1202 296.955 89.4222C297.22 89.1821 297.531 88.9977 297.868 88.8798C298.205 88.7619 298.563 88.713 298.92 88.736C299.259 88.7104 299.601 88.7542 299.923 88.8646C300.245 88.9751 300.541 89.15 300.794 89.3787C301.046 89.6073 301.249 89.8849 301.391 90.1946C301.533 90.5043 301.61 90.8395 301.618 91.18ZM299.851 91.2646C299.851 91.0954 299.815 90.9282 299.745 90.7741C299.675 90.6201 299.573 90.4828 299.446 90.3714C299.318 90.2601 299.169 90.1773 299.006 90.1287C298.844 90.0801 298.674 90.0668 298.506 90.0896C298.339 90.0714 298.169 90.0879 298.008 90.1381C297.847 90.1882 297.698 90.271 297.57 90.3812C297.442 90.4913 297.338 90.6266 297.265 90.7786C297.191 90.9306 297.15 91.096 297.143 91.2646C297.143 91.9414 297.651 92.4396 298.535 92.4396C298.699 92.4594 298.866 92.4443 299.024 92.3955C299.183 92.3467 299.329 92.2651 299.454 92.1562C299.579 92.0472 299.68 91.9132 299.75 91.7628C299.82 91.6125 299.857 91.4492 299.86 91.2834L299.851 91.2646Z" fill="#FF7A00"/>
<path d="M302.342 92.6746C302.367 92.4017 302.493 92.148 302.696 91.9634C302.898 91.7787 303.163 91.6764 303.437 91.6764C303.711 91.6764 303.975 91.7787 304.178 91.9634C304.38 92.148 304.506 92.4017 304.532 92.6746C304.546 92.827 304.528 92.9806 304.48 93.1256C304.431 93.2707 304.353 93.404 304.25 93.5171C304.146 93.6302 304.021 93.7205 303.881 93.7823C303.741 93.8441 303.59 93.876 303.437 93.876C303.284 93.876 303.132 93.8441 302.992 93.7823C302.853 93.7205 302.727 93.6302 302.624 93.5171C302.521 93.404 302.442 93.2707 302.394 93.1256C302.345 92.9806 302.327 92.827 302.342 92.6746Z" fill="#FF7A00"/>
<path d="M311.365 92.2046V93.6898H305.406V92.5054L308.442 89.629C309.147 88.9616 309.269 88.5574 309.269 88.172C309.269 87.5516 308.837 87.232 308.009 87.232C307.693 87.2207 307.379 87.2867 307.094 87.4243C306.809 87.5619 306.562 87.7669 306.374 88.0216L305.039 87.1662C305.401 86.6825 305.878 86.2956 306.425 86.0398C306.973 85.784 307.575 85.6672 308.179 85.6998C309.936 85.6998 311.102 86.6398 311.102 88.031C311.093 88.5203 310.97 89.0007 310.741 89.4335C310.513 89.8662 310.185 90.2391 309.786 90.522L307.972 92.2422L311.365 92.2046Z" fill="#FF7A00"/>
<path d="M317.955 91.274C317.955 92.6088 316.93 93.8214 314.684 93.8214C313.62 93.8428 312.573 93.5484 311.676 92.9754L312.381 91.5842C313.04 92.0497 313.829 92.2963 314.637 92.2892C315.577 92.2892 316.113 91.9226 316.113 91.274C316.113 90.6254 315.68 90.334 314.637 90.334H313.81V89.1026L315.426 87.2226H312.08V85.7938H317.607V86.9782L315.84 89.0086C316.416 89.0424 316.957 89.2965 317.351 89.7182C317.744 90.14 317.961 90.697 317.955 91.274Z" fill="#FF7A00"/>
<path d="M318.744 92.6746C318.769 92.4017 318.896 92.148 319.098 91.9634C319.301 91.7787 319.565 91.6764 319.839 91.6764C320.113 91.6764 320.377 91.7787 320.58 91.9634C320.783 92.148 320.909 92.4017 320.934 92.6746C320.948 92.827 320.93 92.9806 320.882 93.1256C320.833 93.2707 320.755 93.404 320.652 93.5171C320.549 93.6302 320.423 93.7205 320.283 93.7823C320.143 93.8441 319.992 93.876 319.839 93.876C319.686 93.876 319.535 93.8441 319.395 93.7823C319.255 93.7205 319.129 93.6302 319.026 93.5171C318.923 93.404 318.845 93.2707 318.796 93.1256C318.748 92.9806 318.73 92.827 318.744 92.6746Z" fill="#FF7A00"/>
<path d="M324.62 85.7938V93.6898H322.796V87.2602H321.217V85.7938H324.62Z" fill="#FF7A00"/>
<path d="M332.61 91.3962C332.61 92.8908 331.275 93.8214 329.273 93.8214C327.27 93.8214 325.954 92.8814 325.954 91.3962C325.947 91.0004 326.057 90.6112 326.269 90.2769C326.481 89.9427 326.787 89.6782 327.148 89.5162C326.86 89.3567 326.621 89.1221 326.455 88.8375C326.29 88.5528 326.204 88.2287 326.208 87.8994C326.208 86.5082 327.449 85.6434 329.244 85.6434C331.04 85.6434 332.299 86.5082 332.299 87.8994C332.304 88.2289 332.219 88.5534 332.054 88.8383C331.888 89.1231 331.648 89.3575 331.359 89.5162C331.732 89.6685 332.05 89.9291 332.273 90.2643C332.496 90.5994 332.613 90.9937 332.61 91.3962ZM330.73 91.3398C330.73 90.6442 330.156 90.2118 329.244 90.2118C328.333 90.2118 327.778 90.6442 327.778 91.3398C327.778 92.0354 328.342 92.4866 329.244 92.4866C330.147 92.4866 330.758 92.0448 330.758 91.3398H330.73ZM328.06 87.9934C328.06 88.595 328.539 88.9334 329.282 88.9334C330.025 88.9334 330.523 88.5668 330.523 87.9934C330.523 87.42 330.025 87.0534 329.282 87.0534C328.539 87.0534 328.06 87.42 328.06 87.9934Z" fill="#FF7A00"/>
<path d="M272.167 96.444C272.055 96.4428 271.945 96.4188 271.844 96.3736C271.742 96.3283 271.65 96.2627 271.575 96.1808L265.935 89.8922C265.806 89.7349 265.743 89.5339 265.758 89.3311C265.774 89.1284 265.867 88.9394 266.019 88.8037C266.17 88.668 266.368 88.5959 266.571 88.6026C266.775 88.6092 266.967 88.6941 267.11 88.8394L272.75 95.128C272.888 95.2831 272.96 95.4865 272.949 95.6942C272.939 95.9019 272.847 96.097 272.693 96.2372C272.551 96.3712 272.362 96.4452 272.167 96.444Z" fill="#FF7A00"/>
<path d="M267.721 77.4748V76.4784H264.506V77.55C261.265 77.9988 258.316 79.6644 256.259 82.2087C254.202 84.7529 253.19 87.985 253.429 91.2482C253.668 94.5115 255.141 97.5613 257.548 99.7782C259.954 101.995 263.114 103.213 266.386 103.184C269.698 103.203 272.89 101.946 275.3 99.6745C277.71 97.4028 279.153 94.2907 279.329 90.9836C279.506 87.6765 278.402 84.4284 276.248 81.9131C274.094 79.3978 271.054 77.8085 267.759 77.4748H267.721ZM266.349 101.605C264.118 101.605 261.937 100.943 260.082 99.7036C258.227 98.4641 256.781 96.7024 255.927 94.6413C255.074 92.5801 254.85 90.3121 255.285 88.124C255.721 85.9359 256.795 83.926 258.373 82.3484C259.95 80.7709 261.96 79.6966 264.148 79.2613C266.336 78.8261 268.604 79.0495 270.665 79.9032C272.727 80.757 274.488 82.2028 275.728 84.0578C276.967 85.9127 277.629 88.0936 277.629 90.3246C277.616 93.3124 276.424 96.1744 274.311 98.2871C272.198 100.4 269.337 101.592 266.349 101.605Z" fill="#FF7A00"/>
<path d="M268.257 73.8746H263.971V76.0554H268.257V73.8746Z" fill="#FF7A00"/>
<g opacity="0.6">
<path d="M272.167 96.444C272.055 96.4428 271.945 96.4188 271.844 96.3736C271.742 96.3283 271.65 96.2627 271.575 96.1808L265.935 89.8922C265.806 89.7349 265.743 89.5339 265.758 89.3311C265.774 89.1284 265.867 88.9394 266.019 88.8037C266.17 88.668 266.368 88.5959 266.571 88.6026C266.775 88.6092 266.967 88.6941 267.11 88.8394L272.75 95.128C272.888 95.2831 272.96 95.4865 272.949 95.6942C272.939 95.9019 272.847 96.097 272.693 96.2372C272.551 96.3712 272.362 96.4452 272.167 96.444Z" fill="#FF7A00"/>
<path d="M267.721 77.4748V76.4784H264.506V77.55C261.265 77.9988 258.316 79.6644 256.259 82.2087C254.202 84.7529 253.19 87.985 253.429 91.2482C253.668 94.5115 255.141 97.5613 257.548 99.7782C259.954 101.995 263.114 103.213 266.386 103.184C269.698 103.203 272.89 101.946 275.3 99.6745C277.71 97.4028 279.153 94.2907 279.329 90.9836C279.506 87.6765 278.402 84.4284 276.248 81.9131C274.094 79.3978 271.054 77.8085 267.759 77.4748H267.721ZM266.349 101.605C264.118 101.605 261.937 100.943 260.082 99.7036C258.227 98.4641 256.781 96.7024 255.927 94.6413C255.074 92.5801 254.85 90.3121 255.285 88.124C255.721 85.9359 256.795 83.926 258.373 82.3484C259.95 80.7709 261.96 79.6966 264.148 79.2613C266.336 78.8261 268.604 79.0495 270.665 79.9032C272.727 80.757 274.488 82.2028 275.728 84.0578C276.967 85.9127 277.629 88.0936 277.629 90.3246C277.616 93.3124 276.424 96.1744 274.311 98.2871C272.198 100.4 269.337 101.592 266.349 101.605Z" fill="#FF7A00"/>
<path d="M268.257 73.8746H263.971V76.0554H268.257V73.8746Z" fill="#FF7A00"/>
</g>
<path d="M329.056 232.641H333.813C329.761 236.861 323.924 241.025 318.378 245.237L314.618 248L314.533 248.057L310.867 244.992C306.167 240.941 301.251 236.711 297.764 232.509H304.823L307.916 221.896L312.531 242.238L316.78 231.823L319.459 237.632L322.655 227.48L326.18 237.388L329.056 232.641Z" fill="#FF7A00"/>
<path d="M334.819 230.422H328.436L326.434 233.722L322.59 222.865L319.3 233.468L316.762 227.959L312.823 237.5L308.029 216.416L303.996 230.3H296.871C292.5 224.66 291.034 219.095 296.683 214.16C303.752 207.975 311.939 213.737 316.085 217.478C320.456 214.01 330.053 206.913 337.413 216.144C341.117 220.768 338.889 225.816 334.819 230.422Z" fill="#FF7A00"/>
<path d="M309.26 198.81V206.706H307.437V200.276H305.857V198.81H309.26Z" fill="#FF7A00"/>
<path d="M316.526 205.211V206.706H310.557V205.522L313.603 202.645C314.299 201.978 314.43 201.574 314.43 201.188C314.43 200.568 313.998 200.248 313.161 200.248C312.844 200.231 312.528 200.294 312.242 200.432C311.956 200.57 311.709 200.779 311.526 201.038L310.2 200.182C310.561 199.699 311.035 199.312 311.581 199.056C312.127 198.8 312.728 198.683 313.33 198.716C315.088 198.716 316.263 199.656 316.263 201.047C316.252 201.536 316.127 202.015 315.898 202.448C315.67 202.88 315.344 203.253 314.947 203.538L313.133 205.249L316.526 205.211Z" fill="#FF7A00"/>
<path d="M323.248 204.224C323.248 205.616 322.223 206.838 319.967 206.838C318.903 206.858 317.856 206.564 316.959 205.992L317.673 204.591C318.328 205.06 319.115 205.31 319.92 205.305C320.86 205.305 321.396 204.92 321.396 204.281C321.396 203.642 320.992 203.256 319.516 203.256H317.495L317.899 198.81H322.712V200.276H319.422L319.3 201.771H319.939C322.326 201.771 323.248 202.824 323.248 204.224Z" fill="#FF7A00"/>
<path d="M172.442 178.412H165.637V179.117H172.442V178.412Z" fill="#FF7A00"/>
<path d="M195.182 178.412H177.632V179.117H195.182V178.412Z" fill="#FF7A00"/>
<path d="M174.924 310.473H167.949V309.768C179.605 309.768 191.534 309.768 203.406 309.58V310.285C193.912 310.407 184.352 310.473 174.924 310.473Z" fill="#FF7A00"/>
<path d="M162.216 310.426C157.205 310.426 152.082 310.35 146.997 310.275V309.57C152.082 309.645 157.196 309.692 162.206 309.721L162.216 310.426Z" fill="#FF7A00"/>
<path d="M141.883 309.57H136.187V310.275H141.883V309.57Z" fill="#FF7A00"/>
<path d="M207.674 155.288H185.086V155.993H207.674V155.288Z" fill="#FF7A00"/>
<path d="M181.231 155.288H178.317V155.993H181.231V155.288Z" fill="#FF7A00"/>
<path d="M290.112 320.907H273.859V321.612H290.112V320.907Z" fill="#FF7A00"/>
<path d="M269.714 320.907H260.559V321.612H269.714V320.907Z" fill="#FF7A00"/>
<path d="M240.771 172.575C227.611 173.74 209.516 179.54 209.939 182.501L191.008 206.067L185.076 208.266C185.076 208.266 197.494 177.538 200.718 172.49C202.974 168.965 224.744 161.718 236.128 157.638C241.044 155.871 245.528 159.227 246.956 162.065C246.956 162.065 251.675 171.616 240.771 172.575Z" fill="#E29471"/>
<path d="M191.007 206.067L190.575 211.199C190.442 212.786 189.697 214.259 188.498 215.307L183.901 219.34C183.632 219.571 183.288 219.699 182.933 219.699C182.578 219.699 182.234 219.571 181.965 219.34L178.844 216.689C178.566 216.456 178.384 216.129 178.332 215.77C178.28 215.411 178.362 215.045 178.562 214.743L182.068 209.432L186.298 203.792C186.298 203.792 191.167 204.093 191.007 206.067Z" fill="#E29471"/>
<path d="M169.802 342.094L143.566 352.378C142.805 351.72 138.34 342.893 138.34 342.893L161.605 332.149L169.802 342.094Z" fill="#E29471"/>
<path d="M144.421 354.812C144.409 354.757 144.413 354.699 144.433 354.645C144.453 354.592 144.488 354.545 144.534 354.512C144.583 354.48 144.64 354.463 144.699 354.463C144.757 354.463 144.814 354.48 144.863 354.512C145.023 354.624 148.971 357.275 149.356 359.287C149.403 359.471 149.411 359.663 149.38 359.851C149.349 360.038 149.28 360.217 149.178 360.377C149.079 360.574 148.92 360.735 148.724 360.837C148.528 360.938 148.305 360.975 148.087 360.941C147.279 360.838 146.442 359.616 145.775 358.243C145.213 357.147 144.759 355.998 144.421 354.812ZM148.661 358.901C147.752 357.548 146.59 356.383 145.239 355.47C145.935 357.567 147.288 360.246 148.219 360.405C148.341 360.405 148.52 360.405 148.745 360.067C148.809 359.971 148.853 359.863 148.872 359.75C148.891 359.637 148.887 359.52 148.858 359.409C148.814 359.231 148.751 359.057 148.67 358.892L148.661 358.901Z" fill="#FF7A00"/>
<path d="M144.469 354.634C144.483 354.585 144.511 354.541 144.549 354.508C144.587 354.474 144.635 354.453 144.685 354.446C144.817 354.446 147.796 353.271 149.592 354.07C149.841 354.194 150.063 354.367 150.244 354.578C150.425 354.79 150.561 355.036 150.645 355.301C150.759 355.511 150.797 355.754 150.752 355.989C150.708 356.224 150.583 356.436 150.4 356.589C149.3 357.388 145.757 355.987 144.544 354.991L144.469 354.897V354.634ZM149.329 354.634C148.016 354.295 146.63 354.371 145.362 354.85C146.809 355.79 149.507 356.655 150.118 356.128C150.175 356.081 150.334 355.969 150.165 355.508L150.052 355.367C149.915 355.032 149.657 354.76 149.329 354.606V354.634Z" fill="#FF7A00"/>
<path d="M145.578 352.209L143.942 350.789C143.042 350.008 142.318 349.044 141.819 347.961C141.32 346.879 141.056 345.702 141.047 344.51V341.69C140.952 341.476 140.786 341.302 140.577 341.197C140.367 341.092 140.128 341.064 139.9 341.117L130.293 342.809C129.353 343.053 129.052 345.168 129.099 345.271C131.252 351.974 136.948 365.951 139.007 370.454C141.066 374.957 145.822 373.528 145.38 371.488C143.416 362.361 144.497 358.084 145.672 354.352C145.912 353.651 145.878 352.886 145.578 352.209Z" fill="#FF7A00"/>
<g opacity="0.2">
<path d="M153.464 335.909L161.604 332.149L169.801 342.094L157.797 346.794L155.861 344.435C154.695 343.019 153.979 341.288 153.802 339.462L153.464 335.909Z" fill="black"/>
</g>
<path d="M200.652 240.856C199.819 242.765 199.217 244.765 198.856 246.816C196.751 257.598 193.818 294.173 191.91 308.076C191.678 309.459 191.095 310.759 190.218 311.853C189.341 312.947 188.199 313.799 186.9 314.327C179.314 317.899 174.388 319.027 157.28 333.033C159.339 337.413 161.303 340.496 163.174 345.638C163.174 345.638 196.149 332.967 203.688 326.763C214.789 317.626 228.307 269.611 232.236 257.203C234.464 250.172 237.039 241.759 232.931 235.686C230.619 232.283 208.078 221.925 200.652 240.856Z" fill="#263238"/>
<path d="M243.46 159.631C245.951 162.451 247.117 164.331 246.365 172.565C244.889 188.545 245.866 213.982 245.302 217.901C244.4 223.88 211.03 224.66 204.92 219.152L192.803 170.272C192.41 168.687 192.352 167.037 192.634 165.429C192.916 163.821 193.531 162.289 194.44 160.933C195.349 159.576 196.532 158.425 197.913 157.553C199.294 156.682 200.842 156.109 202.457 155.871C205.23 155.448 235.884 151.143 243.46 159.631Z" fill="#FF7A00"/>
<path d="M245.339 217.901C246.276 223.307 246.497 228.813 245.997 234.276C245.184 243.723 247.978 253.127 253.818 260.596C253.818 260.596 210.23 254.251 199.909 242.952L204.919 219.152C218.391 220.465 231.975 220.045 245.339 217.901Z" fill="#263238"/>
<path d="M215.053 143.547L214.338 142.965C212.252 140.323 211.443 137.325 210.578 132.625C210.343 131.412 210.108 130.105 209.845 128.658C209.461 126.739 209.525 124.757 210.033 122.867C210.307 121.887 210.692 120.941 211.18 120.047C212.299 124.221 212.458 128.554 212.844 132.831C213.05 136.493 213.794 140.103 215.053 143.547Z" fill="#263238"/>
<path d="M215.984 138.509C216.51 143.322 216.877 150.062 214.282 153.878C213.824 154.515 213.567 155.275 213.545 156.059C213.524 156.843 213.738 157.616 214.16 158.277C215.692 160.599 219.208 164.086 227.32 168.1C229.698 165.167 230.563 162.78 230.723 160.966C230.797 159.932 230.551 158.901 230.02 158.012C229.489 157.123 228.697 156.418 227.752 155.993C223.861 154.169 224.284 151.838 225.487 148.2L215.984 138.509Z" fill="#E29471"/>
<path opacity="0.2" d="M219.828 142.419L225.383 148.2C225.048 149.158 224.796 150.142 224.631 151.143C222.385 150.626 218.991 148.323 218.69 145.803C218.792 144.6 219.183 143.44 219.828 142.419Z" fill="black"/>
<path d="M236.372 138.415C236.131 141.19 234.866 143.776 232.822 145.669C230.778 147.561 228.103 148.625 225.317 148.652H225.242C223.081 148.662 220.954 148.104 219.076 147.035C218.392 146.648 217.744 146.201 217.139 145.7C216.876 145.493 216.632 145.277 216.397 145.08C215.664 144.437 214.991 143.729 214.385 142.965C212.298 140.323 211.49 137.325 210.625 132.625C210.39 131.412 210.155 130.105 209.892 128.658C209.507 126.739 209.572 124.757 210.08 122.867C210.354 121.887 210.738 120.941 211.227 120.047C211.442 119.646 211.684 119.26 211.951 118.891C213.392 116.805 215.447 115.22 217.831 114.354C220.214 113.488 222.807 113.385 225.252 114.06C229.444 115.178 232.33 118.581 234.153 122.755C234.332 123.168 234.501 123.591 234.661 124.014C236.28 128.631 236.864 133.547 236.372 138.415Z" fill="#E29471"/>
<path d="M224.387 129.203C224.481 129.946 224.942 130.51 225.412 130.453C225.882 130.397 226.211 129.729 226.126 128.987C226.041 128.244 225.562 127.69 225.092 127.746C224.622 127.802 224.34 128.498 224.387 129.203Z" fill="#263238"/>
<path d="M232.631 128.169C232.735 128.93 233.195 129.476 233.665 129.419C234.135 129.363 234.464 128.695 234.37 127.953C234.276 127.21 233.816 126.656 233.346 126.721C232.876 126.787 232.547 127.426 232.631 128.169Z" fill="#263238"/>
<path d="M230.3 129.842C231.162 131.457 232.241 132.946 233.505 134.27C233.164 134.584 232.759 134.821 232.318 134.964C231.876 135.107 231.409 135.152 230.948 135.097L230.3 129.842Z" fill="#EA573F"/>
<path d="M220.9 127.943C220.992 127.946 221.083 127.92 221.159 127.867C221.235 127.815 221.293 127.739 221.323 127.652C221.639 127.016 222.084 126.453 222.629 125.998C223.174 125.544 223.808 125.207 224.491 125.011C224.602 124.976 224.695 124.9 224.753 124.799C224.81 124.698 224.827 124.579 224.801 124.465C224.788 124.411 224.764 124.359 224.73 124.314C224.697 124.269 224.655 124.231 224.607 124.202C224.559 124.173 224.506 124.154 224.45 124.146C224.395 124.138 224.338 124.141 224.284 124.155C223.463 124.383 222.701 124.787 222.052 125.339C221.403 125.891 220.881 126.578 220.524 127.351C220.504 127.405 220.496 127.462 220.499 127.519C220.501 127.576 220.515 127.632 220.54 127.683C220.564 127.735 220.599 127.781 220.641 127.819C220.684 127.857 220.733 127.887 220.787 127.906C220.822 127.926 220.86 127.939 220.9 127.943Z" fill="#263238"/>
<path d="M234.633 123.977C234.711 123.977 234.788 123.959 234.856 123.923C234.925 123.887 234.984 123.834 235.028 123.77C235.088 123.67 235.107 123.55 235.081 123.436C235.054 123.322 234.985 123.223 234.887 123.159C234.315 122.76 233.652 122.511 232.959 122.434C232.267 122.357 231.566 122.454 230.92 122.717C230.818 122.762 230.738 122.846 230.698 122.95C230.657 123.054 230.659 123.169 230.704 123.272C230.726 123.323 230.759 123.37 230.799 123.409C230.84 123.448 230.888 123.478 230.94 123.498C230.993 123.518 231.049 123.528 231.105 123.526C231.161 123.524 231.217 123.511 231.268 123.488C231.778 123.297 232.326 123.233 232.866 123.3C233.406 123.367 233.922 123.564 234.37 123.873C234.445 123.934 234.537 123.97 234.633 123.977Z" fill="#263238"/>
<path opacity="0.2" d="M215.053 135.116C214.668 135.623 213.427 132.916 212.797 132.784C212.052 132.631 211.291 132.571 210.532 132.606C210.297 131.393 210.062 130.087 209.798 128.639C209.414 126.72 209.478 124.738 209.986 122.849C210.26 121.868 210.645 120.922 211.133 120.029C211.077 119.797 211.011 119.562 210.936 119.324C211.235 119.146 211.55 118.995 211.876 118.872C212.602 118.589 213.391 118.508 214.16 118.637C214.73 118.772 215.26 119.041 215.705 119.422C216.149 119.803 216.497 120.285 216.717 120.828C213.54 126.721 216.247 133.555 215.053 135.116Z" fill="black"/>
<path d="M214.32 142.946C210.832 139.994 207.74 136.366 206.348 131.985C205.655 129.518 205.633 126.909 206.286 124.43C206.938 121.951 208.242 119.691 210.061 117.885C210.343 117.613 210.813 117.735 211.171 117.885C211.528 118.036 210.654 118.337 210.757 118.637C210.86 118.938 210.879 119.06 210.936 119.258C210.992 119.455 211.077 119.728 211.133 119.963C210.645 120.856 210.26 121.802 209.986 122.783C209.478 124.673 209.414 126.654 209.798 128.573C210.061 130.021 210.296 131.327 210.531 132.54C211.424 137.287 212.233 140.304 214.32 142.946Z" fill="#263238"/>
<path d="M208.219 135.98C208.984 137.543 210.336 138.739 211.979 139.308C214.151 140.022 215.345 138.077 214.799 135.924C214.311 133.988 212.619 131.29 210.4 131.468C209.907 131.533 209.438 131.719 209.035 132.01C208.632 132.301 208.308 132.688 208.093 133.136C207.877 133.584 207.777 134.079 207.8 134.576C207.824 135.072 207.971 135.555 208.229 135.98H208.219Z" fill="#E29471"/>
<path d="M310.444 355.245L312.616 383.341C311.76 383.877 302.389 388.248 302.013 385.569C300.885 377.382 298.544 360.189 298.544 360.189L310.444 355.245Z" fill="#E29471"/>
<path d="M315.191 383.238C315.134 383.234 315.079 383.213 315.034 383.178C314.989 383.142 314.955 383.095 314.937 383.041C314.919 382.986 314.918 382.926 314.935 382.871C314.952 382.815 314.985 382.766 315.031 382.73C315.181 382.599 318.876 379.61 320.906 379.816C321.097 379.826 321.285 379.876 321.456 379.961C321.628 380.047 321.78 380.167 321.902 380.315C322.062 380.466 322.168 380.665 322.207 380.881C322.246 381.097 322.215 381.32 322.119 381.518C321.79 382.27 320.38 382.712 318.866 382.947C317.653 383.161 316.422 383.259 315.191 383.238ZM320.342 380.418C318.78 380.889 317.325 381.658 316.056 382.683C318.265 382.627 321.226 382.129 321.649 381.283C321.696 381.161 321.733 380.991 321.479 380.672C321.405 380.585 321.315 380.514 321.213 380.462C321.112 380.411 321.001 380.38 320.887 380.371C320.703 380.352 320.517 380.352 320.333 380.371L320.342 380.418Z" fill="#FF7A00"/>
<path d="M315.032 383.135C314.99 383.108 314.958 383.07 314.938 383.025C314.918 382.979 314.911 382.93 314.919 382.881C314.919 382.74 314.703 379.553 315.991 378.077C316.182 377.875 316.412 377.713 316.667 377.602C316.922 377.49 317.197 377.431 317.476 377.429C317.711 377.379 317.956 377.413 318.168 377.525C318.381 377.636 318.548 377.818 318.641 378.04C319.083 379.318 316.705 382.307 315.398 383.172L315.286 383.219L315.032 383.135ZM316.423 378.491C315.722 379.646 315.394 380.988 315.483 382.336C316.78 381.226 318.425 378.895 318.096 378.171C318.096 378.106 318.012 377.918 317.513 377.936L317.354 378.012C316.993 378.046 316.66 378.218 316.423 378.491Z" fill="#FF7A00"/>
<path d="M313.02 381.377L301.627 382.646C301.391 382.672 301.172 382.781 301.009 382.953C300.845 383.125 300.748 383.349 300.734 383.586L299.559 393.268C299.502 394.208 301.439 395.148 301.552 395.148C308.592 395.044 323.604 393.681 328.539 393.023C333.474 392.365 333.465 387.383 331.359 387.233C322.053 386.443 318.274 384.169 315.05 381.95C314.473 381.504 313.745 381.298 313.02 381.377Z" fill="#FF7A00"/>
<g opacity="0.2">
<path d="M299.71 368.687L298.544 360.18L310.444 355.245L311.196 366.75L299.71 368.687Z" fill="black"/>
</g>
<path d="M226.596 250.369C232.574 260.925 261.639 285.553 275.664 306.6C279.49 312.353 288.73 351.974 297.613 363.197L311.713 361.9C316.817 351.974 304.766 300.65 304.766 300.65C300.527 278.09 275.382 252.992 247.661 227.565C243.008 223.306 236.09 222.019 229.124 226.164C227.827 226.916 220.805 240.123 226.596 250.369Z" fill="#263238"/>
<path d="M232.884 233.863C231.775 234.116 230.619 233.421 229.773 231.983C228.891 230.481 228.388 228.787 228.307 227.048L225.233 231.033C225.008 231.44 224.68 231.782 224.283 232.024C223.886 232.267 223.433 232.401 222.967 232.415C222.737 232.389 222.515 232.315 222.316 232.196C222.116 232.078 221.944 231.919 221.811 231.729C221.588 231.381 221.437 230.993 221.366 230.586C221.295 230.179 221.305 229.763 221.398 229.36C221.763 227.859 222.687 226.554 223.981 225.711C225.275 224.867 226.842 224.549 228.363 224.82L228.25 224.416L229.19 224.162L229.247 224.387L229.453 224.124V224.519C230.161 224.388 230.89 224.447 231.567 224.69C232.244 224.933 232.844 225.351 233.307 225.901C234.268 227.147 234.799 228.67 234.821 230.244C234.915 231.682 234.482 233.496 232.988 233.853L232.884 233.863ZM229.275 225.515V225.703C229.098 227.731 229.555 229.764 230.581 231.522C231.07 232.349 231.841 233.158 232.706 232.96C233.712 232.716 233.89 231.174 233.834 230.3C233.82 228.941 233.368 227.622 232.546 226.54C232.223 226.162 231.818 225.864 231.362 225.667C230.906 225.469 230.41 225.379 229.914 225.403L229.312 225.553L229.275 225.515ZM226.192 225.75C225.588 225.886 225.015 226.132 224.5 226.474C223.948 226.816 223.47 227.264 223.093 227.791C222.715 228.319 222.446 228.916 222.3 229.548C222.172 230.106 222.263 230.691 222.554 231.184C222.613 231.27 222.69 231.343 222.779 231.398C222.868 231.453 222.967 231.489 223.071 231.503C223.597 231.56 224.086 231.014 224.509 230.469L228.109 225.769H227.94L227.893 225.6C227.322 225.542 226.744 225.593 226.192 225.75Z" fill="#FF7A00"/>
<path d="M221.972 246.581L221.191 246.092C225.041 239.92 227.248 232.866 227.602 225.6H228.542C228.181 233.04 225.919 240.264 221.972 246.581Z" fill="#FF7A00"/>
<path d="M240.226 246.402L239.286 246.515C238.299 238.671 234.445 231.469 228.467 226.296L229.068 225.6C235.228 230.919 239.202 238.329 240.226 246.402Z" fill="#FF7A00"/>
<path d="M158.86 336.276L158.437 335.458C168.777 330.053 195.698 314.778 195.698 309.053C195.698 297.313 207.185 220.139 207.298 219.368L208.238 219.499C208.125 220.28 196.657 297.388 196.657 309.053C196.657 316.479 160.429 335.477 158.86 336.276Z" fill="white"/>
<path d="M195.116 162.3C196.356 158.54 204.13 157.826 206.584 160.796C217.159 173.627 228.899 185.565 228.899 185.565L258.368 179.465L263.153 183.61C263.153 183.61 232.725 198.848 226.728 198.857C220.298 198.857 204.807 183.92 196.648 174.962C191.356 169.087 195.116 162.3 195.116 162.3Z" fill="#E29471"/>
<path d="M258.368 179.465L263.068 177.378C264.521 176.73 266.17 176.673 267.665 177.218L273.408 179.314C273.74 179.436 274.018 179.672 274.191 179.981C274.363 180.29 274.419 180.65 274.348 180.997L273.521 185.011C273.452 185.368 273.254 185.686 272.964 185.905C272.674 186.124 272.313 186.227 271.951 186.195L265.606 185.678L258.641 184.672C258.641 184.672 256.563 180.264 258.368 179.465Z" fill="#E29471"/>
<path d="M261.226 186.082L259.148 187.577L255.501 179.841L257.785 178.769L261.226 186.082Z" fill="#263238"/>
<path d="M254.517 179.478L257.919 177.876C258.144 177.769 258.403 177.757 258.637 177.841C258.872 177.926 259.063 178.1 259.17 178.325L259.47 178.963L254.368 181.367L254.068 180.729C253.961 180.504 253.949 180.245 254.033 180.011C254.118 179.776 254.292 179.585 254.517 179.478Z" fill="#263238"/>
<path d="M207.524 127.84C208.596 124.268 211.98 121.833 215.476 120.555C218.973 119.277 222.743 118.854 226.296 117.735C228.655 116.983 231.25 115.498 231.485 113.035C231.505 112.271 231.346 111.513 231.019 110.823C230.693 110.132 230.208 109.528 229.605 109.059C228.391 108.133 227.04 107.403 225.6 106.897C224.563 106.362 223.4 106.115 222.235 106.182C221.657 106.242 221.125 106.523 220.75 106.966C220.375 107.41 220.186 107.981 220.223 108.561C217.215 106.681 212.703 107.179 209.883 109.341C208.003 110.798 206.753 113.646 208.173 115.573C206.537 114.746 203.867 115.686 202.946 117.265C202.509 118.071 202.382 119.009 202.588 119.902C202.794 120.795 203.319 121.582 204.065 122.115C201.574 122.012 199.271 124.738 200.211 127.041C201.151 129.344 206.8 130.218 207.524 127.84Z" fill="#263238"/>
<path d="M231.07 137.738C230.56 139.22 230.158 140.738 229.867 142.278H229.031C225.271 142.137 223.597 140.84 222.855 139.458C222.505 138.765 222.327 137.998 222.338 137.221C222.329 136.783 222.383 136.347 222.498 135.924C224.434 137.184 227.921 137.578 229.792 137.71C230.572 137.738 231.07 137.738 231.07 137.738Z" fill="#263238"/>
<path d="M229.792 137.672L229.397 139.007C225.872 138.866 223.409 138.293 222.338 137.184C222.329 136.746 222.383 136.309 222.498 135.886C224.434 137.146 227.921 137.541 229.792 137.672Z" fill="white"/>
<path d="M229.031 142.26C225.271 142.119 223.598 140.821 222.855 139.44C224.276 139.507 225.673 139.826 226.982 140.38C227.846 140.775 228.563 141.433 229.031 142.26Z" fill="#DE5753"/>
</svg>
