<svg width="212" height="40" viewBox="0 0 212 40" fill="none" xmlns="http://www.w3.org/2000/svg">
<path d="M25.7077 2.77079C25.2254 3.24556 24.7867 3.7083 24.315 4.13348C23.6855 4.69839 23.2678 5.34142 23.4165 6.28344C19.2488 4.66684 15.2119 4.81257 11.3161 6.93398C8.71543 8.35076 6.78182 10.4346 5.51379 13.1119C2.96119 18.5071 4.16161 24.8187 8.34433 28.8452C12.7885 33.121 19.1362 34.0075 24.4712 31.1814C26.0007 30.3716 27.3273 29.3034 28.4556 27.9903C29.5734 26.6892 30.4238 25.2319 30.9992 23.6153C31.5777 21.9867 31.8436 20.307 31.791 18.5807C31.7384 16.8724 31.3763 15.2258 30.7017 13.6017C30.8715 13.6017 30.9812 13.5987 31.0909 13.6017C31.6603 13.6182 32.1365 13.4109 32.5347 13.0067C33.0936 12.4388 33.6585 11.8769 34.2294 11.3045C37.3815 17.5275 36.6273 26.9476 29.3826 32.9347C22.3258 38.7656 11.9787 38.2743 5.32148 31.7809C-1.08481 25.5324 -1.79395 15.1146 3.66732 8.08934C9.52823 0.551729 19.1226 -0.516487 25.7077 2.76929V2.77079Z" fill="#04C000"/>
<path d="M22.248 10.4466C21.8604 10.8222 21.4817 11.1828 21.1106 11.5509C20.4631 12.1924 19.8276 12.849 19.1665 13.4755C19.0448 13.5912 18.812 13.6708 18.6482 13.6452C15.8507 13.2336 13.0637 15.3745 12.6521 18.1765C12.2494 20.9214 14.0313 23.6784 16.9309 24.2959C19.8907 24.9254 22.9511 22.7874 23.3207 19.7841C23.3808 19.2943 23.3252 18.7925 23.3357 18.2967C23.3387 18.169 23.3477 18.0022 23.4244 17.9226C24.455 16.8709 25.4992 15.8313 26.5449 14.7826C28.2141 17.6792 28.1344 22.7514 24.3949 26.1558C20.8327 29.3981 15.107 29.3981 11.5508 26.1078C7.8218 22.6582 7.33201 17.0182 10.3954 13.1299C13.6046 9.05688 18.8465 8.60014 22.248 10.4466Z" fill="#04C000"/>
<path d="M29.9961 4.31976C31.3047 3.17792 32.2452 3.02467 33.0655 3.84649C33.3314 4.11242 33.5433 4.50906 33.6094 4.87565C33.674 5.24224 33.5944 5.67643 33.4471 6.02499C33.2984 6.37506 32.9889 6.65451 32.7215 7.00156C33.5658 7.00156 34.3846 7.00757 35.205 6.99856C35.5265 6.99555 35.8059 7.04363 35.9472 7.37717C36.0914 7.71671 35.9096 7.94658 35.6872 8.16894C34.3771 9.47604 33.067 10.7816 31.7629 12.0947C31.5451 12.3141 31.3077 12.4087 30.9967 12.4057C29.8594 12.3937 28.7205 12.4072 27.5832 12.3952C27.3368 12.3922 27.1686 12.4719 26.9973 12.6431C24.4822 15.1672 21.9627 17.6852 19.4416 20.2018C18.7024 20.9395 17.783 21.0777 16.9942 20.5819C16.0026 19.9584 15.8268 18.6092 16.6306 17.7198C16.9146 17.4043 17.2271 17.1143 17.5276 16.8138C19.7992 14.5422 22.0709 12.2705 24.3485 10.0049C24.5318 9.8231 24.6054 9.64281 24.6024 9.38439C24.5889 8.24706 24.5784 7.10974 24.6099 5.97241C24.616 5.72752 24.7376 5.43004 24.9089 5.25426C26.2085 3.92011 27.5351 2.61151 28.8498 1.29389C29.0646 1.07905 29.293 0.916789 29.6115 1.046C29.9435 1.18121 30.0021 1.45916 29.9991 1.78368C29.9901 2.6055 29.9961 3.42582 29.9961 4.31825V4.31976Z" fill="#04C000"/>
<path d="M54.39 6.944H59.088V13.478C58.452 13.706 57.774 13.88 57.054 14C56.346 14.12 55.566 14.18 54.714 14.18C53.502 14.18 52.464 13.922 51.6 13.406C50.748 12.89 50.094 12.14 49.638 11.156C49.182 10.172 48.954 8.972 48.954 7.556C48.954 6.212 49.2 5.048 49.692 4.064C50.184 3.08 50.898 2.318 51.834 1.778C52.77 1.238 53.916 0.967999 55.272 0.967999C55.956 0.967999 56.61 1.04 57.234 1.184C57.87 1.316 58.446 1.502 58.962 1.742L58.152 3.632C57.732 3.428 57.276 3.26 56.784 3.128C56.304 2.984 55.788 2.912 55.236 2.912C54.42 2.912 53.73 3.104 53.166 3.488C52.614 3.872 52.188 4.418 51.888 5.126C51.6 5.822 51.456 6.644 51.456 7.592C51.456 8.504 51.582 9.314 51.834 10.022C52.086 10.718 52.464 11.264 52.968 11.66C53.484 12.044 54.15 12.236 54.966 12.236C55.218 12.236 55.452 12.224 55.668 12.2C55.884 12.176 56.082 12.146 56.262 12.11C56.454 12.074 56.622 12.038 56.766 12.002V8.906H54.39V6.944ZM70.0238 9.104C70.0238 9.92 69.9218 10.64 69.7178 11.264C69.5138 11.888 69.2138 12.422 68.8178 12.866C68.4338 13.298 67.9658 13.628 67.4138 13.856C66.8618 14.072 66.2438 14.18 65.5598 14.18C64.9238 14.18 64.3298 14.072 63.7778 13.856C63.2378 13.628 62.7698 13.298 62.3738 12.866C61.9898 12.422 61.6898 11.888 61.4738 11.264C61.2578 10.64 61.1498 9.92 61.1498 9.104C61.1498 8.024 61.3238 7.112 61.6718 6.368C62.0318 5.612 62.5478 5.042 63.2198 4.658C63.8918 4.262 64.6898 4.064 65.6138 4.064C66.4778 4.064 67.2398 4.262 67.8998 4.658C68.5598 5.042 69.0758 5.612 69.4478 6.368C69.8318 7.112 70.0238 8.024 70.0238 9.104ZM63.5798 9.104C63.5798 9.788 63.6518 10.376 63.7958 10.868C63.9398 11.348 64.1558 11.714 64.4438 11.966C64.7438 12.218 65.1278 12.344 65.5958 12.344C66.0638 12.344 66.4418 12.218 66.7298 11.966C67.0298 11.714 67.2458 11.348 67.3778 10.868C67.5218 10.376 67.5938 9.788 67.5938 9.104C67.5938 8.408 67.5218 7.826 67.3778 7.358C67.2338 6.878 67.0118 6.518 66.7118 6.278C66.4238 6.026 66.0458 5.9 65.5778 5.9C64.8698 5.9 64.3598 6.176 64.0478 6.728C63.7358 7.28 63.5798 8.072 63.5798 9.104ZM76.0184 4.064C77.1944 4.064 78.0944 4.34 78.7184 4.892C79.3424 5.432 79.6544 6.284 79.6544 7.448V14H77.9804L77.5124 12.65H77.4404C77.1764 12.998 76.9064 13.292 76.6304 13.532C76.3544 13.76 76.0364 13.922 75.6764 14.018C75.3164 14.126 74.8844 14.18 74.3804 14.18C73.8404 14.18 73.3544 14.072 72.9224 13.856C72.4904 13.64 72.1484 13.31 71.8964 12.866C71.6444 12.41 71.5184 11.84 71.5184 11.156C71.5184 10.148 71.8664 9.392 72.5624 8.888C73.2584 8.372 74.3024 8.09 75.6944 8.042L77.2604 7.988V7.502C77.2604 6.878 77.1284 6.434 76.8644 6.17C76.6004 5.906 76.2404 5.774 75.7844 5.774C75.3524 5.774 74.9144 5.846 74.4704 5.99C74.0384 6.134 73.6124 6.302 73.1924 6.494L72.4544 4.91C72.9464 4.658 73.4924 4.454 74.0924 4.298C74.6924 4.142 75.3344 4.064 76.0184 4.064ZM76.2524 9.428C75.4004 9.464 74.8064 9.638 74.4704 9.95C74.1344 10.25 73.9664 10.658 73.9664 11.174C73.9664 11.63 74.0804 11.96 74.3084 12.164C74.5484 12.368 74.8604 12.47 75.2444 12.47C75.8084 12.47 76.2884 12.284 76.6844 11.912C77.0804 11.528 77.2784 10.964 77.2784 10.22V9.392L76.2524 9.428ZM84.5787 14H82.1847V0.319999H84.5787V14ZM93.6029 11.174C93.6029 11.822 93.4589 12.374 93.1709 12.83C92.8829 13.274 92.4569 13.61 91.8929 13.838C91.3289 14.066 90.6209 14.18 89.7689 14.18C89.1209 14.18 88.5569 14.132 88.0769 14.036C87.5969 13.94 87.1349 13.79 86.6909 13.586V11.66C87.1709 11.888 87.6869 12.08 88.2389 12.236C88.8029 12.392 89.3129 12.47 89.7689 12.47C90.3089 12.47 90.6989 12.374 90.9389 12.182C91.1789 11.99 91.2989 11.732 91.2989 11.408C91.2989 11.216 91.2449 11.042 91.1369 10.886C91.0409 10.73 90.8369 10.568 90.5249 10.4C90.2249 10.22 89.7869 9.998 89.2109 9.734C88.6469 9.482 88.1789 9.23 87.8069 8.978C87.4349 8.726 87.1529 8.426 86.9609 8.078C86.7689 7.718 86.6729 7.268 86.6729 6.728C86.6729 5.852 87.0029 5.192 87.6629 4.748C88.3349 4.292 89.2109 4.064 90.2909 4.064C90.8789 4.064 91.4249 4.124 91.9289 4.244C92.4449 4.352 92.9609 4.532 93.4769 4.784L92.7749 6.458C92.4869 6.326 92.1929 6.212 91.8929 6.116C91.6049 6.008 91.3229 5.924 91.0469 5.864C90.7829 5.804 90.5189 5.774 90.2549 5.774C89.8349 5.774 89.5169 5.852 89.3009 6.008C89.0849 6.152 88.9769 6.362 88.9769 6.638C88.9769 6.83 89.0309 7.004 89.1389 7.16C89.2469 7.304 89.4509 7.454 89.7509 7.61C90.0509 7.766 90.4769 7.964 91.0289 8.204C91.5809 8.42 92.0489 8.654 92.4329 8.906C92.8169 9.146 93.1049 9.446 93.2969 9.806C93.5009 10.166 93.6029 10.622 93.6029 11.174Z" fill="black"/>
<path d="M60.11 26.004L57.618 36H56.344L54.566 29.448C54.51 29.252 54.454 29.0513 54.398 28.846C54.3513 28.6407 54.3047 28.4447 54.258 28.258C54.2113 28.0713 54.174 27.9127 54.146 27.782C54.118 27.642 54.0993 27.5393 54.09 27.474C54.0807 27.5393 54.062 27.642 54.034 27.782C54.006 27.9127 53.9733 28.0713 53.936 28.258C53.8987 28.4447 53.852 28.6453 53.796 28.86C53.7493 29.0653 53.698 29.2753 53.642 29.49L51.906 36H50.618L48.14 26.004H49.442L50.884 32.108C50.9307 32.3227 50.9773 32.5373 51.024 32.752C51.0707 32.9573 51.108 33.1627 51.136 33.368C51.1733 33.564 51.206 33.7553 51.234 33.942C51.2713 34.1287 51.2993 34.3107 51.318 34.488C51.346 34.3013 51.374 34.11 51.402 33.914C51.4393 33.718 51.4767 33.5173 51.514 33.312C51.5607 33.0973 51.6073 32.8827 51.654 32.668C51.71 32.4533 51.766 32.2433 51.822 32.038L53.446 26.004H54.734L56.428 32.08C56.484 32.2947 56.5353 32.514 56.582 32.738C56.638 32.9527 56.6847 33.1627 56.722 33.368C56.7687 33.5733 56.806 33.774 56.834 33.97C56.8713 34.1567 56.904 34.3293 56.932 34.488C56.96 34.2547 56.9973 34.012 57.044 33.76C57.0907 33.4987 57.142 33.228 57.198 32.948C57.2633 32.668 57.3287 32.3833 57.394 32.094L58.822 26.004H60.11ZM62.5877 28.482C62.5877 28.6593 62.5783 28.8413 62.5597 29.028C62.5503 29.2147 62.5363 29.3827 62.5177 29.532H62.6017C62.751 29.2707 62.9377 29.056 63.1617 28.888C63.395 28.72 63.647 28.594 63.9177 28.51C64.1977 28.4167 64.487 28.37 64.7857 28.37C65.355 28.37 65.831 28.468 66.2137 28.664C66.5963 28.8507 66.8857 29.1447 67.0817 29.546C67.2777 29.9473 67.3757 30.47 67.3757 31.114V36H66.1577V31.198C66.1577 30.5913 66.0317 30.1387 65.7797 29.84C65.5277 29.5413 65.1403 29.392 64.6177 29.392C64.1043 29.392 63.6983 29.4993 63.3997 29.714C63.101 29.9193 62.891 30.2273 62.7697 30.638C62.6483 31.0393 62.5877 31.534 62.5877 32.122V36H61.3697V25.36H62.5877V28.482ZM72.2475 28.37C73.1061 28.37 73.7455 28.5707 74.1655 28.972C74.5948 29.3733 74.8095 30.0127 74.8095 30.89V36H73.9275L73.6895 34.936H73.6335C73.4281 35.2067 73.2181 35.4353 73.0035 35.622C72.7981 35.7993 72.5555 35.93 72.2755 36.014C72.0048 36.098 71.6688 36.14 71.2675 36.14C70.8475 36.14 70.4695 36.0607 70.1335 35.902C69.7975 35.7433 69.5315 35.5007 69.3355 35.174C69.1395 34.838 69.0415 34.418 69.0415 33.914C69.0415 33.1673 69.3168 32.5933 69.8675 32.192C70.4181 31.7813 71.2675 31.5573 72.4155 31.52L73.6055 31.478V31.03C73.6055 30.4047 73.4795 29.9707 73.2275 29.728C72.9848 29.4853 72.6348 29.364 72.1775 29.364C71.8135 29.364 71.4635 29.4247 71.1275 29.546C70.8008 29.658 70.4881 29.7887 70.1895 29.938L69.8115 29.014C70.1288 28.8367 70.4975 28.6873 70.9175 28.566C71.3375 28.4353 71.7808 28.37 72.2475 28.37ZM72.5835 32.374C71.7248 32.4113 71.1275 32.5607 70.7915 32.822C70.4648 33.0833 70.3015 33.452 70.3015 33.928C70.3015 34.348 70.4181 34.656 70.6515 34.852C70.8848 35.048 71.1881 35.146 71.5615 35.146C72.1401 35.146 72.6255 34.9733 73.0175 34.628C73.4095 34.2733 73.6055 33.732 73.6055 33.004V32.332L72.5835 32.374ZM79.405 35.132C79.5823 35.132 79.7643 35.118 79.951 35.09C80.1376 35.0527 80.2916 35.0153 80.413 34.978V35.916C80.2823 35.9813 80.0956 36.0327 79.853 36.07C79.6196 36.1167 79.3956 36.14 79.181 36.14C78.8076 36.14 78.4623 36.0747 78.145 35.944C77.8276 35.804 77.571 35.566 77.375 35.23C77.1883 34.894 77.095 34.4227 77.095 33.816V29.448H76.101V28.86L77.123 28.37L77.585 26.774H78.313V28.496H80.357V29.448H78.313V33.788C78.313 34.2453 78.4156 34.586 78.621 34.81C78.8263 35.0247 79.0876 35.132 79.405 35.132ZM83.1049 26.004L82.8389 29.616H82.0829L81.8169 26.004H83.1049ZM89.3005 33.928C89.3005 34.4133 89.1839 34.8193 88.9505 35.146C88.7265 35.4727 88.4045 35.72 87.9845 35.888C87.5645 36.056 87.0605 36.14 86.4725 36.14C85.9779 36.14 85.5485 36.098 85.1845 36.014C84.8299 35.93 84.5172 35.8133 84.2465 35.664V34.544C84.5359 34.6933 84.8812 34.8333 85.2825 34.964C85.6839 35.0853 86.0899 35.146 86.5005 35.146C87.0699 35.146 87.4805 35.048 87.7325 34.852C87.9939 34.6467 88.1245 34.376 88.1245 34.04C88.1245 33.8533 88.0732 33.6853 87.9705 33.536C87.8772 33.3867 87.7045 33.2373 87.4525 33.088C87.2099 32.9387 86.8552 32.7707 86.3885 32.584C85.9405 32.3973 85.5532 32.2107 85.2265 32.024C84.9092 31.8373 84.6619 31.6133 84.4845 31.352C84.3165 31.0907 84.2325 30.7547 84.2325 30.344C84.2325 29.7093 84.4752 29.2193 84.9605 28.874C85.4552 28.5287 86.0992 28.356 86.8925 28.356C87.3219 28.356 87.7232 28.4027 88.0965 28.496C88.4699 28.58 88.8245 28.7013 89.1605 28.86L88.7545 29.84C88.5585 29.7467 88.3532 29.6673 88.1385 29.602C87.9239 29.5273 87.7045 29.4713 87.4805 29.434C87.2659 29.3873 87.0465 29.364 86.8225 29.364C86.3652 29.364 86.0152 29.448 85.7725 29.616C85.5299 29.7747 85.4085 29.994 85.4085 30.274C85.4085 30.4793 85.4645 30.6567 85.5765 30.806C85.6885 30.9553 85.8705 31.1 86.1225 31.24C86.3839 31.3707 86.7385 31.5247 87.1865 31.702C87.6345 31.8793 88.0172 32.0613 88.3345 32.248C88.6519 32.4347 88.8899 32.6633 89.0485 32.934C89.2165 33.1953 89.3005 33.5267 89.3005 33.928ZM97.0606 30.918L99.4686 26.004H100.813L97.6906 32.122V36H96.4446V32.178L93.3086 26.004H94.6666L97.0606 30.918ZM107.438 32.234C107.438 32.8593 107.359 33.4147 107.2 33.9C107.051 34.376 106.832 34.782 106.542 35.118C106.253 35.454 105.903 35.7107 105.492 35.888C105.082 36.056 104.624 36.14 104.12 36.14C103.654 36.14 103.22 36.056 102.818 35.888C102.426 35.7107 102.081 35.454 101.782 35.118C101.493 34.782 101.269 34.376 101.11 33.9C100.952 33.4147 100.872 32.8593 100.872 32.234C100.872 31.4033 101.003 30.7033 101.264 30.134C101.535 29.5553 101.918 29.1167 102.412 28.818C102.907 28.51 103.49 28.356 104.162 28.356C104.806 28.356 105.371 28.51 105.856 28.818C106.351 29.1167 106.738 29.5553 107.018 30.134C107.298 30.7033 107.438 31.4033 107.438 32.234ZM102.132 32.234C102.132 32.822 102.202 33.3353 102.342 33.774C102.482 34.2033 102.702 34.5347 103 34.768C103.299 35.0013 103.682 35.118 104.148 35.118C104.615 35.118 104.998 35.0013 105.296 34.768C105.595 34.5347 105.814 34.2033 105.954 33.774C106.104 33.3353 106.178 32.822 106.178 32.234C106.178 31.6367 106.104 31.128 105.954 30.708C105.814 30.288 105.595 29.966 105.296 29.742C104.998 29.5087 104.61 29.392 104.134 29.392C103.434 29.392 102.926 29.644 102.608 30.148C102.291 30.652 102.132 31.3473 102.132 32.234ZM115.199 28.496V36H114.219L114.037 35.006H113.981C113.831 35.2673 113.635 35.482 113.393 35.65C113.159 35.818 112.903 35.9393 112.623 36.014C112.343 36.098 112.049 36.14 111.741 36.14C111.181 36.14 110.709 36.0467 110.327 35.86C109.944 35.664 109.655 35.3653 109.459 34.964C109.272 34.5627 109.179 34.0447 109.179 33.41V28.496H110.411V33.326C110.411 33.9233 110.537 34.3713 110.789 34.67C111.041 34.9687 111.428 35.118 111.951 35.118C112.464 35.118 112.865 35.0153 113.155 34.81C113.453 34.5953 113.663 34.2873 113.785 33.886C113.915 33.4753 113.981 32.9807 113.981 32.402V28.496H115.199ZM120.757 28.356C120.887 28.356 121.027 28.3653 121.177 28.384C121.326 28.3933 121.457 28.412 121.569 28.44L121.429 29.574C121.317 29.546 121.191 29.5227 121.051 29.504C120.92 29.4853 120.794 29.476 120.673 29.476C120.402 29.476 120.145 29.5367 119.903 29.658C119.66 29.7793 119.441 29.952 119.245 30.176C119.058 30.3907 118.909 30.652 118.797 30.96C118.685 31.268 118.629 31.6133 118.629 31.996V36H117.411V28.496H118.405L118.545 29.868H118.601C118.75 29.588 118.927 29.336 119.133 29.112C119.347 28.8787 119.59 28.6967 119.861 28.566C120.131 28.426 120.43 28.356 120.757 28.356ZM132.345 36L131.253 32.906H127.543L126.465 36H125.191L128.831 25.962H130.007L133.633 36H132.345ZM129.853 28.762C129.835 28.6873 129.793 28.552 129.727 28.356C129.671 28.16 129.611 27.9593 129.545 27.754C129.489 27.5393 129.443 27.376 129.405 27.264C129.359 27.4507 129.307 27.642 129.251 27.838C129.205 28.0247 129.158 28.1973 129.111 28.356C129.065 28.5147 129.023 28.65 128.985 28.762L127.949 31.786H130.889L129.853 28.762ZM137.589 36.14C136.954 36.14 136.394 36.0047 135.909 35.734C135.423 35.4633 135.041 35.0433 134.761 34.474C134.49 33.9047 134.355 33.1767 134.355 32.29C134.355 31.366 134.499 30.6147 134.789 30.036C135.078 29.4573 135.47 29.0327 135.965 28.762C136.469 28.4913 137.038 28.356 137.673 28.356C138.037 28.356 138.387 28.398 138.723 28.482C139.068 28.5567 139.348 28.65 139.563 28.762L139.185 29.784C138.97 29.7 138.718 29.6207 138.429 29.546C138.149 29.4713 137.887 29.434 137.645 29.434C137.187 29.434 136.809 29.5413 136.511 29.756C136.212 29.9707 135.988 30.288 135.839 30.708C135.689 31.128 135.615 31.6507 135.615 32.276C135.615 32.8733 135.689 33.382 135.839 33.802C135.988 34.222 136.207 34.5393 136.497 34.754C136.795 34.9687 137.159 35.076 137.589 35.076C137.971 35.076 138.312 35.034 138.611 34.95C138.909 34.866 139.185 34.7633 139.437 34.642V35.734C139.194 35.8647 138.928 35.9627 138.639 36.028C138.349 36.1027 137.999 36.14 137.589 36.14ZM143.526 35.132C143.703 35.132 143.885 35.118 144.072 35.09C144.259 35.0527 144.413 35.0153 144.534 34.978V35.916C144.403 35.9813 144.217 36.0327 143.974 36.07C143.741 36.1167 143.517 36.14 143.302 36.14C142.929 36.14 142.583 36.0747 142.266 35.944C141.949 35.804 141.692 35.566 141.496 35.23C141.309 34.894 141.216 34.4227 141.216 33.816V29.448H140.222V28.86L141.244 28.37L141.706 26.774H142.434V28.496H144.478V29.448H142.434V33.788C142.434 34.2453 142.537 34.586 142.742 34.81C142.947 35.0247 143.209 35.132 143.526 35.132ZM147.162 28.496V36H145.944V28.496H147.162ZM146.56 25.682C146.747 25.682 146.91 25.7473 147.05 25.878C147.19 25.9993 147.26 26.1953 147.26 26.466C147.26 26.7273 147.19 26.9233 147.05 27.054C146.91 27.1847 146.747 27.25 146.56 27.25C146.364 27.25 146.196 27.1847 146.056 27.054C145.916 26.9233 145.846 26.7273 145.846 26.466C145.846 26.1953 145.916 25.9993 146.056 25.878C146.196 25.7473 146.364 25.682 146.56 25.682ZM150.944 36L148.27 28.496H149.572L151.056 32.92C151.13 33.1253 151.205 33.354 151.28 33.606C151.354 33.858 151.42 34.1007 151.476 34.334C151.541 34.558 151.583 34.7493 151.602 34.908H151.658C151.686 34.7493 151.732 34.5533 151.798 34.32C151.863 34.0867 151.933 33.844 152.008 33.592C152.092 33.34 152.166 33.116 152.232 32.92L153.716 28.496H155.018L152.33 36H150.944ZM157.361 28.496V36H156.143V28.496H157.361ZM156.759 25.682C156.946 25.682 157.109 25.7473 157.249 25.878C157.389 25.9993 157.459 26.1953 157.459 26.466C157.459 26.7273 157.389 26.9233 157.249 27.054C157.109 27.1847 156.946 27.25 156.759 27.25C156.563 27.25 156.395 27.1847 156.255 27.054C156.115 26.9233 156.045 26.7273 156.045 26.466C156.045 26.1953 156.115 25.9993 156.255 25.878C156.395 25.7473 156.563 25.682 156.759 25.682ZM161.997 35.132C162.174 35.132 162.356 35.118 162.543 35.09C162.729 35.0527 162.883 35.0153 163.005 34.978V35.916C162.874 35.9813 162.687 36.0327 162.445 36.07C162.211 36.1167 161.987 36.14 161.773 36.14C161.399 36.14 161.054 36.0747 160.737 35.944C160.419 35.804 160.163 35.566 159.967 35.23C159.78 34.894 159.687 34.4227 159.687 33.816V29.448H158.693V28.86L159.715 28.37L160.177 26.774H160.905V28.496H162.949V29.448H160.905V33.788C160.905 34.2453 161.007 34.586 161.213 34.81C161.418 35.0247 161.679 35.132 161.997 35.132ZM163.309 28.496H164.625L166.123 32.766C166.216 33.018 166.3 33.2607 166.375 33.494C166.45 33.7273 166.515 33.956 166.571 34.18C166.627 34.3947 166.669 34.6047 166.697 34.81H166.739C166.795 34.5767 166.874 34.2733 166.977 33.9C167.089 33.5173 167.206 33.1347 167.327 32.752L168.741 28.496H170.071L167.033 37.036C166.865 37.5027 166.664 37.9087 166.431 38.254C166.207 38.6087 165.932 38.8793 165.605 39.066C165.278 39.262 164.886 39.36 164.429 39.36C164.224 39.36 164.037 39.346 163.869 39.318C163.71 39.2993 163.575 39.276 163.463 39.248V38.268C163.556 38.2867 163.673 38.3053 163.813 38.324C163.953 38.3427 164.098 38.352 164.247 38.352C164.518 38.352 164.751 38.296 164.947 38.184C165.143 38.0813 165.311 37.9273 165.451 37.722C165.591 37.526 165.708 37.2927 165.801 37.022L166.151 36.028L163.309 28.496ZM174.768 36V26.004H176.014V34.88H180.102V36H174.768ZM184.289 28.356C184.896 28.356 185.419 28.496 185.857 28.776C186.296 29.056 186.632 29.4527 186.865 29.966C187.108 30.47 187.229 31.0627 187.229 31.744V32.486H182.413C182.432 33.3353 182.633 33.984 183.015 34.432C183.398 34.8707 183.935 35.09 184.625 35.09C185.073 35.09 185.47 35.048 185.815 34.964C186.17 34.8707 186.534 34.74 186.907 34.572V35.65C186.543 35.818 186.184 35.9393 185.829 36.014C185.484 36.098 185.064 36.14 184.569 36.14C183.897 36.14 183.305 35.9953 182.791 35.706C182.278 35.4167 181.877 34.9873 181.587 34.418C181.298 33.8393 181.153 33.1347 181.153 32.304C181.153 31.4827 181.284 30.778 181.545 30.19C181.807 29.602 182.171 29.1493 182.637 28.832C183.113 28.5147 183.664 28.356 184.289 28.356ZM184.289 29.364C183.748 29.364 183.319 29.5553 183.001 29.938C182.684 30.3113 182.497 30.834 182.441 31.506H185.969C185.969 31.0767 185.909 30.7033 185.787 30.386C185.666 30.0687 185.479 29.8213 185.227 29.644C184.985 29.4573 184.672 29.364 184.289 29.364ZM190.305 36L187.631 28.496H188.933L190.417 32.92C190.492 33.1253 190.566 33.354 190.641 33.606C190.716 33.858 190.781 34.1007 190.837 34.334C190.902 34.558 190.944 34.7493 190.963 34.908H191.019C191.047 34.7493 191.094 34.5533 191.159 34.32C191.224 34.0867 191.294 33.844 191.369 33.592C191.453 33.34 191.528 33.116 191.593 32.92L193.077 28.496H194.379L191.691 36H190.305ZM198.235 28.356C198.841 28.356 199.364 28.496 199.803 28.776C200.241 29.056 200.577 29.4527 200.811 29.966C201.053 30.47 201.175 31.0627 201.175 31.744V32.486H196.359C196.377 33.3353 196.578 33.984 196.961 34.432C197.343 34.8707 197.88 35.09 198.571 35.09C199.019 35.09 199.415 35.048 199.761 34.964C200.115 34.8707 200.479 34.74 200.853 34.572V35.65C200.489 35.818 200.129 35.9393 199.775 36.014C199.429 36.098 199.009 36.14 198.515 36.14C197.843 36.14 197.25 35.9953 196.737 35.706C196.223 35.4167 195.822 34.9873 195.533 34.418C195.243 33.8393 195.099 33.1347 195.099 32.304C195.099 31.4827 195.229 30.778 195.491 30.19C195.752 29.602 196.116 29.1493 196.583 28.832C197.059 28.5147 197.609 28.356 198.235 28.356ZM198.235 29.364C197.693 29.364 197.264 29.5553 196.947 29.938C196.629 30.3113 196.443 30.834 196.387 31.506H199.915C199.915 31.0767 199.854 30.7033 199.733 30.386C199.611 30.0687 199.425 29.8213 199.173 29.644C198.93 29.4573 198.617 29.364 198.235 29.364ZM204.16 36H202.942V25.36H204.16V36ZM207.116 32.808C207.116 32.4533 207.148 32.15 207.214 31.898C207.279 31.6367 207.391 31.3893 207.55 31.156C207.718 30.9227 207.942 30.68 208.222 30.428C208.558 30.12 208.819 29.8633 209.006 29.658C209.192 29.4527 209.323 29.252 209.398 29.056C209.482 28.86 209.524 28.622 209.524 28.342C209.524 27.894 209.388 27.5487 209.118 27.306C208.847 27.0633 208.464 26.942 207.97 26.942C207.54 26.942 207.158 27.0027 206.822 27.124C206.486 27.236 206.164 27.3713 205.856 27.53L205.422 26.55C205.776 26.354 206.168 26.1907 206.598 26.06C207.036 25.9293 207.522 25.864 208.054 25.864C208.894 25.864 209.542 26.0833 210 26.522C210.457 26.9607 210.686 27.558 210.686 28.314C210.686 28.734 210.62 29.0933 210.49 29.392C210.359 29.6813 210.177 29.9473 209.944 30.19C209.72 30.4327 209.449 30.6987 209.132 30.988C208.842 31.2493 208.623 31.478 208.474 31.674C208.324 31.87 208.222 32.066 208.166 32.262C208.119 32.4487 208.096 32.6773 208.096 32.948V33.186H207.116V32.808ZM206.808 35.244C206.808 34.8987 206.887 34.656 207.046 34.516C207.214 34.376 207.419 34.306 207.662 34.306C207.876 34.306 208.068 34.376 208.236 34.516C208.404 34.656 208.488 34.8987 208.488 35.244C208.488 35.58 208.404 35.8227 208.236 35.972C208.068 36.1213 207.876 36.196 207.662 36.196C207.419 36.196 207.214 36.1213 207.046 35.972C206.887 35.8227 206.808 35.58 206.808 35.244Z" fill="black"/>
</svg>
