<svg width="41" height="42" viewBox="0 0 41 42" fill="none" xmlns="http://www.w3.org/2000/svg">
<rect x="0.5" y="1" width="40" height="40" rx="20" stroke="#ECEDF2"/>
<path d="M29.5003 21.1884C29.5003 20.5748 29.4499 19.9578 29.3423 19.3541H20.7128V22.8303H25.6545C25.4494 23.9514 24.7905 24.9432 23.8257 25.5734V27.829H26.774C28.5053 26.2567 29.5003 23.9349 29.5003 21.1884Z" fill="#4285F4"/>
<path d="M20.6707 30.0004C23.139 30.0004 25.2205 29.2024 26.737 27.825L23.788 25.5736C22.9675 26.1232 21.9082 26.4344 20.6741 26.4344C18.2866 26.4344 16.2623 24.8485 15.5359 22.7162H12.4927V25.0372C14.0462 28.08 17.2105 30.0004 20.6707 30.0004Z" fill="#34A853"/>
<path d="M15.5394 22.7671C15.1536 21.6434 15.1536 20.4267 15.5394 19.3031V16.9728H12.4798C11.1734 19.5292 11.1734 22.541 12.4798 25.0974L15.5394 22.7671Z" fill="#FBBC04"/>
<path d="M20.6786 15.5646C21.9845 15.5448 23.2468 16.0279 24.1926 16.9148L26.8079 14.3435C25.1519 12.8147 22.9539 11.9741 20.6786 12.0006C17.215 12.0006 14.0477 13.9199 12.4927 16.9644L15.5355 19.2842C16.2591 17.1497 18.2888 15.5646 20.6786 15.5646Z" fill="#EA4335"/>
</svg>
