<svg width="30" height="30" viewBox="0 0 30 30" fill="none" xmlns="http://www.w3.org/2000/svg">
<circle cx="15" cy="15" r="15" fill="white"/>
<path d="M15.0605 8.52098C15.2736 8.30908 15.4817 8.1061 15.6853 7.89866C16.3675 7.20379 17.1953 6.87354 18.167 6.89263C19.6878 6.9219 21.0775 8.18246 21.2589 9.68609C21.3912 10.7857 21.0667 11.7217 20.2923 12.5069C18.6481 14.1741 17.0038 15.8413 15.3595 17.5084C15.1438 17.7267 14.9758 17.7286 14.7633 17.5129C13.1114 15.8387 11.4595 14.1633 9.80761 12.4891C9.10256 11.7745 8.77994 10.9148 8.83339 9.91326C8.90848 8.49553 10.0462 7.20506 11.443 6.95626C12.6004 6.75009 13.5956 7.06507 14.4292 7.89484C14.6354 8.10037 14.8422 8.30527 15.0598 8.52098H15.0605ZM15.3322 12.4261C15.3112 12.3587 15.2965 12.3217 15.2883 12.2829C15.1597 11.7051 15.0286 11.1286 14.9058 10.5496C14.8696 10.379 14.8002 10.2467 14.6208 10.2104C14.4515 10.1761 14.3433 10.276 14.2498 10.4013C13.9972 10.7411 13.7388 11.0765 13.4919 11.4201C13.427 11.5104 13.3583 11.5359 13.2546 11.5352C12.8098 11.5308 12.365 11.5308 11.9208 11.5352C11.6924 11.5378 11.548 11.7281 11.5995 11.9438C11.6358 12.0965 11.7719 12.1894 11.9787 12.1907C12.4713 12.1932 12.9631 12.1862 13.4557 12.1945C13.6548 12.1977 13.7974 12.1283 13.9113 11.9648C14.0576 11.7529 14.2186 11.5499 14.386 11.3265C14.4044 11.3774 14.4178 11.4042 14.4248 11.4334C14.5788 12.1245 14.7308 12.8155 14.8861 13.5066C14.9364 13.7306 15.0382 13.8336 15.2062 13.8438C15.3672 13.854 15.4779 13.7687 15.5657 13.5645C15.7801 13.0643 15.9933 12.5635 16.2071 12.0634C16.2281 12.0138 16.2542 11.9667 16.2873 11.8999C16.3961 12.0621 16.4909 12.2015 16.5832 12.3427C16.6653 12.4687 16.7779 12.526 16.93 12.5247C17.3321 12.5209 17.7343 12.5247 18.1371 12.5235C18.3853 12.5228 18.5303 12.3968 18.5278 12.1868C18.5252 11.9864 18.3795 11.8598 18.1428 11.8585C17.8253 11.8566 17.5078 11.8528 17.1902 11.861C17.0852 11.8636 17.0273 11.826 16.9745 11.7421C16.8275 11.5098 16.6729 11.282 16.5202 11.0529C16.4426 10.9358 16.342 10.8569 16.1918 10.8709C16.0436 10.8843 15.9545 10.974 15.8991 11.1051C15.8762 11.1585 15.8527 11.212 15.8298 11.2654C15.6681 11.6434 15.5065 12.0214 15.3334 12.4274L15.3322 12.4261Z" fill="#026900"/>
<path d="M10.9218 17.5015V23.1081H9.28391V17.5015H10.9218Z" fill="#026900"/>
<path d="M19.2029 17.4957H20.8357V23.1056H19.2029V17.4957Z" fill="#026900"/>
<path d="M18.5195 19.6567V20.9542H11.6014V19.6567H18.5195Z" fill="#026900"/>
<path d="M8.60495 18.491V22.118H7.2973V18.491H8.60495Z" fill="#026900"/>
<path d="M21.5217 18.4872H22.8204V22.1219H21.5217V18.4872Z" fill="#026900"/>
</svg>
