<svg width="464" height="200" viewBox="0 0 464 200" fill="none" xmlns="http://www.w3.org/2000/svg">
<rect x="0.5" y="0.5" width="463" height="199" rx="9.5" fill="white" stroke="#C1C1C1"/>
<path d="M175.184 93H172.874V82.572C172.874 82.2053 172.874 81.868 172.874 81.56C172.889 81.2373 172.903 80.9293 172.918 80.636C172.933 80.328 172.947 80.0347 172.962 79.756C172.771 79.9467 172.573 80.13 172.368 80.306C172.163 80.482 171.928 80.6873 171.664 80.922L169.948 82.308L168.76 80.812L173.248 77.292H175.184V93ZM186.3 77.072C187.224 77.072 188.045 77.2187 188.764 77.512C189.483 77.7907 190.047 78.2087 190.458 78.766C190.883 79.3233 191.096 80.02 191.096 80.856C191.096 81.4867 190.964 82.0367 190.7 82.506C190.436 82.9753 190.084 83.3933 189.644 83.76C189.204 84.112 188.713 84.42 188.17 84.684C188.786 84.992 189.351 85.344 189.864 85.74C190.392 86.1213 190.81 86.5687 191.118 87.082C191.441 87.5953 191.602 88.2113 191.602 88.93C191.602 89.81 191.382 90.5727 190.942 91.218C190.517 91.8487 189.908 92.34 189.116 92.692C188.324 93.044 187.4 93.22 186.344 93.22C185.215 93.22 184.247 93.0513 183.44 92.714C182.648 92.3767 182.047 91.9 181.636 91.284C181.225 90.6533 181.02 89.8907 181.02 88.996C181.02 88.2773 181.167 87.654 181.46 87.126C181.753 86.598 182.142 86.1433 182.626 85.762C183.11 85.3807 183.638 85.058 184.21 84.794C183.711 84.5007 183.257 84.1707 182.846 83.804C182.435 83.4227 182.113 82.99 181.878 82.506C181.643 82.022 181.526 81.4647 181.526 80.834C181.526 80.0127 181.739 79.3307 182.164 78.788C182.589 78.2307 183.161 77.8053 183.88 77.512C184.613 77.2187 185.42 77.072 186.3 77.072ZM183.264 88.952C183.264 89.6707 183.513 90.2647 184.012 90.734C184.511 91.1887 185.273 91.416 186.3 91.416C186.975 91.416 187.532 91.3133 187.972 91.108C188.427 90.888 188.771 90.5947 189.006 90.228C189.241 89.8467 189.358 89.414 189.358 88.93C189.358 88.446 189.226 88.0207 188.962 87.654C188.713 87.2873 188.361 86.9647 187.906 86.686C187.466 86.3927 186.953 86.1287 186.366 85.894L186.036 85.762C185.435 86.0113 184.929 86.29 184.518 86.598C184.107 86.906 183.792 87.2507 183.572 87.632C183.367 88.0133 183.264 88.4533 183.264 88.952ZM186.278 78.898C185.559 78.898 184.958 79.074 184.474 79.426C184.005 79.778 183.77 80.2913 183.77 80.966C183.77 81.45 183.887 81.8607 184.122 82.198C184.357 82.5353 184.672 82.8287 185.068 83.078C185.464 83.3127 185.897 83.54 186.366 83.76C186.835 83.5547 187.253 83.3347 187.62 83.1C187.987 82.8507 188.28 82.5573 188.5 82.22C188.72 81.868 188.83 81.45 188.83 80.966C188.83 80.2913 188.595 79.778 188.126 79.426C187.657 79.074 187.041 78.898 186.278 78.898ZM204.632 93H194.072V91.196L198.12 87.082C198.912 86.2753 199.572 85.5787 200.1 84.992C200.628 84.3907 201.024 83.8187 201.288 83.276C201.552 82.7187 201.684 82.1173 201.684 81.472C201.684 80.6653 201.449 80.064 200.98 79.668C200.51 79.2573 199.902 79.052 199.154 79.052C198.435 79.052 197.79 79.1913 197.218 79.47C196.646 79.734 196.052 80.108 195.436 80.592L194.182 79.03C194.607 78.6633 195.062 78.3333 195.546 78.04C196.044 77.7467 196.594 77.512 197.196 77.336C197.812 77.16 198.486 77.072 199.22 77.072C200.217 77.072 201.075 77.248 201.794 77.6C202.512 77.9373 203.062 78.4213 203.444 79.052C203.84 79.6827 204.038 80.4233 204.038 81.274C204.038 81.9047 203.942 82.4987 203.752 83.056C203.561 83.5987 203.282 84.134 202.916 84.662C202.564 85.19 202.131 85.7253 201.618 86.268C201.104 86.8107 200.54 87.3827 199.924 87.984L196.998 90.822V90.932H204.632V93ZM221.044 79.118C220.267 79.118 219.57 79.2573 218.954 79.536C218.338 79.8 217.81 80.196 217.37 80.724C216.945 81.252 216.615 81.89 216.38 82.638C216.16 83.386 216.05 84.2293 216.05 85.168C216.05 86.4 216.234 87.4707 216.6 88.38C216.967 89.2747 217.517 89.964 218.25 90.448C218.984 90.932 219.908 91.174 221.022 91.174C221.697 91.174 222.342 91.1153 222.958 90.998C223.589 90.866 224.227 90.6973 224.872 90.492V92.538C224.256 92.7727 223.626 92.9413 222.98 93.044C222.335 93.1613 221.587 93.22 220.736 93.22C219.138 93.22 217.803 92.89 216.732 92.23C215.676 91.57 214.884 90.6313 214.356 89.414C213.828 88.1967 213.564 86.774 213.564 85.146C213.564 83.958 213.726 82.8727 214.048 81.89C214.386 80.8927 214.87 80.0347 215.5 79.316C216.131 78.5973 216.908 78.0473 217.832 77.666C218.771 77.27 219.849 77.072 221.066 77.072C221.858 77.072 222.636 77.16 223.398 77.336C224.161 77.4973 224.85 77.732 225.466 78.04L224.586 80.02C224.073 79.7853 223.516 79.58 222.914 79.404C222.328 79.2133 221.704 79.118 221.044 79.118ZM241.72 80.922C243.055 80.922 244.06 81.2667 244.734 81.956C245.409 82.6453 245.746 83.7527 245.746 85.278V93H243.414V85.586C243.414 84.6767 243.231 83.9947 242.864 83.54C242.512 83.0707 241.955 82.836 241.192 82.836C240.136 82.836 239.381 83.166 238.926 83.826C238.472 84.4713 238.244 85.41 238.244 86.642V93H235.934V85.586C235.934 84.9847 235.846 84.4787 235.67 84.068C235.509 83.6573 235.267 83.3493 234.944 83.144C234.622 82.9387 234.204 82.836 233.69 82.836C232.957 82.836 232.378 82.9973 231.952 83.32C231.527 83.6427 231.219 84.1193 231.028 84.75C230.852 85.366 230.764 86.1213 230.764 87.016V93H228.432V81.142H230.28L230.61 82.726H230.742C230.992 82.3153 231.292 81.978 231.644 81.714C232.011 81.45 232.414 81.252 232.854 81.12C233.294 80.988 233.749 80.922 234.218 80.922C235.113 80.922 235.868 81.0833 236.484 81.406C237.1 81.714 237.548 82.1907 237.826 82.836H238.002C238.384 82.176 238.912 81.692 239.586 81.384C240.261 81.076 240.972 80.922 241.72 80.922Z" fill="#282A37"/>
<line y1="-0.5" x2="54.4762" y2="-0.5" transform="matrix(-1 0 0 1 56.4761 194.67)" stroke="#C3C3C3"/>
<line y1="-0.5" x2="54.4762" y2="-0.5" transform="matrix(-1 0 0 1 56.4761 191.505)" stroke="#C3C3C3"/>
<line y1="-0.5" x2="54.4762" y2="-0.5" transform="matrix(-1 0 0 1 56.4761 188.339)" stroke="#C3C3C3"/>
<line y1="-0.5" x2="54.4762" y2="-0.5" transform="matrix(-1 0 0 1 56.4761 185.174)" stroke="#C3C3C3"/>
<line y1="-0.5" x2="54.4762" y2="-0.5" transform="matrix(-1 0 0 1 56.4761 182.009)" stroke="#C3C3C3"/>
<line y1="-0.5" x2="54.4762" y2="-0.5" transform="matrix(-1 0 0 1 56.4761 178.844)" stroke="#C3C3C3"/>
<line y1="-0.5" x2="54.4762" y2="-0.5" transform="matrix(-1 0 0 1 56.4761 175.679)" stroke="#C3C3C3"/>
<line y1="-0.5" x2="54.4762" y2="-0.5" transform="matrix(-1 0 0 1 56.4761 172.514)" stroke="#C3C3C3"/>
<line y1="-0.5" x2="54.4762" y2="-0.5" transform="matrix(-1 0 0 1 56.4761 194.67)" stroke="#C3C3C3"/>
<line y1="-0.5" x2="54.4762" y2="-0.5" transform="matrix(-1 0 0 1 56.4761 191.505)" stroke="#C3C3C3"/>
<line y1="-0.5" x2="54.4762" y2="-0.5" transform="matrix(-1 0 0 1 56.4761 188.339)" stroke="#C3C3C3"/>
<line y1="-0.5" x2="54.4762" y2="-0.5" transform="matrix(-1 0 0 1 56.4761 185.174)" stroke="#C3C3C3"/>
<line y1="-0.5" x2="54.4762" y2="-0.5" transform="matrix(-1 0 0 1 56.4761 182.009)" stroke="#C3C3C3"/>
<line y1="-0.5" x2="54.4762" y2="-0.5" transform="matrix(-1 0 0 1 56.4761 178.844)" stroke="#C3C3C3"/>
<line y1="-0.5" x2="54.4762" y2="-0.5" transform="matrix(-1 0 0 1 56.4761 175.679)" stroke="#C3C3C3"/>
<line y1="-0.5" x2="54.4762" y2="-0.5" transform="matrix(-1 0 0 1 56.4761 172.514)" stroke="#C3C3C3"/>
<line y1="-0.5" x2="104" y2="-0.5" transform="matrix(-1 -8.74228e-08 -8.74228e-08 1 106 169.349)" stroke="#C3C3C3"/>
<line y1="-0.5" x2="54.4762" y2="-0.5" transform="matrix(-1 0 0 1 56.4761 165.55)" stroke="#C3C3C3"/>
<line y1="-0.5" x2="54.4762" y2="-0.5" transform="matrix(-1 0 0 1 56.4761 162.385)" stroke="#C3C3C3"/>
<line y1="-0.5" x2="54.4762" y2="-0.5" transform="matrix(-1 0 0 1 56.4761 159.22)" stroke="#C3C3C3"/>
<line y1="-0.5" x2="54.4762" y2="-0.5" transform="matrix(-1 0 0 1 56.4761 156.055)" stroke="#C3C3C3"/>
<line y1="-0.5" x2="54.4762" y2="-0.5" transform="matrix(-1 0 0 1 56.4761 152.89)" stroke="#C3C3C3"/>
<line y1="-0.5" x2="54.4762" y2="-0.5" transform="matrix(-1 0 0 1 56.4761 149.725)" stroke="#C3C3C3"/>
<line y1="-0.5" x2="54.4762" y2="-0.5" transform="matrix(-1 0 0 1 56.4761 146.56)" stroke="#C3C3C3"/>
<line y1="-0.5" x2="54.4762" y2="-0.5" transform="matrix(-1 0 0 1 56.4761 143.395)" stroke="#C3C3C3"/>
<line y1="-0.5" x2="54.4762" y2="-0.5" transform="matrix(-1 0 0 1 56.4761 140.229)" stroke="#C3C3C3"/>
<line y1="-0.5" x2="54.4762" y2="-0.5" transform="matrix(-1 0 0 1 56.4761 137.064)" stroke="#C3C3C3"/>
<line y1="-0.5" x2="54.4762" y2="-0.5" transform="matrix(-1 0 0 1 56.4761 165.55)" stroke="#C3C3C3"/>
<line y1="-0.5" x2="54.4762" y2="-0.5" transform="matrix(-1 0 0 1 56.4761 162.385)" stroke="#C3C3C3"/>
<line y1="-0.5" x2="54.4762" y2="-0.5" transform="matrix(-1 0 0 1 56.4761 159.22)" stroke="#C3C3C3"/>
<line y1="-0.5" x2="54.4762" y2="-0.5" transform="matrix(-1 0 0 1 56.4761 156.055)" stroke="#C3C3C3"/>
<line y1="-0.5" x2="54.4762" y2="-0.5" transform="matrix(-1 0 0 1 56.4761 152.89)" stroke="#C3C3C3"/>
<line y1="-0.5" x2="54.4762" y2="-0.5" transform="matrix(-1 0 0 1 56.4761 149.725)" stroke="#C3C3C3"/>
<line y1="-0.5" x2="54.4762" y2="-0.5" transform="matrix(-1 0 0 1 56.4761 146.56)" stroke="#C3C3C3"/>
<line y1="-0.5" x2="54.4762" y2="-0.5" transform="matrix(-1 0 0 1 56.4761 143.395)" stroke="#C3C3C3"/>
<line y1="-0.5" x2="54.4762" y2="-0.5" transform="matrix(-1 0 0 1 56.4761 140.229)" stroke="#C3C3C3"/>
<line y1="-0.5" x2="54.4762" y2="-0.5" transform="matrix(-1 0 0 1 56.4761 137.064)" stroke="#C3C3C3"/>
<line y1="-0.5" x2="104" y2="-0.5" transform="matrix(-1 -8.74228e-08 -8.74228e-08 1 106 133.899)" stroke="#C3C3C3"/>
<line y1="-0.5" x2="54.4762" y2="-0.5" transform="matrix(-1 0 0 1 56.4761 130.101)" stroke="#C3C3C3"/>
<line y1="-0.5" x2="54.4762" y2="-0.5" transform="matrix(-1 0 0 1 56.4761 126.936)" stroke="#C3C3C3"/>
<line y1="-0.5" x2="54.4762" y2="-0.5" transform="matrix(-1 0 0 1 56.4761 123.771)" stroke="#C3C3C3"/>
<line y1="-0.5" x2="54.4762" y2="-0.5" transform="matrix(-1 0 0 1 56.4761 120.606)" stroke="#C3C3C3"/>
<line y1="-0.5" x2="54.4762" y2="-0.5" transform="matrix(-1 0 0 1 56.4761 117.44)" stroke="#C3C3C3"/>
<line y1="-0.5" x2="54.4762" y2="-0.5" transform="matrix(-1 0 0 1 56.4761 114.275)" stroke="#C3C3C3"/>
<line y1="-0.5" x2="54.4762" y2="-0.5" transform="matrix(-1 0 0 1 56.4761 111.11)" stroke="#C3C3C3"/>
<line y1="-0.5" x2="54.4762" y2="-0.5" transform="matrix(-1 0 0 1 56.4761 107.945)" stroke="#C3C3C3"/>
<line y1="-0.5" x2="54.4762" y2="-0.5" transform="matrix(-1 0 0 1 56.4761 104.78)" stroke="#C3C3C3"/>
<line y1="-0.5" x2="54.4762" y2="-0.5" transform="matrix(-1 0 0 1 56.4761 101.615)" stroke="#C3C3C3"/>
<line y1="-0.5" x2="54.4762" y2="-0.5" transform="matrix(-1 0 0 1 56.4761 130.101)" stroke="#C3C3C3"/>
<line y1="-0.5" x2="54.4762" y2="-0.5" transform="matrix(-1 0 0 1 56.4761 126.936)" stroke="#C3C3C3"/>
<line y1="-0.5" x2="54.4762" y2="-0.5" transform="matrix(-1 0 0 1 56.4761 123.771)" stroke="#C3C3C3"/>
<line y1="-0.5" x2="54.4762" y2="-0.5" transform="matrix(-1 0 0 1 56.4761 120.606)" stroke="#C3C3C3"/>
<line y1="-0.5" x2="54.4762" y2="-0.5" transform="matrix(-1 0 0 1 56.4761 117.44)" stroke="#C3C3C3"/>
<line y1="-0.5" x2="54.4762" y2="-0.5" transform="matrix(-1 0 0 1 56.4761 114.275)" stroke="#C3C3C3"/>
<line y1="-0.5" x2="54.4762" y2="-0.5" transform="matrix(-1 0 0 1 56.4761 111.11)" stroke="#C3C3C3"/>
<line y1="-0.5" x2="54.4762" y2="-0.5" transform="matrix(-1 0 0 1 56.4761 107.945)" stroke="#C3C3C3"/>
<line y1="-0.5" x2="54.4762" y2="-0.5" transform="matrix(-1 0 0 1 56.4761 104.78)" stroke="#C3C3C3"/>
<line y1="-0.5" x2="54.4762" y2="-0.5" transform="matrix(-1 0 0 1 56.4761 101.615)" stroke="#C3C3C3"/>
<line x1="248" y1="97.5" x2="2" y2="97.5" stroke="#4A4A4A"/>
<line y1="-0.5" x2="54.4762" y2="-0.5" transform="matrix(-1 0 0 1 56.4761 94.6514)" stroke="#4A4A4A"/>
<line y1="-0.5" x2="54.4762" y2="-0.5" transform="matrix(-1 0 0 1 56.4761 91.4862)" stroke="#4A4A4A"/>
<line y1="-0.5" x2="54.4762" y2="-0.5" transform="matrix(-1 0 0 1 56.4761 88.3211)" stroke="#4A4A4A"/>
<line y1="-0.5" x2="54.4762" y2="-0.5" transform="matrix(-1 0 0 1 56.4761 85.156)" stroke="#4A4A4A"/>
<line y1="-0.5" x2="54.4762" y2="-0.5" transform="matrix(-1 0 0 1 56.4761 81.9908)" stroke="#4A4A4A"/>
<line y1="-0.5" x2="54.4762" y2="-0.5" transform="matrix(-1 0 0 1 56.4761 78.8257)" stroke="#4A4A4A"/>
<line y1="-0.5" x2="54.4762" y2="-0.5" transform="matrix(-1 0 0 1 56.4761 75.6606)" stroke="#4A4A4A"/>
<line y1="-0.5" x2="54.4762" y2="-0.5" transform="matrix(-1 0 0 1 56.4761 72.4954)" stroke="#C3C3C3"/>
<line y1="-0.5" x2="54.4762" y2="-0.5" transform="matrix(-1 0 0 1 56.4761 69.3303)" stroke="#C3C3C3"/>
<line y1="-0.5" x2="54.4762" y2="-0.5" transform="matrix(-1 0 0 1 56.4761 66.1651)" stroke="#C3C3C3"/>
<line y1="-0.5" x2="54.4762" y2="-0.5" transform="matrix(-1 0 0 1 56.4761 94.6514)" stroke="#4A4A4A"/>
<line y1="-0.5" x2="54.4762" y2="-0.5" transform="matrix(-1 0 0 1 56.4761 91.4862)" stroke="#4A4A4A"/>
<line y1="-0.5" x2="54.4762" y2="-0.5" transform="matrix(-1 0 0 1 56.4761 88.3211)" stroke="#4A4A4A"/>
<line y1="-0.5" x2="54.4762" y2="-0.5" transform="matrix(-1 0 0 1 56.4761 85.156)" stroke="#4A4A4A"/>
<line y1="-0.5" x2="54.4762" y2="-0.5" transform="matrix(-1 0 0 1 56.4761 81.9908)" stroke="#4A4A4A"/>
<line y1="-0.5" x2="54.4762" y2="-0.5" transform="matrix(-1 0 0 1 56.4761 78.8257)" stroke="#4A4A4A"/>
<line y1="-0.5" x2="54.4762" y2="-0.5" transform="matrix(-1 0 0 1 56.4761 75.6606)" stroke="#4A4A4A"/>
<line y1="-0.5" x2="54.4762" y2="-0.5" transform="matrix(-1 0 0 1 56.4761 72.4954)" stroke="#C3C3C3"/>
<line y1="-0.5" x2="54.4762" y2="-0.5" transform="matrix(-1 0 0 1 56.4761 69.3303)" stroke="#C3C3C3"/>
<line y1="-0.5" x2="54.4762" y2="-0.5" transform="matrix(-1 0 0 1 56.4761 66.1651)" stroke="#C3C3C3"/>
<line y1="-0.5" x2="104" y2="-0.5" transform="matrix(-1 -8.74228e-08 -8.74228e-08 1 106 63)" stroke="#C3C3C3"/>
<rect width="464" height="56" rx="10" fill="#EDEDED"/>
<rect x="327.5" y="12.5" width="117" height="31" rx="15.5" fill="#F96118" fill-opacity="0.15" stroke="#F96118"/>
<rect x="327.5" y="12.5" width="64" height="31" rx="15.5" fill="#F96118" stroke="#F96118"/>
<path d="M352.948 33.14C352.313 33.14 351.753 33.0047 351.268 32.734C350.783 32.4633 350.4 32.0433 350.12 31.474C349.849 30.9047 349.714 30.1767 349.714 29.29C349.714 28.366 349.859 27.6147 350.148 27.036C350.437 26.4573 350.829 26.0327 351.324 25.762C351.828 25.4913 352.397 25.356 353.032 25.356C353.396 25.356 353.746 25.398 354.082 25.482C354.427 25.5567 354.707 25.65 354.922 25.762L354.544 26.784C354.329 26.7 354.077 26.6207 353.788 26.546C353.508 26.4713 353.247 26.434 353.004 26.434C352.547 26.434 352.169 26.5413 351.87 26.756C351.571 26.9707 351.347 27.288 351.198 27.708C351.049 28.128 350.974 28.6507 350.974 29.276C350.974 29.8733 351.049 30.382 351.198 30.802C351.347 31.222 351.567 31.5393 351.856 31.754C352.155 31.9687 352.519 32.076 352.948 32.076C353.331 32.076 353.671 32.034 353.97 31.95C354.269 31.866 354.544 31.7633 354.796 31.642V32.734C354.553 32.8647 354.287 32.9627 353.998 33.028C353.709 33.1027 353.359 33.14 352.948 33.14ZM364.541 25.356C365.344 25.356 365.941 25.5753 366.333 26.014C366.725 26.4433 366.921 27.1433 366.921 28.114V33H365.717V28.17C365.717 27.582 365.601 27.1387 365.367 26.84C365.143 26.5413 364.789 26.392 364.303 26.392C363.631 26.392 363.151 26.602 362.861 27.022C362.581 27.442 362.441 28.0533 362.441 28.856V33H361.223V28.17C361.223 27.778 361.172 27.4513 361.069 27.19C360.967 26.9193 360.813 26.7187 360.607 26.588C360.402 26.4573 360.136 26.392 359.809 26.392C359.343 26.392 358.974 26.4993 358.703 26.714C358.433 26.9193 358.241 27.2227 358.129 27.624C358.017 28.0253 357.961 28.52 357.961 29.108V33H356.743V25.496H357.723L357.905 26.518H357.975C358.125 26.2567 358.307 26.042 358.521 25.874C358.736 25.6967 358.974 25.566 359.235 25.482C359.497 25.398 359.767 25.356 360.047 25.356C360.589 25.356 361.041 25.4587 361.405 25.664C361.769 25.8693 362.035 26.1867 362.203 26.616H362.287C362.521 26.1867 362.838 25.8693 363.239 25.664C363.65 25.4587 364.084 25.356 364.541 25.356Z" fill="#282A37"/>
<path d="M412.41 26.448H410.646V33H409.414V26.448H408.196V25.874L409.414 25.454V25.02C409.414 24.376 409.503 23.8533 409.68 23.452C409.867 23.0507 410.133 22.7567 410.478 22.57C410.823 22.3833 411.239 22.29 411.724 22.29C412.013 22.29 412.275 22.318 412.508 22.374C412.751 22.4207 412.961 22.4767 413.138 22.542L412.816 23.508C412.667 23.4613 412.499 23.4147 412.312 23.368C412.135 23.3213 411.948 23.298 411.752 23.298C411.379 23.298 411.099 23.438 410.912 23.718C410.735 23.9887 410.646 24.418 410.646 25.006V25.496H412.41V26.448ZM416.374 32.132C416.552 32.132 416.734 32.118 416.92 32.09C417.107 32.0527 417.261 32.0153 417.382 31.978V32.916C417.252 32.9813 417.065 33.0327 416.822 33.07C416.589 33.1167 416.365 33.14 416.15 33.14C415.777 33.14 415.432 33.0747 415.114 32.944C414.797 32.804 414.54 32.566 414.344 32.23C414.158 31.894 414.064 31.4227 414.064 30.816V26.448H413.07V25.86L414.092 25.37L414.554 23.774H415.282V25.496H417.326V26.448H415.282V30.788C415.282 31.2453 415.385 31.586 415.59 31.81C415.796 32.0247 416.057 32.132 416.374 32.132Z" fill="#282A37"/>
<path d="M37.432 34H35.704V28.784H30.248V34H28.52V22.576H30.248V27.312H35.704V22.576H37.432V34ZM44.0087 25.216C44.7661 25.216 45.4168 25.376 45.9608 25.696C46.5048 26.0053 46.9208 26.4533 47.2088 27.04C47.5074 27.6267 47.6567 28.32 47.6567 29.12V30.048H41.8647C41.8861 30.9333 42.1154 31.6107 42.5527 32.08C43.0007 32.5493 43.6247 32.784 44.4247 32.784C44.9794 32.784 45.4701 32.736 45.8967 32.64C46.3341 32.5333 46.7821 32.3787 47.2407 32.176V33.584C46.8141 33.776 46.3767 33.92 45.9288 34.016C45.4914 34.112 44.9687 34.16 44.3607 34.16C43.5287 34.16 42.7927 33.9947 42.1527 33.664C41.5127 33.3333 41.0114 32.8427 40.6487 32.192C40.2967 31.5307 40.1207 30.72 40.1207 29.76C40.1207 28.7893 40.2807 27.968 40.6007 27.296C40.9314 26.624 41.3847 26.112 41.9607 25.76C42.5474 25.3973 43.2301 25.216 44.0087 25.216ZM44.0087 26.528C43.4007 26.528 42.9101 26.7253 42.5367 27.12C42.1741 27.5147 41.9607 28.0747 41.8967 28.8H45.9608C45.9608 28.352 45.8914 27.9573 45.7527 27.616C45.6141 27.2747 45.4008 27.008 45.1128 26.816C44.8247 26.624 44.4567 26.528 44.0087 26.528ZM51.789 25.376V34H50.093V25.376H51.789ZM50.957 22.096C51.213 22.096 51.437 22.1707 51.629 22.32C51.821 22.4693 51.917 22.72 51.917 23.072C51.917 23.4133 51.821 23.664 51.629 23.824C51.437 23.9733 51.213 24.048 50.957 24.048C50.6797 24.048 50.445 23.9733 50.253 23.824C50.0717 23.664 49.981 23.4133 49.981 23.072C49.981 22.72 50.0717 22.4693 50.253 22.32C50.445 22.1707 50.6797 22.096 50.957 22.096ZM57.7484 25.216C58.303 25.216 58.8044 25.3227 59.2524 25.536C59.7004 25.7493 60.079 26.0747 60.3884 26.512H60.4684L60.6604 25.376H62.0364V34.112C62.0364 34.9227 61.8924 35.6053 61.6044 36.16C61.3164 36.7147 60.8737 37.1307 60.2764 37.408C59.6897 37.696 58.9484 37.84 58.0524 37.84C57.4337 37.84 56.863 37.7973 56.3404 37.712C55.8177 37.6267 55.3377 37.4933 54.9004 37.312V35.824C55.2097 35.9733 55.535 36.096 55.8764 36.192C56.2177 36.2987 56.5804 36.3733 56.9644 36.416C57.3484 36.4693 57.743 36.496 58.1484 36.496C58.8524 36.496 59.3964 36.2933 59.7804 35.888C60.1644 35.4933 60.3564 34.9333 60.3564 34.208V33.92C60.3564 33.7813 60.3617 33.6 60.3724 33.376C60.383 33.1413 60.3937 32.9707 60.4044 32.864H60.3404C60.0417 33.312 59.6737 33.6427 59.2364 33.856C58.8097 34.0587 58.3137 34.16 57.7484 34.16C56.6604 34.16 55.807 33.7707 55.1884 32.992C54.5804 32.2027 54.2764 31.1093 54.2764 29.712C54.2764 28.7733 54.415 27.9733 54.6924 27.312C54.9697 26.64 55.3644 26.1227 55.8764 25.76C56.399 25.3973 57.023 25.216 57.7484 25.216ZM58.1004 26.624C57.6524 26.624 57.2737 26.7467 56.9644 26.992C56.655 27.2267 56.4204 27.5733 56.2604 28.032C56.1004 28.4907 56.0204 29.056 56.0204 29.728C56.0204 30.7307 56.1964 31.4933 56.5484 32.016C56.911 32.5387 57.439 32.8 58.1324 32.8C58.5377 32.8 58.879 32.7467 59.1564 32.64C59.4444 32.5333 59.679 32.368 59.8604 32.144C60.0524 31.92 60.191 31.6373 60.2764 31.296C60.3724 30.944 60.4204 30.5227 60.4204 30.032V29.712C60.4204 28.976 60.335 28.384 60.1644 27.936C60.0044 27.4773 59.7537 27.1467 59.4124 26.944C59.071 26.7307 58.6337 26.624 58.1004 26.624ZM66.7102 25.088C66.7102 25.3547 66.6996 25.6213 66.6782 25.888C66.6569 26.1547 66.6356 26.3733 66.6142 26.544H66.7262C66.9076 26.2453 67.1316 26 67.3982 25.808C67.6756 25.616 67.9796 25.472 68.3102 25.376C68.6516 25.28 68.9982 25.232 69.3502 25.232C70.0329 25.232 70.6036 25.344 71.0622 25.568C71.5316 25.7813 71.8836 26.1227 72.1182 26.592C72.3636 27.0507 72.4862 27.648 72.4862 28.384V34H70.8062V28.624C70.8062 27.952 70.6622 27.4507 70.3742 27.12C70.0969 26.7787 69.6489 26.608 69.0302 26.608C68.4436 26.608 67.9796 26.7253 67.6382 26.96C67.3076 27.1947 67.0676 27.5413 66.9182 28C66.7796 28.448 66.7102 29.0027 66.7102 29.664V34H65.0142V21.84H66.7102V25.088ZM78.5164 32.784C78.7404 32.784 78.9697 32.7627 79.2044 32.72C79.439 32.6773 79.6417 32.6293 79.8124 32.576V33.856C79.631 33.9413 79.3857 34.0107 79.0764 34.064C78.767 34.128 78.4577 34.16 78.1484 34.16C77.679 34.16 77.247 34.08 76.8524 33.92C76.4684 33.76 76.159 33.4827 75.9244 33.088C75.6897 32.6933 75.5724 32.144 75.5724 31.44V26.672H74.3724V25.904L75.6364 25.264L76.2284 23.44H77.2684V25.376H79.7324V26.672H77.2684V31.408C77.2684 31.8773 77.3804 32.224 77.6044 32.448C77.839 32.672 78.143 32.784 78.5164 32.784Z" fill="#282A37"/>
</svg>
