<svg width="26" height="28" viewBox="0 0 26 28" fill="none" xmlns="http://www.w3.org/2000/svg">
<path d="M11.1697 1.46608C12.0896 0.635231 13.4907 0.641161 14.4034 1.47977L24.5934 10.8419C25.0882 11.2966 25.3699 11.9378 25.3699 12.6099V26.1993C25.3699 27.1938 24.5637 28 23.5692 28H1.81749C0.823805 28 0.0179447 27.1951 0.0168046 26.2014L0.00122578 12.6237C0.000445476 11.9436 0.28812 11.2951 0.792797 10.8392L11.1697 1.46608Z" fill="#2E2E2E"/>
<path d="M9.42981 23.9036H15.9342" stroke="#2E2E2E" stroke-linecap="round"/>
<rect width="4.74633" height="4.74633" rx="0.600228" transform="matrix(1 0 0 -1 6.88367 20.4056)" fill="white"/>
<rect width="4.74633" height="4.74633" rx="0.600228" transform="matrix(1 0 0 -1 6.88367 13.8613)" fill="white"/>
<rect width="4.74633" height="4.74633" rx="0.600228" transform="matrix(1 0 0 -1 13.7401 20.4056)" fill="white"/>
<rect width="4.74633" height="4.74633" rx="0.600228" transform="matrix(1 0 0 -1 13.7401 13.8613)" fill="white"/>
</svg>
