<svg width="37" height="36" viewBox="0 0 37 36" fill="none" xmlns="http://www.w3.org/2000/svg">
<path d="M36.0083 17.8914C36.0083 22.1665 36.0098 26.4415 36.0083 30.7166C36.0083 32.3315 35.4489 33.7064 34.2109 34.7737C33.1995 35.6452 32.0042 36 30.6866 36C27.1329 36 23.5807 36 20.027 36C15.1263 36 10.2256 36 5.3249 36C3.68201 36 2.2835 35.4421 1.2059 34.1746C0.360906 33.1794 0.0031801 32.0091 0.0031801 30.7166C0.0031801 24.7265 0.0031801 18.7364 0.0031801 12.7464C0.0031801 10.2099 -0.00565312 7.6749 0.00612385 5.13844C0.0179008 2.85518 1.41347 0.925227 3.54952 0.264244C4.04563 0.111143 4.58001 0.0125113 5.09819 0.0125113C13.7484 -0.00220988 22.3971 -0.00220952 31.0473 0.00367897C33.4513 0.00515109 35.4107 1.58621 35.9068 3.89744C35.9759 4.21836 36.0083 4.55253 36.0083 4.88082C36.0142 9.21769 36.0128 13.5531 36.0128 17.89H36.0083V17.8914ZM12.5118 22.8937C14.4712 22.8937 16.4291 22.9011 18.3885 22.8908C19.5692 22.8834 20.3258 21.9692 20.0491 20.8401C19.4234 18.2815 17.7849 16.6019 15.3869 15.6185C15.2176 15.5493 14.9805 15.5699 14.7965 15.6244C13.2655 16.0807 11.7419 16.0807 10.2109 15.6199C10.0416 15.5684 9.82223 15.567 9.6603 15.6303C7.35348 16.5312 5.80187 18.1594 5.06728 20.528C4.61681 21.9795 5.33079 22.8952 6.85443 22.8952C8.74022 22.8952 10.6245 22.8952 12.5103 22.8952L12.5118 22.8937ZM12.5044 12.9422C14.8378 12.9466 16.7397 11.0652 16.7265 8.7628C16.7132 6.39563 14.8613 4.53634 12.5133 4.53487C10.2595 4.53487 8.30447 6.47218 8.30006 8.71275C8.29564 11.0696 10.152 12.9363 12.503 12.9407L12.5044 12.9422ZM27.4568 14.4687C26.4543 14.4687 25.4503 14.4658 24.4478 14.4687C23.5807 14.4717 22.9344 15.0826 22.9123 15.9085C22.8917 16.699 23.5851 17.4616 24.4036 17.4704C26.4101 17.491 28.4151 17.4895 30.4216 17.4704C31.2563 17.463 31.9438 16.702 31.9202 15.882C31.8952 15.009 31.3182 14.4717 30.3922 14.4687C29.4132 14.4658 28.4357 14.4687 27.4568 14.4687ZM27.4244 11.4553C28.4034 11.4553 29.3808 11.4612 30.3598 11.4538C31.2622 11.448 31.9188 10.8105 31.9217 9.95522C31.9247 9.07637 31.2696 8.4463 30.3421 8.44483C28.4092 8.44188 26.4763 8.44335 24.5434 8.44483C23.644 8.44483 22.902 9.14114 22.9094 9.97142C22.9168 10.8356 23.5851 11.4524 24.5243 11.4553C25.49 11.4583 26.4572 11.4553 27.4229 11.4553H27.4244ZM28.4932 27.2615C28.2311 27.2615 28.0721 27.26 27.9117 27.2615C27.1064 27.2718 26.3851 27.9681 26.3762 28.7395C26.3674 29.5124 27.0696 30.2396 27.8675 30.269C28.2341 30.2823 28.6036 30.2823 28.9701 30.269C29.6223 30.2425 30.1699 29.8127 30.3583 29.1973C30.5365 28.6158 30.3201 28.0137 29.8151 27.6001C29.3897 27.2512 28.898 27.232 28.4932 27.2615ZM14.7465 27.2468C14.7465 27.2468 14.7465 27.2556 14.7465 27.2615C14.5625 27.2615 14.3784 27.2585 14.1959 27.2615C13.4142 27.2747 12.6649 28.0034 12.659 28.7557C12.6531 29.4814 13.3833 30.2322 14.1459 30.269C14.5124 30.2867 14.8819 30.2867 15.2485 30.269C15.9801 30.2352 16.644 29.5904 16.7176 28.8632C16.7898 28.1536 16.2848 27.4573 15.5517 27.2998C15.2926 27.2438 15.0159 27.263 14.748 27.2482L14.7465 27.2468ZM21.5639 27.2615C21.3004 27.2615 21.1414 27.26 20.9809 27.2615C20.1904 27.2733 19.4514 27.9828 19.4381 28.7439C19.4249 29.4785 20.1374 30.2278 20.9073 30.2676C21.2856 30.2867 21.6669 30.2838 22.0467 30.2676C22.6753 30.2425 23.1979 29.8495 23.4084 29.2621C23.6293 28.6453 23.432 28.1389 22.9933 27.6958C22.5634 27.263 22.0246 27.2159 21.5639 27.2615ZM7.75537 27.2615C7.59638 27.2615 7.4374 27.26 7.27841 27.2615C6.48493 27.2733 5.75034 27.9755 5.73268 28.738C5.71649 29.4638 6.42752 30.2219 7.19155 30.2676C7.56841 30.2896 7.95117 30.2999 8.32656 30.2661C9.00962 30.2028 9.48217 29.823 9.71182 29.1811C9.92823 28.579 9.6971 28.0873 9.25988 27.6663C8.83149 27.2556 8.303 27.2203 7.7539 27.2615H7.75537Z" fill="#04C000"/>
</svg>
