<svg width="16" height="20" viewBox="0 0 16 20" fill="none" xmlns="http://www.w3.org/2000/svg">
<path d="M8.49445 6.00689C8.87425 5.65367 9.21575 5.33717 9.55569 5.0199C10.1121 4.501 10.6669 3.97898 11.2249 3.46164C11.5039 3.20297 11.8532 3.21626 12.1017 3.50072C13.4818 5.07694 14.5681 6.8251 15.194 8.83973C15.598 10.1385 15.7817 11.4639 15.6457 12.8229C15.2636 16.6459 12.4628 19.3404 9.13448 19.8936C5.03488 20.5751 1.08844 17.9142 0.195222 13.8505C-0.165818 12.2087 0.00454331 10.5926 0.455453 8.99602C0.955594 7.22443 1.85194 5.65992 2.98977 4.22748C4.25262 2.63719 5.70382 1.25086 7.42149 0.153672C7.65906 0.0012849 7.89116 -0.0635774 8.15061 0.0802134C8.41396 0.226349 8.49836 0.46079 8.49758 0.750716C8.49367 2.41056 8.49602 4.07119 8.49602 5.73103C8.49602 5.80606 8.49602 5.88108 8.49602 6.00689H8.49445ZM10.5739 18.2291C10.6529 18.1971 10.7076 18.1807 10.7568 18.1541C13.1075 16.91 14.3774 14.9587 14.5055 12.2993C14.5657 11.0474 14.318 9.82907 13.8936 8.64905C13.3724 7.20255 12.5784 5.91624 11.6 4.72372C11.5531 4.76279 11.5133 4.79405 11.4765 4.82844C10.6263 5.62397 9.77607 6.42029 8.92504 7.21583C8.72108 7.40729 8.5218 7.60422 8.31002 7.78709C7.98415 8.06998 7.49886 7.96136 7.36366 7.57218C7.32459 7.45887 7.32381 7.32914 7.32381 7.20723C7.32146 5.44267 7.32224 3.67811 7.32224 1.91276C7.32224 1.84087 7.32224 1.76819 7.32224 1.66113C7.25504 1.71036 7.22925 1.72834 7.20346 1.74787C6.1008 2.57389 5.09661 3.50619 4.20964 4.56195C3.13356 5.84122 2.26612 7.24475 1.73316 8.83739C1.27209 10.2151 1.03218 11.6272 1.24943 13.0792C1.57296 15.2353 2.70531 16.8529 4.57303 17.9619C4.73714 18.0595 4.9114 18.1385 5.11459 18.2432C5.09114 18.1643 5.08333 18.1283 5.07004 18.0939C4.83091 17.4805 4.79887 16.8498 4.94657 16.2153C5.29823 14.7023 6.2063 13.5903 7.48167 12.7502C7.74815 12.5744 7.99509 12.5861 8.25689 12.7674C8.98287 13.2707 9.59476 13.8857 10.0621 14.6343C10.7537 15.7401 11.078 16.9076 10.5747 18.2276L10.5739 18.2291ZM7.81926 13.9084C7.50589 14.2256 7.17924 14.5148 6.90181 14.8453C6.35791 15.494 6.00781 16.2278 6.04376 17.103C6.08283 18.0494 6.86899 18.8168 7.81535 18.8293C8.96568 18.8449 9.83233 17.7891 9.62368 16.6318C9.41581 15.4815 8.70154 14.6703 7.81926 13.9091V13.9084Z" fill="#026900"/>
</svg>
