<svg width="509" height="992" viewBox="0 0 509 992" fill="none" xmlns="http://www.w3.org/2000/svg">
<rect width="509" height="992" rx="10" fill="#026900"/>
<path d="M174.816 677.349L170.688 694.485H167.04L164.712 684.645C164.664 684.405 164.6 684.109 164.52 683.757C164.456 683.405 164.384 683.045 164.304 682.677C164.224 682.293 164.16 681.941 164.112 681.621C164.064 681.285 164.024 681.037 163.992 680.877C163.976 681.037 163.936 681.285 163.872 681.621C163.824 681.941 163.76 682.293 163.68 682.677C163.616 683.045 163.544 683.413 163.464 683.781C163.4 684.133 163.336 684.437 163.272 684.693L160.968 694.485H157.32L153.192 677.349H156.408L158.52 687.117C158.568 687.437 158.632 687.789 158.712 688.173C158.792 688.541 158.864 688.925 158.928 689.325C159.008 689.709 159.08 690.093 159.144 690.477C159.208 690.845 159.256 691.173 159.288 691.461C159.336 691.157 159.392 690.821 159.456 690.453C159.52 690.069 159.584 689.685 159.648 689.301C159.728 688.901 159.808 688.517 159.888 688.149C159.968 687.781 160.04 687.461 160.104 687.189L162.456 677.349H165.528L167.904 687.261C167.968 687.533 168.04 687.853 168.12 688.221C168.2 688.573 168.272 688.949 168.336 689.349C168.416 689.733 168.488 690.109 168.552 690.477C168.616 690.845 168.672 691.173 168.72 691.461C168.768 691.061 168.832 690.605 168.912 690.093C169.008 689.581 169.112 689.061 169.224 688.533C169.336 688.005 169.432 687.533 169.512 687.117L171.624 677.349H174.816ZM181.426 681.237C182.546 681.237 183.506 681.477 184.306 681.957C185.122 682.421 185.754 683.093 186.202 683.973C186.65 684.837 186.874 685.893 186.874 687.141V688.677H178.906C178.938 689.861 179.226 690.781 179.77 691.437C180.33 692.077 181.114 692.397 182.122 692.397C182.922 692.397 183.634 692.317 184.258 692.157C184.882 691.981 185.53 691.733 186.202 691.413V693.837C185.594 694.141 184.962 694.365 184.306 694.509C183.65 694.653 182.842 694.725 181.882 694.725C180.666 694.725 179.586 694.485 178.642 694.005C177.714 693.509 176.986 692.765 176.458 691.773C175.93 690.781 175.666 689.549 175.666 688.077C175.666 686.589 175.906 685.341 176.386 684.333C176.866 683.309 177.538 682.541 178.402 682.029C179.282 681.501 180.29 681.237 181.426 681.237ZM181.474 683.469C180.754 683.469 180.17 683.733 179.722 684.261C179.29 684.773 179.034 685.541 178.954 686.565H183.85C183.85 685.957 183.762 685.421 183.586 684.957C183.41 684.493 183.146 684.133 182.794 683.877C182.458 683.605 182.018 683.469 181.474 683.469ZM192.795 694.485H189.603V676.245H192.795V694.485ZM201.443 694.725C200.243 694.725 199.203 694.493 198.323 694.029C197.459 693.549 196.787 692.821 196.307 691.845C195.843 690.853 195.611 689.589 195.611 688.053C195.611 686.453 195.867 685.157 196.379 684.165C196.907 683.157 197.627 682.421 198.539 681.957C199.467 681.477 200.515 681.237 201.683 681.237C202.419 681.237 203.107 681.317 203.747 681.477C204.403 681.637 204.947 681.829 205.379 682.053L204.419 684.381C203.987 684.205 203.555 684.053 203.123 683.925C202.691 683.797 202.259 683.733 201.827 683.733C201.171 683.733 200.627 683.893 200.195 684.213C199.763 684.533 199.427 685.013 199.187 685.653C198.963 686.277 198.851 687.069 198.851 688.029C198.851 688.957 198.963 689.733 199.187 690.357C199.427 690.981 199.763 691.453 200.195 691.773C200.627 692.077 201.155 692.229 201.779 692.229C202.403 692.229 202.979 692.141 203.507 691.965C204.051 691.789 204.563 691.549 205.043 691.245V693.861C204.547 694.165 204.019 694.381 203.459 694.509C202.899 694.653 202.227 694.725 201.443 694.725ZM218.975 687.957C218.975 689.045 218.839 690.005 218.567 690.837C218.295 691.669 217.895 692.381 217.367 692.973C216.855 693.549 216.231 693.989 215.495 694.293C214.759 694.581 213.935 694.725 213.023 694.725C212.175 694.725 211.383 694.581 210.647 694.293C209.927 693.989 209.303 693.549 208.775 692.973C208.263 692.381 207.863 691.669 207.575 690.837C207.287 690.005 207.143 689.045 207.143 687.957C207.143 686.517 207.375 685.301 207.839 684.309C208.319 683.301 209.007 682.541 209.903 682.029C210.799 681.501 211.863 681.237 213.095 681.237C214.247 681.237 215.263 681.501 216.143 682.029C217.023 682.541 217.711 683.301 218.207 684.309C218.719 685.301 218.975 686.517 218.975 687.957ZM210.383 687.957C210.383 688.869 210.479 689.653 210.671 690.309C210.863 690.949 211.151 691.437 211.535 691.773C211.935 692.109 212.447 692.277 213.071 692.277C213.695 692.277 214.199 692.109 214.583 691.773C214.983 691.437 215.271 690.949 215.447 690.309C215.639 689.653 215.735 688.869 215.735 687.957C215.735 687.029 215.639 686.253 215.447 685.629C215.255 684.989 214.959 684.509 214.559 684.189C214.175 683.853 213.671 683.685 213.047 683.685C212.103 683.685 211.423 684.053 211.007 684.789C210.591 685.525 210.383 686.581 210.383 687.957ZM236.039 681.237C237.447 681.237 238.503 681.613 239.207 682.365C239.911 683.117 240.263 684.333 240.263 686.013V694.485H237.119V686.589C237.119 685.629 236.959 684.909 236.639 684.429C236.319 683.933 235.823 683.685 235.151 683.685C234.223 683.685 233.567 684.029 233.183 684.717C232.799 685.405 232.607 686.405 232.607 687.717V694.485H229.439V686.589C229.439 685.949 229.367 685.413 229.223 684.981C229.079 684.549 228.863 684.229 228.575 684.021C228.287 683.797 227.919 683.685 227.471 683.685C226.831 683.685 226.327 683.861 225.959 684.213C225.591 684.549 225.327 685.045 225.167 685.701C225.023 686.357 224.951 687.165 224.951 688.125V694.485H221.759V681.477H224.207L224.663 683.181H224.807C225.047 682.733 225.343 682.365 225.695 682.077C226.063 681.789 226.479 681.581 226.943 681.453C227.423 681.309 227.919 681.237 228.431 681.237C229.343 681.237 230.103 681.405 230.711 681.741C231.335 682.061 231.815 682.565 232.151 683.253H232.319C232.719 682.549 233.247 682.037 233.903 681.717C234.575 681.397 235.287 681.237 236.039 681.237ZM248.785 681.237C249.905 681.237 250.865 681.477 251.665 681.957C252.481 682.421 253.113 683.093 253.561 683.973C254.009 684.837 254.233 685.893 254.233 687.141V688.677H246.265C246.297 689.861 246.585 690.781 247.129 691.437C247.689 692.077 248.473 692.397 249.481 692.397C250.281 692.397 250.993 692.317 251.617 692.157C252.241 691.981 252.889 691.733 253.561 691.413V693.837C252.953 694.141 252.321 694.365 251.665 694.509C251.009 694.653 250.201 694.725 249.241 694.725C248.025 694.725 246.945 694.485 246.001 694.005C245.073 693.509 244.345 692.765 243.817 691.773C243.289 690.781 243.025 689.549 243.025 688.077C243.025 686.589 243.265 685.341 243.745 684.333C244.225 683.309 244.897 682.541 245.761 682.029C246.641 681.501 247.649 681.237 248.785 681.237ZM248.833 683.469C248.113 683.469 247.529 683.733 247.081 684.261C246.649 684.773 246.393 685.541 246.313 686.565H251.209C251.209 685.957 251.121 685.421 250.945 684.957C250.769 684.493 250.505 684.133 250.153 683.877C249.817 683.605 249.377 683.469 248.833 683.469ZM267.91 692.301C268.262 692.301 268.598 692.269 268.918 692.205C269.254 692.125 269.566 692.037 269.854 691.941V694.197C269.518 694.341 269.11 694.461 268.63 694.557C268.15 694.669 267.614 694.725 267.022 694.725C266.286 694.725 265.63 694.605 265.054 694.365C264.478 694.109 264.022 693.677 263.686 693.069C263.366 692.461 263.206 691.613 263.206 690.525V683.757H261.574V682.437L263.398 681.381L264.358 678.621H266.374V681.477H269.734V683.757H266.374V690.501C266.374 691.109 266.51 691.565 266.782 691.869C267.07 692.157 267.446 692.301 267.91 692.301ZM283.404 687.957C283.404 689.045 283.268 690.005 282.996 690.837C282.724 691.669 282.324 692.381 281.796 692.973C281.284 693.549 280.66 693.989 279.924 694.293C279.188 694.581 278.364 694.725 277.452 694.725C276.604 694.725 275.812 694.581 275.076 694.293C274.356 693.989 273.732 693.549 273.204 692.973C272.692 692.381 272.292 691.669 272.004 690.837C271.716 690.005 271.572 689.045 271.572 687.957C271.572 686.517 271.804 685.301 272.268 684.309C272.748 683.301 273.436 682.541 274.332 682.029C275.228 681.501 276.292 681.237 277.524 681.237C278.676 681.237 279.692 681.501 280.572 682.029C281.452 682.541 282.14 683.301 282.636 684.309C283.148 685.301 283.404 686.517 283.404 687.957ZM274.812 687.957C274.812 688.869 274.908 689.653 275.1 690.309C275.292 690.949 275.58 691.437 275.964 691.773C276.364 692.109 276.876 692.277 277.5 692.277C278.124 692.277 278.628 692.109 279.012 691.773C279.412 691.437 279.7 690.949 279.876 690.309C280.068 689.653 280.164 688.869 280.164 687.957C280.164 687.029 280.068 686.253 279.876 685.629C279.684 684.989 279.388 684.509 278.988 684.189C278.604 683.853 278.1 683.685 277.476 683.685C276.532 683.685 275.852 684.053 275.436 684.789C275.02 685.525 274.812 686.581 274.812 687.957ZM295.504 694.485H292.336V677.349H301.576V679.917H295.504V684.957H301.168V687.525H295.504V694.485ZM307.334 681.477V694.485H304.166V681.477H307.334ZM305.774 676.461C306.238 676.461 306.638 676.581 306.974 676.821C307.31 677.045 307.478 677.453 307.478 678.045C307.478 678.621 307.31 679.037 306.974 679.293C306.638 679.533 306.238 679.653 305.774 679.653C305.278 679.653 304.862 679.533 304.526 679.293C304.19 679.037 304.022 678.621 304.022 678.045C304.022 677.453 304.19 677.045 304.526 676.821C304.862 676.581 305.278 676.461 305.774 676.461ZM315.886 692.301C316.238 692.301 316.574 692.269 316.894 692.205C317.23 692.125 317.542 692.037 317.83 691.941V694.197C317.494 694.341 317.086 694.461 316.606 694.557C316.126 694.669 315.59 694.725 314.998 694.725C314.262 694.725 313.606 694.605 313.03 694.365C312.454 694.109 311.998 693.677 311.662 693.069C311.342 692.461 311.182 691.613 311.182 690.525V683.757H309.55V682.437L311.374 681.381L312.334 678.621H314.35V681.477H317.71V683.757H314.35V690.501C314.35 691.109 314.486 691.565 314.758 691.869C315.046 692.157 315.422 692.301 315.886 692.301ZM326.581 694.485H323.341V679.941H318.877V677.349H331.021V679.941H326.581V694.485ZM338.681 681.237C338.905 681.237 339.137 681.245 339.377 681.261C339.617 681.277 339.817 681.309 339.977 681.357L339.689 684.165C339.529 684.133 339.337 684.109 339.113 684.093C338.905 684.061 338.681 684.045 338.441 684.045C338.041 684.045 337.649 684.125 337.265 684.285C336.881 684.429 336.537 684.653 336.233 684.957C335.929 685.245 335.681 685.621 335.489 686.085C335.313 686.549 335.225 687.101 335.225 687.741V694.485H332.033V681.477H334.481L334.913 683.733H335.081C335.321 683.269 335.617 682.853 335.969 682.485C336.337 682.101 336.745 681.797 337.193 681.573C337.657 681.349 338.153 681.237 338.681 681.237ZM346.827 681.237C348.395 681.237 349.595 681.605 350.427 682.341C351.259 683.061 351.675 684.197 351.675 685.749V694.485H349.443L348.819 692.685H348.723C348.371 693.149 348.011 693.541 347.643 693.861C347.275 694.165 346.851 694.381 346.371 694.509C345.891 694.653 345.315 694.725 344.643 694.725C343.923 694.725 343.275 694.581 342.699 694.293C342.123 694.005 341.667 693.565 341.331 692.973C340.995 692.365 340.827 691.605 340.827 690.693C340.827 689.349 341.291 688.341 342.219 687.669C343.147 686.981 344.539 686.605 346.395 686.541L348.483 686.469V685.821C348.483 684.989 348.307 684.397 347.955 684.045C347.603 683.693 347.123 683.517 346.515 683.517C345.939 683.517 345.355 683.613 344.763 683.805C344.187 683.997 343.619 684.221 343.059 684.477L342.075 682.365C342.731 682.029 343.459 681.757 344.259 681.549C345.059 681.341 345.915 681.237 346.827 681.237ZM347.139 688.389C346.003 688.437 345.211 688.669 344.763 689.085C344.315 689.485 344.091 690.029 344.091 690.717C344.091 691.325 344.243 691.765 344.547 692.037C344.867 692.309 345.283 692.445 345.795 692.445C346.547 692.445 347.187 692.197 347.715 691.701C348.243 691.189 348.507 690.437 348.507 689.445V688.341L347.139 688.389ZM360.232 694.725C359.032 694.725 357.992 694.493 357.112 694.029C356.248 693.549 355.576 692.821 355.096 691.845C354.632 690.853 354.4 689.589 354.4 688.053C354.4 686.453 354.656 685.157 355.168 684.165C355.696 683.157 356.416 682.421 357.328 681.957C358.256 681.477 359.304 681.237 360.472 681.237C361.208 681.237 361.896 681.317 362.536 681.477C363.192 681.637 363.736 681.829 364.168 682.053L363.208 684.381C362.776 684.205 362.344 684.053 361.912 683.925C361.48 683.797 361.048 683.733 360.616 683.733C359.96 683.733 359.416 683.893 358.984 684.213C358.552 684.533 358.216 685.013 357.976 685.653C357.752 686.277 357.64 687.069 357.64 688.029C357.64 688.957 357.752 689.733 357.976 690.357C358.216 690.981 358.552 691.453 358.984 691.773C359.416 692.077 359.944 692.229 360.568 692.229C361.192 692.229 361.768 692.141 362.296 691.965C362.84 691.789 363.352 691.549 363.832 691.245V693.861C363.336 694.165 362.808 694.381 362.248 694.509C361.688 694.653 361.016 694.725 360.232 694.725ZM369.748 684.909C369.748 685.325 369.732 685.765 369.7 686.229C369.668 686.677 369.628 687.117 369.58 687.549H369.676C369.756 687.357 369.876 687.149 370.036 686.925C370.196 686.685 370.364 686.453 370.54 686.229C370.732 685.989 370.916 685.773 371.092 685.581L374.476 681.477H378.076L373.348 687.093L378.364 694.485H374.692L371.164 688.917L369.748 690.165V694.485H366.58V676.245H369.748V684.909Z" fill="white"/>
<path d="M130.02 722.04L132.6 716.775H134.04L130.695 723.33V727.485H129.36V723.39L126 716.775H127.455L130.02 722.04ZM141.139 723.45C141.139 724.12 141.054 724.715 140.884 725.235C140.724 725.745 140.489 726.18 140.179 726.54C139.869 726.9 139.494 727.175 139.054 727.365C138.614 727.545 138.124 727.635 137.584 727.635C137.084 727.635 136.619 727.545 136.189 727.365C135.769 727.175 135.399 726.9 135.079 726.54C134.769 726.18 134.529 725.745 134.359 725.235C134.189 724.715 134.104 724.12 134.104 723.45C134.104 722.56 134.244 721.81 134.524 721.2C134.814 720.58 135.224 720.11 135.754 719.79C136.284 719.46 136.909 719.295 137.629 719.295C138.319 719.295 138.924 719.46 139.444 719.79C139.974 720.11 140.389 720.58 140.689 721.2C140.989 721.81 141.139 722.56 141.139 723.45ZM135.454 723.45C135.454 724.08 135.529 724.63 135.679 725.1C135.829 725.56 136.064 725.915 136.384 726.165C136.704 726.415 137.114 726.54 137.614 726.54C138.114 726.54 138.524 726.415 138.844 726.165C139.164 725.915 139.399 725.56 139.549 725.1C139.709 724.63 139.789 724.08 139.789 723.45C139.789 722.81 139.709 722.265 139.549 721.815C139.399 721.365 139.164 721.02 138.844 720.78C138.524 720.53 138.109 720.405 137.599 720.405C136.849 720.405 136.304 720.675 135.964 721.215C135.624 721.755 135.454 722.5 135.454 723.45ZM149.454 719.445V727.485H148.404L148.209 726.42H148.149C147.989 726.7 147.779 726.93 147.519 727.11C147.269 727.29 146.994 727.42 146.694 727.5C146.394 727.59 146.079 727.635 145.749 727.635C145.149 727.635 144.644 727.535 144.234 727.335C143.824 727.125 143.514 726.805 143.304 726.375C143.104 725.945 143.004 725.39 143.004 724.71V719.445H144.324V724.62C144.324 725.26 144.459 725.74 144.729 726.06C144.999 726.38 145.414 726.54 145.974 726.54C146.524 726.54 146.954 726.43 147.264 726.21C147.584 725.98 147.809 725.65 147.939 725.22C148.079 724.78 148.149 724.25 148.149 723.63V719.445H149.454ZM155.409 719.295C155.549 719.295 155.699 719.305 155.859 719.325C156.019 719.335 156.159 719.355 156.279 719.385L156.129 720.6C156.009 720.57 155.874 720.545 155.724 720.525C155.584 720.505 155.449 720.495 155.319 720.495C155.029 720.495 154.754 720.56 154.494 720.69C154.234 720.82 153.999 721.005 153.789 721.245C153.589 721.475 153.429 721.755 153.309 722.085C153.189 722.415 153.129 722.785 153.129 723.195V727.485H151.824V719.445H152.889L153.039 720.915H153.099C153.259 720.615 153.449 720.345 153.669 720.105C153.899 719.855 154.159 719.66 154.449 719.52C154.739 719.37 155.059 719.295 155.409 719.295ZM160.49 731.085C160.25 731.085 160.04 731.065 159.86 731.025C159.67 730.995 159.51 730.955 159.38 730.905V729.84C159.52 729.88 159.665 729.915 159.815 729.945C159.965 729.975 160.13 729.99 160.31 729.99C160.62 729.99 160.87 729.9 161.06 729.72C161.26 729.55 161.36 729.22 161.36 728.73V719.445H162.665V728.685C162.665 729.185 162.59 729.615 162.44 729.975C162.29 730.335 162.055 730.61 161.735 730.8C161.415 730.99 161 731.085 160.49 731.085ZM161.255 717.27C161.255 716.98 161.33 716.77 161.48 716.64C161.63 716.5 161.81 716.43 162.02 716.43C162.22 716.43 162.395 716.5 162.545 716.64C162.695 716.77 162.77 716.98 162.77 717.27C162.77 717.55 162.695 717.76 162.545 717.9C162.395 718.04 162.22 718.11 162.02 718.11C161.81 718.11 161.63 718.04 161.48 717.9C161.33 717.76 161.255 717.55 161.255 717.27ZM171.652 723.45C171.652 724.12 171.567 724.715 171.397 725.235C171.237 725.745 171.002 726.18 170.692 726.54C170.382 726.9 170.007 727.175 169.567 727.365C169.127 727.545 168.637 727.635 168.097 727.635C167.597 727.635 167.132 727.545 166.702 727.365C166.282 727.175 165.912 726.9 165.592 726.54C165.282 726.18 165.042 725.745 164.872 725.235C164.702 724.715 164.617 724.12 164.617 723.45C164.617 722.56 164.757 721.81 165.037 721.2C165.327 720.58 165.737 720.11 166.267 719.79C166.797 719.46 167.422 719.295 168.142 719.295C168.832 719.295 169.437 719.46 169.957 719.79C170.487 720.11 170.902 720.58 171.202 721.2C171.502 721.81 171.652 722.56 171.652 723.45ZM165.967 723.45C165.967 724.08 166.042 724.63 166.192 725.1C166.342 725.56 166.577 725.915 166.897 726.165C167.217 726.415 167.627 726.54 168.127 726.54C168.627 726.54 169.037 726.415 169.357 726.165C169.677 725.915 169.912 725.56 170.062 725.1C170.222 724.63 170.302 724.08 170.302 723.45C170.302 722.81 170.222 722.265 170.062 721.815C169.912 721.365 169.677 721.02 169.357 720.78C169.037 720.53 168.622 720.405 168.112 720.405C167.362 720.405 166.817 720.675 166.477 721.215C166.137 721.755 165.967 722.5 165.967 723.45ZM179.966 719.445V727.485H178.916L178.721 726.42H178.661C178.501 726.7 178.291 726.93 178.031 727.11C177.781 727.29 177.506 727.42 177.206 727.5C176.906 727.59 176.591 727.635 176.261 727.635C175.661 727.635 175.156 727.535 174.746 727.335C174.336 727.125 174.026 726.805 173.816 726.375C173.616 725.945 173.516 725.39 173.516 724.71V719.445H174.836V724.62C174.836 725.26 174.971 725.74 175.241 726.06C175.511 726.38 175.926 726.54 176.486 726.54C177.036 726.54 177.466 726.43 177.776 726.21C178.096 725.98 178.321 725.65 178.451 725.22C178.591 724.78 178.661 724.25 178.661 723.63V719.445H179.966ZM185.921 719.295C186.061 719.295 186.211 719.305 186.371 719.325C186.531 719.335 186.671 719.355 186.791 719.385L186.641 720.6C186.521 720.57 186.386 720.545 186.236 720.525C186.096 720.505 185.961 720.495 185.831 720.495C185.541 720.495 185.266 720.56 185.006 720.69C184.746 720.82 184.511 721.005 184.301 721.245C184.101 721.475 183.941 721.755 183.821 722.085C183.701 722.415 183.641 722.785 183.641 723.195V727.485H182.336V719.445H183.401L183.551 720.915H183.611C183.771 720.615 183.961 720.345 184.181 720.105C184.411 719.855 184.671 719.66 184.961 719.52C185.251 719.37 185.571 719.295 185.921 719.295ZM191.886 719.295C192.786 719.295 193.466 719.53 193.926 720C194.396 720.46 194.631 721.21 194.631 722.25V727.485H193.326V722.34C193.326 721.69 193.191 721.205 192.921 720.885C192.651 720.565 192.236 720.405 191.676 720.405C190.856 720.405 190.286 720.655 189.966 721.155C189.656 721.655 189.501 722.375 189.501 723.315V727.485H188.196V719.445H189.246L189.441 720.54H189.516C189.676 720.26 189.881 720.03 190.131 719.85C190.381 719.66 190.656 719.52 190.956 719.43C191.256 719.34 191.566 719.295 191.886 719.295ZM199.896 719.295C200.546 719.295 201.106 719.445 201.576 719.745C202.046 720.045 202.406 720.47 202.656 721.02C202.916 721.56 203.046 722.195 203.046 722.925V723.72H197.886C197.906 724.63 198.121 725.325 198.531 725.805C198.941 726.275 199.516 726.51 200.256 726.51C200.736 726.51 201.161 726.465 201.531 726.375C201.911 726.275 202.301 726.135 202.701 725.955V727.11C202.311 727.29 201.926 727.42 201.546 727.5C201.176 727.59 200.726 727.635 200.196 727.635C199.476 727.635 198.841 727.48 198.291 727.17C197.741 726.86 197.311 726.4 197.001 725.79C196.691 725.17 196.536 724.415 196.536 723.525C196.536 722.645 196.676 721.89 196.956 721.26C197.236 720.63 197.626 720.145 198.126 719.805C198.636 719.465 199.226 719.295 199.896 719.295ZM199.896 720.375C199.316 720.375 198.856 720.58 198.516 720.99C198.176 721.39 197.976 721.95 197.916 722.67H201.696C201.696 722.21 201.631 721.81 201.501 721.47C201.371 721.13 201.171 720.865 200.901 720.675C200.641 720.475 200.306 720.375 199.896 720.375ZM203.491 719.445H204.901L206.506 724.02C206.606 724.29 206.696 724.55 206.776 724.8C206.856 725.05 206.926 725.295 206.986 725.535C207.046 725.765 207.091 725.99 207.121 726.21H207.166C207.226 725.96 207.311 725.635 207.421 725.235C207.541 724.825 207.666 724.415 207.796 724.005L209.311 719.445H210.736L207.481 728.595C207.301 729.095 207.086 729.53 206.836 729.9C206.596 730.28 206.301 730.57 205.951 730.77C205.601 730.98 205.181 731.085 204.691 731.085C204.471 731.085 204.271 731.07 204.091 731.04C203.921 731.02 203.776 730.995 203.656 730.965V729.915C203.756 729.935 203.881 729.955 204.031 729.975C204.181 729.995 204.336 730.005 204.496 730.005C204.786 730.005 205.036 729.945 205.246 729.825C205.456 729.715 205.636 729.55 205.786 729.33C205.936 729.12 206.061 728.87 206.161 728.58L206.536 727.515L203.491 719.445ZM218.183 726.555C218.373 726.555 218.568 726.54 218.768 726.51C218.968 726.47 219.133 726.43 219.263 726.39V727.395C219.123 727.465 218.923 727.52 218.663 727.56C218.413 727.61 218.173 727.635 217.943 727.635C217.543 727.635 217.173 727.565 216.833 727.425C216.493 727.275 216.218 727.02 216.008 726.66C215.808 726.3 215.708 725.795 215.708 725.145V720.465H214.643V719.835L215.738 719.31L216.233 717.6H217.013V719.445H219.203V720.465H217.013V725.115C217.013 725.605 217.123 725.97 217.343 726.21C217.563 726.44 217.843 726.555 218.183 726.555ZM227.374 723.45C227.374 724.12 227.289 724.715 227.119 725.235C226.959 725.745 226.724 726.18 226.414 726.54C226.104 726.9 225.729 727.175 225.289 727.365C224.849 727.545 224.359 727.635 223.819 727.635C223.319 727.635 222.854 727.545 222.424 727.365C222.004 727.175 221.634 726.9 221.314 726.54C221.004 726.18 220.764 725.745 220.594 725.235C220.424 724.715 220.339 724.12 220.339 723.45C220.339 722.56 220.479 721.81 220.759 721.2C221.049 720.58 221.459 720.11 221.989 719.79C222.519 719.46 223.144 719.295 223.864 719.295C224.554 719.295 225.159 719.46 225.679 719.79C226.209 720.11 226.624 720.58 226.924 721.2C227.224 721.81 227.374 722.56 227.374 723.45ZM221.689 723.45C221.689 724.08 221.764 724.63 221.914 725.1C222.064 725.56 222.299 725.915 222.619 726.165C222.939 726.415 223.349 726.54 223.849 726.54C224.349 726.54 224.759 726.415 225.079 726.165C225.399 725.915 225.634 725.56 225.784 725.1C225.944 724.63 226.024 724.08 226.024 723.45C226.024 722.81 225.944 722.265 225.784 721.815C225.634 721.365 225.399 721.02 225.079 720.78C224.759 720.53 224.344 720.405 223.834 720.405C223.084 720.405 222.539 720.675 222.199 721.215C221.859 721.755 221.689 722.5 221.689 723.45ZM235.871 719.31C236.791 719.31 237.476 719.525 237.926 719.955C238.386 720.385 238.616 721.07 238.616 722.01V727.485H237.671L237.416 726.345H237.356C237.136 726.635 236.911 726.88 236.681 727.08C236.461 727.27 236.201 727.41 235.901 727.5C235.611 727.59 235.251 727.635 234.821 727.635C234.371 727.635 233.966 727.55 233.606 727.38C233.246 727.21 232.961 726.95 232.751 726.6C232.541 726.24 232.436 725.79 232.436 725.25C232.436 724.45 232.731 723.835 233.321 723.405C233.911 722.965 234.821 722.725 236.051 722.685L237.326 722.64V722.16C237.326 721.49 237.191 721.025 236.921 720.765C236.661 720.505 236.286 720.375 235.796 720.375C235.406 720.375 235.031 720.44 234.671 720.57C234.321 720.69 233.986 720.83 233.666 720.99L233.261 720C233.601 719.81 233.996 719.65 234.446 719.52C234.896 719.38 235.371 719.31 235.871 719.31ZM236.231 723.6C235.311 723.64 234.671 723.8 234.311 724.08C233.961 724.36 233.786 724.755 233.786 725.265C233.786 725.715 233.911 726.045 234.161 726.255C234.411 726.465 234.736 726.57 235.136 726.57C235.756 726.57 236.276 726.385 236.696 726.015C237.116 725.635 237.326 725.055 237.326 724.275V723.555L236.231 723.6ZM245.912 719.43C245.912 719.62 245.902 719.815 245.882 720.015C245.872 720.215 245.857 720.395 245.837 720.555H245.927C246.087 720.275 246.287 720.045 246.527 719.865C246.777 719.685 247.047 719.55 247.337 719.46C247.637 719.36 247.947 719.31 248.267 719.31C248.877 719.31 249.387 719.415 249.797 719.625C250.207 719.825 250.517 720.14 250.727 720.57C250.937 721 251.042 721.56 251.042 722.25V727.485H249.737V722.34C249.737 721.69 249.602 721.205 249.332 720.885C249.062 720.565 248.647 720.405 248.087 720.405C247.537 720.405 247.102 720.52 246.782 720.75C246.462 720.97 246.237 721.3 246.107 721.74C245.977 722.17 245.912 722.7 245.912 723.33V727.485H244.607V716.085H245.912V719.43ZM256.307 719.295C256.957 719.295 257.517 719.445 257.987 719.745C258.457 720.045 258.817 720.47 259.067 721.02C259.327 721.56 259.457 722.195 259.457 722.925V723.72H254.297C254.317 724.63 254.532 725.325 254.942 725.805C255.352 726.275 255.927 726.51 256.667 726.51C257.147 726.51 257.572 726.465 257.942 726.375C258.322 726.275 258.712 726.135 259.112 725.955V727.11C258.722 727.29 258.337 727.42 257.957 727.5C257.587 727.59 257.137 727.635 256.607 727.635C255.887 727.635 255.252 727.48 254.702 727.17C254.152 726.86 253.722 726.4 253.412 725.79C253.102 725.17 252.947 724.415 252.947 723.525C252.947 722.645 253.087 721.89 253.367 721.26C253.647 720.63 254.037 720.145 254.537 719.805C255.047 719.465 255.637 719.295 256.307 719.295ZM256.307 720.375C255.727 720.375 255.267 720.58 254.927 720.99C254.587 721.39 254.387 721.95 254.327 722.67H258.107C258.107 722.21 258.042 721.81 257.912 721.47C257.782 721.13 257.582 720.865 257.312 720.675C257.052 720.475 256.717 720.375 256.307 720.375ZM264.245 719.31C265.165 719.31 265.85 719.525 266.3 719.955C266.76 720.385 266.99 721.07 266.99 722.01V727.485H266.045L265.79 726.345H265.73C265.51 726.635 265.285 726.88 265.055 727.08C264.835 727.27 264.575 727.41 264.275 727.5C263.985 727.59 263.625 727.635 263.195 727.635C262.745 727.635 262.34 727.55 261.98 727.38C261.62 727.21 261.335 726.95 261.125 726.6C260.915 726.24 260.81 725.79 260.81 725.25C260.81 724.45 261.105 723.835 261.695 723.405C262.285 722.965 263.195 722.725 264.425 722.685L265.7 722.64V722.16C265.7 721.49 265.565 721.025 265.295 720.765C265.035 720.505 264.66 720.375 264.17 720.375C263.78 720.375 263.405 720.44 263.045 720.57C262.695 720.69 262.36 720.83 262.04 720.99L261.635 720C261.975 719.81 262.37 719.65 262.82 719.52C263.27 719.38 263.745 719.31 264.245 719.31ZM264.605 723.6C263.685 723.64 263.045 723.8 262.685 724.08C262.335 724.36 262.16 724.755 262.16 725.265C262.16 725.715 262.285 726.045 262.535 726.255C262.785 726.465 263.11 726.57 263.51 726.57C264.13 726.57 264.65 726.385 265.07 726.015C265.49 725.635 265.7 725.055 265.7 724.275V723.555L264.605 723.6ZM270.624 727.485H269.319V716.085H270.624V727.485ZM275.591 726.555C275.781 726.555 275.976 726.54 276.176 726.51C276.376 726.47 276.541 726.43 276.671 726.39V727.395C276.531 727.465 276.331 727.52 276.071 727.56C275.821 727.61 275.581 727.635 275.351 727.635C274.951 727.635 274.581 727.565 274.241 727.425C273.901 727.275 273.626 727.02 273.416 726.66C273.216 726.3 273.116 725.795 273.116 725.145V720.465H272.051V719.835L273.146 719.31L273.641 717.6H274.421V719.445H276.611V720.465H274.421V725.115C274.421 725.605 274.531 725.97 274.751 726.21C274.971 726.44 275.251 726.555 275.591 726.555ZM279.471 719.43C279.471 719.62 279.461 719.815 279.441 720.015C279.431 720.215 279.416 720.395 279.396 720.555H279.486C279.646 720.275 279.846 720.045 280.086 719.865C280.336 719.685 280.606 719.55 280.896 719.46C281.196 719.36 281.506 719.31 281.826 719.31C282.436 719.31 282.946 719.415 283.356 719.625C283.766 719.825 284.076 720.14 284.286 720.57C284.496 721 284.601 721.56 284.601 722.25V727.485H283.296V722.34C283.296 721.69 283.161 721.205 282.891 720.885C282.621 720.565 282.206 720.405 281.646 720.405C281.096 720.405 280.661 720.52 280.341 720.75C280.021 720.97 279.796 721.3 279.666 721.74C279.536 722.17 279.471 722.7 279.471 723.33V727.485H278.166V716.085H279.471V719.43ZM288.246 719.445V727.485H286.941V719.445H288.246ZM287.601 716.43C287.801 716.43 287.976 716.5 288.126 716.64C288.276 716.77 288.351 716.98 288.351 717.27C288.351 717.55 288.276 717.76 288.126 717.9C287.976 718.04 287.801 718.11 287.601 718.11C287.391 718.11 287.211 718.04 287.061 717.9C286.911 717.76 286.836 717.55 286.836 717.27C286.836 716.98 286.911 716.77 287.061 716.64C287.211 716.5 287.391 716.43 287.601 716.43ZM293.558 719.295C294.208 719.295 294.768 719.445 295.238 719.745C295.708 720.045 296.068 720.47 296.318 721.02C296.578 721.56 296.708 722.195 296.708 722.925V723.72H291.548C291.568 724.63 291.783 725.325 292.193 725.805C292.603 726.275 293.178 726.51 293.918 726.51C294.398 726.51 294.823 726.465 295.193 726.375C295.573 726.275 295.963 726.135 296.363 725.955V727.11C295.973 727.29 295.588 727.42 295.208 727.5C294.838 727.59 294.388 727.635 293.858 727.635C293.138 727.635 292.503 727.48 291.953 727.17C291.403 726.86 290.973 726.4 290.663 725.79C290.353 725.17 290.198 724.415 290.198 723.525C290.198 722.645 290.338 721.89 290.618 721.26C290.898 720.63 291.288 720.145 291.788 719.805C292.298 719.465 292.888 719.295 293.558 719.295ZM293.558 720.375C292.978 720.375 292.518 720.58 292.178 720.99C291.838 721.39 291.638 721.95 291.578 722.67H295.358C295.358 722.21 295.293 721.81 295.163 721.47C295.033 721.13 294.833 720.865 294.563 720.675C294.303 720.475 293.968 720.375 293.558 720.375ZM302.186 719.295C302.326 719.295 302.476 719.305 302.636 719.325C302.796 719.335 302.936 719.355 303.056 719.385L302.906 720.6C302.786 720.57 302.651 720.545 302.501 720.525C302.361 720.505 302.226 720.495 302.096 720.495C301.806 720.495 301.531 720.56 301.271 720.69C301.011 720.82 300.776 721.005 300.566 721.245C300.366 721.475 300.206 721.755 300.086 722.085C299.966 722.415 299.906 722.785 299.906 723.195V727.485H298.601V719.445H299.666L299.816 720.915H299.876C300.036 720.615 300.226 720.345 300.446 720.105C300.676 719.855 300.936 719.66 301.226 719.52C301.516 719.37 301.836 719.295 302.186 719.295ZM309.428 727.485H308.123V716.085H309.428V727.485ZM313.119 719.445V727.485H311.814V719.445H313.119ZM312.474 716.43C312.674 716.43 312.849 716.5 312.999 716.64C313.149 716.77 313.224 716.98 313.224 717.27C313.224 717.55 313.149 717.76 312.999 717.9C312.849 718.04 312.674 718.11 312.474 718.11C312.264 718.11 312.084 718.04 311.934 717.9C311.784 717.76 311.709 717.55 311.709 717.27C311.709 716.98 311.784 716.77 311.934 716.64C312.084 716.5 312.264 716.43 312.474 716.43ZM319.031 720.465H317.141V727.485H315.821V720.465H314.516V719.85L315.821 719.4V718.935C315.821 718.245 315.916 717.685 316.106 717.255C316.306 716.825 316.591 716.51 316.961 716.31C317.331 716.11 317.776 716.01 318.296 716.01C318.606 716.01 318.886 716.04 319.136 716.1C319.396 716.15 319.621 716.21 319.811 716.28L319.466 717.315C319.306 717.265 319.126 717.215 318.926 717.165C318.736 717.115 318.536 717.09 318.326 717.09C317.926 717.09 317.626 717.24 317.426 717.54C317.236 717.83 317.141 718.29 317.141 718.92V719.445H319.031V720.465ZM323.323 719.295C323.973 719.295 324.533 719.445 325.003 719.745C325.473 720.045 325.833 720.47 326.083 721.02C326.343 721.56 326.473 722.195 326.473 722.925V723.72H321.313C321.333 724.63 321.548 725.325 321.958 725.805C322.368 726.275 322.943 726.51 323.683 726.51C324.163 726.51 324.588 726.465 324.958 726.375C325.338 726.275 325.728 726.135 326.128 725.955V727.11C325.738 727.29 325.353 727.42 324.973 727.5C324.603 727.59 324.153 727.635 323.623 727.635C322.903 727.635 322.268 727.48 321.718 727.17C321.168 726.86 320.738 726.4 320.428 725.79C320.118 725.17 319.963 724.415 319.963 723.525C319.963 722.645 320.103 721.89 320.383 721.26C320.663 720.63 321.053 720.145 321.553 719.805C322.063 719.465 322.653 719.295 323.323 719.295ZM323.323 720.375C322.743 720.375 322.283 720.58 321.943 720.99C321.603 721.39 321.403 721.95 321.343 722.67H325.123C325.123 722.21 325.058 721.81 324.928 721.47C324.798 721.13 324.598 720.865 324.328 720.675C324.068 720.475 323.733 720.375 323.323 720.375ZM336.994 725.265C336.994 725.785 336.869 726.22 336.619 726.57C336.379 726.92 336.034 727.185 335.584 727.365C335.134 727.545 334.594 727.635 333.964 727.635C333.434 727.635 332.974 727.59 332.584 727.5C332.204 727.41 331.869 727.285 331.579 727.125V725.925C331.889 726.085 332.259 726.235 332.689 726.375C333.119 726.505 333.554 726.57 333.994 726.57C334.604 726.57 335.044 726.465 335.314 726.255C335.594 726.035 335.734 725.745 335.734 725.385C335.734 725.185 335.679 725.005 335.569 724.845C335.469 724.685 335.284 724.525 335.014 724.365C334.754 724.205 334.374 724.025 333.874 723.825C333.394 723.625 332.979 723.425 332.629 723.225C332.289 723.025 332.024 722.785 331.834 722.505C331.654 722.225 331.564 721.865 331.564 721.425C331.564 720.745 331.824 720.22 332.344 719.85C332.874 719.48 333.564 719.295 334.414 719.295C334.874 719.295 335.304 719.345 335.704 719.445C336.104 719.535 336.484 719.665 336.844 719.835L336.409 720.885C336.199 720.785 335.979 720.7 335.749 720.63C335.519 720.55 335.284 720.49 335.044 720.45C334.814 720.4 334.579 720.375 334.339 720.375C333.849 720.375 333.474 720.465 333.214 720.645C332.954 720.815 332.824 721.05 332.824 721.35C332.824 721.57 332.884 721.76 333.004 721.92C333.124 722.08 333.319 722.235 333.589 722.385C333.869 722.525 334.249 722.69 334.729 722.88C335.209 723.07 335.619 723.265 335.959 723.465C336.299 723.665 336.554 723.91 336.724 724.2C336.904 724.48 336.994 724.835 336.994 725.265ZM341.406 726.555C341.596 726.555 341.791 726.54 341.991 726.51C342.191 726.47 342.356 726.43 342.486 726.39V727.395C342.346 727.465 342.146 727.52 341.886 727.56C341.636 727.61 341.396 727.635 341.166 727.635C340.766 727.635 340.396 727.565 340.056 727.425C339.716 727.275 339.441 727.02 339.231 726.66C339.031 726.3 338.931 725.795 338.931 725.145V720.465H337.866V719.835L338.961 719.31L339.456 717.6H340.236V719.445H342.426V720.465H340.236V725.115C340.236 725.605 340.346 725.97 340.566 726.21C340.786 726.44 341.066 726.555 341.406 726.555ZM346.877 719.31C347.797 719.31 348.482 719.525 348.932 719.955C349.392 720.385 349.622 721.07 349.622 722.01V727.485H348.677L348.422 726.345H348.362C348.142 726.635 347.917 726.88 347.687 727.08C347.467 727.27 347.207 727.41 346.907 727.5C346.617 727.59 346.257 727.635 345.827 727.635C345.377 727.635 344.972 727.55 344.612 727.38C344.252 727.21 343.967 726.95 343.757 726.6C343.547 726.24 343.442 725.79 343.442 725.25C343.442 724.45 343.737 723.835 344.327 723.405C344.917 722.965 345.827 722.725 347.057 722.685L348.332 722.64V722.16C348.332 721.49 348.197 721.025 347.927 720.765C347.667 720.505 347.292 720.375 346.802 720.375C346.412 720.375 346.037 720.44 345.677 720.57C345.327 720.69 344.992 720.83 344.672 720.99L344.267 720C344.607 719.81 345.002 719.65 345.452 719.52C345.902 719.38 346.377 719.31 346.877 719.31ZM347.237 723.6C346.317 723.64 345.677 723.8 345.317 724.08C344.967 724.36 344.792 724.755 344.792 725.265C344.792 725.715 344.917 726.045 345.167 726.255C345.417 726.465 345.742 726.57 346.142 726.57C346.762 726.57 347.282 726.385 347.702 726.015C348.122 725.635 348.332 725.055 348.332 724.275V723.555L347.237 723.6ZM355.536 719.295C355.676 719.295 355.826 719.305 355.986 719.325C356.146 719.335 356.286 719.355 356.406 719.385L356.256 720.6C356.136 720.57 356.001 720.545 355.851 720.525C355.711 720.505 355.576 720.495 355.446 720.495C355.156 720.495 354.881 720.56 354.621 720.69C354.361 720.82 354.126 721.005 353.916 721.245C353.716 721.475 353.556 721.755 353.436 722.085C353.316 722.415 353.256 722.785 353.256 723.195V727.485H351.951V719.445H353.016L353.166 720.915H353.226C353.386 720.615 353.576 720.345 353.796 720.105C354.026 719.855 354.286 719.66 354.576 719.52C354.866 719.37 355.186 719.295 355.536 719.295ZM360.405 726.555C360.595 726.555 360.79 726.54 360.99 726.51C361.19 726.47 361.355 726.43 361.485 726.39V727.395C361.345 727.465 361.145 727.52 360.885 727.56C360.635 727.61 360.395 727.635 360.165 727.635C359.765 727.635 359.395 727.565 359.055 727.425C358.715 727.275 358.44 727.02 358.23 726.66C358.03 726.3 357.93 725.795 357.93 725.145V720.465H356.865V719.835L357.96 719.31L358.455 717.6H359.235V719.445H361.425V720.465H359.235V725.115C359.235 725.605 359.345 725.97 359.565 726.21C359.785 726.44 360.065 726.555 360.405 726.555ZM367.946 725.265C367.946 725.785 367.821 726.22 367.571 726.57C367.331 726.92 366.986 727.185 366.536 727.365C366.086 727.545 365.546 727.635 364.916 727.635C364.386 727.635 363.926 727.59 363.536 727.5C363.156 727.41 362.821 727.285 362.531 727.125V725.925C362.841 726.085 363.211 726.235 363.641 726.375C364.071 726.505 364.506 726.57 364.946 726.57C365.556 726.57 365.996 726.465 366.266 726.255C366.546 726.035 366.686 725.745 366.686 725.385C366.686 725.185 366.631 725.005 366.521 724.845C366.421 724.685 366.236 724.525 365.966 724.365C365.706 724.205 365.326 724.025 364.826 723.825C364.346 723.625 363.931 723.425 363.581 723.225C363.241 723.025 362.976 722.785 362.786 722.505C362.606 722.225 362.516 721.865 362.516 721.425C362.516 720.745 362.776 720.22 363.296 719.85C363.826 719.48 364.516 719.295 365.366 719.295C365.826 719.295 366.256 719.345 366.656 719.445C367.056 719.535 367.436 719.665 367.796 719.835L367.361 720.885C367.151 720.785 366.931 720.7 366.701 720.63C366.471 720.55 366.236 720.49 365.996 720.45C365.766 720.4 365.531 720.375 365.291 720.375C364.801 720.375 364.426 720.465 364.166 720.645C363.906 720.815 363.776 721.05 363.776 721.35C363.776 721.57 363.836 721.76 363.956 721.92C364.076 722.08 364.271 722.235 364.541 722.385C364.821 722.525 365.201 722.69 365.681 722.88C366.161 723.07 366.571 723.265 366.911 723.465C367.251 723.665 367.506 723.91 367.676 724.2C367.856 724.48 367.946 724.835 367.946 725.265ZM374.73 719.43C374.73 719.62 374.72 719.815 374.7 720.015C374.69 720.215 374.675 720.395 374.655 720.555H374.745C374.905 720.275 375.105 720.045 375.345 719.865C375.595 719.685 375.865 719.55 376.155 719.46C376.455 719.36 376.765 719.31 377.085 719.31C377.695 719.31 378.205 719.415 378.615 719.625C379.025 719.825 379.335 720.14 379.545 720.57C379.755 721 379.86 721.56 379.86 722.25V727.485H378.555V722.34C378.555 721.69 378.42 721.205 378.15 720.885C377.88 720.565 377.465 720.405 376.905 720.405C376.355 720.405 375.92 720.52 375.6 720.75C375.28 720.97 375.055 721.3 374.925 721.74C374.795 722.17 374.73 722.7 374.73 723.33V727.485H373.425V716.085H374.73V719.43ZM385.125 719.295C385.775 719.295 386.335 719.445 386.805 719.745C387.275 720.045 387.635 720.47 387.885 721.02C388.145 721.56 388.275 722.195 388.275 722.925V723.72H383.115C383.135 724.63 383.35 725.325 383.76 725.805C384.17 726.275 384.745 726.51 385.485 726.51C385.965 726.51 386.39 726.465 386.76 726.375C387.14 726.275 387.53 726.135 387.93 725.955V727.11C387.54 727.29 387.155 727.42 386.775 727.5C386.405 727.59 385.955 727.635 385.425 727.635C384.705 727.635 384.07 727.48 383.52 727.17C382.97 726.86 382.54 726.4 382.23 725.79C381.92 725.17 381.765 724.415 381.765 723.525C381.765 722.645 381.905 721.89 382.185 721.26C382.465 720.63 382.855 720.145 383.355 719.805C383.865 719.465 384.455 719.295 385.125 719.295ZM385.125 720.375C384.545 720.375 384.085 720.58 383.745 720.99C383.405 721.39 383.205 721.95 383.145 722.67H386.925C386.925 722.21 386.86 721.81 386.73 721.47C386.6 721.13 386.4 720.865 386.13 720.675C385.87 720.475 385.535 720.375 385.125 720.375ZM393.753 719.295C393.893 719.295 394.043 719.305 394.203 719.325C394.363 719.335 394.503 719.355 394.623 719.385L394.473 720.6C394.353 720.57 394.218 720.545 394.068 720.525C393.928 720.505 393.793 720.495 393.663 720.495C393.373 720.495 393.098 720.56 392.838 720.69C392.578 720.82 392.343 721.005 392.133 721.245C391.933 721.475 391.773 721.755 391.653 722.085C391.533 722.415 391.473 722.785 391.473 723.195V727.485H390.168V719.445H391.233L391.383 720.915H391.443C391.603 720.615 391.793 720.345 392.013 720.105C392.243 719.855 392.503 719.66 392.793 719.52C393.083 719.37 393.403 719.295 393.753 719.295ZM398.689 719.295C399.339 719.295 399.899 719.445 400.369 719.745C400.839 720.045 401.199 720.47 401.449 721.02C401.709 721.56 401.839 722.195 401.839 722.925V723.72H396.679C396.699 724.63 396.914 725.325 397.324 725.805C397.734 726.275 398.309 726.51 399.049 726.51C399.529 726.51 399.954 726.465 400.324 726.375C400.704 726.275 401.094 726.135 401.494 725.955V727.11C401.104 727.29 400.719 727.42 400.339 727.5C399.969 727.59 399.519 727.635 398.989 727.635C398.269 727.635 397.634 727.48 397.084 727.17C396.534 726.86 396.104 726.4 395.794 725.79C395.484 725.17 395.329 724.415 395.329 723.525C395.329 722.645 395.469 721.89 395.749 721.26C396.029 720.63 396.419 720.145 396.919 719.805C397.429 719.465 398.019 719.295 398.689 719.295ZM398.689 720.375C398.109 720.375 397.649 720.58 397.309 720.99C396.969 721.39 396.769 721.95 396.709 722.67H400.489C400.489 722.21 400.424 721.81 400.294 721.47C400.164 721.13 399.964 720.865 399.694 720.675C399.434 720.475 399.099 720.375 398.689 720.375ZM403.553 726.675C403.553 726.305 403.638 726.045 403.808 725.895C403.978 725.745 404.188 725.67 404.438 725.67C404.688 725.67 404.903 725.745 405.083 725.895C405.263 726.045 405.353 726.305 405.353 726.675C405.353 727.035 405.263 727.295 405.083 727.455C404.903 727.615 404.688 727.695 404.438 727.695C404.188 727.695 403.978 727.615 403.808 727.455C403.638 727.295 403.553 727.035 403.553 726.675Z" fill="white"/>
<path d="M433.311 566.237H403.768V566.46H433.311V566.237Z" fill="#EBEBEB"/>
<path d="M327.448 568.661H319.697V568.884H327.448V568.661Z" fill="#EBEBEB"/>
<path d="M402.875 557.964H385.758V558.187H402.875V557.964Z" fill="#EBEBEB"/>
<path d="M117.319 559.462H78.7939V559.685H117.319V559.462Z" fill="#EBEBEB"/>
<path d="M130.914 559.462H125.267V559.685H130.914V559.462Z" fill="#EBEBEB"/>
<path d="M232.834 563.224H149.271V563.447H232.834V563.224Z" fill="#EBEBEB"/>
<path d="M243.413 512.137H71.1763C68.3665 512.137 66.083 509.855 66.083 507.047V265.09C66.083 262.282 68.3665 260 71.1763 260H243.422C246.231 260 248.515 262.282 248.515 265.09V507.047C248.515 509.855 246.231 512.137 243.422 512.137H243.413ZM71.1763 260.223C68.4914 260.223 66.306 262.407 66.306 265.09V507.047C66.306 509.73 68.4914 511.914 71.1763 511.914H243.422C246.106 511.914 248.292 509.73 248.292 507.047V265.09C248.292 262.407 246.106 260.223 243.422 260.223H71.1763Z" fill="#EBEBEB"/>
<path d="M436.352 512.137H264.107C261.297 512.137 259.014 509.855 259.014 507.047V265.09C259.014 262.282 261.297 260 264.107 260H436.352C439.162 260 441.446 262.282 441.446 265.09V507.047C441.446 509.855 439.162 512.137 436.352 512.137ZM264.107 260.223C261.422 260.223 259.237 262.407 259.237 265.09V507.047C259.237 509.73 261.422 511.914 264.107 511.914H436.352C439.037 511.914 441.223 509.73 441.223 507.047V265.09C441.223 262.407 439.037 260.223 436.352 260.223H264.107Z" fill="#EBEBEB"/>
<path d="M478 551.894H32V552.117H478V551.894Z" fill="#EBEBEB"/>
<path d="M400.262 471.987C390.138 479.787 387.212 496.867 386.704 508.901C386.659 509.997 384.946 510.006 384.991 508.901C385.526 496.154 388.434 478.958 399.397 470.508C400.271 469.839 401.118 471.319 400.262 471.987Z" fill="#F5F5F5"/>
<path d="M376.758 463.252C379.336 462.958 381.512 465.587 382.636 467.53C388.461 477.595 386.204 492.775 385.107 503.57C385 504.658 383.278 504.667 383.394 503.57C384.465 493.061 386.418 479.377 381.673 469.385C380.861 467.673 379.113 464.687 376.767 464.954C375.67 465.079 375.679 463.368 376.767 463.243L376.758 463.252Z" fill="#E6E6E6"/>
<path d="M370.487 477.078C381.316 474.403 382.672 498.4 382.993 503.579C383.065 504.676 381.352 504.676 381.281 503.579C380.844 496.582 380.505 486.544 375.438 480.928C374.412 479.796 372.637 478.317 370.951 478.727C369.881 478.994 369.426 477.345 370.496 477.078H370.487Z" fill="#E6E6E6"/>
<path d="M402.582 488.719C393.626 482.096 390.718 499.506 390.218 504.524C390.111 505.612 388.399 505.621 388.506 504.524C389.068 498.828 389.933 488.514 396.516 486.116C398.773 485.296 401.52 485.813 403.447 487.24C404.321 487.89 403.474 489.37 402.582 488.719Z" fill="#E6E6E6"/>
<path d="M366.973 491.857C368.32 490.502 370.381 489.593 372.298 489.914C377.757 490.832 379.274 499.069 380.103 503.339C380.309 504.417 378.658 504.872 378.453 503.793C377.74 500.103 374.296 486.883 368.177 493.06C367.401 493.845 366.188 492.633 366.964 491.848L366.973 491.857Z" fill="#F5F5F5"/>
<path d="M399.219 547.98H373.324C368.784 544.121 365.885 538.389 365.885 531.962C365.885 524.625 370.015 502.598 370.015 502.598H402.528C402.528 502.598 406.658 524.616 406.658 531.962C406.658 538.389 403.768 544.121 399.219 547.98Z" fill="#EBEBEB"/>
<path d="M403.34 497.161C395.526 497.161 387.89 493.997 386.267 490.092C384.643 486.188 389.665 483.023 397.479 483.023C400.057 483.023 402.617 483.371 404.945 483.977C406.774 483.371 409.04 483.023 411.617 483.023C419.431 483.023 427.067 486.188 428.69 490.092C430.305 493.997 425.292 497.161 417.478 497.161H403.34Z" fill="#F5F5F5"/>
<path d="M352.38 482.033C345.993 482.033 343.406 479.448 346.6 476.257C349.793 473.066 357.562 470.481 363.949 470.481C366.054 470.481 367.74 470.766 368.953 471.256C371.147 470.766 373.404 470.481 375.518 470.481C381.905 470.481 384.492 473.066 381.298 476.257C378.105 479.448 370.336 482.033 363.949 482.033H352.38Z" fill="#F0F0F0"/>
<path d="M411.136 476.257C403.099 476.257 393.323 473.004 389.309 468.983C385.286 464.963 388.55 461.709 396.587 461.709C399.245 461.709 402.082 462.066 404.847 462.69C406.373 462.066 408.487 461.709 411.145 461.709C419.182 461.709 428.958 464.963 432.972 468.983C436.986 473.004 433.73 476.257 425.693 476.257H411.136Z" fill="#EBEBEB"/>
<path d="M366.447 466.862C362.424 466.862 359.846 465.23 360.676 463.225C361.505 461.219 365.439 459.588 369.462 459.588C370.791 459.588 371.951 459.766 372.896 460.078C374.1 459.766 375.412 459.588 376.741 459.588C380.764 459.588 383.341 461.219 382.512 463.225C381.682 465.23 377.749 466.862 373.726 466.862H366.447Z" fill="#F0F0F0"/>
<path d="M361.817 495.957C357.794 495.957 353.869 494.326 353.031 492.32C352.201 490.315 354.779 488.683 358.802 488.683C360.131 488.683 361.443 488.862 362.647 489.174C363.592 488.862 364.752 488.683 366.081 488.683C370.104 488.683 374.029 490.315 374.867 492.32C375.697 494.326 373.119 495.957 369.096 495.957H361.817Z" fill="#EBEBEB"/>
<path d="M369.274 506.681C369.711 504.203 370.014 502.608 370.014 502.608H402.528C402.528 502.608 402.831 504.212 403.268 506.681H369.283H369.274Z" fill="#F5F5F5"/>
<path d="M367.856 472.656C367.856 472.656 358.936 475.624 356.108 480.527C356.108 480.527 356.554 473.396 367.856 472.656Z" fill="#FAFAFA"/>
<path d="M372.057 460.996C372.057 460.996 369.738 462.289 368.319 464.223C368.319 464.223 369.024 461.415 372.057 460.996Z" fill="#FAFAFA"/>
<path d="M406.649 464.223C406.649 464.223 416.318 467.753 422.259 474.439C422.259 474.439 417.647 465.141 406.649 464.223Z" fill="#FAFAFA"/>
<path d="M406.649 485.733C406.649 485.733 412.447 487.819 416.764 493.613C416.764 493.613 414.98 486.918 406.649 485.733Z" fill="#E6E6E6"/>
<path d="M362.798 490.636C362.798 490.636 365.028 491.608 365.323 494.505C365.323 494.505 363.244 492.713 362.798 490.636Z" fill="#FAFAFA"/>
<path d="M424.98 364.42V360.302H306.968V364.42H424.98Z" fill="#F5F5F5"/>
<path d="M338.411 364.42H318.671V373.664H328.545C328.545 371.329 330.445 369.43 332.782 369.43H338.42V364.42H338.411Z" fill="#E0E0E0"/>
<path d="M329.491 364.42H315.103V373.664H319.625C319.625 371.329 321.525 369.43 323.862 369.43H329.5V364.42H329.491Z" fill="#F5F5F5"/>
<path d="M393.519 364.42H413.259V373.664H403.384C403.384 371.329 401.484 369.43 399.147 369.43H393.51V364.42H393.519Z" fill="#EBEBEB"/>
<path d="M402.439 364.42H416.827V373.664H412.305C412.305 371.329 410.405 369.43 408.068 369.43H402.43V364.42H402.439Z" fill="#F5F5F5"/>
<path d="M380.085 360.703H390.361C392.163 359.17 393.314 356.897 393.314 354.347C393.314 351.432 391.672 334.139 391.672 334.139H378.774C378.774 334.139 377.133 351.441 377.133 354.347C377.133 356.897 378.283 359.17 380.085 360.703Z" fill="#EBEBEB"/>
<path d="M386.624 349.284C386.579 350.113 386.552 350.773 386.552 351.209C386.552 355.016 388.265 358.412 390.959 360.703H406.301C408.995 358.421 410.708 355.016 410.708 351.209C410.708 350.773 410.681 350.113 410.636 349.284H386.615H386.624Z" fill="#F5F5F5"/>
<path d="M380.067 349.409C380.049 348.312 379.148 347.43 378.051 347.43H366.036C364.939 347.43 364.038 348.312 364.02 349.409C364.02 349.462 364.02 349.507 364.02 349.56C363.583 349.417 363.128 349.337 362.682 349.337C360.711 349.337 359.391 350.87 359.391 353.161C359.391 355.452 361.692 356.986 363.753 356.986C363.967 356.986 364.172 356.959 364.377 356.923C364.859 358.412 365.751 359.713 366.91 360.703H377.186C378.988 359.17 380.139 356.896 380.139 354.347C380.139 353.554 380.112 351.691 380.076 349.4L380.067 349.409ZM363.744 355.702C362.352 355.702 360.666 354.57 360.666 353.161C360.666 352.564 360.809 350.621 362.682 350.621C363.11 350.621 363.574 350.728 364.002 350.924C363.976 352.502 363.958 353.75 363.958 354.356C363.958 354.811 364.002 355.256 364.074 355.684C363.976 355.702 363.86 355.702 363.744 355.702Z" fill="#E0E0E0"/>
<path d="M227.125 327.097H168.119V456.325H227.125V327.097Z" fill="#EBEBEB"/>
<path d="M168.119 327.097H109.113V456.325H168.119V327.097Z" fill="#EBEBEB"/>
<path d="M200.526 538.737H220.265V547.981H210.391C210.391 545.645 208.491 543.746 206.154 543.746H200.517V538.737H200.526Z" fill="#E0E0E0"/>
<path d="M135.721 538.737H115.981V547.981H125.856C125.856 545.645 127.756 543.746 130.093 543.746H135.73V538.737H135.721Z" fill="#E0E0E0"/>
<path d="M227.125 456.316H109.113V497.027H227.125V456.316Z" fill="#EBEBEB"/>
<path d="M227.125 497.027H109.113V537.738H227.125V497.027Z" fill="#EBEBEB"/>
<path d="M227.125 462.574V458.456H109.113V462.574H227.125Z" fill="#E0E0E0"/>
<path d="M168.128 332.998V328.879H109.122V332.998H168.128Z" fill="#E0E0E0"/>
<path d="M227.125 332.998V328.879H168.119V332.998H227.125Z" fill="#E0E0E0"/>
<path d="M227.125 502.964V498.846H109.113V502.964H227.125Z" fill="#E0E0E0"/>
<path d="M227.125 325.037H107.053V539.512H229.185V325.037H227.125ZM225.064 458.848V495.066H111.174V458.848H225.064ZM170.18 454.721V329.156H225.064V454.729H170.18V454.721ZM166.059 329.156V454.729H111.174V329.156H166.059ZM111.174 535.394V499.175H225.064V535.394H111.174Z" fill="#F5F5F5"/>
<path d="M126.802 538.737H107.062V547.981H116.936C116.936 545.645 118.836 543.746 121.173 543.746H126.811V538.737H126.802Z" fill="#F5F5F5"/>
<path d="M209.446 538.737H229.186V547.981H219.311C219.311 545.645 217.411 543.746 215.074 543.746H209.437V538.737H209.446Z" fill="#F5F5F5"/>
<path d="M173.177 480.242C173.177 483.032 170.911 485.296 168.119 485.296C165.327 485.296 163.062 483.032 163.062 480.242C163.062 477.452 165.327 475.187 168.119 475.187C170.911 475.187 173.177 477.452 173.177 480.242Z" fill="#E0E0E0"/>
<path d="M173.177 476.676C173.177 479.466 170.911 481.731 168.119 481.731C165.327 481.731 163.062 479.466 163.062 476.676C163.062 473.886 165.327 471.622 168.119 471.622C170.911 471.622 173.177 473.886 173.177 476.676Z" fill="#F5F5F5"/>
<path d="M173.177 520.944C173.177 523.734 170.911 525.998 168.119 525.998C165.327 525.998 163.062 523.734 163.062 520.944C163.062 518.154 165.327 515.89 168.119 515.89C170.911 515.89 173.177 518.154 173.177 520.944Z" fill="#E0E0E0"/>
<path d="M173.177 517.378C173.177 520.169 170.911 522.433 168.119 522.433C165.327 522.433 163.062 520.169 163.062 517.378C163.062 514.588 165.327 512.324 168.119 512.324C170.911 512.324 173.177 514.588 173.177 517.378Z" fill="#F5F5F5"/>
<path d="M161.438 389.175C161.438 387.775 160.305 386.652 158.914 386.652C157.522 386.652 156.389 387.784 156.389 389.175V397.795C156.389 399.195 157.522 400.318 158.914 400.318C160.305 400.318 161.438 399.186 161.438 397.795V389.175Z" fill="#E0E0E0"/>
<path d="M161.438 385.609C161.438 384.21 160.305 383.087 158.914 383.087C157.522 383.087 156.389 384.219 156.389 385.609V394.229C156.389 395.629 157.522 396.752 158.914 396.752C160.305 396.752 161.438 395.62 161.438 394.229V385.609Z" fill="#F5F5F5"/>
<path d="M180.018 389.175C180.018 387.775 178.886 386.652 177.494 386.652C176.103 386.652 174.97 387.784 174.97 389.175V397.795C174.97 399.195 176.103 400.318 177.494 400.318C178.886 400.318 180.018 399.186 180.018 397.795V389.175Z" fill="#E0E0E0"/>
<path d="M180.018 385.609C180.018 384.21 178.886 383.087 177.494 383.087C176.103 383.087 174.97 384.219 174.97 385.609V394.229C174.97 395.629 176.103 396.752 177.494 396.752C178.886 396.752 180.018 395.62 180.018 394.229V385.609Z" fill="#F5F5F5"/>
<path d="M424.971 402.912V398.793H306.959V402.912H424.971Z" fill="#F5F5F5"/>
<path d="M338.411 402.912H318.671V412.156H328.545C328.545 409.82 330.445 407.921 332.782 407.921H338.42V402.912H338.411Z" fill="#E0E0E0"/>
<path d="M329.491 402.912H315.103V412.156H319.625C319.625 409.82 321.525 407.921 323.862 407.921H329.5V402.912H329.491Z" fill="#F5F5F5"/>
<path d="M393.519 402.912H413.259V412.156H403.384C403.384 409.82 401.484 407.921 399.147 407.921H393.51V402.912H393.519Z" fill="#EBEBEB"/>
<path d="M402.439 402.912H416.827V412.156H412.305C412.305 409.82 410.405 407.921 408.068 407.921H402.43V402.912H402.439Z" fill="#F5F5F5"/>
<path d="M370.292 386.144C370.292 379.298 375.849 373.744 382.699 373.744C389.55 373.744 395.107 379.298 395.107 386.144V398.98H370.292V386.144Z" fill="#F0F0F0"/>
<path d="M392.128 388.361C393.358 383.152 390.13 377.934 384.918 376.704C379.706 375.475 374.484 378.701 373.254 383.909C372.024 389.118 375.252 394.336 380.464 395.566C385.675 396.795 390.898 393.569 392.128 388.361Z" fill="#FAFAFA"/>
<path d="M382.708 377.988C387.801 377.988 391.976 381.919 392.368 386.911C392.386 386.661 392.404 386.403 392.404 386.144C392.404 380.796 388.06 376.454 382.708 376.454C377.356 376.454 373.012 380.796 373.012 386.144C373.012 386.403 373.03 386.652 373.047 386.911C373.44 381.919 377.606 377.988 382.708 377.988Z" fill="#E0E0E0"/>
<path d="M388.827 386.144H383.733V381.054C383.733 380.483 383.278 380.029 382.707 380.029C382.137 380.029 381.682 380.483 381.682 381.054V387.169C381.682 387.74 382.137 388.194 382.707 388.194H388.827C389.397 388.194 389.852 387.74 389.852 387.169C389.852 386.599 389.397 386.144 388.827 386.144Z" fill="#E0E0E0"/>
<path d="M388.827 387.169C389.397 387.169 389.852 386.714 389.852 386.144C389.852 385.573 389.397 385.119 388.827 385.119H382.707C382.137 385.119 381.682 385.573 381.682 386.144C381.682 386.714 382.137 387.169 382.707 387.169H388.827Z" fill="#F5F5F5"/>
<path d="M383.733 380.029C383.733 379.459 383.278 379.004 382.707 379.004C382.137 379.004 381.682 379.459 381.682 380.029V386.144C381.682 386.715 382.137 387.169 382.707 387.169C383.278 387.169 383.733 386.715 383.733 386.144V380.029Z" fill="#EBEBEB"/>
<path d="M250.7 588.719C346.218 588.719 423.65 584.201 423.65 578.628C423.65 573.055 346.218 568.537 250.7 568.537C155.183 568.537 77.7505 573.055 77.7505 578.628C77.7505 584.201 155.183 588.719 250.7 588.719Z" fill="#F5F5F5"/>
<path d="M326.53 552.785H233.146C225.466 552.785 219.57 546.563 219.971 538.897L232.102 307.539C232.504 299.864 239.051 293.651 246.731 293.651H340.115C347.795 293.651 353.691 299.873 353.29 307.539L341.158 538.897C340.757 546.572 334.21 552.785 326.53 552.785Z" fill="#026900"/>
<path d="M339.633 302.966H246.25C241.388 302.966 237.232 306.915 236.973 311.773L225.288 534.663C225.029 539.521 228.784 543.47 233.637 543.47H327.02C331.882 543.47 336.038 539.521 336.297 534.663L347.982 311.773C348.241 306.915 344.486 302.966 339.633 302.966Z" fill="#026900"/>
<path opacity="0.8" d="M339.633 302.966H246.25C241.388 302.966 237.232 306.915 236.973 311.773L225.288 534.663C225.029 539.521 228.784 543.47 233.637 543.47H327.02C331.882 543.47 336.038 539.521 336.297 534.663L347.982 311.773C348.241 306.915 344.486 302.966 339.633 302.966Z" fill="white"/>
<path d="M347.741 293.651H340.115C347.795 293.651 353.691 299.873 353.29 307.539L341.158 538.897C340.757 546.572 334.21 552.785 326.53 552.785H334.156C341.836 552.785 348.384 546.563 348.785 538.897L360.916 307.539C361.318 299.864 355.421 293.651 347.741 293.651Z" fill="#026900"/>
<path opacity="0.4" d="M347.741 293.651H340.115C347.795 293.651 353.691 299.873 353.29 307.539L341.158 538.897C340.757 546.572 334.21 552.785 326.53 552.785H334.156C341.836 552.785 348.384 546.563 348.785 538.897L360.916 307.539C361.318 299.864 355.421 293.651 347.741 293.651Z" fill="white"/>
<path opacity="0.4" d="M246.24 302.966L258.925 543.47H291.973L279.289 302.966H246.249C246.249 302.966 246.249 302.966 246.24 302.966Z" fill="white"/>
<path opacity="0.4" d="M297.905 543.47H305.336L292.652 302.966H285.221L297.905 543.47Z" fill="white"/>
<path d="M250.951 289.595H254.224C254.742 289.595 254.742 288.793 254.224 288.793H250.951C250.433 288.793 250.433 289.595 250.951 289.595Z" fill="#026900"/>
<path d="M227.152 315.999C227.348 312.184 227.196 308.11 228.017 304.366C229.917 295.773 237.633 289.889 246.285 289.595C246.802 289.577 246.802 288.775 246.285 288.793C238.56 289.051 231.567 293.455 228.409 300.613C226.313 305.382 226.608 310.9 226.34 315.999C226.313 316.516 227.116 316.516 227.143 315.999H227.152Z" fill="#026900"/>
<path d="M300.296 350.701H278.888C274.865 350.701 271.779 347.439 271.984 343.419L273.108 322.025C273.322 318.004 276.747 314.742 280.77 314.742H302.178C306.201 314.742 309.287 318.004 309.082 322.025L307.958 343.419C307.744 347.439 304.319 350.701 300.296 350.701Z" fill="white"/>
<path d="M286.63 335.957C285.256 334.567 284.329 332.445 284.124 329.985C284.097 329.985 284.061 329.985 284.034 329.985C283.169 329.985 282.518 329.031 282.58 327.863C282.643 326.686 283.392 325.742 284.257 325.742C284.338 325.742 284.409 325.75 284.48 325.768C284.534 325.572 284.587 325.385 284.641 325.198C289.806 324.913 292.713 323.21 294.248 321.828C294.926 323.076 296.005 324.342 297.637 324.743C297.718 325.082 297.789 325.421 297.842 325.777C297.914 325.759 297.994 325.75 298.065 325.75C298.931 325.75 299.582 326.704 299.519 327.872C299.457 329.049 298.708 329.994 297.842 329.994C297.816 329.994 297.78 329.994 297.753 329.994C297.316 332.293 296.29 334.299 294.908 335.69C295.675 335.984 296.861 336.18 298.69 336.073C303.908 335.77 301.152 325.055 298.342 321.204C296.62 318.851 295.675 317.754 294.685 318.191C293.605 317.594 287.067 314.893 282.839 322.818C278.45 331.045 277.148 338.533 286.63 335.957Z" fill="#026900"/>
<path d="M301.001 341.725L295.604 340.005C295.604 340.005 290.939 341.796 289.833 346.218C289.191 341.796 284.713 340.005 284.713 340.005L279.138 341.725C275.793 342.188 274.169 345.059 273.384 348.009C274.633 349.65 276.613 350.702 278.897 350.702H300.314C302.597 350.702 304.685 349.65 306.112 348.009C305.639 345.05 304.31 342.188 301.018 341.725H301.001Z" fill="#026900"/>
<path d="M315.79 347.546C315.816 347.118 315.798 346.699 315.763 346.28L317.886 344.453C317.681 343.552 317.368 342.697 316.958 341.903L314.22 342.046C313.747 341.368 313.176 340.771 312.525 340.254L312.81 337.526C312.034 337.081 311.205 336.724 310.313 336.466L308.377 338.498C307.967 338.445 307.547 338.409 307.119 338.409C306.691 338.409 306.263 338.445 305.853 338.498L304.122 336.466C303.212 336.715 302.338 337.072 301.518 337.526V340.254C300.813 340.762 300.18 341.368 299.627 342.046L296.906 341.903C296.415 342.697 296.014 343.552 295.711 344.453L297.646 346.28C297.566 346.69 297.512 347.118 297.495 347.546C297.468 347.974 297.486 348.393 297.521 348.812L295.398 350.639C295.604 351.54 295.916 352.395 296.326 353.189L299.065 353.046C299.537 353.724 300.108 354.321 300.759 354.838L300.474 357.566C301.25 358.011 302.08 358.368 302.972 358.626L304.907 356.594C305.317 356.647 305.737 356.683 306.165 356.683C306.593 356.683 307.021 356.647 307.432 356.594L309.162 358.626C310.072 358.377 310.946 358.02 311.767 357.566V354.838C312.471 354.33 313.105 353.724 313.658 353.046L316.378 353.189C316.869 352.395 317.27 351.54 317.574 350.639L315.638 348.812C315.718 348.402 315.772 347.974 315.79 347.546ZM306.495 350.416C304.907 350.416 303.694 349.133 303.774 347.546C303.855 345.959 305.21 344.685 306.789 344.685C308.368 344.685 309.59 345.968 309.51 347.546C309.43 349.133 308.074 350.416 306.495 350.416Z" fill="#026900"/>
<path opacity="0.4" d="M315.79 347.546C315.816 347.118 315.798 346.699 315.763 346.28L317.886 344.453C317.681 343.552 317.368 342.697 316.958 341.903L314.22 342.046C313.747 341.368 313.176 340.771 312.525 340.254L312.81 337.526C312.034 337.081 311.205 336.724 310.313 336.466L308.377 338.498C307.967 338.445 307.547 338.409 307.119 338.409C306.691 338.409 306.263 338.445 305.853 338.498L304.122 336.466C303.212 336.715 302.338 337.072 301.518 337.526V340.254C300.813 340.762 300.18 341.368 299.627 342.046L296.906 341.903C296.415 342.697 296.014 343.552 295.711 344.453L297.646 346.28C297.566 346.69 297.512 347.118 297.495 347.546C297.468 347.974 297.486 348.393 297.521 348.812L295.398 350.639C295.604 351.54 295.916 352.395 296.326 353.189L299.065 353.046C299.537 353.724 300.108 354.321 300.759 354.838L300.474 357.566C301.25 358.011 302.08 358.368 302.972 358.626L304.907 356.594C305.317 356.647 305.737 356.683 306.165 356.683C306.593 356.683 307.021 356.647 307.432 356.594L309.162 358.626C310.072 358.377 310.946 358.02 311.767 357.566V354.838C312.471 354.33 313.105 353.724 313.658 353.046L316.378 353.189C316.869 352.395 317.27 351.54 317.574 350.639L315.638 348.812C315.718 348.402 315.772 347.974 315.79 347.546ZM306.495 350.416C304.907 350.416 303.694 349.133 303.774 347.546C303.855 345.959 305.21 344.685 306.789 344.685C308.368 344.685 309.59 345.968 309.51 347.546C309.43 349.133 308.074 350.416 306.495 350.416Z" fill="white"/>
<path d="M306.495 350.416C304.907 350.416 303.694 349.133 303.774 347.546C303.855 345.959 305.21 344.684 306.789 344.684C308.368 344.684 309.59 345.968 309.51 347.546C309.43 349.133 308.074 350.416 306.495 350.416Z" fill="white"/>
<path d="M288.102 449.354H285.061L285.337 444.131H288.37L288.102 449.354Z" fill="#026900"/>
<path d="M301.937 449.354H298.904L299.359 440.743H302.392L301.937 449.354Z" fill="#026900"/>
<path d="M315.781 449.355H312.748L313.372 437.356H316.414L315.781 449.355Z" fill="#026900"/>
<path d="M329.625 449.354H326.583L327.395 433.968H330.428L329.625 449.354Z" fill="white"/>
<path d="M246.151 449.354H261.592C265.856 449.354 269.495 445.904 269.718 441.643C269.941 437.382 266.667 433.933 262.404 433.933H246.972C242.708 433.933 239.069 437.382 238.846 441.643C238.623 445.904 241.897 449.354 246.16 449.354H246.151Z" fill="white"/>
<path d="M246.874 435.626H262.305C266.284 435.626 269.397 438.63 269.611 442.49C269.655 442.214 269.691 441.929 269.7 441.643C269.923 437.382 266.649 433.933 262.386 433.933H246.954C242.69 433.933 239.051 437.382 238.828 441.643C238.81 441.929 238.819 442.214 238.828 442.49C239.452 438.63 242.878 435.626 246.856 435.626H246.874Z" fill="#026900"/>
<path opacity="0.3" d="M246.874 435.626H262.305C266.284 435.626 269.397 438.63 269.611 442.49C269.655 442.214 269.691 441.929 269.7 441.643C269.923 437.382 266.649 433.933 262.386 433.933H246.954C242.69 433.933 239.051 437.382 238.828 441.643C238.81 441.929 238.819 442.214 238.828 442.49C239.452 438.63 242.878 435.626 246.856 435.626H246.874Z" fill="white"/>
<path d="M238.837 441.643C239.06 437.382 242.699 433.933 246.963 433.933C251.227 433.933 254.5 437.382 254.277 441.643C254.054 445.904 250.415 449.354 246.151 449.354C241.888 449.354 238.614 445.904 238.837 441.643Z" fill="#026900"/>
<path d="M237.454 515.828H234.422L234.787 508.91H237.82L237.454 515.828Z" fill="#026900"/>
<path d="M248.711 514.134H245.678L245.821 511.45H248.854L248.711 514.134Z" fill="#026900"/>
<path d="M259.835 514.981H256.802L257.025 510.604H260.067L259.835 514.981Z" fill="#026900"/>
<path d="M271.047 514.134H268.006L268.148 511.45H271.19L271.047 514.134Z" fill="#026900"/>
<path d="M282.125 515.828H279.083L279.449 508.91H282.482L282.125 515.828Z" fill="#026900"/>
<path d="M293.374 514.134H290.342L290.484 511.45H293.517L293.374 514.134Z" fill="#026900"/>
<path d="M304.497 514.981H301.464L301.696 510.604H304.729L304.497 514.981Z" fill="#026900"/>
<path d="M315.71 514.134H312.677L312.811 511.45H315.853L315.71 514.134Z" fill="#026900"/>
<path d="M326.788 515.828H323.756L324.112 508.91H327.154L326.788 515.828Z" fill="#026900"/>
<g opacity="0.3">
<path d="M237.454 515.828H234.422L234.787 508.91H237.82L237.454 515.828Z" fill="black"/>
<path d="M248.712 514.134H245.679L245.821 511.45H248.854L248.712 514.134Z" fill="black"/>
<path d="M259.835 514.981H256.802L257.025 510.604H260.067L259.835 514.981Z" fill="black"/>
<path d="M271.048 514.134H268.006L268.149 511.45H271.19L271.048 514.134Z" fill="black"/>
<path d="M282.126 515.828H279.085L279.45 508.91H282.483L282.126 515.828Z" fill="black"/>
<path d="M293.374 514.134H290.342L290.484 511.45H293.517L293.374 514.134Z" fill="black"/>
<path d="M304.497 514.981H301.465L301.697 510.604H304.729L304.497 514.981Z" fill="black"/>
<path d="M315.71 514.134H312.677L312.811 511.45H315.853L315.71 514.134Z" fill="black"/>
<path d="M326.789 515.828H323.756L324.113 508.91H327.154L326.789 515.828Z" fill="black"/>
</g>
<path d="M273.554 516.959C273.589 516.201 273.732 513.545 273.777 512.787C273.821 512.03 273.955 509.373 274 508.616C274.125 506.307 272.349 504.444 270.039 504.444C267.729 504.444 265.767 506.316 265.642 508.616C265.606 509.373 265.463 512.03 265.419 512.787C265.383 513.545 265.24 516.201 265.196 516.959C265.071 519.268 266.846 521.131 269.156 521.131C271.466 521.131 273.429 519.259 273.554 516.959Z" fill="#026900"/>
<path d="M244.198 486.527H259.639C263.902 486.527 267.542 483.077 267.765 478.816C267.988 474.555 264.714 471.105 260.45 471.105H245.01C240.746 471.105 237.107 474.555 236.884 478.816C236.661 483.077 239.934 486.527 244.198 486.527Z" fill="white"/>
<path d="M244.921 472.799H260.361C264.339 472.799 267.453 475.803 267.667 479.663C267.711 479.386 267.747 479.101 267.756 478.816C267.979 474.555 264.705 471.105 260.441 471.105H245.001C240.737 471.105 237.098 474.555 236.875 478.816C236.857 479.101 236.866 479.386 236.875 479.663C237.499 475.803 240.924 472.799 244.903 472.799H244.921Z" fill="#026900"/>
<path opacity="0.3" d="M244.921 472.799H260.361C264.339 472.799 267.453 475.803 267.667 479.663C267.711 479.386 267.747 479.101 267.756 478.816C267.979 474.555 264.705 471.105 260.441 471.105H245.001C240.737 471.105 237.098 474.555 236.875 478.816C236.857 479.101 236.866 479.386 236.875 479.663C237.499 475.803 240.924 472.799 244.903 472.799H244.921Z" fill="white"/>
<path d="M252.324 478.816C252.547 474.555 256.186 471.105 260.45 471.105C264.714 471.105 267.988 474.555 267.764 478.816C267.542 483.077 263.902 486.527 259.638 486.527C255.375 486.527 252.101 483.077 252.324 478.816Z" fill="#026900"/>
<path d="M245.714 378.63H329.892C332.158 378.63 334.085 376.793 334.201 374.538C334.317 372.283 332.577 370.446 330.32 370.446H246.142C243.877 370.446 241.95 372.283 241.834 374.538C241.718 376.793 243.458 378.63 245.714 378.63Z" fill="white"/>
<path d="M246.142 372.229H330.32C332.203 372.229 333.71 373.504 334.094 375.233C334.147 375.001 334.192 374.779 334.201 374.538C334.317 372.274 332.586 370.446 330.32 370.446H246.142C243.877 370.446 241.95 372.283 241.834 374.538C241.816 374.912 241.861 375.278 241.941 375.625C242.378 373.7 244.118 372.229 246.142 372.229Z" fill="#026900"/>
<path opacity="0.3" d="M246.142 372.229H330.32C332.203 372.229 333.71 373.504 334.094 375.233C334.147 375.001 334.192 374.779 334.201 374.538C334.317 372.274 332.586 370.446 330.32 370.446H246.142C243.877 370.446 241.95 372.283 241.834 374.538C241.816 374.912 241.861 375.278 241.941 375.625C242.378 373.7 244.118 372.229 246.142 372.229Z" fill="white"/>
<path d="M253.386 374.538C253.609 370.277 257.248 366.827 261.512 366.827C265.775 366.827 269.049 370.277 268.826 374.538C268.603 378.799 264.964 382.248 260.7 382.248C256.436 382.248 253.163 378.799 253.386 374.538Z" fill="#026900"/>
<path d="M328.456 474.074C328.546 472.433 327.279 471.105 325.638 471.105H300.796C299.154 471.105 297.754 472.433 297.665 474.074L297.165 483.558C297.076 485.198 298.343 486.527 299.984 486.527H324.826C326.467 486.527 327.868 485.198 327.957 483.558L328.456 474.074Z" fill="#026900"/>
<path d="M300.697 472.799H325.54C327.181 472.799 328.447 474.127 328.358 475.767L328.447 474.074C328.537 472.433 327.27 471.105 325.629 471.105H300.787C299.145 471.105 297.745 472.433 297.656 474.074L297.566 475.767C297.656 474.127 299.056 472.799 300.697 472.799Z" fill="#026900"/>
<path opacity="0.3" d="M300.697 472.799H325.54C327.181 472.799 328.447 474.127 328.358 475.767L328.447 474.074C328.537 472.433 327.27 471.105 325.629 471.105H300.787C299.145 471.105 297.745 472.433 297.656 474.074L297.566 475.767C297.656 474.127 299.056 472.799 300.697 472.799Z" fill="black"/>
<path d="M313.096 474.074C313.185 472.433 311.919 471.105 310.277 471.105H300.786C299.145 471.105 297.745 472.433 297.656 474.074L297.156 483.558C297.067 485.198 298.333 486.527 299.975 486.527H309.466C311.107 486.527 312.507 485.198 312.597 483.558L313.096 474.074Z" fill="white"/>
<path d="M306.504 481.427H303.471L303.748 476.204H306.781L306.504 481.427Z" fill="#026900"/>
<path d="M328.554 403.999H244.376C242.11 403.999 240.184 405.835 240.068 408.091C239.952 410.355 241.682 412.182 243.948 412.182H328.126C330.392 412.182 332.318 410.346 332.434 408.091C332.55 405.826 330.811 403.999 328.554 403.999Z" fill="#026900"/>
<path opacity="0.3" d="M244.385 405.782H328.563C330.445 405.782 331.953 407.056 332.336 408.786C332.39 408.554 332.435 408.331 332.444 408.091C332.559 405.826 330.82 403.999 328.563 403.999H244.385C242.12 403.999 240.193 405.835 240.077 408.091C240.059 408.465 240.104 408.83 240.184 409.178C240.621 407.253 242.36 405.782 244.385 405.782Z" fill="black"/>
<path d="M315.495 415.801H309.046C306.566 415.801 304.657 413.787 304.791 411.309L305.13 404.864C305.264 402.386 307.378 400.371 309.858 400.371H316.307C318.787 400.371 320.696 402.386 320.562 404.864L320.223 411.309C320.089 413.787 317.975 415.801 315.495 415.801Z" fill="white"/>
<path d="M314.389 410.703H311.357L311.633 405.479H314.666L314.389 410.703Z" fill="#026900"/>
<path d="M181.687 380.885L170.287 393.81C171.206 399.97 173.043 417.834 173.043 417.834C171.33 420.098 167.147 419.456 167.147 419.456C167.147 419.456 161.661 407.11 163.062 392.651C163.873 384.29 174.595 367.87 182.222 363.217C183.426 362.477 184.746 361.915 186.236 361.523L187.743 361.354L182.4 381.223L181.695 380.885H181.687Z" fill="#026900"/>
<path opacity="0.6" d="M181.687 380.885L170.287 393.81C171.206 399.97 173.043 417.834 173.043 417.834C171.33 420.098 167.147 419.456 167.147 419.456C167.147 419.456 161.661 407.11 163.062 392.651C163.873 384.29 174.595 367.87 182.222 363.217C183.426 362.477 184.746 361.915 186.236 361.523L187.743 361.354L182.4 381.223L181.695 380.885H181.687Z" fill="black"/>
<path d="M172.392 419.287L175.157 422.237C175.246 422.335 175.318 422.451 175.362 422.576L176.986 427.14C177.075 427.39 177.057 427.657 176.941 427.889L176.156 429.502C176.022 429.77 175.773 429.966 175.478 430.028L169.876 431.178C169.341 431.285 168.824 430.938 168.726 430.403L167.629 424.395C167.611 424.279 167.611 424.154 167.629 424.038L168.378 420.178C168.458 419.786 168.77 419.474 169.163 419.412L171.509 419.001C171.83 418.948 172.16 419.055 172.383 419.296L172.392 419.287Z" fill="#FAB27B"/>
<path d="M174.773 418.601L165.978 422.594L165.862 418.342L173.979 415.222L174.773 418.601Z" fill="#026900"/>
<path opacity="0.5" d="M174.773 418.601L165.978 422.594L165.862 418.342L173.979 415.222L174.773 418.601Z" fill="white"/>
<path d="M171.366 434.334C166.121 453.081 168.342 480.697 165.461 499.22C163.472 511.985 149.931 553.998 149.931 553.998L161.884 557.617C161.884 557.617 176.798 520.623 179.688 509.587C184.371 491.697 191.427 457.752 191.427 457.752C191.427 457.752 194.049 448.124 192.863 447.081C191.677 446.038 171.357 434.334 171.357 434.334H171.366Z" fill="#026900"/>
<path opacity="0.3" d="M184.523 447.188L193.166 449.987L189.928 465.168C189.928 465.168 191.525 450.638 184.523 447.188Z" fill="black"/>
<path d="M152.34 553.454L150.199 560.238L155.997 562.841L158.869 555.629L152.34 553.454Z" fill="#FAB27B"/>
<path opacity="0.2" d="M151.073 557.474L157.192 559.837L158.004 557.786L151.573 555.896L151.073 557.474Z" fill="black"/>
<path d="M150.066 550.281L164.685 554.274L162.036 558.981L149.245 555.21L150.066 550.281Z" fill="#026900"/>
<path opacity="0.5" d="M150.066 550.281L164.685 554.274L162.036 558.981L149.245 555.21L150.066 550.281Z" fill="white"/>
<path d="M157.236 563.759C157.174 563.723 157.147 563.643 157.156 563.571C157.174 563.5 157.228 563.447 157.299 563.438C157.424 563.42 160.341 562.992 161.358 563.75C161.545 563.892 161.679 564.097 161.714 564.329C161.786 564.596 161.679 564.882 161.447 565.033C161.019 565.292 160.082 565.096 159.235 564.766C158.539 564.49 157.861 564.151 157.219 563.759H157.236ZM157.843 563.75C159.047 564.4 160.778 565.069 161.268 564.748C161.34 564.712 161.42 564.632 161.375 564.383C161.358 564.24 161.268 564.106 161.143 564.035C161.054 563.964 160.956 563.91 160.849 563.874C159.859 563.643 158.842 563.607 157.843 563.75Z" fill="#026900"/>
<path d="M157.156 563.714C157.121 563.661 157.112 563.598 157.139 563.536C157.183 563.456 158.084 561.682 159.235 561.307C159.565 561.191 159.931 561.218 160.243 561.388C160.671 561.61 160.724 561.887 160.662 562.074C160.51 562.894 158.289 563.732 157.326 563.777C157.299 563.777 157.272 563.777 157.255 563.759C157.21 563.759 157.174 563.741 157.148 563.705L157.156 563.714ZM160.011 561.664C159.806 561.584 159.583 561.575 159.369 561.646C158.628 562.038 158.031 562.644 157.638 563.384C158.682 563.215 160.207 562.484 160.35 562.003C160.35 561.958 160.377 561.833 160.1 561.691L160.002 561.664H160.011Z" fill="#026900"/>
<path d="M156.915 562.538L149.467 559.623C149.191 559.516 148.87 559.614 148.7 559.863L144.98 565.39C144.65 565.881 144.775 566.54 145.257 566.879C145.319 566.924 145.391 566.959 145.453 566.986C148.156 567.993 150.6 568.778 153.945 570.097C157.888 571.648 156.701 571.719 161.322 573.609C164.105 574.741 165.862 571.764 164.738 571.149C159.582 568.341 159.663 566.487 158.325 563.723C158.013 563.171 157.513 562.752 156.915 562.547V562.538Z" fill="#263238"/>
<path d="M205.476 558.98L205.619 565.506L211.934 566.121L212.318 558.98H205.476Z" fill="#FAB27B"/>
<path opacity="0.2" d="M212.157 562.011L212.247 560.291L205.512 560.576L205.557 562.573L212.157 562.011Z" fill="black"/>
<path d="M171.366 434.334C173.346 424.903 181.24 416.541 181.24 416.541L211.551 418.493C211.551 418.493 213.459 437.962 213.905 444.469C214.806 457.609 218.49 478.004 218.588 491.188C218.722 509.008 214.637 556.324 214.637 556.324L203.184 557.679C203.184 557.679 203.353 513.919 201.48 497.419C200.062 484.913 191.516 450.665 191.516 450.665C191.516 450.665 168.057 450.157 171.366 434.343V434.334Z" fill="#026900"/>
<path d="M201.23 555.789L216.359 554.862L215.368 560.166L202.042 560.719L201.23 555.789Z" fill="#026900"/>
<path opacity="0.5" d="M201.23 555.789L216.359 554.862L215.368 560.166L202.042 560.719L201.23 555.789Z" fill="white"/>
<path d="M213.308 566.576C213.236 566.558 213.183 566.496 213.174 566.424C213.165 566.353 213.201 566.282 213.263 566.246C213.379 566.184 215.993 564.829 217.197 565.212C217.42 565.283 217.616 565.435 217.723 565.64C217.875 565.872 217.875 566.175 217.705 566.398C217.384 566.781 216.439 566.906 215.529 566.87C214.78 566.834 214.03 566.736 213.299 566.576H213.308ZM213.879 566.362C215.234 566.585 217.081 566.647 217.438 566.184C217.491 566.13 217.536 566.023 217.42 565.8C217.357 565.667 217.233 565.578 217.09 565.542C216.983 565.506 216.876 565.488 216.76 565.488C215.752 565.595 214.771 565.89 213.879 566.362Z" fill="#026900"/>
<path d="M213.21 566.558C213.156 566.522 213.129 566.46 213.138 566.397C213.156 566.308 213.424 564.338 214.387 563.607C214.664 563.393 215.021 563.295 215.368 563.349C215.841 563.411 215.984 563.661 215.993 563.866C216.118 564.695 214.289 566.21 213.406 566.567C213.379 566.576 213.361 566.576 213.335 566.567C213.299 566.576 213.254 566.567 213.219 566.558H213.21ZM215.244 563.679C215.021 563.67 214.806 563.732 214.637 563.875C214.066 564.481 213.691 565.256 213.575 566.076C214.503 565.577 215.707 564.383 215.681 563.884C215.672 563.839 215.654 563.714 215.342 563.67H215.244V563.679Z" fill="#026900"/>
<path d="M212.594 565.515L204.602 565.203C204.299 565.194 204.031 565.39 203.951 565.684L202.247 572.129C202.095 572.7 202.425 573.288 202.996 573.44C203.068 573.457 203.148 573.475 203.219 573.475C206.1 573.538 208.669 573.475 212.264 573.627C216.501 573.796 215.404 574.26 220.381 574.527C223.378 574.687 224.065 571.3 222.799 571.077C217.01 570.115 216.474 568.332 214.307 566.166C213.834 565.747 213.228 565.515 212.594 565.515Z" fill="#263238"/>
<path d="M203.112 353.884C202.586 355.569 201.257 358.421 203.13 360.953L194.023 360.07C194.023 360.07 194.995 353.358 195.566 351.174C195.932 349.757 196.405 348.223 201.195 349.56C203.915 350.318 203.469 352.761 203.121 353.884H203.112Z" fill="#FAB27B"/>
<path d="M194.897 351.397C189.884 347.537 179.287 337.054 189.456 327.899C197.93 320.277 205.699 324.726 208.348 329.887C211.319 335.654 218.053 351.067 203.112 353.893C200.356 354.41 197.502 353.411 194.897 351.406V351.397Z" fill="#FAB27B"/>
<path d="M187.734 360.373C187.734 360.373 194.763 354.204 208.107 362.343L207.92 364.251L187.859 362.307L187.734 360.373Z" fill="#026900"/>
<path opacity="0.5" d="M187.734 360.373C187.734 360.373 194.763 354.204 208.107 362.343L207.92 364.251L187.859 362.307L187.734 360.373Z" fill="white"/>
<path opacity="0.1" d="M201.195 352.074C201.248 354.133 201.828 355.203 202.568 355.738C202.809 354.659 203.121 353.892 203.121 353.892C201.328 353.108 201.195 352.074 201.195 352.074Z" fill="black"/>
<path d="M206.546 362.102C203.63 361.443 200.713 361.06 197.796 360.712C192.622 360.097 188.671 359.705 185.816 360.961C181.267 362.967 180.687 364.251 180.687 364.251L181.588 378.977C181.588 378.977 182.668 387.472 181.972 400.371C181.972 400.433 181.615 414.411 174.06 421.916C174.06 421.916 178.627 425.892 184.889 426.971L189.152 416.782L190.49 427.515C190.49 427.515 205.851 432.061 218.517 427.871C218.517 427.871 211.577 416.8 213.816 405.479C214.896 400.023 215.681 397.474 216.287 393.177C216.867 389.086 216.314 386.215 216.314 386.215L213.468 366.782C213.468 366.782 208.411 362.53 206.555 362.111L206.546 362.102Z" fill="#026900"/>
<path opacity="0.6" d="M206.546 362.102C203.63 361.443 200.713 361.06 197.796 360.712C192.622 360.097 188.671 359.705 185.816 360.961C181.267 362.967 180.687 364.251 180.687 364.251L181.588 378.977C181.588 378.977 182.668 387.472 181.972 400.371C181.972 400.433 181.615 414.411 174.06 421.916C174.06 421.916 178.627 425.892 184.889 426.971L189.152 416.782L190.49 427.515C190.49 427.515 205.851 432.061 218.517 427.871C218.517 427.871 211.577 416.8 213.816 405.479C214.896 400.023 215.681 397.474 216.287 393.177C216.867 389.086 216.314 386.215 216.314 386.215L213.468 366.782C213.468 366.782 208.411 362.53 206.555 362.111L206.546 362.102Z" fill="black"/>
<path d="M215.369 398.651C215.734 396.681 216.047 394.827 216.287 393.177C216.867 389.086 216.314 386.215 216.314 386.215L212.247 381.643C212.247 381.643 216.118 387.151 215.377 398.66L215.369 398.651Z" fill="black"/>
<path d="M251.771 377.667L254.581 369.662C254.634 369.501 254.75 369.368 254.902 369.287L259.317 367.032C259.558 366.907 259.852 366.943 260.058 367.121L263.206 369.894C263.465 370.125 263.51 370.518 263.296 370.794L260.04 375.073C260.004 375.126 259.968 375.18 259.951 375.233C259.701 375.866 258.024 379.869 254.447 380.867C254.402 380.876 254.358 380.894 254.322 380.92L253.118 381.562C252.824 381.723 252.458 381.634 252.27 381.366L250.745 379.236C250.504 378.897 250.629 378.416 251.013 378.246L251.414 378.068C251.584 377.997 251.709 377.854 251.762 377.685L251.771 377.667Z" fill="#FAB27B"/>
<path d="M206.466 362.094C211.06 363.288 215.547 365.624 219.659 371.115C225.038 378.291 233.021 384.78 233.021 384.78C233.021 384.78 243.333 382.587 249.835 376.962L253.653 382.659C253.653 382.659 237.981 394.461 231.612 393.846C226.171 393.32 216.252 386.242 216.252 386.242L212.175 381.66L206.475 362.094H206.466Z" fill="#026900"/>
<path opacity="0.6" d="M206.466 362.094C211.06 363.288 215.547 365.624 219.659 371.115C225.038 378.291 233.021 384.78 233.021 384.78C233.021 384.78 243.333 382.587 249.835 376.962L253.653 382.659C253.653 382.659 237.981 394.461 231.612 393.846C226.171 393.32 216.252 386.242 216.252 386.242L212.175 381.66L206.475 362.094H206.466Z" fill="black"/>
<path d="M250.21 376.249L255.936 383.345L252.101 384.361L247.534 377.693L250.21 376.249Z" fill="#026900"/>
<path opacity="0.5" d="M250.21 376.249L255.936 383.345L252.101 384.361L247.534 377.693L250.21 376.249Z" fill="white"/>
<path d="M212.068 342.206V344.97L213.932 344.702L212.068 342.206Z" fill="#E07F50"/>
<path d="M197.448 358.742C193.158 359.188 180.474 359.428 182.008 350.149C183.533 340.869 181.464 336.269 185.397 329.744C189.331 323.219 197.538 321.294 204.905 323.228C211.042 324.833 211.551 329.129 209.883 331.723C208.215 334.308 207.466 334.79 207.76 336.626C208.054 338.462 206.939 339.487 206.458 340.352C206.029 341.119 204.504 341.769 204.504 341.769C204.504 341.769 203.933 343.784 204.825 347.18C205.717 350.577 207.537 357.708 197.448 358.751V358.742Z" fill="black"/>
<path d="M203.157 323.299C205.182 323.522 207.278 324.075 209.089 325.002C210.542 325.751 211.996 326.865 212.326 328.567C212.799 331.019 210.899 333.345 209.392 335.039C209.151 335.306 209.606 335.636 209.847 335.369C212.514 332.374 214.592 328.166 210.658 325.296C208.571 323.772 205.752 323.023 203.201 322.738C202.844 322.702 202.782 323.255 203.148 323.299H203.157Z" fill="black"/>
<path d="M185.45 329.691C182.614 333.355 182.489 338.141 181.918 342.509C181.517 345.594 178.038 351.611 180.5 354.517C180.732 354.793 181.178 354.445 180.946 354.169C179.269 352.181 180.946 349.257 181.517 347.198C182.088 345.157 182.391 343.133 182.614 341.021C183.006 337.286 183.515 333.114 185.905 330.03C186.128 329.744 185.673 329.406 185.459 329.691H185.45Z" fill="black"/>
<path d="M210.15 336.938C210.105 337.054 210.194 336.858 210.212 336.822C210.275 336.715 210.337 336.617 210.417 336.528C210.694 336.216 211.051 336.109 211.452 336.216C211.782 336.305 211.925 335.788 211.595 335.699C210.721 335.476 209.963 335.975 209.633 336.787C209.499 337.107 210.016 337.241 210.15 336.929V336.938Z" fill="black"/>
<path d="M207.956 341.012C208.527 342.732 207.983 344.461 206.734 344.872C205.485 345.29 204.013 344.239 203.433 342.518C202.854 340.798 203.407 339.068 204.655 338.658C205.904 338.248 207.376 339.291 207.956 341.012Z" fill="#FAB27B"/>
<path d="M212.148 336.661C212.077 337.303 211.453 337.437 211.123 337.482C210.909 337.517 210.775 337.909 210.837 338.364C210.9 338.828 211.123 339.175 211.346 339.14C211.56 339.113 211.694 338.712 211.631 338.257C211.613 338.114 211.578 337.99 211.533 337.874C212.568 337.312 212.148 336.653 212.148 336.653V336.661Z" fill="black"/>
<mask id="mask0_192_1335" style="mask-type:alpha" maskUnits="userSpaceOnUse" x="0" y="0" width="509" height="992">
<rect width="509" height="992" rx="10" fill="#026900"/>
</mask>
<g mask="url(#mask0_192_1335)">
<rect x="-11.6802" y="-89" width="235" height="235" transform="rotate(22.8671 -11.6802 -89)" fill="#025900"/>
<rect x="416.32" y="901" width="235" height="235" transform="rotate(22.8671 416.32 901)" fill="#025900"/>
</g>
</svg>
