<svg width="220" height="62" viewBox="0 0 220 62" fill="none" xmlns="http://www.w3.org/2000/svg">
<path d="M56.7362 8.48493C57.549 3.76572 53.6461 -0.431926 48.8803 0.0356935C45.6516 0.352489 43.026 2.77486 42.4507 5.96761L34.1074 52.2665C33.2326 57.1209 37.2412 61.4658 42.1503 60.9842C45.4811 60.6574 48.183 58.1452 48.7511 54.8469L50.3705 45.4443C51.1334 41.0148 54.762 37.6411 59.2352 37.2022L60.6873 37.0597C64.1696 36.718 67.0258 34.1528 67.7384 30.7271L68.3426 27.8226C69.142 23.9791 65.9843 20.4631 62.0773 20.8465C58.2537 21.2216 55.1225 17.8539 55.7746 14.0677L56.7362 8.48493Z" fill="#026900"/>
<path d="M34.403 16.7255C35.2295 11.9995 31.3231 7.78721 26.5484 8.2557C23.3327 8.57123 20.7133 10.9755 20.1239 14.1524L14.3743 45.1456C13.4739 49.9994 17.4779 54.3618 22.3909 53.8797C25.7066 53.5544 28.3985 51.058 28.9725 47.7762L34.403 16.7255Z" fill="#026900"/>
<path d="M11.3381 34.2837C12.0981 30.7732 9.21808 27.5402 5.64348 27.8909C3.41547 28.1095 1.56543 29.7052 1.02195 31.8769L0.163581 35.3069C-0.735239 38.8985 2.19543 42.2965 5.88013 41.9349C8.19471 41.7078 10.0979 40.0124 10.59 37.7394L11.3381 34.2837Z" fill="#026900"/>
<path d="M86.1261 42.616H81.0601V18.34H94.9661V22.556H86.1261V28.812H94.3541V33.028H86.1261V42.616Z" fill="#3E3E3E"/>
<path d="M108.798 42.616H97.7482V39.692L100.706 38.332V22.624L97.7482 21.264V18.34H108.798V21.264L105.84 22.624V38.332L108.798 39.692V42.616Z" fill="#3E3E3E"/>
<path d="M122.285 42.616H117.151V22.624H110.555V18.34H128.881V22.624H122.285V42.616Z" fill="#3E3E3E"/>
<path d="M139.697 18.34C141.895 18.34 143.709 18.612 145.137 19.156C146.565 19.6773 147.63 20.482 148.333 21.57C149.035 22.6353 149.387 23.984 149.387 25.616C149.387 26.7267 149.171 27.7013 148.741 28.54C148.333 29.356 147.777 30.0587 147.075 30.648C146.395 31.2147 145.658 31.6793 144.865 32.042L152.005 42.616H146.293L140.513 33.3H137.759V42.616H132.625V18.34H139.697ZM139.323 22.556H137.759V29.118H139.425C140.558 29.118 141.476 28.9933 142.179 28.744C142.881 28.4947 143.391 28.1207 143.709 27.622C144.026 27.1007 144.185 26.4773 144.185 25.752C144.185 24.9813 144.003 24.3693 143.641 23.916C143.301 23.44 142.768 23.1 142.043 22.896C141.34 22.6693 140.433 22.556 139.323 22.556Z" fill="#3E3E3E"/>
<path d="M169.928 42.616L168.16 36.836H159.32L157.552 42.616H152.01L160.578 18.238H166.868L175.47 42.616H169.928ZM165.168 26.874C165.054 26.4887 164.907 26.0013 164.726 25.412C164.544 24.8227 164.363 24.222 164.182 23.61C164 22.998 163.853 22.4653 163.74 22.012C163.626 22.4653 163.468 23.032 163.264 23.712C163.082 24.3693 162.901 25.004 162.72 25.616C162.561 26.2053 162.436 26.6247 162.346 26.874L160.612 32.518H166.936L165.168 26.874Z" fill="#3E3E3E"/>
<path d="M188.182 22.284C187.208 22.284 186.335 22.4767 185.564 22.862C184.816 23.2473 184.182 23.8027 183.66 24.528C183.139 25.2307 182.742 26.092 182.47 27.112C182.221 28.132 182.096 29.2767 182.096 30.546C182.096 32.2687 182.3 33.742 182.708 34.966C183.139 36.1673 183.808 37.0853 184.714 37.72C185.621 38.3547 186.777 38.672 188.182 38.672C189.18 38.672 190.166 38.5587 191.14 38.332C192.138 38.1053 193.214 37.788 194.37 37.38V41.698C193.305 42.1287 192.251 42.446 191.208 42.65C190.166 42.854 188.998 42.956 187.706 42.956C185.213 42.956 183.15 42.446 181.518 41.426C179.909 40.3833 178.719 38.9327 177.948 37.074C177.178 35.1927 176.792 33.0053 176.792 30.512C176.792 28.676 177.042 26.9987 177.54 25.48C178.039 23.9387 178.764 22.6127 179.716 21.502C180.691 20.3913 181.881 19.53 183.286 18.918C184.714 18.306 186.346 18 188.182 18C189.384 18 190.585 18.1587 191.786 18.476C193.01 18.7707 194.178 19.1787 195.288 19.7L193.622 23.882C192.716 23.4513 191.798 23.0773 190.868 22.76C189.962 22.4427 189.066 22.284 188.182 22.284Z" fill="#3E3E3E"/>
<path d="M219.045 42.616H213.197L206.839 32.382L204.663 33.946V42.616H199.529V18.34H204.663V29.458C205.003 28.982 205.343 28.506 205.683 28.03C206.023 27.554 206.363 27.078 206.703 26.602L213.265 18.34H218.977L210.511 29.084L219.045 42.616Z" fill="#3E3E3E"/>
</svg>
