<svg width="100" height="100" viewBox="0 0 100 100" fill="none" xmlns="http://www.w3.org/2000/svg">
<circle cx="50" cy="50" r="50" fill="url(#paint0_linear_192_1597)"/>
<mask id="mask0_192_1597" style="mask-type:alpha" maskUnits="userSpaceOnUse" x="0" y="0" width="100" height="100">
<circle cx="50" cy="50" r="50" fill="#D9D9D9"/>
</mask>
<g mask="url(#mask0_192_1597)">
<path d="M49.9988 20.4992C49.9988 20.4992 42.6078 32.7347 24.9976 33.4683V44.668C24.9976 76.2066 49.9988 79.8902 49.9988 79.8902C49.9988 79.8902 75 76.2066 75 44.668V33.4683C57.3895 32.7347 49.9988 20.4992 49.9988 20.4992Z" fill="white"/>
<path d="M56.4492 48.8805H43.5486C41.9785 48.8805 40.7056 50.1507 40.7056 51.7178V63.2566C40.7056 64.8237 41.9785 66.0939 43.5486 66.0939H56.4492C58.0193 66.0939 59.2922 64.8237 59.2922 63.2566V51.7178C59.2922 50.1507 58.0193 48.8805 56.4492 48.8805ZM48.7809 62.0942L45.4151 58.7351L46.67 57.4822L48.5468 59.3555L53.133 52.8802L54.5823 53.9029L48.7809 62.0942Z" fill="#04C000"/>
<path d="M45.9462 43.0485C45.9462 40.8182 47.7642 39.0043 49.9987 39.0043C52.2332 39.0043 54.0512 40.8185 54.0512 43.0485V47.3954H55.8384V43.0485C55.8384 39.8298 53.2239 37.2205 49.999 37.2205C46.7742 37.2205 44.1597 39.8298 44.1597 43.0485V47.3954H45.9469V43.0485H45.9462Z" fill="#04C000"/>
</g>
<defs>
<linearGradient id="paint0_linear_192_1597" x1="19.5" y1="-52" x2="62" y2="150.5" gradientUnits="userSpaceOnUse">
<stop stop-color="#04C100"/>
<stop offset="0.743747" stop-color="#F96118"/>
</linearGradient>
</defs>
</svg>
