<svg width="24" height="30" viewBox="0 0 24 30" fill="none" xmlns="http://www.w3.org/2000/svg">
<path d="M12.7654 9.02085C13.6224 8.22375 14.4148 7.48536 15.2072 6.74814C15.7578 6.23513 16.306 5.71978 16.8589 5.2103C17.2827 4.81938 17.8027 4.82995 18.176 5.25491C20.3654 7.74949 22.0688 10.5188 22.9574 13.7459C23.3953 15.3354 23.6183 16.9577 23.5596 18.6071C23.3589 24.2701 19.242 28.8038 14.0438 29.7957C13.6154 29.8779 13.1822 29.9319 12.742 29.9636C13.4217 29.7582 14.0556 29.4776 14.5979 29.0198C15.9162 27.9081 16.4328 26.4794 16.2038 24.7878C15.9456 22.8731 14.8902 21.3952 13.5297 20.1062C13.1552 19.7517 12.7408 19.4371 12.3299 19.1236C12.0329 18.8971 11.6842 18.8607 11.3696 19.0696C9.50193 20.3093 8.0357 21.8765 7.48513 24.1187C7.04843 25.8995 7.3783 27.5113 8.74592 28.8214C9.33406 29.3849 10.0443 29.7335 10.8367 29.926C10.8308 29.9507 10.8249 29.9753 10.8191 30C10.3237 29.9213 9.81889 29.8803 9.33406 29.7605C4.72759 28.6171 1.73409 25.7704 0.401689 21.2108C-0.047923 19.673 -0.0725752 18.0953 0.0964695 16.5081C0.520255 12.5227 2.22949 9.10654 4.72876 6.04378C6.57652 3.78046 8.72245 1.84232 11.1642 0.235218C11.6972 -0.115785 12.2066 -0.0805666 12.5353 0.38548C12.6809 0.590917 12.7549 0.889093 12.7572 1.14618C12.7736 3.62785 12.7666 6.10952 12.7666 8.59237C12.7666 8.70741 12.7666 8.82245 12.7666 9.02085H12.7654Z" fill="black"/>
</svg>
