<svg width="187" height="53" viewBox="0 0 187 53" fill="none" xmlns="http://www.w3.org/2000/svg">
<path d="M48.4245 7.24191C49.1182 3.21405 45.7871 -0.36865 41.7195 0.0304645C38.9638 0.300851 36.7228 2.36835 36.2318 5.09337L29.1108 44.6096C28.3641 48.7529 31.7855 52.4613 35.9754 52.0501C38.8183 51.7712 41.1243 49.6271 41.6092 46.812L42.9914 38.7868C43.6425 35.0062 46.7395 32.1267 50.5574 31.7521L51.7967 31.6305C54.7689 31.3389 57.2067 29.1495 57.8149 26.2256L58.3305 23.7466C59.0129 20.4663 56.3177 17.4653 52.9832 17.7925C49.7197 18.1127 47.0472 15.2383 47.6038 12.0068L48.4245 7.24191Z" fill="#026900"/>
<path d="M29.363 14.2752C30.0685 10.2416 26.7344 6.6464 22.6591 7.04626C19.9145 7.31557 17.6788 9.36758 17.1758 12.0791L12.2685 38.5319C11.5 42.6746 14.9174 46.3979 19.1107 45.9865C21.9407 45.7088 24.2382 43.5781 24.7281 40.7771L29.363 14.2752Z" fill="#026900"/>
<path d="M9.67711 29.2612C10.3257 26.265 7.86766 23.5056 4.81672 23.805C2.91511 23.9916 1.3361 25.3534 0.872234 27.207L0.139617 30.1345C-0.627529 33.2 1.87381 36.1002 5.01871 35.7916C6.9942 35.5977 8.61862 34.1507 9.03861 32.2107L9.67711 29.2612Z" fill="#026900"/>
<path d="M73.5089 36.3729H69.1851V15.6532H81.0539V19.2516H73.5089V24.5911H80.5315V28.1895H73.5089V36.3729Z" fill="#3E3E3E"/>
<path d="M92.8596 36.3729H83.4284V33.8772L85.9531 32.7164V19.3096L83.4284 18.1489V15.6532H92.8596V18.1489L90.335 19.3096V32.7164L92.8596 33.8772V36.3729Z" fill="#3E3E3E"/>
<path d="M104.371 36.3729H99.9888V19.3096H94.3591V15.6532H110V19.3096H104.371V36.3729Z" fill="#3E3E3E"/>
<path d="M119.231 15.6532C121.108 15.6532 122.656 15.8854 123.874 16.3497C125.093 16.7946 126.003 17.4814 126.602 18.41C127.202 19.3193 127.502 20.4704 127.502 21.8633C127.502 22.8113 127.318 23.6431 126.95 24.359C126.602 25.0554 126.128 25.6551 125.529 26.1581C124.948 26.6418 124.319 27.0384 123.642 27.3479L129.736 36.3729H124.861L119.928 28.4216H117.577V36.3729H113.195V15.6532H119.231ZM118.912 19.2516H117.577V24.8523H118.999C119.967 24.8523 120.75 24.7459 121.35 24.5331C121.95 24.3203 122.385 24.0011 122.656 23.5754C122.927 23.1305 123.062 22.5985 123.062 21.9794C123.062 21.3216 122.907 20.7993 122.598 20.4124C122.307 20.0061 121.853 19.7159 121.234 19.5418C120.634 19.3483 119.86 19.2516 118.912 19.2516Z" fill="#3E3E3E"/>
<path d="M145.034 36.3729L143.525 31.4396H135.98L134.471 36.3729H129.741L137.054 15.5662H142.422L149.764 36.3729H145.034ZM140.971 22.937C140.875 22.6081 140.749 22.1922 140.594 21.6892C140.439 21.1862 140.284 20.6735 140.13 20.1512C139.975 19.6288 139.849 19.1742 139.752 18.7873C139.656 19.1742 139.52 19.6579 139.346 20.2382C139.191 20.7993 139.037 21.341 138.882 21.8633C138.746 22.3663 138.64 22.7242 138.563 22.937L137.083 27.7542H142.48L140.971 22.937Z" fill="#3E3E3E"/>
<path d="M160.614 19.0194C159.782 19.0194 159.038 19.1839 158.38 19.5128C157.741 19.8416 157.2 20.3156 156.755 20.9347C156.31 21.5344 155.971 22.2696 155.739 23.1402C155.526 24.0107 155.42 24.9877 155.42 26.0711C155.42 27.5414 155.594 28.7989 155.942 29.8436C156.31 30.8689 156.88 31.6524 157.654 32.1941C158.428 32.7358 159.415 33.0066 160.614 33.0066C161.465 33.0066 162.307 32.9099 163.139 32.7164C163.99 32.523 164.909 32.2521 165.896 31.9039V35.5893C164.986 35.9569 164.087 36.2278 163.197 36.4019C162.307 36.576 161.311 36.663 160.208 36.663C158.08 36.663 156.319 36.2278 154.926 35.3572C153.553 34.4673 152.537 33.2291 151.879 31.6427C151.222 30.037 150.893 28.1701 150.893 26.0421C150.893 24.475 151.106 23.0434 151.531 21.7472C151.957 20.4317 152.576 19.3 153.388 18.352C154.22 17.404 155.236 16.6689 156.435 16.1466C157.654 15.6242 159.047 15.363 160.614 15.363C161.64 15.363 162.665 15.4985 163.69 15.7693C164.735 16.0208 165.731 16.369 166.679 16.814L165.257 20.3833C164.483 20.0158 163.7 19.6966 162.907 19.4257C162.133 19.1549 161.369 19.0194 160.614 19.0194Z" fill="#3E3E3E"/>
<path d="M186.955 36.3729H181.964L176.538 27.6381L174.68 28.973V36.3729H170.298V15.6532H174.68V25.1425C174.971 24.7362 175.261 24.3299 175.551 23.9237C175.841 23.5174 176.131 23.1111 176.421 22.7049L182.022 15.6532H186.897L179.672 24.8233L186.955 36.3729Z" fill="#3E3E3E"/>
</svg>
