<svg width="470" height="223" viewBox="0 0 470 223" fill="none" xmlns="http://www.w3.org/2000/svg">
<path d="M354.321 205.029H334.551V205.178H354.321V205.029Z" fill="#EBEBEB"/>
<path d="M283.48 206.653H278.293V206.802H283.48V206.653Z" fill="#EBEBEB"/>
<path d="M333.955 199.49H322.5V199.639H333.955V199.49Z" fill="#EBEBEB"/>
<path d="M142.869 200.493H117.089V200.642H142.869V200.493Z" fill="#EBEBEB"/>
<path d="M151.965 200.493H148.187V200.642H151.965V200.493Z" fill="#EBEBEB"/>
<path d="M220.167 203.012H164.25V203.161H220.167V203.012Z" fill="#EBEBEB"/>
<path d="M227.24 168.803H111.985C111.082 168.802 110.217 168.442 109.579 167.803C108.941 167.164 108.583 166.298 108.583 165.395V3.37845C108.59 2.48073 108.952 1.62236 109.589 0.989791C110.226 0.35722 111.087 0.00153785 111.985 0H227.24C228.144 0 229.011 0.359088 229.65 0.998268C230.289 1.63745 230.649 2.50436 230.649 3.4083V165.395C230.649 166.299 230.289 167.166 229.65 167.805C229.011 168.444 228.144 168.803 227.24 168.803ZM111.985 0.11938C111.122 0.120962 110.294 0.465024 109.684 1.07605C109.074 1.68707 108.732 2.51513 108.732 3.37845V165.395C108.732 166.258 109.074 167.086 109.684 167.697C110.294 168.308 111.122 168.652 111.985 168.654H227.24C228.104 168.653 228.932 168.309 229.543 167.698C230.154 167.087 230.498 166.259 230.499 165.395V3.37845C230.498 2.51458 230.154 1.68654 229.543 1.07568C228.932 0.46483 228.104 0.120958 227.24 0.11938H111.985Z" fill="#EBEBEB"/>
<path d="M356.356 168.803H241.094C240.191 168.802 239.325 168.442 238.686 167.803C238.047 167.164 237.688 166.298 237.686 165.395V3.37845C237.695 2.48019 238.059 1.62182 238.697 0.989417C239.335 0.357011 240.196 0.00152107 241.094 0H356.356C357.252 0.00310656 358.112 0.359482 358.748 0.991885C359.383 1.62429 359.744 2.48176 359.752 3.37845V165.395C359.752 166.297 359.395 167.162 358.758 167.801C358.121 168.44 357.258 168.8 356.356 168.803ZM241.094 0.11938C240.23 0.120958 239.402 0.46483 238.792 1.07568C238.181 1.68654 237.837 2.51458 237.835 3.37845V165.395C237.837 166.259 238.181 167.087 238.792 167.698C239.402 168.309 240.23 168.653 241.094 168.654H356.356C357.22 168.653 358.048 168.309 358.659 167.698C359.269 167.087 359.613 166.259 359.615 165.395V3.37845C359.613 2.51458 359.269 1.68654 358.659 1.07568C358.048 0.46483 357.22 0.120958 356.356 0.11938H241.094Z" fill="#EBEBEB"/>
<path d="M384.225 195.425H85.7749V195.574H384.225V195.425Z" fill="#EBEBEB"/>
<path d="M233.072 166.834C270.538 166.834 300.91 136.462 300.91 98.9959C300.91 61.5302 270.538 31.1582 233.072 31.1582C195.606 31.1582 165.234 61.5302 165.234 98.9959C165.234 136.462 195.606 166.834 233.072 166.834Z" fill="#F0F0F0"/>
<path d="M234.093 20.7184V21.3153H233.806C233.132 21.3153 232.463 21.3153 231.794 21.3511C231.126 21.3869 230.469 21.3929 229.813 21.4347C229.156 21.4765 228.416 21.5183 227.724 21.572C225.981 21.7152 224.254 21.9142 222.543 22.1689C210.835 23.9303 199.677 28.3129 189.901 34.9897C180.124 41.6664 171.982 50.465 166.082 60.7286C165.962 60.9256 165.849 61.1285 165.736 61.3255C159.115 73.0545 155.644 86.2975 155.66 99.7659V99.8912C155.66 100.088 155.66 100.291 155.66 100.488C155.761 114.05 159.398 127.352 166.213 139.078L166.565 139.675C173.086 150.704 182.206 159.971 193.131 166.666C204.055 173.361 216.452 177.282 229.24 178.085C230.434 178.157 231.615 178.203 232.785 178.222H234.104V178.819H233.442C230.419 178.796 227.399 178.597 224.399 178.222C212.343 176.716 200.796 172.454 190.652 165.768C180.508 159.081 172.039 150.148 165.903 139.663L165.556 139.066C158.775 127.253 155.167 113.886 155.082 100.265C154.997 86.6446 158.439 73.2338 165.073 61.3375L165.407 60.7406C171.046 50.8414 178.752 42.2733 187.999 35.6194C197.247 28.9655 207.819 24.382 218.997 22.1808C220.163 21.954 221.333 21.755 222.507 21.5839C226.342 21.0125 230.215 20.7232 234.093 20.7184Z" fill="#E0E0E0"/>
<path d="M233.598 178.807C211.656 178.807 194.172 122.042 194.172 99.7659C194.172 88.1383 199.085 68.1302 205.854 52.1213C210.82 40.3922 221.099 20.7184 234.093 20.7184V21.3153C212.634 21.3153 194.769 78.2775 194.769 99.7659C194.769 109.734 198.685 129.223 206.158 147.178C210.981 158.769 220.961 178.216 233.616 178.216L233.598 178.807Z" fill="#E0E0E0"/>
<path d="M233.775 21.018L232.841 178.513L233.438 178.517L234.372 21.0215L233.775 21.018Z" fill="#E0E0E0"/>
<path d="M231.783 178.807V178.21C275.034 178.21 310.227 143.023 310.227 99.7659C310.227 56.5085 275.01 21.3153 231.783 21.3153V20.7184C275.356 20.7184 310.824 56.1802 310.824 99.7659C310.824 143.352 275.368 178.807 231.783 178.807Z" fill="#E0E0E0"/>
<path d="M232.278 178.807V178.21C244.915 178.21 254.895 158.769 259.736 147.172C267.215 129.217 271.125 109.728 271.125 99.7599C271.125 78.2715 253.259 21.3093 231.801 21.3093V20.7124C244.795 20.7124 255.08 40.4101 260.04 52.1153C266.809 68.0944 271.721 88.1323 271.721 99.7599C271.704 122.042 254.22 178.807 232.278 178.807Z" fill="#E0E0E0"/>
<path d="M232.076 21.0246L231.479 21.0283L232.469 178.523L233.066 178.52L232.076 21.0246Z" fill="#E0E0E0"/>
<path d="M299.692 139.054H262.935H233.645H233.048H232.529H203.257H202.576H166.565H165.873L165.527 138.457H166.213H202.368H203.048H232.523H233.054H233.651H263.15H300.038L299.692 139.054Z" fill="#E0E0E0"/>
<path d="M300.182 60.1317H165.378L165.043 60.7286H300.54L300.182 60.1317Z" fill="#E0E0E0"/>
<path d="M309.798 98.9959H154.622V99.5928H309.798V98.9959Z" fill="#E0E0E0"/>
<path d="M155.636 97.3365H155.039V101.706H155.636V97.3365Z" fill="#E0E0E0"/>
<path d="M165.33 97.3365H164.733V101.706H165.33V97.3365Z" fill="#E0E0E0"/>
<path d="M175.024 97.3365H174.427V101.706H175.024V97.3365Z" fill="#E0E0E0"/>
<path d="M184.711 97.3365H184.114V101.706H184.711V97.3365Z" fill="#E0E0E0"/>
<path d="M194.405 97.3365H193.808V101.706H194.405V97.3365Z" fill="#E0E0E0"/>
<path d="M204.093 97.3365H203.496V101.706H204.093V97.3365Z" fill="#E0E0E0"/>
<path d="M213.786 97.3365H213.189V101.706H213.786V97.3365Z" fill="#E0E0E0"/>
<path d="M223.474 97.3365H222.877V101.706H223.474V97.3365Z" fill="#E0E0E0"/>
<path d="M233.168 97.3365H232.571V101.706H233.168V97.3365Z" fill="#E0E0E0"/>
<path d="M242.862 97.3365H242.265V101.706H242.862V97.3365Z" fill="#E0E0E0"/>
<path d="M252.549 97.3365H251.952V101.706H252.549V97.3365Z" fill="#E0E0E0"/>
<path d="M262.243 97.3365H261.646V101.706H262.243V97.3365Z" fill="#E0E0E0"/>
<path d="M271.93 97.3365H271.333V101.706H271.93V97.3365Z" fill="#E0E0E0"/>
<path d="M281.624 97.3365H281.027V101.706H281.624V97.3365Z" fill="#E0E0E0"/>
<path d="M291.311 97.3365H290.714V101.706H291.311V97.3365Z" fill="#E0E0E0"/>
<path d="M301.005 97.3365H300.408V101.706H301.005V97.3365Z" fill="#E0E0E0"/>
<path d="M310.699 97.3365H310.102V101.706H310.699V97.3365Z" fill="#E0E0E0"/>
<path d="M149.631 172.731H108.731V177.739H149.631V172.731Z" fill="#EBEBEB"/>
<path d="M164.249 179.84H108.731V184.848H164.249V179.84Z" fill="#E0E0E0"/>
<path d="M124.925 186.883H108.731V191.891H124.925V186.883Z" fill="#F0F0F0"/>
<path d="M149.631 172.731H108.731V177.739H149.631V172.731Z" fill="#EBEBEB"/>
<path d="M164.249 179.84H108.731V184.848H164.249V179.84Z" fill="#E0E0E0"/>
<path d="M124.925 186.883H108.731V191.891H124.925V186.883Z" fill="#F0F0F0"/>
<path d="M445.919 172.731H405.02V177.739H445.919V172.731Z" fill="#EBEBEB"/>
<path d="M460.537 179.84H405.02V184.848H460.537V179.84Z" fill="#E0E0E0"/>
<path d="M421.213 186.883H405.02V191.891H421.213V186.883Z" fill="#F0F0F0"/>
<path d="M347.148 172.731H341.525V192.888H347.148V172.731Z" fill="#EBEBEB"/>
<path d="M358.191 185.678H352.568V192.882H358.191V185.678Z" fill="#EBEBEB"/>
<path d="M369.227 182.114H363.604V192.882H369.227V182.114Z" fill="#EBEBEB"/>
<path d="M380.27 188.758H374.647V192.888H380.27V188.758Z" fill="#EBEBEB"/>
<path d="M391.313 178.043H385.69V192.882H391.313V178.043Z" fill="#EBEBEB"/>
<path d="M325.604 184.492C326.981 178.656 323.367 172.808 317.531 171.431C311.694 170.053 305.847 173.668 304.469 179.504C303.092 185.34 306.706 191.188 312.542 192.565C318.379 193.943 324.226 190.328 325.604 184.492Z" stroke="#EBEBEB" stroke-width="2" stroke-miterlimit="10"/>
<path d="M314.85 185.606L321.809 181.523L315.082 188.006L314.85 185.606Z" fill="#EBEBEB"/>
<path d="M322.538 187.361L322.054 187.009C322.989 185.718 323.55 184.194 323.674 182.606C323.799 181.017 323.483 179.424 322.761 178.004C322.039 176.583 320.938 175.389 319.581 174.553C318.224 173.718 316.663 173.273 315.069 173.267C313.476 173.262 311.911 173.696 310.549 174.523C309.186 175.349 308.078 176.536 307.346 177.951C306.614 179.367 306.287 180.957 306.401 182.547C306.515 184.137 307.065 185.664 307.991 186.961L307.508 187.307C306.518 185.921 305.93 184.288 305.808 182.589C305.686 180.889 306.036 179.189 306.818 177.676C307.601 176.162 308.785 174.894 310.242 174.011C311.699 173.128 313.371 172.663 315.075 172.669C316.779 172.676 318.448 173.152 319.898 174.045C321.349 174.939 322.525 176.216 323.296 177.735C324.068 179.254 324.405 180.956 324.271 182.654C324.138 184.353 323.538 185.982 322.538 187.361Z" fill="#EBEBEB"/>
<path d="M54.7395 172.731H60.3623V192.888H54.7395V172.731Z" fill="#EBEBEB"/>
<path d="M43.697 185.678H49.3198V192.882H43.697V185.678Z" fill="#EBEBEB"/>
<path d="M32.6604 182.114H38.2832V192.882H32.6604V182.114Z" fill="#EBEBEB"/>
<path d="M21.6174 188.758H27.2402V192.888H21.6174V188.758Z" fill="#EBEBEB"/>
<path d="M10.5749 178.043H16.1978V192.882H10.5749V178.043Z" fill="#EBEBEB"/>
<path d="M76.2835 184.492C74.906 178.656 78.5205 172.808 84.3566 171.431C90.1928 170.053 96.0406 173.668 97.418 179.504C98.7955 185.34 95.181 191.188 89.3448 192.565C83.5087 193.943 77.6609 190.328 76.2835 184.492Z" stroke="#EBEBEB" stroke-width="2" stroke-miterlimit="10"/>
<path d="M87.0376 185.606L80.0777 181.523L86.8048 188.006L87.0376 185.606Z" fill="#EBEBEB"/>
<path d="M79.3499 187.361L79.8334 187.009C78.8985 185.718 78.3379 184.194 78.2133 182.606C78.0886 181.017 78.4048 179.424 79.1269 178.004C79.8491 176.583 80.9492 175.389 82.3063 174.553C83.6633 173.718 85.2246 173.273 86.8183 173.267C88.412 173.262 89.9764 173.696 91.339 174.523C92.7017 175.349 93.81 176.536 94.5418 177.951C95.2735 179.367 95.6005 180.957 95.4866 182.547C95.3728 184.137 94.8225 185.664 93.8964 186.961L94.3799 187.307C95.3699 185.921 95.9582 184.288 96.0799 182.589C96.2015 180.889 95.852 179.189 95.0695 177.676C94.2871 176.162 93.1023 174.894 91.6454 174.011C90.1886 173.128 88.5162 172.663 86.8125 172.669C85.1088 172.676 83.4398 173.152 81.9893 174.045C80.5388 174.939 79.363 176.216 78.5915 177.735C77.8199 179.254 77.4825 180.956 77.6163 182.654C77.7501 184.353 78.35 185.982 79.3499 187.361Z" fill="#EBEBEB"/>
<path d="M170.416 10.5711H165.348V15.6388H170.416V10.5711Z" fill="#E0E0E0"/>
<path d="M176.098 10.5711H171.03V15.6388H176.098V10.5711Z" fill="#E6E6E6"/>
<path d="M181.78 10.5711H176.712V15.6388H181.78V10.5711Z" fill="#EBEBEB"/>
<path d="M187.463 10.5054H182.395V15.5731H187.463V10.5054Z" fill="#F0F0F0"/>
<path d="M193.139 10.5711H188.072V15.6388H193.139V10.5711Z" fill="#F5F5F5"/>
<path d="M198.822 10.5711H193.754V15.6388H198.822V10.5711Z" fill="#FAFAFA"/>
<path d="M273.649 20.0618C273.649 21.2556 272.772 21.9958 271.375 21.9958H270.33L270.08 23.2791H268.987L269.924 18.5994H271.817C272.987 18.6054 273.649 19.1485 273.649 20.0618ZM272.551 20.1573C272.551 19.7037 272.228 19.4888 271.685 19.4888H270.814L270.491 21.1123H271.411C272.139 21.1123 272.551 20.7781 272.551 20.1573Z" fill="#E0E0E0"/>
<path d="M275.655 19.4768L275.458 20.4916H277.631L277.464 21.3332H275.285L275.07 22.4196H277.619L277.44 23.2791H273.799L274.736 18.5994H278.27L278.091 19.4709L275.655 19.4768Z" fill="#E0E0E0"/>
<path d="M281.642 21.8406L282.454 23.2791H281.314L280.58 21.9719H279.655L279.398 23.2791H278.306L279.243 18.5994H281.147C282.311 18.5994 282.979 19.1366 282.979 20.0499C282.993 20.4557 282.867 20.854 282.624 21.1794C282.382 21.5048 282.035 21.7379 281.642 21.8406ZM281.881 20.1573C281.881 19.7037 281.559 19.4888 281.004 19.4888H280.15L279.822 21.1123H280.747C281.463 21.1123 281.881 20.7781 281.881 20.1573Z" fill="#E0E0E0"/>
<path d="M282.973 22.8434L283.415 22.0077C283.866 22.3287 284.407 22.5 284.961 22.4972C285.558 22.4972 285.928 22.2882 285.928 21.948C285.928 21.2019 283.606 21.6018 283.606 20.1096C283.606 19.1486 284.453 18.5278 285.749 18.5278C286.315 18.509 286.874 18.6474 287.366 18.9277L286.931 19.7574C286.554 19.5142 286.114 19.3876 285.665 19.3933C285.032 19.3933 284.668 19.638 284.668 19.9902C284.668 20.7542 286.984 20.3543 286.984 21.7809C286.984 22.7479 286.131 23.3746 284.83 23.3746C284.172 23.3854 283.526 23.2005 282.973 22.8434Z" fill="#E0E0E0"/>
<path d="M287.634 21.3332C287.623 20.9546 287.691 20.5777 287.832 20.2263C287.973 19.8748 288.186 19.5563 288.456 19.2907C288.726 19.0251 289.048 18.8182 289.401 18.6828C289.755 18.5474 290.133 18.4865 290.512 18.5039C291.932 18.5039 292.792 19.3336 292.792 20.5333C292.804 20.9125 292.737 21.29 292.596 21.6421C292.455 21.9943 292.243 22.3135 291.973 22.5798C291.703 22.846 291.38 23.0535 291.026 23.1893C290.672 23.325 290.294 23.3861 289.915 23.3686C288.488 23.3686 287.634 22.5389 287.634 21.3332ZM291.711 20.6169C291.721 20.4502 291.695 20.2833 291.633 20.1281C291.571 19.9729 291.476 19.8333 291.354 19.7193C291.232 19.6052 291.086 19.5195 290.927 19.4683C290.768 19.4171 290.6 19.4017 290.434 19.4231C290.197 19.4214 289.962 19.4693 289.744 19.5635C289.526 19.6577 289.33 19.7963 289.169 19.9704C289.008 20.1446 288.885 20.3504 288.808 20.5747C288.731 20.7991 288.701 21.0371 288.721 21.2735C288.71 21.4399 288.736 21.6067 288.797 21.7619C288.858 21.9171 288.953 22.0569 289.074 22.171C289.196 22.2852 289.341 22.371 289.5 22.4222C289.659 22.4735 289.827 22.4889 289.992 22.4673C290.23 22.469 290.465 22.4212 290.682 22.3269C290.9 22.2327 291.096 22.0941 291.257 21.92C291.418 21.7459 291.541 21.5401 291.618 21.3157C291.696 21.0913 291.725 20.8533 291.705 20.6169H291.711Z" fill="#E0E0E0"/>
<path d="M298.361 18.6053L297.424 23.2791H296.535L294.792 20.3543L294.195 23.2791H293.126L294.093 18.6053H294.989L296.732 21.5421L297.329 18.6053H298.361Z" fill="#E0E0E0"/>
<path d="M301.853 22.2823H299.674L299.077 23.285H297.919L300.946 18.6053H302.02L303.166 23.2791H302.086L301.853 22.2823ZM301.674 21.4585L301.28 19.6678L300.176 21.4585H301.674Z" fill="#E0E0E0"/>
<path d="M304.593 18.6053H305.685L304.921 22.4016H307.267L307.088 23.285H303.644L304.593 18.6053Z" fill="#E0E0E0"/>
<path d="M288.214 26.1144H290.172C291.616 26.1144 292.476 26.8665 292.476 28.0662C292.476 29.7137 291.282 30.7881 289.563 30.7881H287.277L288.214 26.1144ZM289.593 29.8987C289.832 29.9155 290.073 29.8808 290.298 29.7967C290.522 29.7127 290.727 29.5813 290.896 29.4116C291.066 29.2418 291.197 29.0376 291.282 28.8127C291.366 28.5878 291.4 28.3475 291.384 28.108C291.384 27.4097 290.936 26.9799 290.058 26.9799H289.127L288.53 29.8808L289.593 29.8987Z" fill="#E0E0E0"/>
<path d="M296.063 29.7853H293.884L293.287 30.7881H292.129L295.156 26.1144H296.224L297.376 30.7881H296.296L296.063 29.7853ZM295.878 28.9676L295.484 27.1769L294.386 28.9676H295.878Z" fill="#E0E0E0"/>
<path d="M299.346 26.9918H297.848L298.027 26.1144H302.104L301.924 26.9918H300.432L299.674 30.7881H298.588L299.346 26.9918Z" fill="#E0E0E0"/>
<path d="M304.837 29.7853H302.659L302.062 30.7881H300.904L303.93 26.1144H305.005L306.151 30.7881H305.07L304.837 29.7853ZM304.658 28.9676L304.264 27.1769L303.16 28.9676H304.658Z" fill="#E0E0E0"/>
<path d="M235 222.146C364.787 222.146 470 218.989 470 215.096C470 211.202 364.787 208.046 235 208.046C105.213 208.046 0 211.202 0 215.096C0 218.989 105.213 222.146 235 222.146Z" fill="#F5F5F5"/>
<path d="M145.77 138.648H135.443V148.974H145.77V138.648Z" fill="#F96118"/>
<path opacity="0.3" d="M145.77 138.648H135.443V148.974H145.77V138.648Z" fill="white"/>
<path d="M140.523 122.788L127.069 136.242H132.137V148.974H137.968V140.666H143.078V148.974H148.909V136.242H153.983L140.523 122.788Z" fill="#F96118"/>
<path d="M212.39 188.286L153.518 155.916H132.089V155.319H153.667L153.738 155.355L212.676 187.761L212.39 188.286Z" fill="#F96118"/>
<path d="M128.448 85.3568C128.507 90.2992 130.59 95.5041 134.894 97.9574C136.181 98.6788 137.604 99.124 139.072 99.2646C143.758 99.7123 148.414 96.7875 150.646 92.639C152.879 88.4906 152.879 83.3692 151.321 78.9103C149.763 74.4515 142.893 63.8863 137.335 67.5692C131.778 71.2521 128.37 78.7909 128.448 85.3568Z" fill="#F96118"/>
<path opacity="0.7" d="M128.448 85.3568C128.507 90.2992 130.59 95.5041 134.894 97.9574C136.181 98.6788 137.604 99.124 139.072 99.2646C143.758 99.7123 148.414 96.7875 150.646 92.639C152.879 88.4906 152.879 83.3692 151.321 78.9103C149.763 74.4515 142.893 63.8863 137.335 67.5692C131.778 71.2521 128.37 78.7909 128.448 85.3568Z" fill="white"/>
<path d="M131.181 91.111C131.09 91.1106 131.001 91.0816 130.927 91.0281C130.853 90.9745 130.798 90.8991 130.769 90.8125C130.081 88.5824 129.749 86.2578 129.784 83.9243C129.812 80.6283 130.854 77.4207 132.769 74.738C132.835 74.6446 132.936 74.5814 133.049 74.5624C133.162 74.5434 133.278 74.57 133.372 74.6365C133.465 74.703 133.528 74.8039 133.547 74.9169C133.566 75.03 133.54 75.146 133.473 75.2394C131.653 77.7727 130.657 80.805 130.62 83.9243C130.583 86.1668 130.902 88.4009 131.563 90.5439C131.597 90.6531 131.587 90.7713 131.534 90.873C131.482 90.9746 131.391 91.0515 131.283 91.0871C131.25 91.1002 131.216 91.1083 131.181 91.111Z" fill="#F96118"/>
<path d="M137.592 97.7962C137.556 97.8019 137.52 97.8019 137.485 97.7962C136.185 97.4467 134.979 96.8129 133.954 95.9407C132.929 95.0685 132.11 93.9795 131.557 92.7524C131.532 92.7019 131.517 92.6468 131.512 92.5903C131.508 92.5339 131.515 92.4771 131.533 92.4234C131.551 92.3696 131.579 92.3199 131.616 92.277C131.653 92.2341 131.698 92.1989 131.748 92.1734C131.799 92.148 131.854 92.1327 131.91 92.1285C131.967 92.1243 132.024 92.1313 132.077 92.149C132.131 92.1668 132.181 92.1949 132.224 92.2319C132.267 92.2688 132.302 92.3139 132.327 92.3644C132.827 93.4803 133.568 94.4714 134.497 95.2662C135.426 96.061 136.52 96.6397 137.699 96.9606C137.809 96.9926 137.902 97.0659 137.959 97.1649C138.015 97.2639 138.032 97.3811 138.004 97.4918C137.976 97.5795 137.921 97.6562 137.847 97.7109C137.773 97.7656 137.684 97.7955 137.592 97.7962Z" fill="#F96118"/>
<path d="M140.242 98.1186C140.186 98.1186 140.13 98.1074 140.078 98.0858C140.026 98.0642 139.978 98.0326 139.938 97.9927C139.898 97.9528 139.867 97.9054 139.845 97.8533C139.824 97.8011 139.812 97.7452 139.812 97.6888C139.812 97.6324 139.824 97.5765 139.845 97.5243C139.867 97.4722 139.898 97.4248 139.938 97.3849C139.978 97.345 140.026 97.3133 140.078 97.2917C140.13 97.2701 140.186 97.259 140.242 97.259C145.37 97.259 148.485 94.2327 149.494 88.2697C149.515 88.1565 149.579 88.0557 149.672 87.9888C149.766 87.9219 149.882 87.8942 149.996 87.9116C150.108 87.932 150.209 87.996 150.275 88.0899C150.341 88.1838 150.367 88.2999 150.348 88.413C149.273 94.764 145.776 98.1186 140.242 98.1186Z" fill="#F96118"/>
<path d="M150.168 86.7655H150.133C150.076 86.761 150.021 86.7454 149.971 86.7195C149.92 86.6936 149.875 86.658 149.839 86.6147C149.802 86.5714 149.774 86.5213 149.757 86.4673C149.74 86.4133 149.734 86.3564 149.739 86.2999C149.798 85.5478 149.834 84.748 149.834 83.9123C149.812 81.5459 149.225 79.2189 148.121 77.1256C148.091 77.0752 148.072 77.0192 148.065 76.9611C148.058 76.9029 148.063 76.844 148.08 76.7879C148.097 76.7318 148.125 76.6798 148.163 76.6352C148.201 76.5906 148.248 76.5543 148.3 76.5287C148.351 76.4997 148.407 76.4814 148.465 76.4747C148.523 76.4681 148.581 76.4733 148.637 76.4901C148.693 76.5068 148.745 76.5348 148.789 76.5722C148.834 76.6096 148.871 76.6557 148.897 76.7077C150.058 78.9178 150.672 81.3741 150.688 83.8705C150.688 84.7122 150.658 85.5359 150.592 86.3119C150.596 86.3698 150.587 86.4278 150.567 86.4823C150.547 86.5368 150.517 86.5868 150.477 86.6292C150.438 86.6716 150.39 86.7055 150.337 86.7289C150.284 86.7524 150.226 86.7648 150.168 86.7655Z" fill="#F96118"/>
<path d="M147.799 76.1527C147.727 76.1526 147.656 76.1346 147.592 76.1002C147.528 76.0658 147.474 76.0161 147.435 75.9557C146.416 74.3101 145.074 72.8886 143.489 71.7774C143.442 71.7461 143.402 71.7058 143.37 71.6588C143.339 71.6119 143.317 71.5592 143.306 71.5037C143.295 71.4483 143.295 71.3912 143.306 71.3357C143.317 71.2802 143.338 71.2275 143.37 71.1805C143.401 71.1328 143.441 71.0917 143.488 71.0597C143.535 71.0277 143.587 71.0055 143.643 70.9944C143.699 70.9833 143.756 70.9834 143.812 70.9949C143.867 71.0063 143.92 71.0289 143.967 71.0611C145.644 72.2335 147.065 73.7342 148.145 75.4722C148.176 75.5199 148.197 75.5733 148.207 75.6292C148.217 75.6852 148.216 75.7425 148.204 75.7981C148.192 75.8536 148.169 75.9061 148.136 75.9526C148.103 75.9992 148.062 76.0387 148.014 76.0691C147.951 76.1166 147.877 76.1455 147.799 76.1527Z" fill="#F96118"/>
<path d="M135.127 73.1383C135.04 73.1386 134.955 73.1127 134.884 73.064C134.812 73.0153 134.757 72.9461 134.725 72.8654C134.693 72.7847 134.687 72.6963 134.706 72.6119C134.726 72.5274 134.77 72.4508 134.834 72.3922C136.625 70.7029 138.601 69.736 140.242 69.736C141.099 69.7527 141.943 69.9564 142.713 70.3329C142.817 70.3819 142.897 70.4702 142.936 70.5782C142.974 70.6862 142.968 70.8052 142.919 70.9089C142.87 71.0126 142.782 71.0925 142.674 71.1311C142.566 71.1697 142.447 71.1639 142.343 71.1148C141.691 70.7831 140.974 70.5977 140.242 70.5716C138.821 70.5716 137.067 71.455 135.425 73.001C135.347 73.084 135.24 73.1332 135.127 73.1383Z" fill="#F96118"/>
<path d="M132.256 88.0668C132.155 88.067 132.057 88.0319 131.98 87.9675C131.902 87.9032 131.85 87.8136 131.832 87.7146C131.611 86.4995 131.503 85.2667 131.51 84.0317C131.51 77.3226 136.828 72.2787 140.272 72.2787C141.288 72.3251 142.273 72.6425 143.125 73.198C143.174 73.2274 143.217 73.2662 143.251 73.3123C143.285 73.3584 143.309 73.4108 143.322 73.4663C143.336 73.5219 143.338 73.5796 143.328 73.636C143.319 73.6924 143.299 73.7464 143.268 73.7949C143.209 73.8937 143.113 73.9649 143.001 73.9928C142.889 74.0208 142.771 74.0033 142.672 73.9441C141.961 73.4703 141.137 73.1942 140.284 73.1443C137.168 73.1443 132.387 78.0269 132.387 84.0377C132.381 85.2204 132.483 86.4012 132.691 87.5654C132.702 87.621 132.701 87.6782 132.689 87.7336C132.677 87.7889 132.655 87.8414 132.623 87.888C132.59 87.9346 132.549 87.9744 132.502 88.0051C132.454 88.0357 132.401 88.0567 132.345 88.0668H132.256Z" fill="#F96118"/>
<path d="M135.39 94.1253C135.29 94.1263 135.193 94.0926 135.115 94.0298C133.845 92.9118 132.905 91.4666 132.399 89.8515C132.38 89.7983 132.371 89.7416 132.373 89.6849C132.376 89.6282 132.39 89.5725 132.415 89.5213C132.439 89.4701 132.474 89.4243 132.516 89.3867C132.559 89.3491 132.608 89.3204 132.662 89.3024C132.77 89.2658 132.888 89.2728 132.99 89.3219C133.093 89.371 133.172 89.4582 133.211 89.565C133.673 91.0243 134.523 92.3304 135.67 93.3434C135.738 93.4004 135.786 93.4768 135.809 93.5622C135.831 93.6477 135.827 93.738 135.796 93.8208C135.766 93.9037 135.71 93.9751 135.637 94.0253C135.565 94.0755 135.478 94.1021 135.39 94.1014V94.1253Z" fill="#F96118"/>
<path d="M140.272 95.7847C139.133 95.7975 138.003 95.5824 136.948 95.152C136.85 95.1017 136.774 95.0161 136.737 94.9126C136.699 94.809 136.703 94.6951 136.746 94.5938C136.789 94.4925 136.869 94.4112 136.969 94.3664C137.07 94.3215 137.184 94.3165 137.288 94.3521C138.232 94.7503 139.247 94.9534 140.272 94.949C147.149 94.949 148.175 88.1265 148.175 84.0616C148.175 83.9476 148.221 83.8383 148.301 83.7577C148.382 83.6771 148.491 83.6318 148.605 83.6318C148.719 83.6318 148.828 83.6771 148.909 83.7577C148.99 83.8383 149.035 83.9476 149.035 84.0616C149.047 91.6124 145.925 95.7847 140.272 95.7847Z" fill="#F96118"/>
<path d="M148.498 82.8917C148.393 82.8923 148.292 82.8543 148.214 82.7849C148.135 82.7154 148.086 82.6195 148.074 82.5156C147.675 79.6962 146.335 77.0942 144.272 75.132C144.23 75.0928 144.197 75.0459 144.174 74.9939C144.151 74.9419 144.139 74.886 144.137 74.8291C144.135 74.7144 144.177 74.6033 144.257 74.5201C144.336 74.437 144.445 74.3888 144.559 74.386C144.674 74.3832 144.785 74.4261 144.868 74.5052C147.09 76.5969 148.534 79.3816 148.963 82.4022C148.971 82.4583 148.967 82.5153 148.953 82.5699C148.938 82.6246 148.913 82.6759 148.878 82.7208C148.844 82.7657 148.801 82.8034 148.752 82.8317C148.703 82.86 148.649 82.8783 148.593 82.8857L148.498 82.8917Z" fill="#F96118"/>
<path d="M140.308 93.4448C135.944 93.4448 133.234 89.8634 133.234 84.1332C133.257 81.8239 134.046 79.5876 135.479 77.7762C135.514 77.7315 135.557 77.6942 135.606 77.6662C135.656 77.6383 135.71 77.6204 135.766 77.6134C135.822 77.6065 135.88 77.6107 135.934 77.6259C135.989 77.641 136.04 77.6667 136.085 77.7016C136.129 77.7365 136.167 77.7798 136.195 77.8292C136.222 77.8785 136.24 77.9328 136.247 77.9891C136.254 78.0453 136.25 78.1024 136.235 78.157C136.22 78.2117 136.194 78.2628 136.159 78.3075C134.846 79.9774 134.13 82.0387 134.124 84.163C134.124 89.4516 136.446 92.6092 140.332 92.6092C141.414 92.6378 142.484 92.3672 143.423 91.8272C143.51 91.8103 143.6 91.8201 143.681 91.8554C143.762 91.8908 143.831 91.9499 143.877 92.0251C143.924 92.1002 143.947 92.1878 143.942 92.2761C143.938 92.3645 143.907 92.4494 143.853 92.5196C142.779 93.1482 141.552 93.4683 140.308 93.4448Z" fill="#F96118"/>
<path d="M145.233 91.111C145.141 91.1098 145.051 91.0807 144.976 91.0274C144.886 90.9596 144.826 90.859 144.809 90.7473C144.792 90.6356 144.82 90.5218 144.886 90.4305C145.949 88.98 146.516 86.8073 146.516 84.1392C146.516 79.4714 142.756 75.6871 140.308 75.6871C139.408 75.7518 138.55 76.0915 137.849 76.66C137.757 76.7244 137.643 76.7504 137.531 76.7326C137.42 76.7148 137.32 76.6545 137.252 76.5645C137.219 76.5192 137.195 76.4677 137.181 76.4131C137.168 76.3584 137.166 76.3016 137.175 76.246C137.184 76.1905 137.204 76.1372 137.233 76.0894C137.263 76.0416 137.302 76.0002 137.348 75.9676C138.197 75.2827 139.242 74.8855 140.332 74.8335C143.114 74.8335 147.399 78.8327 147.399 84.1451C147.399 86.9983 146.803 89.3501 145.609 90.9438C145.565 91.0013 145.508 91.0469 145.442 91.0761C145.377 91.1053 145.304 91.1173 145.233 91.111Z" fill="#F96118"/>
<path d="M136.948 89.6486C136.886 89.6481 136.826 89.6345 136.77 89.6088C136.715 89.5831 136.665 89.5457 136.625 89.4993C135.551 88.3055 134.96 86.4193 134.96 84.2347C134.96 80.5339 137.944 77.3643 140.332 77.3643C140.776 77.3694 141.214 77.4627 141.621 77.6389C141.678 77.6601 141.73 77.693 141.773 77.7355C141.816 77.7779 141.849 77.829 141.871 77.8853C141.893 77.9417 141.903 78.002 141.9 78.0624C141.897 78.1228 141.882 78.1819 141.854 78.2358C141.833 78.2884 141.802 78.3363 141.762 78.3767C141.722 78.417 141.675 78.449 141.623 78.4707C141.57 78.4924 141.514 78.5034 141.458 78.503C141.401 78.5027 141.345 78.491 141.293 78.4686C140.99 78.3337 140.664 78.2606 140.332 78.2537C138.541 78.2537 135.819 80.8383 135.819 84.2645C135.819 86.2343 136.333 87.9056 137.264 88.9561C137.337 89.0408 137.374 89.1504 137.367 89.2618C137.36 89.3732 137.31 89.4777 137.228 89.553C137.149 89.6181 137.05 89.6521 136.948 89.6486Z" fill="#F96118"/>
<path d="M140.338 91.111C139.622 91.1164 138.914 90.9763 138.254 90.6991C138.162 90.6456 138.092 90.5598 138.058 90.458C138.024 90.3562 138.03 90.2456 138.072 90.1473C138.115 90.0491 138.193 89.9701 138.29 89.9254C138.388 89.8807 138.498 89.8736 138.601 89.9052C139.15 90.1374 139.741 90.2533 140.338 90.2455C144.414 90.2455 144.856 86.0672 144.856 84.2347C144.84 83.2891 144.627 82.3571 144.232 81.4981C143.836 80.6391 143.266 79.8716 142.558 79.2446C142.475 79.17 142.424 79.066 142.416 78.9546C142.408 78.8432 142.444 78.7331 142.516 78.6477C142.592 78.5658 142.695 78.5159 142.806 78.5081C142.917 78.5004 143.027 78.5354 143.113 78.6059C143.919 79.3101 144.566 80.1768 145.012 81.149C145.459 82.1212 145.694 83.1768 145.704 84.2466C145.716 88.5383 143.71 91.111 140.338 91.111Z" fill="#F96118"/>
<path d="M140.374 88.7711C138.583 88.7711 137.234 87.5773 136.792 85.6195C136.773 85.5613 136.767 85.4998 136.773 85.4389C136.779 85.378 136.798 85.3191 136.829 85.2661C136.859 85.213 136.901 85.167 136.95 85.131C137 85.0951 137.056 85.0699 137.116 85.0573C137.176 85.0446 137.238 85.0447 137.298 85.0576C137.358 85.0704 137.414 85.0958 137.464 85.1319C137.513 85.1681 137.554 85.2142 137.585 85.2674C137.615 85.3205 137.634 85.3795 137.64 85.4404C137.968 87.0103 138.959 87.9056 140.35 87.9056C142.427 87.9056 143.167 86.0612 143.167 84.3242C143.169 84.2097 143.215 84.1004 143.297 84.0199C143.378 83.9395 143.488 83.8944 143.603 83.8944C143.717 83.8944 143.826 83.9397 143.907 84.0203C143.987 84.1009 144.033 84.2102 144.033 84.3242C144.057 87.0341 142.612 88.7711 140.374 88.7711Z" fill="#F96118"/>
<path d="M137.109 84.7599C136.993 84.7599 136.882 84.714 136.8 84.6323C136.719 84.5506 136.673 84.4398 136.673 84.3242C136.673 81.8292 138.655 79.8952 140.362 79.8952C141.675 79.8952 143.084 81.0353 143.71 82.6111C143.732 82.6636 143.742 82.7198 143.742 82.7765C143.742 82.8331 143.73 82.8892 143.708 82.9413C143.685 82.9935 143.653 83.0407 143.613 83.0803C143.572 83.12 143.524 83.1512 143.472 83.1722C143.365 83.2118 143.246 83.2084 143.142 83.1628C143.037 83.1171 142.954 83.0328 142.91 82.9274C142.427 81.7336 141.305 80.7547 140.362 80.7547C139.09 80.7547 137.538 82.4022 137.538 84.3361C137.535 84.4486 137.489 84.5555 137.409 84.6345C137.329 84.7135 137.221 84.7584 137.109 84.7599Z" fill="#F96118"/>
<path d="M140.403 86.4313C140.133 86.4461 139.862 86.4056 139.608 86.3122C139.353 86.2189 139.121 86.0747 138.924 85.8884C138.727 85.7021 138.57 85.4776 138.463 85.2287C138.356 84.9797 138.301 84.7116 138.301 84.4406C138.301 84.1696 138.356 83.9015 138.463 83.6525C138.57 83.4036 138.727 83.1792 138.924 82.9928C139.121 82.8065 139.353 82.6623 139.608 82.569C139.862 82.4756 140.133 82.4351 140.403 82.4499C140.517 82.4499 140.627 82.4952 140.707 82.5758C140.788 82.6564 140.833 82.7657 140.833 82.8797C140.833 82.9937 140.788 83.103 140.707 83.1836C140.627 83.2642 140.517 83.3095 140.403 83.3095C140.179 83.3083 139.959 83.3738 139.772 83.4977C139.584 83.6216 139.438 83.7983 139.351 84.0054C139.265 84.2126 139.241 84.4408 139.284 84.6612C139.328 84.8815 139.435 85.0842 139.593 85.2434C139.752 85.4026 139.954 85.5112 140.174 85.5555C140.394 85.5997 140.623 85.5776 140.83 85.4919C141.038 85.4063 141.215 85.2609 141.34 85.0743C141.465 84.8876 141.532 84.6681 141.532 84.4436C141.533 84.2879 141.502 84.1336 141.441 83.9907C141.379 83.8477 141.288 83.7194 141.173 83.6139C141.099 83.5324 141.057 83.4259 141.057 83.3154C141.057 83.2049 141.099 83.0985 141.173 83.017C141.254 82.9397 141.361 82.8965 141.472 82.8965C141.583 82.8965 141.69 82.9397 141.77 83.017C142.065 83.2885 142.271 83.6428 142.361 84.0335C142.451 84.4242 142.421 84.8329 142.274 85.206C142.128 85.5792 141.872 85.8993 141.54 86.1243C141.208 86.3494 140.816 86.4689 140.415 86.4671L140.403 86.4313Z" fill="#F96118"/>
<path d="M170.522 61.4385L150.072 72.7972L150.362 73.319L170.812 61.9603L170.522 61.4385Z" fill="#F96118"/>
<path d="M218.818 38.3748L198.428 27.0695H153.5V26.4726H198.583L219.105 37.8554L218.818 38.3748Z" fill="#F96118"/>
<path d="M151.398 33.2414H127.122L129.253 24.3774H149.261L151.398 33.2414Z" fill="#F96118"/>
<path opacity="0.3" d="M151.398 33.2414H127.122L129.253 24.3774H149.261L151.398 33.2414Z" fill="white"/>
<path d="M139.257 7.25238C137.473 7.25396 135.763 7.96321 134.502 9.22444C133.241 10.4857 132.531 12.1958 132.53 13.9794C132.53 17.6981 139.257 27.4933 139.257 27.4933C139.257 27.4933 145.99 17.6981 145.99 13.9794C145.988 12.1948 145.278 10.4837 144.016 9.22233C142.753 7.96093 141.042 7.25238 139.257 7.25238ZM139.257 17.3101C138.65 17.3101 138.056 17.1301 137.552 16.7927C137.047 16.4553 136.654 15.9758 136.422 15.4148C136.19 14.8538 136.129 14.2366 136.248 13.6413C136.367 13.046 136.66 12.4994 137.09 12.0705C137.519 11.6417 138.066 11.3499 138.662 11.2322C139.258 11.1145 139.875 11.1761 140.435 11.4093C140.996 11.6424 141.474 12.0366 141.811 12.5419C142.147 13.0472 142.326 13.641 142.325 14.248C142.325 14.6507 142.246 15.0493 142.091 15.4212C141.937 15.7931 141.711 16.131 141.426 16.4154C141.141 16.6998 140.803 16.9252 140.43 17.0788C140.058 17.2323 139.659 17.3109 139.257 17.3101Z" fill="#F96118"/>
<path d="M127.939 29.8331L131.222 29.8272L146.049 27.2784H149.965L149.822 26.6815L145.996 26.6875L131.169 29.2362H128.083L127.939 29.8331Z" fill="white"/>
<path d="M337.894 10.0042H311.779V36.1185H337.894V10.0042Z" fill="#F96118"/>
<path opacity="0.3" d="M337.894 10.0042H311.779V36.1185H337.894V10.0042Z" fill="white"/>
<path d="M335.476 12.4156H314.191V33.701H335.476V12.4156Z" fill="#F5F5F5"/>
<path d="M329.185 20.8498C329.211 21.7019 329.046 22.549 328.703 23.3295C328.36 24.1101 327.848 24.8045 327.203 25.3624C326.593 25.8639 325.827 26.138 325.037 26.138C324.246 26.138 323.481 25.8639 322.87 25.3624C322.225 24.8045 321.713 24.1101 321.37 23.3295C321.028 22.549 320.863 21.7019 320.888 20.8498C320.888 17.931 321.414 15.5613 325.037 15.5613C328.66 15.5613 329.185 17.9071 329.185 20.8498Z" fill="#F96118"/>
<path d="M333.178 32.2327V33.7249H316.895V32.2327C316.895 29.3974 318.542 27.4933 321.479 27.1292L322.034 27.0934C322.256 27.0934 322.469 27.0053 322.625 26.8486C322.782 26.6919 322.87 26.4793 322.87 26.2577V25.3624C323.481 25.8639 324.246 26.138 325.037 26.138C325.827 26.138 326.593 25.8639 327.203 25.3624V26.2637C327.203 26.4853 327.292 26.6979 327.448 26.8546C327.605 27.0113 327.818 27.0993 328.039 27.0993L328.594 27.1352C331.531 27.4575 333.178 29.3795 333.178 32.2327Z" fill="#F96118"/>
<path d="M246.21 25.2848L245.917 24.7595L266.445 13.3766H306.246V13.9735H266.6L246.21 25.2848Z" fill="#F96118"/>
<path d="M333.052 79.0894H336.073C333.5 81.7695 329.793 84.4137 326.272 87.0878L323.884 88.8427L323.83 88.8785L321.502 86.9326C318.518 84.36 315.396 81.674 313.182 79.0058H317.664L319.628 72.2668L322.559 85.1837L325.287 78.5701L326.988 82.2589L328.988 75.8064L331.22 82.1097L333.052 79.0894Z" fill="#F96118"/>
<path opacity="0.3" d="M333.052 79.0894H336.073C333.5 81.7695 329.793 84.4137 326.272 87.0878L323.884 88.8427L323.83 88.8785L321.502 86.9326C318.518 84.36 315.396 81.674 313.182 79.0058H317.664L319.628 72.2668L322.559 85.1837L325.287 78.5701L326.988 82.2589L328.988 75.8064L331.22 82.1097L333.052 79.0894Z" fill="white"/>
<path d="M336.712 77.8001H332.659L331.388 79.8952L328.946 73.001L326.857 79.734L325.245 76.2362L322.744 82.2947L319.7 68.9063L317.14 77.7165H312.597C309.822 74.1351 308.89 70.6015 312.478 67.4677C316.966 63.5401 322.165 67.1991 324.798 69.5748C327.573 67.3722 333.668 62.8656 338.341 68.7272C340.711 71.6699 339.296 74.8753 336.712 77.8001Z" fill="#F96118"/>
<path d="M306.246 79.0476H285.498L285.432 79.0058L249.827 59.2604L250.114 58.7351L285.653 78.4507H306.246V79.0476Z" fill="#F96118"/>
<path d="M333.041 140.725C333.041 143.62 331.047 146.157 326.952 146.927C326.054 147.091 325.143 147.171 324.23 147.166C323.698 147.167 323.166 147.141 322.637 147.088C319.903 146.837 317.318 145.954 315.778 144.76L317.408 141.143C318.967 142.224 320.758 142.923 322.637 143.184C323.174 143.268 323.717 143.31 324.26 143.31C325.178 143.347 326.094 143.197 326.952 142.868C327.332 142.746 327.663 142.507 327.899 142.186C328.135 141.864 328.263 141.476 328.265 141.077C328.265 140.283 327.758 139.764 326.952 139.37C325.884 138.845 324.278 138.552 322.637 138.147C319.491 137.371 316.196 136.177 316.196 132.148C316.196 129.115 318.297 126.525 322.637 125.856C323.401 125.738 324.173 125.68 324.947 125.683C325.617 125.683 326.287 125.725 326.952 125.809C328.789 125.995 330.563 126.58 332.151 127.522L330.671 131.169C329.516 130.499 328.26 130.019 326.952 129.748C326.283 129.609 325.601 129.539 324.917 129.539C324.144 129.519 323.374 129.628 322.637 129.862C321.443 130.273 320.971 131.055 320.971 131.909C320.971 132.763 321.628 133.342 322.637 133.741C324.054 134.197 325.494 134.576 326.952 134.876C329.985 135.652 333.041 136.893 333.041 140.725Z" fill="#F96118"/>
<path d="M326.952 123.349V125.815C326.287 125.731 325.617 125.689 324.947 125.689C324.173 125.686 323.401 125.744 322.637 125.862V123.349H326.952Z" fill="#F96118"/>
<path d="M326.952 146.927V149.261H322.637V147.088C323.166 147.141 323.698 147.167 324.23 147.166C325.143 147.171 326.054 147.091 326.952 146.927Z" fill="#F96118"/>
<path opacity="0.3" d="M326.952 123.349V125.815C326.287 125.731 325.617 125.689 324.947 125.689C324.173 125.686 323.401 125.744 322.637 125.862V123.349H326.952Z" fill="white"/>
<path opacity="0.3" d="M326.952 146.927V149.261H322.637V147.088C323.166 147.141 323.698 147.167 324.23 147.166C325.143 147.171 326.054 147.091 326.952 146.927Z" fill="white"/>
<path d="M324.302 121.117L274.932 93.0747H253.51V92.4778H275.094L275.159 92.5136L324.601 120.598L324.302 121.117Z" fill="#F96118"/>
<path d="M237.089 198.141L241.906 199.06L244.646 184.92L238.432 184.179L237.089 198.141Z" fill="#FFC2BC"/>
<path d="M242.909 198.171L236.516 196.183C236.395 196.145 236.264 196.152 236.148 196.201C236.031 196.25 235.935 196.339 235.877 196.452L233.018 201.412C232.908 201.609 232.874 201.839 232.922 202.059C232.971 202.279 233.098 202.474 233.281 202.606C233.348 202.653 233.423 202.69 233.502 202.713C235.752 203.43 236.82 203.734 239.626 204.617C241.363 205.155 246.228 207.602 248.717 207.602C251.206 207.602 251.701 205.005 250.669 204.761C246.168 203.656 244.658 200.541 243.691 198.792C243.516 198.495 243.238 198.273 242.909 198.171Z" fill="#263238"/>
<path opacity="0.2" d="M244.646 184.926L243.297 191.868L237.74 191.414L238.432 184.179L244.646 184.926Z" fill="black"/>
<path d="M240.623 75.3228C243.064 75.7287 244.95 74.8095 246.263 76.9404C246.699 77.6508 247.284 80.8442 247.523 81.6858C250.507 92.1674 256.715 127.241 254.942 146.79C253.361 164.207 246.204 188.34 246.204 188.34L236.558 189.253C236.558 189.253 240.211 152.287 240.611 137.884C241.297 113.232 230.881 73.6993 230.881 73.6993L240.623 75.3228Z" fill="#263238"/>
<path d="M247.756 190.184L235.692 189.629L236.074 184.764L248.108 185.821L247.756 190.184Z" fill="#F96118"/>
<path opacity="0.2" d="M238.032 86.9385L235.478 93.8506C237.382 103.097 240.456 119.338 240.641 135.878C244.204 122.568 239.775 93.3373 238.032 86.9385Z" fill="black"/>
<path d="M218.299 195.562L223.802 196.613L226.375 182.759L220.388 181.822L218.299 195.562Z" fill="#FFC2BC"/>
<path d="M223.892 196.082L218.323 192.942C218.225 192.883 218.108 192.865 217.997 192.89C217.885 192.916 217.788 192.984 217.726 193.079L214.323 197.914C214.188 198.124 214.137 198.377 214.18 198.622C214.224 198.868 214.358 199.088 214.556 199.239L214.652 199.299C216.604 200.361 217.606 200.767 220.024 202.158C221.54 203.036 225.324 205.656 227.408 206.826C229.491 207.996 231.15 205.375 230.392 204.701C226.936 201.603 225.283 198.792 224.56 196.882C224.435 196.547 224.199 196.264 223.892 196.082Z" fill="#263238"/>
<path opacity="0.2" d="M220.352 181.971L226.309 183.111L225.002 190.149L219.272 189.062L220.352 181.971Z" fill="black"/>
<path d="M236.636 73.2397C236.636 73.2397 243.506 97.4917 237.829 137.287C235.779 154.495 231.827 171.423 226.047 187.761L218.961 184.442C218.961 184.442 220.842 152.884 222.316 140.098C225.342 113.912 220.806 92.3465 220.197 81.1009C220.088 79.5062 220.587 77.9294 221.594 76.6878C222.6 75.4463 224.04 74.6323 225.623 74.4096L236.636 73.2397Z" fill="#263238"/>
<path d="M227.438 188.758L217.272 186.746L217.493 182.604L228.858 184.764L227.438 188.758Z" fill="#F96118"/>
<path d="M226.285 198.589C226.449 198.509 226.581 198.376 226.661 198.213C226.705 198.144 226.731 198.066 226.737 197.984C226.744 197.903 226.73 197.822 226.697 197.747C226.375 197.079 224.369 196.852 224.142 196.822C224.122 196.819 224.101 196.821 224.081 196.83C224.062 196.838 224.046 196.852 224.035 196.87C224.022 196.889 224.015 196.912 224.015 196.935C224.015 196.959 224.022 196.981 224.035 197.001C224.488 197.598 225.378 198.66 226.076 198.613C226.147 198.617 226.217 198.609 226.285 198.589ZM224.399 197.114C225.085 197.21 226.309 197.467 226.506 197.878C226.525 197.914 226.535 197.954 226.535 197.995C226.535 198.035 226.525 198.075 226.506 198.111C226.469 198.195 226.411 198.268 226.338 198.323C226.265 198.378 226.179 198.414 226.088 198.428C225.676 198.428 225.067 197.944 224.411 197.09L224.399 197.114Z" fill="#F96118"/>
<path d="M225.886 196.768C226.162 196.674 226.397 196.489 226.554 196.243C226.605 196.145 226.622 196.033 226.601 195.925C226.581 195.816 226.524 195.718 226.441 195.646C226.374 195.572 226.292 195.514 226.2 195.476C226.108 195.438 226.009 195.42 225.909 195.425C225.104 195.467 224.089 196.792 224.047 196.846C224.039 196.863 224.034 196.883 224.034 196.902C224.034 196.922 224.039 196.941 224.047 196.959C224.051 196.98 224.061 196.999 224.076 197.013C224.091 197.028 224.11 197.038 224.131 197.043C224.729 197.089 225.33 196.995 225.886 196.768ZM225.623 195.759C225.717 195.716 225.818 195.69 225.921 195.682C225.989 195.677 226.058 195.688 226.121 195.714C226.184 195.739 226.24 195.78 226.285 195.831C226.327 195.868 226.356 195.918 226.369 195.972C226.382 196.026 226.378 196.083 226.357 196.135C226.154 196.547 225.008 196.858 224.357 196.846C224.705 196.412 225.135 196.051 225.623 195.783V195.759Z" fill="#F96118"/>
<path d="M245.446 200.206C245.874 200.378 246.347 200.399 246.789 200.266C246.907 200.222 247.014 200.151 247.099 200.057C247.184 199.964 247.246 199.851 247.278 199.729C247.307 199.664 247.319 199.593 247.311 199.523C247.304 199.453 247.278 199.386 247.236 199.329C246.771 198.732 244.144 199.156 243.84 199.203C243.817 199.207 243.795 199.219 243.779 199.236C243.763 199.253 243.753 199.275 243.751 199.299C243.746 199.323 243.748 199.348 243.758 199.37C243.767 199.392 243.784 199.411 243.804 199.424C244.323 199.741 244.873 200.003 245.446 200.206ZM246.789 199.329C246.879 199.348 246.963 199.394 247.027 199.46C247.042 199.487 247.05 199.516 247.05 199.547C247.05 199.577 247.042 199.607 247.027 199.633C247.003 199.724 246.957 199.807 246.893 199.877C246.83 199.946 246.751 200 246.663 200.033C246.025 200.29 244.801 199.717 244.156 199.371C245.022 199.224 245.905 199.224 246.771 199.371L246.789 199.329Z" fill="#F96118"/>
<path d="M243.787 199.436H243.834C244.61 199.341 246.413 198.547 246.509 197.902C246.509 197.765 246.473 197.568 246.174 197.437C244.98 196.87 243.787 199.156 243.697 199.263C243.689 199.282 243.684 199.302 243.684 199.323C243.684 199.343 243.689 199.364 243.697 199.383C243.72 199.41 243.752 199.429 243.787 199.436ZM246.007 197.646L246.097 197.681C246.306 197.777 246.294 197.866 246.282 197.896C246.228 198.308 244.909 199.006 244.037 199.192C244.348 198.672 245.201 197.401 246.007 197.646Z" fill="#F96118"/>
<path d="M285.856 52.0438C285.856 52.0438 286.31 48.7071 286.715 48.8265C287.121 48.9458 290.267 48.337 291.682 48.0684C292.113 47.9914 292.557 48.0263 292.971 48.1699L296.17 49.2801C296.369 49.3471 296.533 49.4886 296.629 49.6746C296.725 49.8606 296.744 50.0766 296.684 50.2769L296.087 52.187C296.046 52.3408 295.96 52.4792 295.842 52.5852C295.723 52.6912 295.576 52.7603 295.418 52.7839L291.718 53.2793C291.411 53.3204 291.099 53.3042 290.798 53.2316L285.856 52.0438Z" fill="#FFC2BC"/>
<path d="M284.363 48.7071L288.775 47.0656C288.775 47.0656 291.043 48.9578 290.291 50.9574C289.539 52.957 288.47 53.16 288.47 53.16C288.47 53.16 286.679 54.6403 284.161 53.16C281.642 51.6796 284.363 48.7071 284.363 48.7071Z" fill="#F96118"/>
<path d="M245.225 40.452C249.541 41.8308 260.577 45.5137 265.782 47.5252C268.17 48.4564 277.941 47.8595 282.173 48.1221C283.262 48.3062 284.322 48.6333 285.325 49.0951L284.728 52.3183C284.728 52.3183 284.131 53.7867 282.8 54.0493C277.834 55.0342 265.52 56.0131 262.875 55.3506C255.193 53.4286 242.372 49.9785 241.417 48.0206C239.966 45.1257 241.906 39.3954 245.225 40.452Z" fill="#F96118"/>
<path opacity="0.2" d="M254.793 53.2196L247.69 50.9275C247.691 49.9766 247.643 49.0263 247.547 48.0803C250.346 51.1305 254.793 53.2196 254.793 53.2196Z" fill="black"/>
<path d="M177.411 58.3351C177.411 58.3351 176.957 54.9984 176.552 55.1178C176.146 55.2372 172.97 54.6283 171.585 54.3597C171.154 54.2796 170.709 54.3146 170.296 54.4612L167.097 55.5714C166.898 55.6384 166.734 55.7799 166.638 55.9659C166.542 56.152 166.523 56.368 166.583 56.5683L167.18 58.4783C167.225 58.6273 167.312 58.7601 167.431 58.8607C167.549 58.9613 167.695 59.0255 167.849 59.0454L171.556 59.5468C171.86 59.5877 172.17 59.5715 172.469 59.499L177.411 58.3351Z" fill="#FFC2BC"/>
<path d="M180.712 53.9538H175.429C175.429 53.9538 173.519 55.3924 174.516 57.3024C175.007 58.3542 175.852 59.1996 176.904 59.69L180.849 58.6872C183.458 56.049 180.712 53.9538 180.712 53.9538Z" fill="#F96118"/>
<path d="M222.596 47.943C222.296 48.4741 221.859 48.9151 221.331 49.2204C220.596 49.728 219.833 50.1924 219.045 50.6112C214.699 52.9988 207.345 56.0191 202.29 58.0247C199.759 59.0275 187.421 59.6721 182.371 59.3498C181.028 59.2662 180.234 57.8874 180.234 57.8874L179.202 54.7775C180.131 54.1881 181.135 53.7244 182.186 53.3987C186.364 52.575 196.094 51.8885 198.35 50.653C203.251 47.9729 213.708 42.8933 217.803 40.9414C220.961 39.4611 223.659 44.8809 222.596 47.943Z" fill="#F96118"/>
<path opacity="0.2" d="M241.028 39.7655L236.193 48.4384C236.193 48.4384 226.273 39.5864 226.094 39.5864L228.44 39.4491L230.588 41.2398L235.71 45.4599L238.784 39.5745L241.028 39.7655Z" fill="black"/>
<path opacity="0.2" d="M219.564 59.2662C219.523 57.7979 219.212 52.8854 219.039 50.6172C219.827 50.1984 220.591 49.734 221.325 49.2264C221.809 50.8201 219.6 60.7346 219.564 59.2662Z" fill="black"/>
<path d="M238.796 39.5506L235.722 45.436L230.601 41.2159C231.218 41.7275 231.943 42.0941 232.721 42.2891C233.499 42.4841 234.31 42.5024 235.096 42.3427C235.882 42.183 236.623 41.8493 237.263 41.3661C237.903 40.883 238.427 40.2626 238.796 39.5506Z" fill="#263238"/>
<path d="M238.796 39.5506C238.427 40.2627 237.903 40.883 237.263 41.3662C236.623 41.8493 235.883 42.183 235.097 42.3427C234.311 42.5024 233.499 42.4841 232.721 42.2891C231.943 42.0942 231.219 41.7275 230.601 41.216L228.452 39.4253C230.804 37.2227 230.213 31.1224 229.592 27.7798L235.901 31.2239C236.254 34.9366 235.114 38.6195 238.796 39.5506Z" fill="#FFC2BC"/>
<path opacity="0.2" d="M231.359 33.4802C231.359 33.4802 232.624 38.6135 236.635 38.0763C236.635 38.0763 236.415 38.1957 236.039 35.8141C235.813 34.3026 235.769 32.7697 235.907 31.2478C235.907 31.2478 231.627 31.3672 231.359 33.4802Z" fill="black"/>
<path d="M226.834 25.8458C229.096 30.9434 229.938 33.1459 233.567 34.8351C239.023 37.3839 244.777 33.4981 244.091 27.8395C243.494 22.736 239.882 15.2688 234.009 15.0897C231.993 15.0237 230.034 15.7604 228.561 17.1382C227.088 18.5159 226.222 20.4219 226.154 22.4375C226.112 23.6111 226.345 24.7783 226.834 25.8458Z" fill="#FFC2BC"/>
<path d="M226.315 30.9672C235.519 29.9644 229.132 20.0857 236.934 15.8358C234.904 12.2544 229.174 11.8186 222.9 16.5998C217.564 20.6647 226.315 30.9672 226.315 30.9672Z" fill="#263238"/>
<path d="M230.535 14.5465C230.535 14.5465 240.563 17.531 242.067 21.3989C242.067 21.3989 242.455 13.3228 238.892 13.1139C235.328 12.905 228.798 12.1828 230.535 14.5465Z" fill="#263238"/>
<path d="M226.817 31.5343C227.649 32.2281 228.722 32.565 229.801 32.4714C231.216 32.3341 231.419 30.9433 230.595 29.8689C229.861 28.896 228.208 27.8275 227.014 28.4662C226.805 28.5857 226.622 28.7452 226.474 28.9356C226.327 29.126 226.219 29.3435 226.156 29.5757C226.092 29.808 226.076 30.0504 226.106 30.2892C226.137 30.5279 226.214 30.7583 226.333 30.9672C226.456 31.1863 226.62 31.379 226.817 31.5343Z" fill="#FFC2BC"/>
<path d="M235.28 24.3655C235.436 24.7833 235.794 25.04 236.068 24.9624C236.343 24.8848 236.444 24.4312 236.283 24.0074C236.122 23.5836 235.776 23.3329 235.501 23.4105C235.227 23.4881 235.125 23.9417 235.28 24.3655Z" fill="#263238"/>
<path d="M240.074 22.5807C240.235 23.0045 240.581 23.2552 240.868 23.1776C241.154 23.1001 241.244 22.6524 241.077 22.2226C240.91 21.7928 240.575 21.5481 240.295 21.6257C240.014 21.7033 239.895 22.151 240.074 22.5807Z" fill="#263238"/>
<path d="M239.077 23.7805C239.816 24.6095 240.666 25.3326 241.602 25.9294C241.442 26.1635 241.234 26.3601 240.99 26.5054C240.747 26.6507 240.475 26.7414 240.193 26.771L239.077 23.7805Z" fill="#EC837E"/>
<path d="M241.423 28.7229C241.436 28.7155 241.447 28.7056 241.456 28.6936C241.465 28.6816 241.471 28.6678 241.475 28.6532C241.478 28.6386 241.478 28.6234 241.476 28.6087C241.473 28.5939 241.467 28.58 241.458 28.5677C241.437 28.5492 241.409 28.539 241.381 28.539C241.352 28.539 241.325 28.5492 241.303 28.5677C240.41 29.1984 239.316 29.4788 238.229 29.3556C238.205 29.3412 238.176 29.3362 238.149 29.3417C238.121 29.3473 238.097 29.3628 238.08 29.3854C238.061 29.4044 238.05 29.4302 238.05 29.457C238.05 29.4839 238.061 29.5096 238.08 29.5287C239.256 29.7033 240.455 29.4144 241.423 28.7229Z" fill="#263238"/>
<path d="M233.574 21.2855C233.604 21.2955 233.637 21.2975 233.668 21.2912C233.699 21.2849 233.729 21.2706 233.753 21.2497C233.971 21.0528 234.234 20.9111 234.518 20.8363C234.803 20.7616 235.101 20.7559 235.388 20.8199C235.438 20.8305 235.49 20.8231 235.535 20.7991C235.579 20.7751 235.614 20.7359 235.633 20.6886C235.644 20.6668 235.65 20.6429 235.652 20.6186C235.653 20.5942 235.649 20.5698 235.641 20.5469C235.633 20.524 235.62 20.503 235.603 20.4853C235.586 20.4676 235.566 20.4535 235.543 20.4439C235.198 20.3626 234.838 20.3657 234.494 20.453C234.15 20.5403 233.833 20.7091 233.568 20.9453C233.525 20.9754 233.496 21.0198 233.483 21.0702C233.471 21.1207 233.478 21.1738 233.502 21.2198C233.518 21.2491 233.543 21.2722 233.574 21.2855Z" fill="#263238"/>
<path d="M240.969 19.1605C241.004 19.1462 241.034 19.1224 241.056 19.0918C241.078 19.0612 241.092 19.0251 241.094 18.9874C241.098 18.9587 241.095 18.9297 241.087 18.9019C241.079 18.8742 241.065 18.8485 241.047 18.8262C241.028 18.8039 241.005 18.7855 240.98 18.7722C240.954 18.7589 240.926 18.7509 240.897 18.7487C240.486 18.7019 240.07 18.7557 239.684 18.9054C239.298 19.0551 238.955 19.2963 238.683 19.6082C238.644 19.6483 238.623 19.7018 238.623 19.7574C238.623 19.8131 238.644 19.8666 238.683 19.9067C238.705 19.9245 238.731 19.9378 238.758 19.9457C238.785 19.9536 238.814 19.9559 238.843 19.9526C238.871 19.9492 238.898 19.9403 238.923 19.9263C238.948 19.9122 238.97 19.8934 238.987 19.8709C239.217 19.618 239.503 19.4233 239.823 19.3029C240.143 19.1826 240.486 19.1399 240.826 19.1784C240.874 19.1908 240.925 19.1844 240.969 19.1605Z" fill="#263238"/>
<path d="M247.672 81.9007C247.457 81.7574 227.378 82.7005 221.492 82.808C219.445 82.999 219.278 80.2711 219.743 79.9667L246.932 79.8235H246.962L247.159 79.531C247.452 79.9913 247.704 80.4767 247.911 80.9814C247.963 81.1415 247.968 81.313 247.926 81.4759C247.883 81.6387 247.796 81.7861 247.672 81.9007Z" fill="#F96118"/>
<path opacity="0.2" d="M247.672 81.9007C247.457 81.7574 227.378 82.7005 221.492 82.808C219.445 82.999 219.278 80.2711 219.743 79.9667L246.932 79.8235H246.962L247.159 79.531C247.452 79.9913 247.704 80.4767 247.911 80.9814C247.963 81.1415 247.968 81.313 247.926 81.4759C247.883 81.6387 247.796 81.7861 247.672 81.9007Z" fill="black"/>
<path d="M258.876 166.422H258.84C258.801 166.417 258.763 166.405 258.729 166.386C258.695 166.366 258.665 166.34 258.641 166.309C258.617 166.278 258.599 166.242 258.589 166.204C258.58 166.166 258.577 166.126 258.583 166.087L259.18 161.169C259.184 161.129 259.196 161.091 259.215 161.056C259.234 161.021 259.26 160.99 259.291 160.966C259.322 160.941 259.358 160.923 259.397 160.913C259.435 160.903 259.475 160.901 259.515 160.906C259.593 160.917 259.664 160.958 259.712 161.02C259.76 161.083 259.781 161.162 259.771 161.241L259.174 166.159C259.165 166.232 259.13 166.299 259.075 166.347C259.02 166.396 258.949 166.422 258.876 166.422Z" fill="#F96118"/>
<path d="M260.07 156.579H260.034C259.995 156.574 259.957 156.562 259.922 156.543C259.888 156.524 259.857 156.498 259.833 156.467C259.808 156.436 259.79 156.4 259.78 156.362C259.769 156.324 259.766 156.284 259.771 156.245L260.189 152.854C261.211 144.523 261.556 136.123 261.222 127.737C261.219 127.698 261.225 127.659 261.238 127.622C261.251 127.585 261.271 127.551 261.297 127.522C261.323 127.493 261.355 127.47 261.39 127.454C261.425 127.437 261.463 127.428 261.502 127.426C261.542 127.425 261.581 127.431 261.618 127.444C261.654 127.458 261.688 127.479 261.717 127.505C261.746 127.532 261.769 127.564 261.786 127.599C261.802 127.635 261.811 127.674 261.813 127.713C262.153 136.129 261.807 144.559 260.78 152.92L260.368 156.31C260.36 156.384 260.325 156.451 260.27 156.501C260.215 156.55 260.144 156.578 260.07 156.579Z" fill="#F96118"/>
<path d="M216.765 143.895L216.168 143.811C216.168 143.716 217.463 134.589 217.672 127.498C217.893 119.946 217.5 112.388 216.496 104.899L217.093 104.822C218.103 112.338 218.502 119.923 218.287 127.504C218.066 134.637 216.777 143.799 216.765 143.895Z" fill="#F96118"/>
<path d="M216.496 104.899C216.168 102.446 215.774 100.023 215.302 97.6946L215.899 97.5812C216.353 99.9211 216.753 102.356 217.093 104.822L216.496 104.899Z" fill="#F96118"/>
<path d="M214.706 94.5729C214.324 92.8777 213.846 90.884 213.213 88.9023L213.81 88.7173C214.449 90.7229 214.926 92.7344 215.308 94.4416L214.706 94.5729Z" fill="#F96118"/>
</svg>
