<svg width="228" height="37" viewBox="0 0 228 37" fill="none" xmlns="http://www.w3.org/2000/svg">
<path d="M36.0083 17.8914C36.0083 22.1665 36.0098 26.4415 36.0083 30.7166C36.0083 32.3315 35.4489 33.7064 34.2109 34.7737C33.1995 35.6452 32.0042 36 30.6866 36C27.1329 36 23.5807 36 20.027 36C15.1263 36 10.2256 36 5.3249 36C3.68201 36 2.2835 35.4421 1.2059 34.1746C0.360906 33.1794 0.0031801 32.0091 0.0031801 30.7166C0.0031801 24.7265 0.0031801 18.7364 0.0031801 12.7464C0.0031801 10.2099 -0.00565312 7.6749 0.00612385 5.13844C0.0179008 2.85518 1.41347 0.925227 3.54952 0.264244C4.04563 0.111143 4.58001 0.0125113 5.09819 0.0125113C13.7484 -0.00220988 22.3971 -0.00220952 31.0473 0.00367897C33.4513 0.00515109 35.4107 1.58621 35.9068 3.89744C35.9759 4.21836 36.0083 4.55253 36.0083 4.88082C36.0142 9.21769 36.0128 13.5531 36.0128 17.89H36.0083V17.8914ZM12.5118 22.8937C14.4712 22.8937 16.4291 22.9011 18.3885 22.8908C19.5692 22.8834 20.3258 21.9692 20.0491 20.8401C19.4234 18.2815 17.7849 16.6019 15.3869 15.6185C15.2176 15.5493 14.9805 15.5699 14.7965 15.6244C13.2655 16.0807 11.7419 16.0807 10.2109 15.6199C10.0416 15.5684 9.82223 15.567 9.6603 15.6303C7.35348 16.5312 5.80187 18.1594 5.06728 20.528C4.61681 21.9795 5.33079 22.8952 6.85443 22.8952C8.74022 22.8952 10.6245 22.8952 12.5103 22.8952L12.5118 22.8937ZM12.5044 12.9422C14.8378 12.9466 16.7397 11.0652 16.7265 8.7628C16.7132 6.39563 14.8613 4.53634 12.5133 4.53487C10.2595 4.53487 8.30447 6.47218 8.30006 8.71275C8.29564 11.0696 10.152 12.9363 12.503 12.9407L12.5044 12.9422ZM27.4568 14.4687C26.4543 14.4687 25.4503 14.4658 24.4478 14.4687C23.5807 14.4717 22.9344 15.0826 22.9123 15.9085C22.8917 16.699 23.5851 17.4616 24.4036 17.4704C26.4101 17.491 28.4151 17.4895 30.4216 17.4704C31.2563 17.463 31.9438 16.702 31.9202 15.882C31.8952 15.009 31.3182 14.4717 30.3922 14.4687C29.4132 14.4658 28.4357 14.4687 27.4568 14.4687ZM27.4244 11.4553C28.4034 11.4553 29.3808 11.4612 30.3598 11.4538C31.2622 11.448 31.9188 10.8105 31.9217 9.95522C31.9247 9.07637 31.2696 8.4463 30.3421 8.44483C28.4092 8.44188 26.4763 8.44335 24.5434 8.44483C23.644 8.44483 22.902 9.14114 22.9094 9.97142C22.9168 10.8356 23.5851 11.4524 24.5243 11.4553C25.49 11.4583 26.4572 11.4553 27.4229 11.4553H27.4244ZM28.4932 27.2615C28.2311 27.2615 28.0721 27.26 27.9117 27.2615C27.1064 27.2718 26.3851 27.9681 26.3762 28.7395C26.3674 29.5124 27.0696 30.2396 27.8675 30.269C28.2341 30.2823 28.6036 30.2823 28.9701 30.269C29.6223 30.2425 30.1699 29.8127 30.3583 29.1973C30.5365 28.6158 30.3201 28.0137 29.8151 27.6001C29.3897 27.2512 28.898 27.232 28.4932 27.2615ZM14.7465 27.2468C14.7465 27.2468 14.7465 27.2556 14.7465 27.2615C14.5625 27.2615 14.3784 27.2585 14.1959 27.2615C13.4142 27.2747 12.6649 28.0034 12.659 28.7557C12.6531 29.4814 13.3833 30.2322 14.1459 30.269C14.5124 30.2867 14.8819 30.2867 15.2485 30.269C15.9801 30.2352 16.644 29.5904 16.7176 28.8632C16.7898 28.1536 16.2848 27.4573 15.5517 27.2998C15.2926 27.2438 15.0159 27.263 14.748 27.2482L14.7465 27.2468ZM21.5639 27.2615C21.3004 27.2615 21.1414 27.26 20.9809 27.2615C20.1904 27.2733 19.4514 27.9828 19.4381 28.7439C19.4249 29.4785 20.1374 30.2278 20.9073 30.2676C21.2856 30.2867 21.6669 30.2838 22.0467 30.2676C22.6753 30.2425 23.1979 29.8495 23.4084 29.2621C23.6293 28.6453 23.432 28.1389 22.9933 27.6958C22.5634 27.263 22.0246 27.2159 21.5639 27.2615ZM7.75537 27.2615C7.59638 27.2615 7.4374 27.26 7.27841 27.2615C6.48493 27.2733 5.75034 27.9755 5.73268 28.738C5.71649 29.4638 6.42752 30.2219 7.19155 30.2676C7.56841 30.2896 7.95117 30.2999 8.32656 30.2661C9.00962 30.2028 9.48217 29.823 9.71182 29.1811C9.92823 28.579 9.6971 28.0873 9.25988 27.6663C8.83149 27.2556 8.303 27.2203 7.7539 27.2615H7.75537Z" fill="#04C000"/>
<path d="M53.22 1.148C54.78 1.148 55.926 1.496 56.658 2.192C57.39 2.888 57.756 3.848 57.756 5.072C57.756 5.624 57.678 6.152 57.522 6.656C57.366 7.148 57.102 7.592 56.73 7.988C56.37 8.384 55.89 8.696 55.29 8.924C54.69 9.152 53.952 9.266 53.076 9.266H51.924V14H49.512V1.148H53.22ZM53.13 3.056H51.924V7.358H52.824C53.352 7.358 53.802 7.286 54.174 7.142C54.546 6.986 54.828 6.746 55.02 6.422C55.224 6.098 55.326 5.678 55.326 5.162C55.326 4.454 55.146 3.926 54.786 3.578C54.426 3.23 53.874 3.056 53.13 3.056ZM63.6593 4.064C64.4993 4.064 65.2193 4.244 65.8193 4.604C66.4313 4.952 66.9053 5.456 67.2413 6.116C67.5773 6.764 67.7453 7.556 67.7453 8.492V9.644H61.7693C61.7933 10.532 62.0093 11.222 62.4173 11.714C62.8373 12.194 63.4253 12.434 64.1813 12.434C64.7813 12.434 65.3153 12.374 65.7833 12.254C66.2513 12.122 66.7373 11.936 67.2413 11.696V13.514C66.7853 13.742 66.3113 13.91 65.8193 14.018C65.3273 14.126 64.7213 14.18 64.0013 14.18C63.0893 14.18 62.2793 14 61.5713 13.64C60.8753 13.268 60.3293 12.71 59.9333 11.966C59.5373 11.222 59.3393 10.298 59.3393 9.194C59.3393 8.078 59.5193 7.142 59.8793 6.386C60.2393 5.618 60.7433 5.042 61.3913 4.658C62.0513 4.262 62.8073 4.064 63.6593 4.064ZM63.6953 5.738C63.1553 5.738 62.7173 5.936 62.3813 6.332C62.0573 6.716 61.8653 7.292 61.8053 8.06H65.4773C65.4773 7.604 65.4113 7.202 65.2793 6.854C65.1473 6.506 64.9493 6.236 64.6853 6.044C64.4333 5.84 64.1033 5.738 63.6953 5.738ZM74.7781 4.064C74.9461 4.064 75.1201 4.07 75.3001 4.082C75.4801 4.094 75.6301 4.118 75.7501 4.154L75.5341 6.26C75.4141 6.236 75.2701 6.218 75.1021 6.206C74.9461 6.182 74.7781 6.17 74.5981 6.17C74.2981 6.17 74.0041 6.23 73.7161 6.35C73.4281 6.458 73.1701 6.626 72.9421 6.854C72.7141 7.07 72.5281 7.352 72.3841 7.7C72.2521 8.048 72.1861 8.462 72.1861 8.942V14H69.7921V4.244H71.6281L71.9521 5.936H72.0781C72.2581 5.588 72.4801 5.276 72.7441 5C73.0201 4.712 73.3261 4.484 73.6621 4.316C74.0101 4.148 74.3821 4.064 74.7781 4.064ZM83.7415 11.174C83.7415 11.822 83.5975 12.374 83.3095 12.83C83.0215 13.274 82.5955 13.61 82.0315 13.838C81.4675 14.066 80.7595 14.18 79.9075 14.18C79.2595 14.18 78.6955 14.132 78.2155 14.036C77.7355 13.94 77.2735 13.79 76.8295 13.586V11.66C77.3095 11.888 77.8255 12.08 78.3775 12.236C78.9415 12.392 79.4515 12.47 79.9075 12.47C80.4475 12.47 80.8375 12.374 81.0775 12.182C81.3175 11.99 81.4375 11.732 81.4375 11.408C81.4375 11.216 81.3835 11.042 81.2755 10.886C81.1795 10.73 80.9755 10.568 80.6635 10.4C80.3635 10.22 79.9255 9.998 79.3495 9.734C78.7855 9.482 78.3175 9.23 77.9455 8.978C77.5735 8.726 77.2915 8.426 77.0995 8.078C76.9075 7.718 76.8115 7.268 76.8115 6.728C76.8115 5.852 77.1415 5.192 77.8015 4.748C78.4735 4.292 79.3495 4.064 80.4295 4.064C81.0175 4.064 81.5635 4.124 82.0675 4.244C82.5835 4.352 83.0995 4.532 83.6155 4.784L82.9135 6.458C82.6255 6.326 82.3315 6.212 82.0315 6.116C81.7435 6.008 81.4615 5.924 81.1855 5.864C80.9215 5.804 80.6575 5.774 80.3935 5.774C79.9735 5.774 79.6555 5.852 79.4395 6.008C79.2235 6.152 79.1155 6.362 79.1155 6.638C79.1155 6.83 79.1695 7.004 79.2775 7.16C79.3855 7.304 79.5895 7.454 79.8895 7.61C80.1895 7.766 80.6155 7.964 81.1675 8.204C81.7195 8.42 82.1875 8.654 82.5715 8.906C82.9555 9.146 83.2435 9.446 83.4355 9.806C83.6395 10.166 83.7415 10.622 83.7415 11.174ZM94.1235 9.104C94.1235 9.92 94.0215 10.64 93.8175 11.264C93.6135 11.888 93.3135 12.422 92.9175 12.866C92.5335 13.298 92.0655 13.628 91.5135 13.856C90.9615 14.072 90.3435 14.18 89.6595 14.18C89.0235 14.18 88.4295 14.072 87.8775 13.856C87.3375 13.628 86.8695 13.298 86.4735 12.866C86.0895 12.422 85.7895 11.888 85.5735 11.264C85.3575 10.64 85.2495 9.92 85.2495 9.104C85.2495 8.024 85.4235 7.112 85.7715 6.368C86.1315 5.612 86.6475 5.042 87.3195 4.658C87.9915 4.262 88.7895 4.064 89.7135 4.064C90.5775 4.064 91.3395 4.262 91.9995 4.658C92.6595 5.042 93.1755 5.612 93.5475 6.368C93.9315 7.112 94.1235 8.024 94.1235 9.104ZM87.6795 9.104C87.6795 9.788 87.7515 10.376 87.8955 10.868C88.0395 11.348 88.2555 11.714 88.5435 11.966C88.8435 12.218 89.2275 12.344 89.6955 12.344C90.1635 12.344 90.5415 12.218 90.8295 11.966C91.1295 11.714 91.3455 11.348 91.4775 10.868C91.6215 10.376 91.6935 9.788 91.6935 9.104C91.6935 8.408 91.6215 7.826 91.4775 7.358C91.3335 6.878 91.1115 6.518 90.8115 6.278C90.5235 6.026 90.1455 5.9 89.6775 5.9C88.9695 5.9 88.4595 6.176 88.1475 6.728C87.8355 7.28 87.6795 8.072 87.6795 9.104ZM101.342 4.064C102.362 4.064 103.166 4.346 103.754 4.91C104.342 5.474 104.636 6.386 104.636 7.646V14H102.242V8.096C102.242 7.364 102.116 6.818 101.864 6.458C101.612 6.086 101.216 5.9 100.676 5.9C99.872 5.9 99.326 6.188 99.038 6.764C98.75 7.328 98.606 8.15 98.606 9.23V14H96.212V4.244H98.048L98.39 5.522H98.48C98.696 5.186 98.948 4.91 99.236 4.694C99.524 4.478 99.848 4.322 100.208 4.226C100.568 4.118 100.946 4.064 101.342 4.064ZM111.087 4.064C112.263 4.064 113.163 4.34 113.787 4.892C114.411 5.432 114.723 6.284 114.723 7.448V14H113.049L112.581 12.65H112.509C112.245 12.998 111.975 13.292 111.699 13.532C111.423 13.76 111.105 13.922 110.745 14.018C110.385 14.126 109.953 14.18 109.449 14.18C108.909 14.18 108.423 14.072 107.991 13.856C107.559 13.64 107.217 13.31 106.965 12.866C106.713 12.41 106.587 11.84 106.587 11.156C106.587 10.148 106.935 9.392 107.631 8.888C108.327 8.372 109.371 8.09 110.763 8.042L112.329 7.988V7.502C112.329 6.878 112.197 6.434 111.933 6.17C111.669 5.906 111.309 5.774 110.853 5.774C110.421 5.774 109.983 5.846 109.539 5.99C109.107 6.134 108.681 6.302 108.261 6.494L107.523 4.91C108.015 4.658 108.561 4.454 109.161 4.298C109.761 4.142 110.403 4.064 111.087 4.064ZM111.321 9.428C110.469 9.464 109.875 9.638 109.539 9.95C109.203 10.25 109.035 10.658 109.035 11.174C109.035 11.63 109.149 11.96 109.377 12.164C109.617 12.368 109.929 12.47 110.313 12.47C110.877 12.47 111.357 12.284 111.753 11.912C112.149 11.528 112.347 10.964 112.347 10.22V9.392L111.321 9.428ZM119.647 14H117.253V0.319999H119.647V14ZM131.284 14H125.938V12.686L127.414 12.11V3.056L125.938 2.462V1.148H131.284V2.462L129.826 3.056V12.11L131.284 12.686V14ZM138.326 4.064C139.346 4.064 140.15 4.346 140.738 4.91C141.326 5.474 141.62 6.386 141.62 7.646V14H139.226V8.096C139.226 7.364 139.1 6.818 138.848 6.458C138.596 6.086 138.2 5.9 137.66 5.9C136.856 5.9 136.31 6.188 136.022 6.764C135.734 7.328 135.59 8.15 135.59 9.23V14H133.196V4.244H135.032L135.374 5.522H135.464C135.68 5.186 135.932 4.91 136.22 4.694C136.508 4.478 136.832 4.322 137.192 4.226C137.552 4.118 137.93 4.064 138.326 4.064ZM149.151 5.954H146.991V14H144.597V5.954H143.193V4.874L144.615 4.226V3.56C144.615 2.72 144.735 2.06 144.975 1.58C145.215 1.1 145.569 0.758 146.037 0.553999C146.505 0.337999 147.075 0.229999 147.747 0.229999C148.191 0.229999 148.593 0.271999 148.953 0.356C149.325 0.427999 149.655 0.511999 149.943 0.608L149.367 2.3C149.187 2.24 148.983 2.186 148.755 2.138C148.539 2.078 148.311 2.048 148.071 2.048C147.699 2.048 147.423 2.186 147.243 2.462C147.075 2.738 146.991 3.122 146.991 3.614V4.244H149.151V5.954ZM158.987 9.104C158.987 9.92 158.885 10.64 158.681 11.264C158.477 11.888 158.177 12.422 157.781 12.866C157.397 13.298 156.929 13.628 156.377 13.856C155.825 14.072 155.207 14.18 154.523 14.18C153.887 14.18 153.293 14.072 152.741 13.856C152.201 13.628 151.733 13.298 151.337 12.866C150.953 12.422 150.653 11.888 150.437 11.264C150.221 10.64 150.113 9.92 150.113 9.104C150.113 8.024 150.287 7.112 150.635 6.368C150.995 5.612 151.511 5.042 152.183 4.658C152.855 4.262 153.653 4.064 154.577 4.064C155.441 4.064 156.203 4.262 156.863 4.658C157.523 5.042 158.039 5.612 158.411 6.368C158.795 7.112 158.987 8.024 158.987 9.104ZM152.543 9.104C152.543 9.788 152.615 10.376 152.759 10.868C152.903 11.348 153.119 11.714 153.407 11.966C153.707 12.218 154.091 12.344 154.559 12.344C155.027 12.344 155.405 12.218 155.693 11.966C155.993 11.714 156.209 11.348 156.341 10.868C156.485 10.376 156.557 9.788 156.557 9.104C156.557 8.408 156.485 7.826 156.341 7.358C156.197 6.878 155.975 6.518 155.675 6.278C155.387 6.026 155.009 5.9 154.541 5.9C153.833 5.9 153.323 6.176 153.011 6.728C152.699 7.28 152.543 8.072 152.543 9.104ZM166.061 4.064C166.229 4.064 166.403 4.07 166.583 4.082C166.763 4.094 166.913 4.118 167.033 4.154L166.817 6.26C166.697 6.236 166.553 6.218 166.385 6.206C166.229 6.182 166.061 6.17 165.881 6.17C165.581 6.17 165.287 6.23 164.999 6.35C164.711 6.458 164.453 6.626 164.225 6.854C163.997 7.07 163.811 7.352 163.667 7.7C163.535 8.048 163.469 8.462 163.469 8.942V14H161.075V4.244H162.911L163.235 5.936H163.361C163.541 5.588 163.763 5.276 164.027 5C164.303 4.712 164.609 4.484 164.945 4.316C165.293 4.148 165.665 4.064 166.061 4.064ZM179.309 4.064C180.365 4.064 181.157 4.346 181.685 4.91C182.213 5.474 182.477 6.386 182.477 7.646V14H180.119V8.078C180.119 7.358 179.999 6.818 179.759 6.458C179.519 6.086 179.147 5.9 178.643 5.9C177.947 5.9 177.455 6.158 177.167 6.674C176.879 7.19 176.735 7.94 176.735 8.924V14H174.359V8.078C174.359 7.598 174.305 7.196 174.197 6.872C174.089 6.548 173.927 6.308 173.711 6.152C173.495 5.984 173.219 5.9 172.883 5.9C172.403 5.9 172.025 6.032 171.749 6.296C171.473 6.548 171.275 6.92 171.155 7.412C171.047 7.904 170.993 8.51 170.993 9.23V14H168.599V4.244H170.435L170.777 5.522H170.885C171.065 5.186 171.287 4.91 171.551 4.694C171.827 4.478 172.139 4.322 172.487 4.226C172.847 4.118 173.219 4.064 173.603 4.064C174.287 4.064 174.857 4.19 175.313 4.442C175.781 4.682 176.141 5.06 176.393 5.576H176.519C176.819 5.048 177.215 4.664 177.707 4.424C178.211 4.184 178.745 4.064 179.309 4.064ZM188.94 4.064C190.116 4.064 191.016 4.34 191.64 4.892C192.264 5.432 192.576 6.284 192.576 7.448V14H190.902L190.434 12.65H190.362C190.098 12.998 189.828 13.292 189.552 13.532C189.276 13.76 188.958 13.922 188.598 14.018C188.238 14.126 187.806 14.18 187.302 14.18C186.762 14.18 186.276 14.072 185.844 13.856C185.412 13.64 185.07 13.31 184.818 12.866C184.566 12.41 184.44 11.84 184.44 11.156C184.44 10.148 184.788 9.392 185.484 8.888C186.18 8.372 187.224 8.09 188.616 8.042L190.182 7.988V7.502C190.182 6.878 190.05 6.434 189.786 6.17C189.522 5.906 189.162 5.774 188.706 5.774C188.274 5.774 187.836 5.846 187.392 5.99C186.96 6.134 186.534 6.302 186.114 6.494L185.376 4.91C185.868 4.658 186.414 4.454 187.014 4.298C187.614 4.142 188.256 4.064 188.94 4.064ZM189.174 9.428C188.322 9.464 187.728 9.638 187.392 9.95C187.056 10.25 186.888 10.658 186.888 11.174C186.888 11.63 187.002 11.96 187.23 12.164C187.47 12.368 187.782 12.47 188.166 12.47C188.73 12.47 189.21 12.284 189.606 11.912C190.002 11.528 190.2 10.964 190.2 10.22V9.392L189.174 9.428ZM198.923 12.362C199.187 12.362 199.439 12.338 199.679 12.29C199.931 12.23 200.165 12.164 200.381 12.092V13.784C200.129 13.892 199.823 13.982 199.463 14.054C199.103 14.138 198.701 14.18 198.257 14.18C197.705 14.18 197.213 14.09 196.781 13.91C196.349 13.718 196.007 13.394 195.755 12.938C195.515 12.482 195.395 11.846 195.395 11.03V5.954H194.171V4.964L195.539 4.172L196.259 2.102H197.771V4.244H200.291V5.954H197.771V11.012C197.771 11.468 197.873 11.81 198.077 12.038C198.293 12.254 198.575 12.362 198.923 12.362ZM204.549 4.244V14H202.173V4.244H204.549ZM203.379 0.481999C203.727 0.481999 204.027 0.571999 204.279 0.751999C204.531 0.919999 204.657 1.226 204.657 1.67C204.657 2.102 204.531 2.414 204.279 2.606C204.027 2.786 203.727 2.876 203.379 2.876C203.007 2.876 202.695 2.786 202.443 2.606C202.191 2.414 202.065 2.102 202.065 1.67C202.065 1.226 202.191 0.919999 202.443 0.751999C202.695 0.571999 203.007 0.481999 203.379 0.481999ZM215.536 9.104C215.536 9.92 215.434 10.64 215.23 11.264C215.026 11.888 214.726 12.422 214.33 12.866C213.946 13.298 213.478 13.628 212.926 13.856C212.374 14.072 211.756 14.18 211.072 14.18C210.436 14.18 209.842 14.072 209.29 13.856C208.75 13.628 208.282 13.298 207.886 12.866C207.502 12.422 207.202 11.888 206.986 11.264C206.77 10.64 206.662 9.92 206.662 9.104C206.662 8.024 206.836 7.112 207.184 6.368C207.544 5.612 208.06 5.042 208.732 4.658C209.404 4.262 210.202 4.064 211.126 4.064C211.99 4.064 212.752 4.262 213.412 4.658C214.072 5.042 214.588 5.612 214.96 6.368C215.344 7.112 215.536 8.024 215.536 9.104ZM209.092 9.104C209.092 9.788 209.164 10.376 209.308 10.868C209.452 11.348 209.668 11.714 209.956 11.966C210.256 12.218 210.64 12.344 211.108 12.344C211.576 12.344 211.954 12.218 212.242 11.966C212.542 11.714 212.758 11.348 212.89 10.868C213.034 10.376 213.106 9.788 213.106 9.104C213.106 8.408 213.034 7.826 212.89 7.358C212.746 6.878 212.524 6.518 212.224 6.278C211.936 6.026 211.558 5.9 211.09 5.9C210.382 5.9 209.872 6.176 209.56 6.728C209.248 7.28 209.092 8.072 209.092 9.104ZM222.754 4.064C223.774 4.064 224.578 4.346 225.166 4.91C225.754 5.474 226.048 6.386 226.048 7.646V14H223.654V8.096C223.654 7.364 223.528 6.818 223.276 6.458C223.024 6.086 222.628 5.9 222.088 5.9C221.284 5.9 220.738 6.188 220.45 6.764C220.162 7.328 220.018 8.15 220.018 9.23V14H217.624V4.244H219.46L219.802 5.522H219.892C220.108 5.186 220.36 4.91 220.648 4.694C220.936 4.478 221.26 4.322 221.62 4.226C221.98 4.118 222.358 4.064 222.754 4.064Z" fill="black"/>
<path d="M52.298 36H51.052V27.11H48.14V26.004H55.182V27.11H52.298V36ZM58.2621 28.356C58.8688 28.356 59.3914 28.496 59.8301 28.776C60.2688 29.056 60.6048 29.4527 60.8381 29.966C61.0808 30.47 61.2021 31.0627 61.2021 31.744V32.486H56.3861C56.4048 33.3353 56.6054 33.984 56.9881 34.432C57.3708 34.8707 57.9074 35.09 58.5981 35.09C59.0461 35.09 59.4428 35.048 59.7881 34.964C60.1428 34.8707 60.5068 34.74 60.8801 34.572V35.65C60.5161 35.818 60.1568 35.9393 59.8021 36.014C59.4568 36.098 59.0368 36.14 58.5421 36.14C57.8701 36.14 57.2774 35.9953 56.7641 35.706C56.2508 35.4167 55.8494 34.9873 55.5601 34.418C55.2708 33.8393 55.1261 33.1347 55.1261 32.304C55.1261 31.4827 55.2568 30.778 55.5181 30.19C55.7794 29.602 56.1434 29.1493 56.6101 28.832C57.0861 28.5147 57.6368 28.356 58.2621 28.356ZM58.2621 29.364C57.7208 29.364 57.2914 29.5553 56.9741 29.938C56.6568 30.3113 56.4701 30.834 56.4141 31.506H59.9421C59.9421 31.0767 59.8814 30.7033 59.7601 30.386C59.6388 30.0687 59.4521 29.8213 59.2001 29.644C58.9574 29.4573 58.6448 29.364 58.2621 29.364ZM64.1873 36H62.9693V25.36H64.1873V36ZM67.6189 36H66.4009V25.36H67.6189V36ZM80.6005 32.472C80.6005 33.1627 80.4652 33.788 80.1945 34.348C79.9332 34.8987 79.5272 35.3373 78.9765 35.664C78.4352 35.9813 77.7492 36.14 76.9185 36.14C75.7425 36.14 74.8465 35.804 74.2305 35.132C73.6239 34.4507 73.3205 33.5547 73.3205 32.444V26.004H74.5665V32.486C74.5665 33.298 74.7672 33.928 75.1685 34.376C75.5699 34.824 76.1765 35.048 76.9885 35.048C77.5485 35.048 78.0012 34.9407 78.3465 34.726C78.6919 34.502 78.9439 34.1987 79.1025 33.816C79.2705 33.424 79.3545 32.976 79.3545 32.472V26.004H80.6005V32.472ZM87.5369 33.928C87.5369 34.4133 87.4202 34.8193 87.1869 35.146C86.9629 35.4727 86.6409 35.72 86.2209 35.888C85.8009 36.056 85.2969 36.14 84.7089 36.14C84.2142 36.14 83.7849 36.098 83.4209 36.014C83.0662 35.93 82.7535 35.8133 82.4829 35.664V34.544C82.7722 34.6933 83.1175 34.8333 83.5189 34.964C83.9202 35.0853 84.3262 35.146 84.7369 35.146C85.3062 35.146 85.7169 35.048 85.9689 34.852C86.2302 34.6467 86.3609 34.376 86.3609 34.04C86.3609 33.8533 86.3095 33.6853 86.2069 33.536C86.1135 33.3867 85.9409 33.2373 85.6889 33.088C85.4462 32.9387 85.0915 32.7707 84.6249 32.584C84.1769 32.3973 83.7895 32.2107 83.4629 32.024C83.1455 31.8373 82.8982 31.6133 82.7209 31.352C82.5529 31.0907 82.4689 30.7547 82.4689 30.344C82.4689 29.7093 82.7115 29.2193 83.1969 28.874C83.6915 28.5287 84.3355 28.356 85.1289 28.356C85.5582 28.356 85.9595 28.4027 86.3329 28.496C86.7062 28.58 87.0609 28.7013 87.3969 28.86L86.9909 29.84C86.7949 29.7467 86.5895 29.6673 86.3749 29.602C86.1602 29.5273 85.9409 29.4713 85.7169 29.434C85.5022 29.3873 85.2829 29.364 85.0589 29.364C84.6015 29.364 84.2515 29.448 84.0089 29.616C83.7662 29.7747 83.6449 29.994 83.6449 30.274C83.6449 30.4793 83.7009 30.6567 83.8129 30.806C83.9249 30.9553 84.1069 31.1 84.3589 31.24C84.6202 31.3707 84.9749 31.5247 85.4229 31.702C85.8709 31.8793 86.2535 32.0613 86.5709 32.248C86.8882 32.4347 87.1262 32.6633 87.2849 32.934C87.4529 33.1953 87.5369 33.5267 87.5369 33.928ZM98.6989 36L97.6069 32.906H93.8969L92.8189 36H91.5449L95.1849 25.962H96.3609L99.9869 36H98.6989ZM96.2069 28.762C96.1883 28.6873 96.1463 28.552 96.0809 28.356C96.0249 28.16 95.9643 27.9593 95.8989 27.754C95.8429 27.5393 95.7963 27.376 95.7589 27.264C95.7123 27.4507 95.6609 27.642 95.6049 27.838C95.5583 28.0247 95.5116 28.1973 95.4649 28.356C95.4183 28.5147 95.3763 28.65 95.3389 28.762L94.3029 31.786H97.2429L96.2069 28.762ZM102.318 27.95C102.318 28.2673 102.309 28.566 102.29 28.846C102.281 29.1167 102.267 29.3313 102.248 29.49H102.318C102.514 29.1727 102.789 28.9067 103.144 28.692C103.499 28.4773 103.947 28.37 104.488 28.37C105.365 28.37 106.065 28.6967 106.588 29.35C107.12 29.994 107.386 30.96 107.386 32.248C107.386 33.1067 107.265 33.8253 107.022 34.404C106.779 34.9827 106.439 35.4167 106 35.706C105.571 35.9953 105.067 36.14 104.488 36.14C103.937 36.14 103.485 36.0327 103.13 35.818C102.785 35.6033 102.514 35.3467 102.318 35.048H102.22L101.982 36H101.1V25.36H102.318V27.95ZM104.264 29.392C103.779 29.392 103.391 29.4947 103.102 29.7C102.822 29.896 102.621 30.204 102.5 30.624C102.379 31.0347 102.318 31.562 102.318 32.206V32.262C102.318 33.186 102.453 33.8953 102.724 34.39C103.004 34.8753 103.527 35.118 104.292 35.118C104.899 35.118 105.356 34.8707 105.664 34.376C105.972 33.8813 106.126 33.1673 106.126 32.234C106.126 31.2913 105.972 30.582 105.664 30.106C105.356 29.63 104.889 29.392 104.264 29.392ZM115.382 32.234C115.382 32.8593 115.302 33.4147 115.144 33.9C114.994 34.376 114.775 34.782 114.486 35.118C114.196 35.454 113.846 35.7107 113.436 35.888C113.025 36.056 112.568 36.14 112.064 36.14C111.597 36.14 111.163 36.056 110.762 35.888C110.37 35.7107 110.024 35.454 109.726 35.118C109.436 34.782 109.212 34.376 109.054 33.9C108.895 33.4147 108.816 32.8593 108.816 32.234C108.816 31.4033 108.946 30.7033 109.208 30.134C109.478 29.5553 109.861 29.1167 110.356 28.818C110.85 28.51 111.434 28.356 112.106 28.356C112.75 28.356 113.314 28.51 113.8 28.818C114.294 29.1167 114.682 29.5553 114.962 30.134C115.242 30.7033 115.382 31.4033 115.382 32.234ZM110.076 32.234C110.076 32.822 110.146 33.3353 110.286 33.774C110.426 34.2033 110.645 34.5347 110.944 34.768C111.242 35.0013 111.625 35.118 112.092 35.118C112.558 35.118 112.941 35.0013 113.24 34.768C113.538 34.5347 113.758 34.2033 113.898 33.774C114.047 33.3353 114.122 32.822 114.122 32.234C114.122 31.6367 114.047 31.128 113.898 30.708C113.758 30.288 113.538 29.966 113.24 29.742C112.941 29.5087 112.554 29.392 112.078 29.392C111.378 29.392 110.869 29.644 110.552 30.148C110.234 30.652 110.076 31.3473 110.076 32.234ZM123.142 28.496V36H122.162L121.98 35.006H121.924C121.775 35.2673 121.579 35.482 121.336 35.65C121.103 35.818 120.846 35.9393 120.566 36.014C120.286 36.098 119.992 36.14 119.684 36.14C119.124 36.14 118.653 36.0467 118.27 35.86C117.887 35.664 117.598 35.3653 117.402 34.964C117.215 34.5627 117.122 34.0447 117.122 33.41V28.496H118.354V33.326C118.354 33.9233 118.48 34.3713 118.732 34.67C118.984 34.9687 119.371 35.118 119.894 35.118C120.407 35.118 120.809 35.0153 121.098 34.81C121.397 34.5953 121.607 34.2873 121.728 33.886C121.859 33.4753 121.924 32.9807 121.924 32.402V28.496H123.142ZM127.776 35.132C127.953 35.132 128.135 35.118 128.322 35.09C128.509 35.0527 128.663 35.0153 128.784 34.978V35.916C128.653 35.9813 128.467 36.0327 128.224 36.07C127.991 36.1167 127.767 36.14 127.552 36.14C127.179 36.14 126.833 36.0747 126.516 35.944C126.199 35.804 125.942 35.566 125.746 35.23C125.559 34.894 125.466 34.4227 125.466 33.816V29.448H124.472V28.86L125.494 28.37L125.956 26.774H126.684V28.496H128.728V29.448H126.684V33.788C126.684 34.2453 126.787 34.586 126.992 34.81C127.197 35.0247 127.459 35.132 127.776 35.132ZM136.244 30.918L138.652 26.004H139.996L136.874 32.122V36H135.628V32.178L132.492 26.004H133.85L136.244 30.918ZM146.622 32.234C146.622 32.8593 146.542 33.4147 146.384 33.9C146.234 34.376 146.015 34.782 145.726 35.118C145.436 35.454 145.086 35.7107 144.676 35.888C144.265 36.056 143.808 36.14 143.304 36.14C142.837 36.14 142.403 36.056 142.002 35.888C141.61 35.7107 141.264 35.454 140.966 35.118C140.676 34.782 140.452 34.376 140.294 33.9C140.135 33.4147 140.056 32.8593 140.056 32.234C140.056 31.4033 140.186 30.7033 140.448 30.134C140.718 29.5553 141.101 29.1167 141.596 28.818C142.09 28.51 142.674 28.356 143.346 28.356C143.99 28.356 144.554 28.51 145.04 28.818C145.534 29.1167 145.922 29.5553 146.202 30.134C146.482 30.7033 146.622 31.4033 146.622 32.234ZM141.316 32.234C141.316 32.822 141.386 33.3353 141.526 33.774C141.666 34.2033 141.885 34.5347 142.184 34.768C142.482 35.0013 142.865 35.118 143.332 35.118C143.798 35.118 144.181 35.0013 144.48 34.768C144.778 34.5347 144.998 34.2033 145.138 33.774C145.287 33.3353 145.362 32.822 145.362 32.234C145.362 31.6367 145.287 31.128 145.138 30.708C144.998 30.288 144.778 29.966 144.48 29.742C144.181 29.5087 143.794 29.392 143.318 29.392C142.618 29.392 142.109 29.644 141.792 30.148C141.474 30.652 141.316 31.3473 141.316 32.234ZM154.382 28.496V36H153.402L153.22 35.006H153.164C153.015 35.2673 152.819 35.482 152.576 35.65C152.343 35.818 152.086 35.9393 151.806 36.014C151.526 36.098 151.232 36.14 150.924 36.14C150.364 36.14 149.893 36.0467 149.51 35.86C149.128 35.664 148.838 35.3653 148.642 34.964C148.456 34.5627 148.362 34.0447 148.362 33.41V28.496H149.594V33.326C149.594 33.9233 149.72 34.3713 149.972 34.67C150.224 34.9687 150.612 35.118 151.134 35.118C151.648 35.118 152.049 35.0153 152.338 34.81C152.637 34.5953 152.847 34.2873 152.968 33.886C153.099 33.4753 153.164 32.9807 153.164 32.402V28.496H154.382ZM159.94 28.356C160.071 28.356 160.211 28.3653 160.36 28.384C160.51 28.3933 160.64 28.412 160.752 28.44L160.612 29.574C160.5 29.546 160.374 29.5227 160.234 29.504C160.104 29.4853 159.978 29.476 159.856 29.476C159.586 29.476 159.329 29.5367 159.086 29.658C158.844 29.7793 158.624 29.952 158.428 30.176C158.242 30.3907 158.092 30.652 157.98 30.96C157.868 31.268 157.812 31.6133 157.812 31.996V36H156.594V28.496H157.588L157.728 29.868H157.784C157.934 29.588 158.111 29.336 158.316 29.112C158.531 28.8787 158.774 28.6967 159.044 28.566C159.315 28.426 159.614 28.356 159.94 28.356ZM166.697 33.928C166.697 34.4133 166.58 34.8193 166.347 35.146C166.123 35.4727 165.801 35.72 165.381 35.888C164.961 36.056 164.457 36.14 163.869 36.14C163.374 36.14 162.945 36.098 162.581 36.014C162.226 35.93 161.914 35.8133 161.643 35.664V34.544C161.932 34.6933 162.278 34.8333 162.679 34.964C163.08 35.0853 163.486 35.146 163.897 35.146C164.466 35.146 164.877 35.048 165.129 34.852C165.39 34.6467 165.521 34.376 165.521 34.04C165.521 33.8533 165.47 33.6853 165.367 33.536C165.274 33.3867 165.101 33.2373 164.849 33.088C164.606 32.9387 164.252 32.7707 163.785 32.584C163.337 32.3973 162.95 32.2107 162.623 32.024C162.306 31.8373 162.058 31.6133 161.881 31.352C161.713 31.0907 161.629 30.7547 161.629 30.344C161.629 29.7093 161.872 29.2193 162.357 28.874C162.852 28.5287 163.496 28.356 164.289 28.356C164.718 28.356 165.12 28.4027 165.493 28.496C165.866 28.58 166.221 28.7013 166.557 28.86L166.151 29.84C165.955 29.7467 165.75 29.6673 165.535 29.602C165.32 29.5273 165.101 29.4713 164.877 29.434C164.662 29.3873 164.443 29.364 164.219 29.364C163.762 29.364 163.412 29.448 163.169 29.616C162.926 29.7747 162.805 29.994 162.805 30.274C162.805 30.4793 162.861 30.6567 162.973 30.806C163.085 30.9553 163.267 31.1 163.519 31.24C163.78 31.3707 164.135 31.5247 164.583 31.702C165.031 31.8793 165.414 32.0613 165.731 32.248C166.048 32.4347 166.286 32.6633 166.445 32.934C166.613 33.1953 166.697 33.5267 166.697 33.928ZM171.137 28.356C171.744 28.356 172.266 28.496 172.705 28.776C173.144 29.056 173.48 29.4527 173.713 29.966C173.956 30.47 174.077 31.0627 174.077 31.744V32.486H169.261C169.28 33.3353 169.48 33.984 169.863 34.432C170.246 34.8707 170.782 35.09 171.473 35.09C171.921 35.09 172.318 35.048 172.663 34.964C173.018 34.8707 173.382 34.74 173.755 34.572V35.65C173.391 35.818 173.032 35.9393 172.677 36.014C172.332 36.098 171.912 36.14 171.417 36.14C170.745 36.14 170.152 35.9953 169.639 35.706C169.126 35.4167 168.724 34.9873 168.435 34.418C168.146 33.8393 168.001 33.1347 168.001 32.304C168.001 31.4827 168.132 30.778 168.393 30.19C168.654 29.602 169.018 29.1493 169.485 28.832C169.961 28.5147 170.512 28.356 171.137 28.356ZM171.137 29.364C170.596 29.364 170.166 29.5553 169.849 29.938C169.532 30.3113 169.345 30.834 169.289 31.506H172.817C172.817 31.0767 172.756 30.7033 172.635 30.386C172.514 30.0687 172.327 29.8213 172.075 29.644C171.832 29.4573 171.52 29.364 171.137 29.364ZM177.062 36H175.844V25.36H177.062V36ZM182.58 29.448H180.816V36H179.584V29.448H178.366V28.874L179.584 28.454V28.02C179.584 27.376 179.673 26.8533 179.85 26.452C180.037 26.0507 180.303 25.7567 180.648 25.57C180.993 25.3833 181.409 25.29 181.894 25.29C182.183 25.29 182.445 25.318 182.678 25.374C182.921 25.4207 183.131 25.4767 183.308 25.542L182.986 26.508C182.837 26.4613 182.669 26.4147 182.482 26.368C182.305 26.3213 182.118 26.298 181.922 26.298C181.549 26.298 181.269 26.438 181.082 26.718C180.905 26.9887 180.816 27.418 180.816 28.006V28.496H182.58V29.448Z" fill="black"/>
</svg>
