<svg width="146" height="19" viewBox="0 0 146 19" fill="none" xmlns="http://www.w3.org/2000/svg">
<path d="M4.724 1.148C6.38 1.148 7.586 1.508 8.342 2.228C9.11 2.936 9.494 3.914 9.494 5.162C9.494 5.726 9.41 6.266 9.242 6.782C9.074 7.286 8.792 7.742 8.396 8.15C8.012 8.546 7.502 8.858 6.866 9.086C6.23 9.314 5.444 9.428 4.508 9.428H3.338V14H0.62V1.148H4.724ZM4.58 3.38H3.338V7.196H4.238C4.754 7.196 5.198 7.13 5.57 6.998C5.942 6.866 6.23 6.656 6.434 6.368C6.638 6.08 6.74 5.708 6.74 5.252C6.74 4.616 6.566 4.148 6.218 3.848C5.87 3.536 5.324 3.38 4.58 3.38ZM20.6347 9.068C20.6347 9.884 20.5207 10.61 20.2927 11.246C20.0767 11.882 19.7587 12.422 19.3387 12.866C18.9307 13.298 18.4327 13.628 17.8447 13.856C17.2567 14.072 16.5907 14.18 15.8467 14.18C15.1627 14.18 14.5267 14.072 13.9387 13.856C13.3627 13.628 12.8647 13.298 12.4447 12.866C12.0247 12.422 11.6947 11.882 11.4547 11.246C11.2267 10.61 11.1127 9.884 11.1127 9.068C11.1127 7.976 11.3047 7.058 11.6887 6.314C12.0727 5.558 12.6247 4.982 13.3447 4.586C14.0647 4.19 14.9167 3.992 15.9007 3.992C16.8247 3.992 17.6407 4.19 18.3487 4.586C19.0567 4.982 19.6147 5.558 20.0227 6.314C20.4307 7.058 20.6347 7.976 20.6347 9.068ZM13.8487 9.068C13.8487 9.716 13.9147 10.262 14.0467 10.706C14.1907 11.138 14.4127 11.468 14.7127 11.696C15.0127 11.912 15.4027 12.02 15.8827 12.02C16.3627 12.02 16.7467 11.912 17.0347 11.696C17.3347 11.468 17.5507 11.138 17.6827 10.706C17.8267 10.262 17.8987 9.716 17.8987 9.068C17.8987 8.42 17.8267 7.88 17.6827 7.448C17.5507 7.016 17.3347 6.692 17.0347 6.476C16.7347 6.26 16.3447 6.152 15.8647 6.152C15.1567 6.152 14.6407 6.398 14.3167 6.89C14.0047 7.37 13.8487 8.096 13.8487 9.068ZM28.3233 3.992C29.4273 3.992 30.3213 4.424 31.0053 5.288C31.6893 6.14 32.0313 7.4 32.0313 9.068C32.0313 10.184 31.8693 11.126 31.5453 11.894C31.2213 12.65 30.7773 13.22 30.2133 13.604C29.6493 13.988 28.9953 14.18 28.2513 14.18C27.7833 14.18 27.3753 14.12 27.0273 14C26.6913 13.88 26.4033 13.724 26.1633 13.532C25.9233 13.34 25.7133 13.136 25.5333 12.92H25.3893C25.4373 13.148 25.4733 13.388 25.4973 13.64C25.5213 13.88 25.5333 14.12 25.5333 14.36V18.32H22.8513V4.172H25.0293L25.4073 5.45H25.5333C25.7133 5.186 25.9293 4.946 26.1813 4.73C26.4333 4.502 26.7333 4.322 27.0813 4.19C27.4413 4.058 27.8553 3.992 28.3233 3.992ZM27.4593 6.134C26.9913 6.134 26.6193 6.23 26.3433 6.422C26.0673 6.614 25.8633 6.908 25.7313 7.304C25.6113 7.688 25.5453 8.174 25.5333 8.762V9.05C25.5333 9.686 25.5933 10.226 25.7133 10.67C25.8333 11.102 26.0373 11.432 26.3253 11.66C26.6133 11.888 27.0033 12.002 27.4953 12.002C27.9033 12.002 28.2393 11.888 28.5033 11.66C28.7673 11.432 28.9653 11.096 29.0973 10.652C29.2293 10.208 29.2953 9.668 29.2953 9.032C29.2953 8.072 29.1453 7.352 28.8453 6.872C28.5573 6.38 28.0953 6.134 27.4593 6.134ZM43.2599 4.172V14H41.2079L40.8479 12.74H40.7039C40.4999 13.076 40.2359 13.352 39.9119 13.568C39.5999 13.772 39.2519 13.922 38.8679 14.018C38.4839 14.126 38.0879 14.18 37.6799 14.18C36.9839 14.18 36.3719 14.054 35.8439 13.802C35.3159 13.55 34.9079 13.16 34.6199 12.632C34.3319 12.104 34.1879 11.42 34.1879 10.58V4.172H36.8699V9.914C36.8699 10.61 36.9959 11.138 37.2479 11.498C37.4999 11.858 37.9019 12.038 38.4539 12.038C39.0059 12.038 39.4319 11.912 39.7319 11.66C40.0439 11.408 40.2599 11.042 40.3799 10.562C40.5119 10.082 40.5779 9.494 40.5779 8.798V4.172H43.2599ZM48.754 14H46.072V0.319999H48.754V14ZM55.5883 3.974C56.9083 3.974 57.9163 4.262 58.6123 4.838C59.3203 5.402 59.6743 6.272 59.6743 7.448V14H57.8023L57.2803 12.668H57.2083C56.9323 13.016 56.6443 13.304 56.3443 13.532C56.0563 13.76 55.7203 13.922 55.3363 14.018C54.9643 14.126 54.5023 14.18 53.9503 14.18C53.3743 14.18 52.8523 14.072 52.3843 13.856C51.9283 13.628 51.5683 13.286 51.3043 12.83C51.0403 12.362 50.9083 11.774 50.9083 11.066C50.9083 10.022 51.2743 9.254 52.0063 8.762C52.7383 8.258 53.8363 7.982 55.3003 7.934L57.0103 7.88V7.448C57.0103 6.932 56.8723 6.554 56.5963 6.314C56.3323 6.074 55.9603 5.954 55.4803 5.954C55.0003 5.954 54.5323 6.026 54.0763 6.17C53.6203 6.302 53.1643 6.47 52.7083 6.674L51.8263 4.856C52.3543 4.58 52.9363 4.364 53.5723 4.208C54.2203 4.052 54.8923 3.974 55.5883 3.974ZM55.9663 9.482C55.1023 9.506 54.5023 9.662 54.1663 9.95C53.8303 10.238 53.6623 10.616 53.6623 11.084C53.6623 11.492 53.7823 11.786 54.0223 11.966C54.2623 12.134 54.5743 12.218 54.9583 12.218C55.5343 12.218 56.0203 12.05 56.4163 11.714C56.8123 11.366 57.0103 10.88 57.0103 10.256V9.446L55.9663 9.482ZM67.9096 3.992C68.0416 3.992 68.1976 3.998 68.3776 4.01C68.5576 4.022 68.7016 4.04 68.8096 4.064L68.6116 6.584C68.5276 6.56 68.4016 6.542 68.2336 6.53C68.0776 6.506 67.9396 6.494 67.8196 6.494C67.4716 6.494 67.1356 6.542 66.8116 6.638C66.4876 6.722 66.1936 6.86 65.9296 7.052C65.6776 7.244 65.4736 7.502 65.3176 7.826C65.1736 8.138 65.1016 8.528 65.1016 8.996V14H62.4196V4.172H64.4536L64.8496 5.828H64.9756C65.1676 5.492 65.4076 5.186 65.6956 4.91C65.9836 4.634 66.3136 4.412 66.6856 4.244C67.0696 4.076 67.4776 3.992 67.9096 3.992ZM82.8832 14H75.4852V1.148H82.8832V3.38H78.2032V6.206H82.5592V8.438H78.2032V11.75H82.8832V14ZM87.3575 8.978L84.1895 4.172H87.2315L89.1395 7.304L91.0655 4.172H94.1075L90.9035 8.978L94.2515 14H91.2095L89.1395 10.634L87.0695 14H84.0275L87.3575 8.978ZM99.4462 3.992C100.358 3.992 101.138 4.166 101.786 4.514C102.446 4.862 102.956 5.366 103.316 6.026C103.676 6.686 103.856 7.496 103.856 8.456V9.752H97.5202C97.5442 10.508 97.7662 11.102 98.1862 11.534C98.6182 11.966 99.2122 12.182 99.9682 12.182C100.604 12.182 101.18 12.122 101.696 12.002C102.212 11.87 102.746 11.672 103.298 11.408V13.478C102.818 13.718 102.308 13.892 101.768 14C101.24 14.12 100.598 14.18 99.8422 14.18C98.8582 14.18 97.9882 14 97.2322 13.64C96.4762 13.268 95.8822 12.71 95.4502 11.966C95.0182 11.222 94.8022 10.286 94.8022 9.158C94.8022 8.006 94.9942 7.052 95.3782 6.296C95.7742 5.528 96.3202 4.952 97.0162 4.568C97.7122 4.184 98.5222 3.992 99.4462 3.992ZM99.4642 5.9C98.9482 5.9 98.5162 6.068 98.1682 6.404C97.8322 6.74 97.6342 7.262 97.5742 7.97H101.336C101.336 7.574 101.264 7.22 101.12 6.908C100.988 6.596 100.784 6.35 100.508 6.17C100.232 5.99 99.8842 5.9 99.4642 5.9ZM111.521 3.992C111.653 3.992 111.809 3.998 111.989 4.01C112.169 4.022 112.313 4.04 112.421 4.064L112.223 6.584C112.139 6.56 112.013 6.542 111.845 6.53C111.689 6.506 111.551 6.494 111.431 6.494C111.083 6.494 110.747 6.542 110.423 6.638C110.099 6.722 109.805 6.86 109.541 7.052C109.289 7.244 109.085 7.502 108.929 7.826C108.785 8.138 108.713 8.528 108.713 8.996V14H106.031V4.172H108.065L108.461 5.828H108.587C108.779 5.492 109.019 5.186 109.307 4.91C109.595 4.634 109.925 4.412 110.297 4.244C110.681 4.076 111.089 3.992 111.521 3.992ZM117.849 14.18C116.877 14.18 116.049 14.006 115.365 13.658C114.681 13.298 114.159 12.746 113.799 12.002C113.439 11.258 113.259 10.304 113.259 9.14C113.259 7.94 113.463 6.962 113.871 6.206C114.279 5.45 114.843 4.892 115.563 4.532C116.295 4.172 117.135 3.992 118.083 3.992C118.755 3.992 119.337 4.058 119.829 4.19C120.333 4.322 120.771 4.478 121.143 4.658L120.351 6.728C119.931 6.56 119.535 6.422 119.163 6.314C118.803 6.206 118.443 6.152 118.083 6.152C117.615 6.152 117.225 6.266 116.913 6.494C116.601 6.71 116.367 7.04 116.211 7.484C116.067 7.916 115.995 8.462 115.995 9.122C115.995 9.77 116.073 10.31 116.229 10.742C116.397 11.162 116.637 11.48 116.949 11.696C117.261 11.9 117.639 12.002 118.083 12.002C118.647 12.002 119.145 11.93 119.577 11.786C120.009 11.63 120.429 11.42 120.837 11.156V13.442C120.429 13.706 119.997 13.892 119.541 14C119.097 14.12 118.533 14.18 117.849 14.18ZM125.781 4.172V14H123.099V4.172H125.781ZM124.449 0.319999C124.845 0.319999 125.187 0.415999 125.475 0.608C125.763 0.788 125.907 1.13 125.907 1.634C125.907 2.126 125.763 2.468 125.475 2.66C125.187 2.852 124.845 2.948 124.449 2.948C124.041 2.948 123.693 2.852 123.405 2.66C123.129 2.468 122.991 2.126 122.991 1.634C122.991 1.13 123.129 0.788 123.405 0.608C123.693 0.415999 124.041 0.319999 124.449 0.319999ZM135.442 11.084C135.442 11.744 135.286 12.308 134.974 12.776C134.662 13.232 134.194 13.58 133.57 13.82C132.946 14.06 132.172 14.18 131.248 14.18C130.564 14.18 129.976 14.132 129.484 14.036C128.992 13.952 128.5 13.808 128.008 13.604V11.39C128.536 11.63 129.106 11.828 129.718 11.984C130.33 12.14 130.87 12.218 131.338 12.218C131.866 12.218 132.238 12.14 132.454 11.984C132.682 11.828 132.796 11.624 132.796 11.372C132.796 11.204 132.748 11.054 132.652 10.922C132.568 10.79 132.376 10.64 132.076 10.472C131.776 10.304 131.308 10.088 130.672 9.824C130.06 9.56 129.556 9.302 129.16 9.05C128.764 8.786 128.47 8.474 128.278 8.114C128.086 7.742 127.99 7.28 127.99 6.728C127.99 5.816 128.344 5.132 129.052 4.676C129.76 4.22 130.702 3.992 131.878 3.992C132.49 3.992 133.072 4.052 133.624 4.172C134.176 4.292 134.746 4.49 135.334 4.766L134.524 6.692C134.2 6.548 133.888 6.422 133.588 6.314C133.288 6.206 132.994 6.122 132.706 6.062C132.43 6.002 132.142 5.972 131.842 5.972C131.446 5.972 131.146 6.026 130.942 6.134C130.75 6.242 130.654 6.404 130.654 6.62C130.654 6.776 130.702 6.92 130.798 7.052C130.906 7.172 131.104 7.304 131.392 7.448C131.692 7.592 132.13 7.784 132.706 8.024C133.27 8.252 133.756 8.492 134.164 8.744C134.572 8.984 134.884 9.29 135.1 9.662C135.328 10.022 135.442 10.496 135.442 11.084ZM141.581 3.992C142.493 3.992 143.273 4.166 143.921 4.514C144.581 4.862 145.091 5.366 145.451 6.026C145.811 6.686 145.991 7.496 145.991 8.456V9.752H139.655C139.679 10.508 139.901 11.102 140.321 11.534C140.753 11.966 141.347 12.182 142.103 12.182C142.739 12.182 143.315 12.122 143.831 12.002C144.347 11.87 144.881 11.672 145.433 11.408V13.478C144.953 13.718 144.443 13.892 143.903 14C143.375 14.12 142.733 14.18 141.977 14.18C140.993 14.18 140.123 14 139.367 13.64C138.611 13.268 138.017 12.71 137.585 11.966C137.153 11.222 136.937 10.286 136.937 9.158C136.937 8.006 137.129 7.052 137.513 6.296C137.909 5.528 138.455 4.952 139.151 4.568C139.847 4.184 140.657 3.992 141.581 3.992ZM141.599 5.9C141.083 5.9 140.651 6.068 140.303 6.404C139.967 6.74 139.769 7.262 139.709 7.97H143.471C143.471 7.574 143.399 7.22 143.255 6.908C143.123 6.596 142.919 6.35 142.643 6.17C142.367 5.99 142.019 5.9 141.599 5.9Z" fill="#3E3E3E"/>
</svg>
