<svg width="24" height="24" viewBox="0 0 24 24" fill="none" xmlns="http://www.w3.org/2000/svg">
<path d="M16.1812 7.1429V7.1429C16.1812 5.22302 14.6248 3.66665 12.7049 3.66665H12C9.69082 3.66665 7.81885 5.53862 7.81885 7.84781V10.4762" stroke="#515978" stroke-width="1.3" stroke-linecap="round" stroke-linejoin="round"/>
<path d="M17.0664 10.523H6.93359C6.10517 10.523 5.43359 11.1946 5.43359 12.023V18.8333C5.43359 19.6617 6.10517 20.3333 6.93359 20.3333H17.0664C17.8948 20.3333 18.5664 19.6617 18.5664 18.8333V12.023C18.5664 11.1946 17.8948 10.523 17.0664 10.523Z" stroke="#515978" stroke-width="1.3" stroke-linecap="round" stroke-linejoin="round"/>
<path d="M12.0001 15.5269C12.6303 15.5269 13.1412 15.016 13.1412 14.3857C13.1412 13.7555 12.6303 13.2446 12.0001 13.2446C11.3698 13.2446 10.8589 13.7555 10.8589 14.3857C10.8589 15.016 11.3698 15.5269 12.0001 15.5269Z" fill="#515978"/>
<path d="M12 15.1245V16.9765" stroke="#515978" stroke-width="1.3" stroke-linecap="round" stroke-linejoin="round"/>
</svg>
