<svg width="30" height="30" viewBox="0 0 30 30" fill="none" xmlns="http://www.w3.org/2000/svg">
<path d="M25.5538 10.4745C26.3935 10.6169 26.9246 10.2158 27.407 9.68347C27.7481 9.30609 28.118 8.95496 28.4816 8.58508C30.9433 13.3173 30.7409 21.1397 24.7778 26.3318C18.9585 31.4001 10.1351 31.2564 4.4607 25.6508C-1.07999 20.1775 -1.54234 11.3667 3.541 5.34114C8.5831 -0.63441 16.4118 -1.07926 21.3852 1.47615C20.9616 1.89976 20.5542 2.33087 20.1218 2.73324C19.6845 3.13936 19.4296 3.6092 19.4783 4.22025C19.482 4.26024 19.4708 4.30273 19.4646 4.34271C19.4646 4.35021 19.4533 4.35646 19.4308 4.38145C16.2681 3.13561 13.1154 3.16935 10.0239 4.63762C7.76837 5.70852 6.04143 7.37173 4.86682 9.581C2.46885 14.0933 3.30858 19.6402 6.8999 23.1553C10.5762 26.7529 16.0919 27.5364 20.4992 25.0772C23.0646 23.6452 24.8603 21.5408 25.8287 18.7668C26.7922 16.0064 26.6697 13.2548 25.5538 10.4757V10.4745Z" fill="#026900"/>
<path d="M22.12 11.4641C23.7545 14.6293 23.0609 18.9454 19.7458 21.4071C16.3806 23.905 11.8534 23.4214 9.00928 20.2937C6.36764 17.3897 6.34515 12.7324 8.92431 9.7859C11.6959 6.61818 15.9083 6.42325 18.4899 7.85653C18.4412 7.91276 18.3962 7.96899 18.3462 8.01898C17.5527 8.81497 16.763 9.61345 15.9595 10.3982C15.8658 10.4907 15.6846 10.5569 15.5571 10.5407C13.1767 10.2295 10.9049 11.9389 10.5513 14.2544C10.1552 16.8511 11.9921 19.1328 14.3563 19.4427C17.1554 19.8089 19.5808 17.6546 19.4571 14.8405C19.4334 14.2907 19.5958 13.967 19.9607 13.6209C20.6917 12.9286 21.389 12.2001 22.1212 11.4654L22.12 11.4641Z" fill="#026900"/>
<path d="M24.9703 2.75196C26.1311 1.80727 26.8609 1.70356 27.5494 2.37834C27.9293 2.74946 28.083 3.21181 28.0055 3.74414C27.9306 4.25772 27.5907 4.60886 27.1696 5.00123C27.6944 5.00123 28.1355 5.00123 28.5766 5.00123C28.8678 5.00123 29.1652 4.96624 29.4476 5.01498C29.615 5.04372 29.8249 5.17242 29.8962 5.31613C29.9611 5.44483 29.8762 5.65976 29.8299 5.82846C29.8112 5.89969 29.7225 5.95217 29.6637 6.0109C28.5978 7.0793 27.5282 8.1427 26.4673 9.2161C26.2711 9.41479 26.0624 9.50726 25.7788 9.50351C24.8428 9.48976 23.9069 9.50351 22.9709 9.49476C22.7685 9.49226 22.626 9.54975 22.4811 9.6947C20.3893 11.7978 18.2912 13.8933 16.1981 15.9939C15.7183 16.475 15.1647 16.6849 14.4999 16.4775C13.5278 16.1738 13.1216 14.9867 13.6952 14.1345C13.7927 13.9895 13.9176 13.8596 14.0426 13.7359C16.1144 11.6578 18.1875 9.58098 20.2656 7.50916C20.4155 7.35921 20.4855 7.21176 20.483 6.99433C20.4705 6.03714 20.4655 5.0787 20.488 4.12027C20.4917 3.93408 20.5805 3.70415 20.7092 3.5717C21.8063 2.44706 22.9234 1.34117 24.0318 0.229038C24.203 0.056594 24.3917 -0.063367 24.6429 0.0366004C24.9016 0.139067 24.974 0.350249 24.9715 0.615162C24.9653 1.31118 24.969 2.00721 24.969 2.75321L24.9703 2.75196Z" fill="#026900"/>
</svg>
