<svg width="28" height="28" viewBox="0 0 28 28" fill="none" xmlns="http://www.w3.org/2000/svg">
<path d="M22.3224 17.7567C22.3224 14.986 22.3495 12.2153 22.3101 9.44451C22.2929 8.24209 23.1417 7.41173 24.3035 7.47086C24.896 7.50043 25.496 7.44869 26.0825 7.52261C26.9781 7.63595 27.5645 8.36775 27.5645 9.27696C27.5658 13.3819 27.5645 17.4869 27.5645 21.5907C27.5645 23.1196 27.5658 24.6485 27.5645 26.1774C27.5633 27.2393 26.8352 27.9785 25.7782 27.9909C25.2348 27.997 24.6915 27.9946 24.1482 27.9909C23.0394 27.9835 22.3261 27.2751 22.3237 26.1601C22.3187 23.3586 22.3224 20.557 22.3224 17.7555V17.7567Z" fill="#2E2E2E"/>
<path d="M12.6834 20.8146C12.6834 22.5801 12.6846 24.3467 12.6834 26.1122C12.6821 27.2826 11.9774 27.9885 10.8132 27.9922C10.2908 27.9934 9.76725 27.9959 9.24489 27.9922C8.17922 27.9823 7.44742 27.2554 7.44618 26.1935C7.44372 22.6109 7.44372 19.0282 7.44618 15.4444C7.44618 14.3812 8.20386 13.6346 9.27199 13.6297C9.80544 13.6272 10.3389 13.6272 10.8711 13.6297C11.9257 13.6358 12.6784 14.3738 12.6821 15.4247C12.6883 17.2209 12.6834 19.0184 12.6846 20.8146H12.6834Z" fill="#2E2E2E"/>
<path d="M14.8837 22.3398C14.8837 21.0672 14.8812 19.7946 14.8837 18.5219C14.8874 17.4291 15.5933 16.7072 16.6812 16.6912C17.2861 16.6813 17.891 16.6764 18.4959 16.701C19.3952 16.738 20.1159 17.4858 20.1184 18.3889C20.1258 21.0265 20.1258 23.6655 20.1184 26.3032C20.1159 27.2173 19.3768 27.9626 18.4614 27.9873C17.8158 28.0045 17.169 28.0045 16.5235 27.986C15.6254 27.9589 14.8985 27.2173 14.8899 26.313C14.8775 24.9886 14.8862 23.6642 14.8862 22.3411H14.8837V22.3398Z" fill="#2E2E2E"/>
<path d="M10.6789 4.25539C10.913 4.33054 11.3454 4.42418 11.7384 4.60405C13.3647 5.3494 14.9798 6.12186 16.5986 6.88322C17.1912 7.16165 17.4758 7.11114 17.9427 6.64422C20.0309 4.55477 22.1192 2.46531 24.2049 0.373398C24.4131 0.16396 24.6312 -0.00482272 24.9478 0.000105233C25.2866 0.00503319 25.5429 0.149176 25.7079 0.436229C25.8804 0.736834 25.8681 1.04606 25.6784 1.33681C25.6119 1.43907 25.5256 1.529 25.4381 1.61524C23.3376 3.72071 21.2358 5.82495 19.1328 7.92918C18.1891 8.87412 17.1087 9.06384 15.905 8.49713C14.2763 7.73083 12.6501 6.96207 11.0214 6.19454C10.4338 5.91735 10.1393 5.97155 9.67608 6.43601C7.56076 8.55626 5.44297 10.6741 3.33134 12.798C3.06277 13.0678 2.76339 13.2021 2.39257 13.1109C1.80121 12.9656 1.55112 12.2559 1.90839 11.7607C1.96753 11.6781 2.04268 11.6067 2.11537 11.534C4.25287 9.39279 6.39406 7.25529 8.52787 5.10916C9.06994 4.56462 9.71304 4.28743 10.6777 4.25416L10.6789 4.25539Z" fill="#2E2E2E"/>
<path d="M5.2397 24.7336C5.2397 25.2671 5.25325 25.8005 5.23601 26.3327C5.20767 27.242 4.49188 27.9602 3.58514 27.9848C2.94081 28.0021 2.29402 28.0033 1.64969 27.9848C0.741711 27.9577 0.0123738 27.2001 0.00498189 26.2859C-0.00364203 25.2917 0.00128634 24.2963 0.00251833 23.3021C0.00251833 22.3362 0.581552 21.5908 1.53142 21.4984C2.29032 21.4245 3.0677 21.4417 3.82784 21.5194C4.63479 21.6019 5.2126 22.3177 5.23724 23.1345C5.25325 23.6667 5.2397 24.2014 5.2397 24.7349V24.7336Z" fill="#2E2E2E"/>
</svg>
