<svg width="30" height="30" viewBox="0 0 30 30" fill="none" xmlns="http://www.w3.org/2000/svg">
<circle cx="15" cy="15" r="15" fill="white"/>
<path d="M19.3279 18.7434C18.9122 18.7434 18.4958 18.7454 18.0801 18.7434C17.7275 18.7414 17.5269 18.5737 17.4677 18.2296C17.3196 17.3712 17.0282 16.5647 16.6329 15.7898C16.0724 14.692 16.004 13.548 16.5276 12.4344C17.2486 10.901 19.322 10.4642 20.5712 11.7858C21.3408 12.6001 21.7763 13.5757 21.8921 14.6893C21.969 15.4294 21.8519 16.1549 21.6559 16.8647C21.5145 17.3745 21.3382 17.8744 21.1632 18.3744C21.0586 18.6737 20.8922 18.7736 20.5771 18.7736C20.1614 18.7736 19.745 18.7736 19.3292 18.7736C19.3292 18.7638 19.3292 18.7539 19.3292 18.7447L19.3279 18.7434Z" fill="#026900"/>
<path d="M14.1385 13.2479C14.1385 13.4176 14.1372 13.5873 14.1385 13.757C14.1411 14.0498 13.9977 14.255 13.7149 14.3234C12.8558 14.53 11.9947 14.7293 11.1336 14.9306C10.9179 14.9812 10.7363 14.9062 10.616 14.7312C9.98117 13.8083 9.41019 12.8473 9.1451 11.7474C8.82869 10.4318 9.03064 9.1787 9.74238 8.02557C10.512 6.77968 12.2526 6.51656 13.4004 7.45656C14.0155 7.96044 14.3062 8.64851 14.47 9.40038C14.6246 10.1088 14.499 10.7976 14.3411 11.4935C14.2109 12.0665 14.1615 12.6585 14.0767 13.242C14.0964 13.2439 14.1168 13.2459 14.1365 13.2486L14.1385 13.2479Z" fill="#026900"/>
<path d="M15.2292 16.927C15.2292 17.8795 14.72 18.438 13.8708 18.5492C13.4597 18.6031 13.067 18.5643 12.6828 18.4071C12.2789 18.242 12.0112 17.9269 11.7678 17.5862C11.4448 17.1336 11.2501 16.6271 11.1613 16.0798C11.0975 15.6871 11.2323 15.4792 11.6152 15.3753C12.3888 15.1654 13.163 14.9576 13.9372 14.7504C14.2332 14.6714 14.4405 14.753 14.5885 15.0168C14.9417 15.6476 15.2035 16.308 15.2292 16.9277V16.927Z" fill="#026900"/>
<path d="M19.0839 19.2459C19.5161 19.2649 19.9476 19.2834 20.3798 19.3037C20.6442 19.3162 20.8508 19.5004 20.8784 19.7596C20.9711 20.6319 20.7876 21.4449 20.2699 22.1527C19.9265 22.6217 19.4161 22.846 18.8398 22.8848C18.603 22.9006 18.3531 22.8927 18.1255 22.8335C17.544 22.6816 17.167 22.1573 17.1013 21.5054C17.0342 20.8384 17.1447 20.197 17.3361 19.5636C17.4117 19.3143 17.5775 19.2018 17.8373 19.2018C18.2531 19.2018 18.6688 19.2018 19.0845 19.2018C19.0845 19.2163 19.0845 19.2307 19.0845 19.2452L19.0839 19.2459Z" fill="#026900"/>
</svg>
