<svg width="30" height="30" viewBox="0 0 30 30" fill="none" xmlns="http://www.w3.org/2000/svg">
<circle cx="15" cy="15" r="15" fill="white"/>
<path d="M15.0099 7C19.4371 7.00527 23.0112 10.5893 23.004 15.0158C22.9967 19.4311 19.41 23.0059 14.9941 23C10.5669 22.9934 6.9921 19.4094 7.00001 14.9835C7.00726 10.5676 10.592 6.99539 15.0099 7.00066V7ZM14.9947 21.7502C18.735 21.7561 21.7759 18.7238 21.7792 14.9862C21.7825 11.2577 18.7601 8.23204 15.0171 8.21687C11.2841 8.20105 8.23732 11.232 8.2248 14.9723C8.21227 18.702 11.2512 21.7442 14.9947 21.7502Z" fill="#026900"/>
<path d="M9.4641 14.9881C9.45619 11.934 11.94 9.44361 14.9974 9.44031C18.0534 9.43636 20.5333 11.9143 20.5406 14.9789C20.5478 18.0336 18.0633 20.524 15.006 20.5267C11.9493 20.5293 9.47135 18.0527 9.46344 14.9881H9.4641ZM15.6216 12.9947C15.6216 12.4462 15.6249 11.8985 15.6203 11.35C15.6177 10.9657 15.3461 10.6849 14.9934 10.6895C14.6467 10.6941 14.3837 10.9716 14.383 11.3493C14.3804 12.5497 14.3817 13.7501 14.3817 14.9505C14.3817 15.1516 14.4496 15.3223 14.5953 15.4654C14.8847 15.7495 15.1701 16.0382 15.4568 16.3249C15.9763 16.8444 16.4931 17.3665 17.0165 17.882C17.352 18.2122 17.884 18.1035 18.0376 17.6743C18.1292 17.4179 18.0659 17.1918 17.8728 16.9986C17.1549 16.2821 16.4364 15.5662 15.7245 14.8444C15.6678 14.787 15.6269 14.6862 15.6256 14.6051C15.617 14.0679 15.621 13.5306 15.621 12.9934L15.6216 12.9947Z" fill="#026900"/>
</svg>
