<svg width="140" height="25" viewBox="0 0 140 25" fill="none" xmlns="http://www.w3.org/2000/svg">
<path d="M6.94305 19H4.22505V8.416H0.733047V6.148H10.435V8.416H6.94305V19ZM19.8633 14.068C19.8633 14.884 19.7493 15.61 19.5213 16.246C19.3053 16.882 18.9873 17.422 18.5673 17.866C18.1593 18.298 17.6613 18.628 17.0733 18.856C16.4853 19.072 15.8193 19.18 15.0753 19.18C14.3913 19.18 13.7553 19.072 13.1673 18.856C12.5913 18.628 12.0933 18.298 11.6733 17.866C11.2533 17.422 10.9233 16.882 10.6833 16.246C10.4553 15.61 10.3413 14.884 10.3413 14.068C10.3413 12.976 10.5333 12.058 10.9173 11.314C11.3013 10.558 11.8533 9.982 12.5733 9.586C13.2933 9.19 14.1453 8.992 15.1293 8.992C16.0533 8.992 16.8693 9.19 17.5773 9.586C18.2853 9.982 18.8433 10.558 19.2513 11.314C19.6593 12.058 19.8633 12.976 19.8633 14.068ZM13.0773 14.068C13.0773 14.716 13.1433 15.262 13.2753 15.706C13.4193 16.138 13.6413 16.468 13.9413 16.696C14.2413 16.912 14.6313 17.02 15.1113 17.02C15.5913 17.02 15.9753 16.912 16.2633 16.696C16.5633 16.468 16.7793 16.138 16.9113 15.706C17.0553 15.262 17.1273 14.716 17.1273 14.068C17.1273 13.42 17.0553 12.88 16.9113 12.448C16.7793 12.016 16.5633 11.692 16.2633 11.476C15.9633 11.26 15.5733 11.152 15.0933 11.152C14.3853 11.152 13.8693 11.398 13.5453 11.89C13.2333 12.37 13.0773 13.096 13.0773 14.068ZM25.1938 19.18C24.1018 19.18 23.2078 18.754 22.5118 17.902C21.8278 17.038 21.4858 15.772 21.4858 14.104C21.4858 12.424 21.8338 11.152 22.5298 10.288C23.2258 9.424 24.1378 8.992 25.2658 8.992C25.7338 8.992 26.1478 9.058 26.5078 9.19C26.8678 9.31 27.1738 9.478 27.4258 9.694C27.6898 9.91 27.9118 10.156 28.0918 10.432H28.1818C28.1458 10.24 28.1038 9.964 28.0558 9.604C28.0078 9.232 27.9838 8.854 27.9838 8.47V5.32H30.6658V19H28.6138L28.0918 17.722H27.9838C27.8158 17.986 27.5998 18.232 27.3358 18.46C27.0838 18.676 26.7838 18.85 26.4358 18.982C26.0878 19.114 25.6738 19.18 25.1938 19.18ZM26.1298 17.038C26.8738 17.038 27.3958 16.822 27.6958 16.39C27.9958 15.946 28.1518 15.286 28.1638 14.41V14.122C28.1638 13.162 28.0138 12.43 27.7138 11.926C27.4258 11.422 26.8858 11.17 26.0938 11.17C25.5058 11.17 25.0438 11.428 24.7078 11.944C24.3718 12.448 24.2038 13.18 24.2038 14.14C24.2038 15.1 24.3718 15.826 24.7078 16.318C25.0438 16.798 25.5178 17.038 26.1298 17.038ZM37.5024 8.974C38.8224 8.974 39.8304 9.262 40.5264 9.838C41.2344 10.402 41.5884 11.272 41.5884 12.448V19H39.7164L39.1944 17.668H39.1224C38.8464 18.016 38.5584 18.304 38.2584 18.532C37.9704 18.76 37.6344 18.922 37.2504 19.018C36.8784 19.126 36.4164 19.18 35.8644 19.18C35.2884 19.18 34.7664 19.072 34.2984 18.856C33.8424 18.628 33.4824 18.286 33.2184 17.83C32.9544 17.362 32.8224 16.774 32.8224 16.066C32.8224 15.022 33.1884 14.254 33.9204 13.762C34.6524 13.258 35.7504 12.982 37.2144 12.934L38.9244 12.88V12.448C38.9244 11.932 38.7864 11.554 38.5104 11.314C38.2464 11.074 37.8744 10.954 37.3944 10.954C36.9144 10.954 36.4464 11.026 35.9904 11.17C35.5344 11.302 35.0784 11.47 34.6224 11.674L33.7404 9.856C34.2684 9.58 34.8504 9.364 35.4864 9.208C36.1344 9.052 36.8064 8.974 37.5024 8.974ZM37.8804 14.482C37.0164 14.506 36.4164 14.662 36.0804 14.95C35.7444 15.238 35.5764 15.616 35.5764 16.084C35.5764 16.492 35.6964 16.786 35.9364 16.966C36.1764 17.134 36.4884 17.218 36.8724 17.218C37.4484 17.218 37.9344 17.05 38.3304 16.714C38.7264 16.366 38.9244 15.88 38.9244 15.256V14.446L37.8804 14.482ZM42.9297 9.172H45.8637L47.7177 14.698C47.7777 14.878 47.8257 15.058 47.8617 15.238C47.9097 15.418 47.9457 15.604 47.9697 15.796C48.0057 15.988 48.0297 16.192 48.0417 16.408H48.0957C48.1317 16.096 48.1797 15.802 48.2397 15.526C48.3117 15.238 48.3897 14.962 48.4737 14.698L50.2917 9.172H53.1717L49.0137 20.26C48.7617 20.932 48.4317 21.496 48.0237 21.952C47.6277 22.408 47.1657 22.75 46.6377 22.978C46.1097 23.206 45.5337 23.32 44.9097 23.32C44.6097 23.32 44.3457 23.302 44.1177 23.266C43.9017 23.242 43.7097 23.212 43.5417 23.176V21.052C43.6737 21.076 43.8297 21.1 44.0097 21.124C44.2017 21.148 44.3997 21.16 44.6037 21.16C44.9757 21.16 45.2937 21.082 45.5577 20.926C45.8337 20.77 46.0617 20.554 46.2417 20.278C46.4217 20.014 46.5657 19.726 46.6737 19.414L46.8357 18.928L42.9297 9.172ZM57.5884 6.346C57.4804 6.766 57.3424 7.222 57.1744 7.714C57.0064 8.194 56.8264 8.68 56.6344 9.172C56.4424 9.652 56.2444 10.114 56.0404 10.558H54.1144C54.1984 10.198 54.2824 9.826 54.3664 9.442C54.4504 9.058 54.5284 8.674 54.6004 8.29C54.6844 7.894 54.7564 7.516 54.8164 7.156C54.8884 6.796 54.9484 6.46 54.9964 6.148H57.4624L57.5884 6.346ZM65.5179 16.084C65.5179 16.744 65.3619 17.308 65.0499 17.776C64.7379 18.232 64.2699 18.58 63.6459 18.82C63.0219 19.06 62.2479 19.18 61.3239 19.18C60.6399 19.18 60.0519 19.132 59.5599 19.036C59.0679 18.952 58.5759 18.808 58.0839 18.604V16.39C58.6119 16.63 59.1819 16.828 59.7939 16.984C60.4059 17.14 60.9459 17.218 61.4139 17.218C61.9419 17.218 62.3139 17.14 62.5299 16.984C62.7579 16.828 62.8719 16.624 62.8719 16.372C62.8719 16.204 62.8239 16.054 62.7279 15.922C62.6439 15.79 62.4519 15.64 62.1519 15.472C61.8519 15.304 61.3839 15.088 60.7479 14.824C60.1359 14.56 59.6319 14.302 59.2359 14.05C58.8399 13.786 58.5459 13.474 58.3539 13.114C58.1619 12.742 58.0659 12.28 58.0659 11.728C58.0659 10.816 58.4199 10.132 59.1279 9.676C59.8359 9.22 60.7779 8.992 61.9539 8.992C62.5659 8.992 63.1479 9.052 63.6999 9.172C64.2519 9.292 64.8219 9.49 65.4099 9.766L64.5999 11.692C64.2759 11.548 63.9639 11.422 63.6639 11.314C63.3639 11.206 63.0699 11.122 62.7819 11.062C62.5059 11.002 62.2179 10.972 61.9179 10.972C61.5219 10.972 61.2219 11.026 61.0179 11.134C60.8259 11.242 60.7299 11.404 60.7299 11.62C60.7299 11.776 60.7779 11.92 60.8739 12.052C60.9819 12.172 61.1799 12.304 61.4679 12.448C61.7679 12.592 62.2059 12.784 62.7819 13.024C63.3459 13.252 63.8319 13.492 64.2399 13.744C64.6479 13.984 64.9599 14.29 65.1759 14.662C65.4039 15.022 65.5179 15.496 65.5179 16.084ZM80.3649 19L79.4289 15.94H74.7489L73.8129 19H70.8789L75.4149 6.094H78.7449L83.2989 19H80.3649ZM77.8449 10.666C77.7849 10.462 77.7069 10.204 77.6109 9.892C77.5149 9.58 77.4189 9.262 77.3229 8.938C77.2269 8.614 77.1489 8.332 77.0889 8.092C77.0289 8.332 76.9449 8.632 76.8369 8.992C76.7409 9.34 76.6449 9.676 76.5489 10C76.4649 10.312 76.3989 10.534 76.3509 10.666L75.4329 13.654H78.7809L77.8449 10.666ZM88.7066 19.18C87.7346 19.18 86.9066 19.006 86.2226 18.658C85.5386 18.298 85.0166 17.746 84.6566 17.002C84.2966 16.258 84.1166 15.304 84.1166 14.14C84.1166 12.94 84.3206 11.962 84.7286 11.206C85.1366 10.45 85.7006 9.892 86.4206 9.532C87.1526 9.172 87.9926 8.992 88.9406 8.992C89.6126 8.992 90.1946 9.058 90.6866 9.19C91.1906 9.322 91.6286 9.478 92.0006 9.658L91.2086 11.728C90.7886 11.56 90.3926 11.422 90.0206 11.314C89.6606 11.206 89.3006 11.152 88.9406 11.152C88.4726 11.152 88.0826 11.266 87.7706 11.494C87.4586 11.71 87.2246 12.04 87.0686 12.484C86.9246 12.916 86.8526 13.462 86.8526 14.122C86.8526 14.77 86.9306 15.31 87.0866 15.742C87.2546 16.162 87.4946 16.48 87.8066 16.696C88.1186 16.9 88.4966 17.002 88.9406 17.002C89.5046 17.002 90.0026 16.93 90.4346 16.786C90.8666 16.63 91.2866 16.42 91.6946 16.156V18.442C91.2866 18.706 90.8546 18.892 90.3986 19C89.9546 19.12 89.3906 19.18 88.7066 19.18ZM98.0967 17.038C98.3967 17.038 98.6847 17.008 98.9607 16.948C99.2367 16.888 99.5127 16.816 99.7887 16.732V18.73C99.5007 18.85 99.1407 18.952 98.7087 19.036C98.2887 19.132 97.8267 19.18 97.3227 19.18C96.7347 19.18 96.2067 19.084 95.7387 18.892C95.2827 18.7 94.9167 18.37 94.6407 17.902C94.3767 17.422 94.2447 16.762 94.2447 15.922V11.188H92.9667V10.054L94.4427 9.154L95.2167 7.084H96.9267V9.172H99.6807V11.188H96.9267V15.922C96.9267 16.294 97.0347 16.576 97.2507 16.768C97.4667 16.948 97.7487 17.038 98.0967 17.038ZM104.443 9.172V19H101.761V9.172H104.443ZM103.111 5.32C103.507 5.32 103.849 5.416 104.137 5.608C104.425 5.788 104.569 6.13 104.569 6.634C104.569 7.126 104.425 7.468 104.137 7.66C103.849 7.852 103.507 7.948 103.111 7.948C102.703 7.948 102.355 7.852 102.067 7.66C101.791 7.468 101.653 7.126 101.653 6.634C101.653 6.13 101.791 5.788 102.067 5.608C102.355 5.416 102.703 5.32 103.111 5.32ZM109.586 19L105.842 9.172H108.65L110.54 14.77C110.612 14.986 110.672 15.214 110.72 15.454C110.78 15.694 110.822 15.928 110.846 16.156C110.882 16.384 110.906 16.594 110.918 16.786H110.99C111.002 16.582 111.026 16.366 111.062 16.138C111.098 15.91 111.14 15.682 111.188 15.454C111.248 15.214 111.314 14.986 111.386 14.77L113.276 9.172H116.084L112.34 19H109.586ZM120.176 9.172V19H117.494V9.172H120.176ZM118.844 5.32C119.24 5.32 119.582 5.416 119.87 5.608C120.158 5.788 120.302 6.13 120.302 6.634C120.302 7.126 120.158 7.468 119.87 7.66C119.582 7.852 119.24 7.948 118.844 7.948C118.436 7.948 118.088 7.852 117.8 7.66C117.524 7.468 117.386 7.126 117.386 6.634C117.386 6.13 117.524 5.788 117.8 5.608C118.088 5.416 118.436 5.32 118.844 5.32ZM127.118 17.038C127.418 17.038 127.706 17.008 127.982 16.948C128.258 16.888 128.534 16.816 128.81 16.732V18.73C128.522 18.85 128.162 18.952 127.73 19.036C127.31 19.132 126.848 19.18 126.344 19.18C125.756 19.18 125.228 19.084 124.76 18.892C124.304 18.7 123.938 18.37 123.662 17.902C123.398 17.422 123.266 16.762 123.266 15.922V11.188H121.988V10.054L123.464 9.154L124.238 7.084H125.948V9.172H128.702V11.188H125.948V15.922C125.948 16.294 126.056 16.576 126.272 16.768C126.488 16.948 126.77 17.038 127.118 17.038ZM129.379 9.172H132.313L134.167 14.698C134.227 14.878 134.275 15.058 134.311 15.238C134.359 15.418 134.395 15.604 134.419 15.796C134.455 15.988 134.479 16.192 134.491 16.408H134.545C134.581 16.096 134.629 15.802 134.689 15.526C134.761 15.238 134.839 14.962 134.923 14.698L136.741 9.172H139.621L135.463 20.26C135.211 20.932 134.881 21.496 134.473 21.952C134.077 22.408 133.615 22.75 133.087 22.978C132.559 23.206 131.983 23.32 131.359 23.32C131.059 23.32 130.795 23.302 130.567 23.266C130.351 23.242 130.159 23.212 129.991 23.176V21.052C130.123 21.076 130.279 21.1 130.459 21.124C130.651 21.148 130.849 21.16 131.053 21.16C131.425 21.16 131.743 21.082 132.007 20.926C132.283 20.77 132.511 20.554 132.691 20.278C132.871 20.014 133.015 19.726 133.123 19.414L133.285 18.928L129.379 9.172Z" fill="#3E3E3E"/>
</svg>
