<svg width="108" height="19" viewBox="0 0 108 19" fill="none" xmlns="http://www.w3.org/2000/svg">
<path d="M6.57 14H3.852V3.416H0.36V1.148H10.062V3.416H6.57V14ZM19.4902 9.068C19.4902 9.884 19.3762 10.61 19.1482 11.246C18.9322 11.882 18.6142 12.422 18.1942 12.866C17.7862 13.298 17.2882 13.628 16.7002 13.856C16.1122 14.072 15.4462 14.18 14.7022 14.18C14.0182 14.18 13.3822 14.072 12.7942 13.856C12.2182 13.628 11.7202 13.298 11.3002 12.866C10.8802 12.422 10.5502 11.882 10.3102 11.246C10.0822 10.61 9.9682 9.884 9.9682 9.068C9.9682 7.976 10.1602 7.058 10.5442 6.314C10.9282 5.558 11.4802 4.982 12.2002 4.586C12.9202 4.19 13.7722 3.992 14.7562 3.992C15.6802 3.992 16.4962 4.19 17.2042 4.586C17.9122 4.982 18.4702 5.558 18.8782 6.314C19.2862 7.058 19.4902 7.976 19.4902 9.068ZM12.7042 9.068C12.7042 9.716 12.7702 10.262 12.9022 10.706C13.0462 11.138 13.2682 11.468 13.5682 11.696C13.8682 11.912 14.2582 12.02 14.7382 12.02C15.2182 12.02 15.6022 11.912 15.8902 11.696C16.1902 11.468 16.4062 11.138 16.5382 10.706C16.6822 10.262 16.7542 9.716 16.7542 9.068C16.7542 8.42 16.6822 7.88 16.5382 7.448C16.4062 7.016 16.1902 6.692 15.8902 6.476C15.5902 6.26 15.2002 6.152 14.7202 6.152C14.0122 6.152 13.4962 6.398 13.1722 6.89C12.8602 7.37 12.7042 8.096 12.7042 9.068ZM24.8207 14.18C23.7287 14.18 22.8347 13.754 22.1387 12.902C21.4547 12.038 21.1127 10.772 21.1127 9.104C21.1127 7.424 21.4607 6.152 22.1567 5.288C22.8527 4.424 23.7647 3.992 24.8927 3.992C25.3607 3.992 25.7747 4.058 26.1347 4.19C26.4947 4.31 26.8007 4.478 27.0527 4.694C27.3167 4.91 27.5387 5.156 27.7187 5.432H27.8087C27.7727 5.24 27.7307 4.964 27.6827 4.604C27.6347 4.232 27.6107 3.854 27.6107 3.47V0.319999H30.2927V14H28.2407L27.7187 12.722H27.6107C27.4427 12.986 27.2267 13.232 26.9627 13.46C26.7107 13.676 26.4107 13.85 26.0627 13.982C25.7147 14.114 25.3007 14.18 24.8207 14.18ZM25.7567 12.038C26.5007 12.038 27.0227 11.822 27.3227 11.39C27.6227 10.946 27.7787 10.286 27.7907 9.41V9.122C27.7907 8.162 27.6407 7.43 27.3407 6.926C27.0527 6.422 26.5127 6.17 25.7207 6.17C25.1327 6.17 24.6707 6.428 24.3347 6.944C23.9987 7.448 23.8307 8.18 23.8307 9.14C23.8307 10.1 23.9987 10.826 24.3347 11.318C24.6707 11.798 25.1447 12.038 25.7567 12.038ZM37.1294 3.974C38.4494 3.974 39.4574 4.262 40.1534 4.838C40.8614 5.402 41.2154 6.272 41.2154 7.448V14H39.3434L38.8214 12.668H38.7494C38.4734 13.016 38.1854 13.304 37.8854 13.532C37.5974 13.76 37.2614 13.922 36.8774 14.018C36.5054 14.126 36.0434 14.18 35.4914 14.18C34.9154 14.18 34.3934 14.072 33.9254 13.856C33.4694 13.628 33.1094 13.286 32.8454 12.83C32.5814 12.362 32.4494 11.774 32.4494 11.066C32.4494 10.022 32.8154 9.254 33.5474 8.762C34.2794 8.258 35.3774 7.982 36.8414 7.934L38.5514 7.88V7.448C38.5514 6.932 38.4134 6.554 38.1374 6.314C37.8734 6.074 37.5014 5.954 37.0214 5.954C36.5414 5.954 36.0734 6.026 35.6174 6.17C35.1614 6.302 34.7054 6.47 34.2494 6.674L33.3674 4.856C33.8954 4.58 34.4774 4.364 35.1134 4.208C35.7614 4.052 36.4334 3.974 37.1294 3.974ZM37.5074 9.482C36.6434 9.506 36.0434 9.662 35.7074 9.95C35.3714 10.238 35.2034 10.616 35.2034 11.084C35.2034 11.492 35.3234 11.786 35.5634 11.966C35.8034 12.134 36.1154 12.218 36.4994 12.218C37.0754 12.218 37.5614 12.05 37.9574 11.714C38.3534 11.366 38.5514 10.88 38.5514 10.256V9.446L37.5074 9.482ZM42.5566 4.172H45.4906L47.3446 9.698C47.4046 9.878 47.4526 10.058 47.4886 10.238C47.5366 10.418 47.5726 10.604 47.5966 10.796C47.6326 10.988 47.6566 11.192 47.6686 11.408H47.7226C47.7586 11.096 47.8066 10.802 47.8666 10.526C47.9386 10.238 48.0166 9.962 48.1006 9.698L49.9186 4.172H52.7986L48.6406 15.26C48.3886 15.932 48.0586 16.496 47.6506 16.952C47.2546 17.408 46.7926 17.75 46.2646 17.978C45.7366 18.206 45.1606 18.32 44.5366 18.32C44.2366 18.32 43.9726 18.302 43.7446 18.266C43.5286 18.242 43.3366 18.212 43.1686 18.176V16.052C43.3006 16.076 43.4566 16.1 43.6366 16.124C43.8286 16.148 44.0266 16.16 44.2306 16.16C44.6026 16.16 44.9206 16.082 45.1846 15.926C45.4606 15.77 45.6886 15.554 45.8686 15.278C46.0486 15.014 46.1926 14.726 46.3006 14.414L46.4626 13.928L42.5566 4.172ZM57.2154 1.346C57.1074 1.766 56.9694 2.222 56.8014 2.714C56.6334 3.194 56.4534 3.68 56.2614 4.172C56.0694 4.652 55.8714 5.114 55.6674 5.558H53.7414C53.8254 5.198 53.9094 4.826 53.9934 4.442C54.0774 4.058 54.1554 3.674 54.2274 3.29C54.3114 2.894 54.3834 2.516 54.4434 2.156C54.5154 1.796 54.5754 1.46 54.6234 1.148H57.0894L57.2154 1.346ZM65.1448 11.084C65.1448 11.744 64.9888 12.308 64.6768 12.776C64.3648 13.232 63.8968 13.58 63.2728 13.82C62.6488 14.06 61.8748 14.18 60.9508 14.18C60.2668 14.18 59.6788 14.132 59.1868 14.036C58.6948 13.952 58.2028 13.808 57.7108 13.604V11.39C58.2388 11.63 58.8088 11.828 59.4208 11.984C60.0328 12.14 60.5728 12.218 61.0408 12.218C61.5688 12.218 61.9408 12.14 62.1568 11.984C62.3848 11.828 62.4988 11.624 62.4988 11.372C62.4988 11.204 62.4508 11.054 62.3548 10.922C62.2708 10.79 62.0788 10.64 61.7788 10.472C61.4788 10.304 61.0108 10.088 60.3748 9.824C59.7628 9.56 59.2588 9.302 58.8628 9.05C58.4668 8.786 58.1728 8.474 57.9808 8.114C57.7888 7.742 57.6928 7.28 57.6928 6.728C57.6928 5.816 58.0468 5.132 58.7548 4.676C59.4628 4.22 60.4048 3.992 61.5808 3.992C62.1928 3.992 62.7748 4.052 63.3268 4.172C63.8788 4.292 64.4488 4.49 65.0368 4.766L64.2268 6.692C63.9028 6.548 63.5908 6.422 63.2908 6.314C62.9908 6.206 62.6968 6.122 62.4088 6.062C62.1328 6.002 61.8448 5.972 61.5448 5.972C61.1488 5.972 60.8488 6.026 60.6448 6.134C60.4528 6.242 60.3568 6.404 60.3568 6.62C60.3568 6.776 60.4048 6.92 60.5008 7.052C60.6088 7.172 60.8068 7.304 61.0948 7.448C61.3948 7.592 61.8328 7.784 62.4088 8.024C62.9728 8.252 63.4588 8.492 63.8668 8.744C64.2748 8.984 64.5868 9.29 64.8028 9.662C65.0308 10.022 65.1448 10.496 65.1448 11.084ZM82.7819 7.448C82.7819 8.888 82.5059 10.094 81.9539 11.066C81.4019 12.038 80.5979 12.77 79.5419 13.262C78.4979 13.754 77.2379 14 75.7619 14H72.1259V1.148H76.1579C77.5019 1.148 78.6659 1.388 79.6499 1.868C80.6459 2.348 81.4139 3.056 81.9539 3.992C82.5059 4.916 82.7819 6.068 82.7819 7.448ZM79.9559 7.52C79.9559 6.572 79.8179 5.792 79.5419 5.18C79.2659 4.568 78.8519 4.118 78.2999 3.83C77.7599 3.53 77.0939 3.38 76.3019 3.38H74.8439V11.75H76.0139C77.3459 11.75 78.3359 11.396 78.9839 10.688C79.6319 9.98 79.9559 8.924 79.9559 7.52ZM87.9161 4.172V14H85.2341V4.172H87.9161ZM86.5841 0.319999C86.9801 0.319999 87.3221 0.415999 87.6101 0.608C87.8981 0.788 88.0421 1.13 88.0421 1.634C88.0421 2.126 87.8981 2.468 87.6101 2.66C87.3221 2.852 86.9801 2.948 86.5841 2.948C86.1761 2.948 85.8281 2.852 85.5401 2.66C85.2641 2.468 85.1261 2.126 85.1261 1.634C85.1261 1.13 85.2641 0.788 85.5401 0.608C85.8281 0.415999 86.1761 0.319999 86.5841 0.319999ZM94.7685 3.992C95.6805 3.992 96.4605 4.166 97.1085 4.514C97.7685 4.862 98.2785 5.366 98.6385 6.026C98.9985 6.686 99.1785 7.496 99.1785 8.456V9.752H92.8425C92.8665 10.508 93.0885 11.102 93.5085 11.534C93.9405 11.966 94.5345 12.182 95.2905 12.182C95.9265 12.182 96.5025 12.122 97.0185 12.002C97.5345 11.87 98.0685 11.672 98.6205 11.408V13.478C98.1405 13.718 97.6305 13.892 97.0905 14C96.5625 14.12 95.9205 14.18 95.1645 14.18C94.1805 14.18 93.3105 14 92.5545 13.64C91.7985 13.268 91.2045 12.71 90.7725 11.966C90.3405 11.222 90.1245 10.286 90.1245 9.158C90.1245 8.006 90.3165 7.052 90.7005 6.296C91.0965 5.528 91.6425 4.952 92.3385 4.568C93.0345 4.184 93.8445 3.992 94.7685 3.992ZM94.7865 5.9C94.2705 5.9 93.8385 6.068 93.4905 6.404C93.1545 6.74 92.9565 7.262 92.8965 7.97H96.6585C96.6585 7.574 96.5865 7.22 96.4425 6.908C96.3105 6.596 96.1065 6.35 95.8305 6.17C95.5545 5.99 95.2065 5.9 94.7865 5.9ZM105.493 12.038C105.793 12.038 106.081 12.008 106.357 11.948C106.633 11.888 106.909 11.816 107.185 11.732V13.73C106.897 13.85 106.537 13.952 106.105 14.036C105.685 14.132 105.223 14.18 104.719 14.18C104.131 14.18 103.603 14.084 103.135 13.892C102.679 13.7 102.313 13.37 102.037 12.902C101.773 12.422 101.641 11.762 101.641 10.922V6.188H100.363V5.054L101.839 4.154L102.613 2.084H104.323V4.172H107.077V6.188H104.323V10.922C104.323 11.294 104.431 11.576 104.647 11.768C104.863 11.948 105.145 12.038 105.493 12.038Z" fill="#3E3E3E"/>
</svg>
