<svg width="464" height="200" viewBox="0 0 464 200" fill="none" xmlns="http://www.w3.org/2000/svg">
<rect x="0.5" y="0.5" width="463" height="199" rx="9.5" fill="white" stroke="#C1C1C1"/>
<path d="M159.078 85.312C159.078 84.4027 159.137 83.508 159.254 82.628C159.386 81.748 159.606 80.9193 159.914 80.142C160.237 79.35 160.677 78.6533 161.234 78.052C161.791 77.436 162.495 76.9593 163.346 76.622C164.211 76.27 165.253 76.094 166.47 76.094C166.778 76.094 167.123 76.1087 167.504 76.138C167.9 76.1527 168.223 76.1967 168.472 76.27V78.228C168.193 78.14 167.885 78.074 167.548 78.03C167.225 77.986 166.903 77.964 166.58 77.964C165.568 77.964 164.732 78.118 164.072 78.426C163.412 78.734 162.891 79.1593 162.51 79.702C162.129 80.2447 161.85 80.8753 161.674 81.594C161.498 82.298 161.388 83.068 161.344 83.904H161.476C161.696 83.552 161.967 83.2367 162.29 82.958C162.613 82.6793 163.009 82.4593 163.478 82.298C163.947 82.1367 164.49 82.056 165.106 82.056C166.015 82.056 166.807 82.2467 167.482 82.628C168.171 83.0093 168.699 83.5593 169.066 84.278C169.447 84.9967 169.638 85.8693 169.638 86.896C169.638 87.996 169.425 88.9493 169 89.756C168.589 90.548 168.003 91.1567 167.24 91.582C166.492 92.0073 165.59 92.22 164.534 92.22C163.771 92.22 163.06 92.0807 162.4 91.802C161.74 91.5233 161.161 91.098 160.662 90.526C160.163 89.954 159.775 89.2353 159.496 88.37C159.217 87.49 159.078 86.4707 159.078 85.312ZM164.512 90.284C165.348 90.284 166.03 90.0127 166.558 89.47C167.086 88.9127 167.35 88.0547 167.35 86.896C167.35 85.972 167.115 85.2387 166.646 84.696C166.191 84.1533 165.502 83.882 164.578 83.882C163.947 83.882 163.397 84.014 162.928 84.278C162.459 84.542 162.092 84.8793 161.828 85.29C161.564 85.7007 161.432 86.1187 161.432 86.544C161.432 86.9987 161.498 87.446 161.63 87.886C161.762 88.326 161.953 88.7293 162.202 89.096C162.466 89.4627 162.789 89.756 163.17 89.976C163.551 90.1813 163.999 90.284 164.512 90.284ZM172.108 85.312C172.108 84.4027 172.167 83.508 172.284 82.628C172.416 81.748 172.636 80.9193 172.944 80.142C173.267 79.35 173.707 78.6533 174.264 78.052C174.821 77.436 175.525 76.9593 176.376 76.622C177.241 76.27 178.283 76.094 179.5 76.094C179.808 76.094 180.153 76.1087 180.534 76.138C180.93 76.1527 181.253 76.1967 181.502 76.27V78.228C181.223 78.14 180.915 78.074 180.578 78.03C180.255 77.986 179.933 77.964 179.61 77.964C178.598 77.964 177.762 78.118 177.102 78.426C176.442 78.734 175.921 79.1593 175.54 79.702C175.159 80.2447 174.88 80.8753 174.704 81.594C174.528 82.298 174.418 83.068 174.374 83.904H174.506C174.726 83.552 174.997 83.2367 175.32 82.958C175.643 82.6793 176.039 82.4593 176.508 82.298C176.977 82.1367 177.52 82.056 178.136 82.056C179.045 82.056 179.837 82.2467 180.512 82.628C181.201 83.0093 181.729 83.5593 182.096 84.278C182.477 84.9967 182.668 85.8693 182.668 86.896C182.668 87.996 182.455 88.9493 182.03 89.756C181.619 90.548 181.033 91.1567 180.27 91.582C179.522 92.0073 178.62 92.22 177.564 92.22C176.801 92.22 176.09 92.0807 175.43 91.802C174.77 91.5233 174.191 91.098 173.692 90.526C173.193 89.954 172.805 89.2353 172.526 88.37C172.247 87.49 172.108 86.4707 172.108 85.312ZM177.542 90.284C178.378 90.284 179.06 90.0127 179.588 89.47C180.116 88.9127 180.38 88.0547 180.38 86.896C180.38 85.972 180.145 85.2387 179.676 84.696C179.221 84.1533 178.532 83.882 177.608 83.882C176.977 83.882 176.427 84.014 175.958 84.278C175.489 84.542 175.122 84.8793 174.858 85.29C174.594 85.7007 174.462 86.1187 174.462 86.544C174.462 86.9987 174.528 87.446 174.66 87.886C174.792 88.326 174.983 88.7293 175.232 89.096C175.496 89.4627 175.819 89.756 176.2 89.976C176.581 90.1813 177.029 90.284 177.542 90.284ZM185.556 90.702C185.556 90.13 185.702 89.7267 185.996 89.492C186.289 89.2573 186.641 89.14 187.052 89.14C187.477 89.14 187.836 89.2573 188.13 89.492C188.423 89.7267 188.57 90.13 188.57 90.702C188.57 91.274 188.423 91.6847 188.13 91.934C187.836 92.1833 187.477 92.308 187.052 92.308C186.641 92.308 186.289 92.1833 185.996 91.934C185.702 91.6847 185.556 91.274 185.556 90.702ZM196.785 76.072C197.709 76.072 198.531 76.2187 199.249 76.512C199.968 76.7907 200.533 77.2087 200.943 77.766C201.369 78.3233 201.581 79.02 201.581 79.856C201.581 80.4867 201.449 81.0367 201.185 81.506C200.921 81.9753 200.569 82.3933 200.129 82.76C199.689 83.112 199.198 83.42 198.655 83.684C199.271 83.992 199.836 84.344 200.349 84.74C200.877 85.1213 201.295 85.5687 201.603 86.082C201.926 86.5953 202.087 87.2113 202.087 87.93C202.087 88.81 201.867 89.5727 201.427 90.218C201.002 90.8487 200.393 91.34 199.601 91.692C198.809 92.044 197.885 92.22 196.829 92.22C195.7 92.22 194.732 92.0513 193.925 91.714C193.133 91.3767 192.532 90.9 192.121 90.284C191.711 89.6533 191.505 88.8907 191.505 87.996C191.505 87.2773 191.652 86.654 191.945 86.126C192.239 85.598 192.627 85.1433 193.111 84.762C193.595 84.3807 194.123 84.058 194.695 83.794C194.197 83.5007 193.742 83.1707 193.331 82.804C192.921 82.4227 192.598 81.99 192.363 81.506C192.129 81.022 192.011 80.4647 192.011 79.834C192.011 79.0127 192.224 78.3307 192.649 77.788C193.075 77.2307 193.647 76.8053 194.365 76.512C195.099 76.2187 195.905 76.072 196.785 76.072ZM193.749 87.952C193.749 88.6707 193.999 89.2647 194.497 89.734C194.996 90.1887 195.759 90.416 196.785 90.416C197.46 90.416 198.017 90.3133 198.457 90.108C198.912 89.888 199.257 89.5947 199.491 89.228C199.726 88.8467 199.843 88.414 199.843 87.93C199.843 87.446 199.711 87.0207 199.447 86.654C199.198 86.2873 198.846 85.9647 198.391 85.686C197.951 85.3927 197.438 85.1287 196.851 84.894L196.521 84.762C195.92 85.0113 195.414 85.29 195.003 85.598C194.593 85.906 194.277 86.2507 194.057 86.632C193.852 87.0133 193.749 87.4533 193.749 87.952ZM196.763 77.898C196.045 77.898 195.443 78.074 194.959 78.426C194.49 78.778 194.255 79.2913 194.255 79.966C194.255 80.45 194.373 80.8607 194.607 81.198C194.842 81.5353 195.157 81.8287 195.553 82.078C195.949 82.3127 196.382 82.54 196.851 82.76C197.321 82.5547 197.739 82.3347 198.105 82.1C198.472 81.8507 198.765 81.5573 198.985 81.22C199.205 80.868 199.315 80.45 199.315 79.966C199.315 79.2913 199.081 78.778 198.611 78.426C198.142 78.074 197.526 77.898 196.763 77.898ZM223.604 92H220.854L215.706 84.762L214.166 86.038V92H211.79V76.292H214.166V83.882C214.547 83.4273 214.929 82.98 215.31 82.54C215.691 82.1 216.073 81.66 216.454 81.22L220.7 76.292H223.428L217.422 83.156L223.604 92ZM229.958 79.922C230.721 79.922 231.41 80.0687 232.026 80.362C232.642 80.6553 233.163 81.1027 233.588 81.704H233.698L233.962 80.142H235.854V92.154C235.854 93.2687 235.656 94.2073 235.26 94.97C234.864 95.7327 234.256 96.3047 233.434 96.686C232.628 97.082 231.608 97.28 230.376 97.28C229.526 97.28 228.741 97.2213 228.022 97.104C227.304 96.9867 226.644 96.8033 226.042 96.554V94.508C226.468 94.7133 226.915 94.882 227.384 95.014C227.854 95.1607 228.352 95.2633 228.88 95.322C229.408 95.3953 229.951 95.432 230.508 95.432C231.476 95.432 232.224 95.1533 232.752 94.596C233.28 94.0533 233.544 93.2833 233.544 92.286V91.89C233.544 91.6993 233.552 91.45 233.566 91.142C233.581 90.8193 233.596 90.5847 233.61 90.438H233.522C233.112 91.054 232.606 91.5087 232.004 91.802C231.418 92.0807 230.736 92.22 229.958 92.22C228.462 92.22 227.289 91.6847 226.438 90.614C225.602 89.5287 225.184 88.0253 225.184 86.104C225.184 84.8133 225.375 83.7133 225.756 82.804C226.138 81.88 226.68 81.1687 227.384 80.67C228.103 80.1713 228.961 79.922 229.958 79.922ZM230.442 81.858C229.826 81.858 229.306 82.0267 228.88 82.364C228.455 82.6867 228.132 83.1633 227.912 83.794C227.692 84.4247 227.582 85.202 227.582 86.126C227.582 87.5047 227.824 88.5533 228.308 89.272C228.807 89.9907 229.533 90.35 230.486 90.35C231.044 90.35 231.513 90.2767 231.894 90.13C232.29 89.9833 232.613 89.756 232.862 89.448C233.126 89.14 233.317 88.7513 233.434 88.282C233.566 87.798 233.632 87.2187 233.632 86.544V86.104C233.632 85.092 233.515 84.278 233.28 83.662C233.06 83.0313 232.716 82.5767 232.246 82.298C231.777 82.0047 231.176 81.858 230.442 81.858Z" fill="#282A37"/>
<line x1="17.5" y1="178" x2="17.5" y2="200" stroke="#C3C3C3"/>
<line x1="20.5" y1="178" x2="20.5" y2="200" stroke="#C3C3C3"/>
<line x1="23.5" y1="178" x2="23.5" y2="200" stroke="#C3C3C3"/>
<line x1="26.5" y1="178" x2="26.5" y2="200" stroke="#C3C3C3"/>
<line x1="30.5" y1="178" x2="30.5" y2="200" stroke="#C3C3C3"/>
<line x1="33.5" y1="178" x2="33.5" y2="200" stroke="#C3C3C3"/>
<line x1="36.5" y1="178" x2="36.5" y2="200" stroke="#C3C3C3"/>
<line x1="39.5" y1="178" x2="39.5" y2="200" stroke="#C3C3C3"/>
<line x1="17.5" y1="178" x2="17.5" y2="200" stroke="#C3C3C3"/>
<line x1="20.5" y1="178" x2="20.5" y2="200" stroke="#C3C3C3"/>
<line x1="23.5" y1="178" x2="23.5" y2="200" stroke="#C3C3C3"/>
<line x1="26.5" y1="178" x2="26.5" y2="200" stroke="#C3C3C3"/>
<line x1="30.5" y1="178" x2="30.5" y2="200" stroke="#C3C3C3"/>
<line x1="33.5" y1="178" x2="33.5" y2="200" stroke="#C3C3C3"/>
<line x1="36.5" y1="178" x2="36.5" y2="200" stroke="#C3C3C3"/>
<line x1="39.5" y1="178" x2="39.5" y2="200" stroke="#C3C3C3"/>
<line x1="42.5" y1="158" x2="42.5" y2="200" stroke="#C3C3C3"/>
<line x1="46.5" y1="178" x2="46.5" y2="200" stroke="#C3C3C3"/>
<line x1="49.5" y1="178" x2="49.5" y2="200" stroke="#C3C3C3"/>
<line x1="52.5" y1="178" x2="52.5" y2="200" stroke="#C3C3C3"/>
<line x1="56.5" y1="178" x2="56.5" y2="200" stroke="#C3C3C3"/>
<line x1="59.5" y1="178" x2="59.5" y2="200" stroke="#C3C3C3"/>
<line x1="62.5" y1="178" x2="62.5" y2="200" stroke="#C3C3C3"/>
<line x1="65.5" y1="178" x2="65.5" y2="200" stroke="#C3C3C3"/>
<line x1="68.5" y1="178" x2="68.5" y2="200" stroke="#C3C3C3"/>
<line x1="71.5" y1="178" x2="71.5" y2="200" stroke="#C3C3C3"/>
<line x1="75.5" y1="178" x2="75.5" y2="200" stroke="#C3C3C3"/>
<line x1="46.5" y1="178" x2="46.5" y2="200" stroke="#C3C3C3"/>
<line x1="49.5" y1="178" x2="49.5" y2="200" stroke="#C3C3C3"/>
<line x1="52.5" y1="178" x2="52.5" y2="200" stroke="#C3C3C3"/>
<line x1="56.5" y1="178" x2="56.5" y2="200" stroke="#C3C3C3"/>
<line x1="59.5" y1="178" x2="59.5" y2="200" stroke="#C3C3C3"/>
<line x1="62.5" y1="178" x2="62.5" y2="200" stroke="#C3C3C3"/>
<line x1="65.5" y1="178" x2="65.5" y2="200" stroke="#C3C3C3"/>
<line x1="68.5" y1="178" x2="68.5" y2="200" stroke="#C3C3C3"/>
<line x1="71.5" y1="178" x2="71.5" y2="200" stroke="#C3C3C3"/>
<line x1="75.5" y1="178" x2="75.5" y2="200" stroke="#C3C3C3"/>
<line x1="78.5" y1="158" x2="78.5" y2="200" stroke="#C3C3C3"/>
<line x1="82.5" y1="178" x2="82.5" y2="200" stroke="#C3C3C3"/>
<line x1="85.5" y1="178" x2="85.5" y2="200" stroke="#C3C3C3"/>
<line x1="88.5" y1="178" x2="88.5" y2="200" stroke="#C3C3C3"/>
<line x1="91.5" y1="178" x2="91.5" y2="200" stroke="#C3C3C3"/>
<line x1="94.5" y1="178" x2="94.5" y2="200" stroke="#C3C3C3"/>
<line x1="97.5" y1="178" x2="97.5" y2="200" stroke="#C3C3C3"/>
<line x1="101.5" y1="178" x2="101.5" y2="200" stroke="#C3C3C3"/>
<line x1="104.5" y1="178" x2="104.5" y2="200" stroke="#C3C3C3"/>
<line x1="107.5" y1="178" x2="107.5" y2="200" stroke="#C3C3C3"/>
<line x1="110.5" y1="178" x2="110.5" y2="200" stroke="#C3C3C3"/>
<line x1="82.5" y1="178" x2="82.5" y2="200" stroke="#C3C3C3"/>
<line x1="85.5" y1="178" x2="85.5" y2="200" stroke="#C3C3C3"/>
<line x1="88.5" y1="178" x2="88.5" y2="200" stroke="#C3C3C3"/>
<line x1="91.5" y1="178" x2="91.5" y2="200" stroke="#C3C3C3"/>
<line x1="94.5" y1="178" x2="94.5" y2="200" stroke="#C3C3C3"/>
<line x1="97.5" y1="178" x2="97.5" y2="200" stroke="#C3C3C3"/>
<line x1="101.5" y1="178" x2="101.5" y2="200" stroke="#C3C3C3"/>
<line x1="104.5" y1="178" x2="104.5" y2="200" stroke="#C3C3C3"/>
<line x1="107.5" y1="178" x2="107.5" y2="200" stroke="#C3C3C3"/>
<line x1="110.5" y1="178" x2="110.5" y2="200" stroke="#C3C3C3"/>
<line y1="-0.5" x2="74" y2="-0.5" transform="matrix(0 1 1 0 115 126)" stroke="#4A4A4A"/>
<line x1="117.5" y1="178" x2="117.5" y2="200" stroke="#4A4A4A"/>
<line x1="120.5" y1="178" x2="120.5" y2="200" stroke="#4A4A4A"/>
<line x1="123.5" y1="178" x2="123.5" y2="200" stroke="#4A4A4A"/>
<line x1="127.5" y1="178" x2="127.5" y2="200" stroke="#4A4A4A"/>
<line x1="130.5" y1="178" x2="130.5" y2="200" stroke="#4A4A4A"/>
<line x1="133.5" y1="178" x2="133.5" y2="200" stroke="#4A4A4A"/>
<line x1="136.5" y1="178" x2="136.5" y2="200" stroke="#4A4A4A"/>
<line x1="139.5" y1="178" x2="139.5" y2="200" stroke="#C3C3C3"/>
<line x1="142.5" y1="178" x2="142.5" y2="200" stroke="#C3C3C3"/>
<line x1="146.5" y1="178" x2="146.5" y2="200" stroke="#C3C3C3"/>
<line x1="117.5" y1="178" x2="117.5" y2="200" stroke="#4A4A4A"/>
<line x1="120.5" y1="178" x2="120.5" y2="200" stroke="#4A4A4A"/>
<line x1="123.5" y1="178" x2="123.5" y2="200" stroke="#4A4A4A"/>
<line x1="127.5" y1="178" x2="127.5" y2="200" stroke="#4A4A4A"/>
<line x1="130.5" y1="178" x2="130.5" y2="200" stroke="#4A4A4A"/>
<line x1="133.5" y1="178" x2="133.5" y2="200" stroke="#4A4A4A"/>
<line x1="136.5" y1="178" x2="136.5" y2="200" stroke="#4A4A4A"/>
<line x1="139.5" y1="178" x2="139.5" y2="200" stroke="#C3C3C3"/>
<line x1="142.5" y1="178" x2="142.5" y2="200" stroke="#C3C3C3"/>
<line x1="146.5" y1="178" x2="146.5" y2="200" stroke="#C3C3C3"/>
<line x1="149.5" y1="158" x2="149.5" y2="200" stroke="#C3C3C3"/>
<line x1="149.5" y1="178" x2="149.5" y2="200" stroke="#C3C3C3"/>
<line x1="152.5" y1="178" x2="152.5" y2="200" stroke="#C3C3C3"/>
<line x1="155.5" y1="178" x2="155.5" y2="200" stroke="#C3C3C3"/>
<line x1="158.5" y1="178" x2="158.5" y2="200" stroke="#C3C3C3"/>
<line x1="162.5" y1="178" x2="162.5" y2="200" stroke="#C3C3C3"/>
<line x1="165.5" y1="178" x2="165.5" y2="200" stroke="#C3C3C3"/>
<line x1="168.5" y1="178" x2="168.5" y2="200" stroke="#C3C3C3"/>
<line x1="171.5" y1="178" x2="171.5" y2="200" stroke="#C3C3C3"/>
<line x1="149.5" y1="178" x2="149.5" y2="200" stroke="#C3C3C3"/>
<line x1="152.5" y1="178" x2="152.5" y2="200" stroke="#C3C3C3"/>
<line x1="155.5" y1="178" x2="155.5" y2="200" stroke="#C3C3C3"/>
<line x1="158.5" y1="178" x2="158.5" y2="200" stroke="#C3C3C3"/>
<line x1="162.5" y1="178" x2="162.5" y2="200" stroke="#C3C3C3"/>
<line x1="165.5" y1="178" x2="165.5" y2="200" stroke="#C3C3C3"/>
<line x1="168.5" y1="178" x2="168.5" y2="200" stroke="#C3C3C3"/>
<line x1="171.5" y1="178" x2="171.5" y2="200" stroke="#C3C3C3"/>
<line x1="174.5" y1="158" x2="174.5" y2="200" stroke="#C3C3C3"/>
<line x1="178.5" y1="178" x2="178.5" y2="200" stroke="#C3C3C3"/>
<line x1="181.5" y1="178" x2="181.5" y2="200" stroke="#C3C3C3"/>
<line x1="184.5" y1="178" x2="184.5" y2="200" stroke="#C3C3C3"/>
<line x1="188.5" y1="178" x2="188.5" y2="200" stroke="#C3C3C3"/>
<line x1="191.5" y1="178" x2="191.5" y2="200" stroke="#C3C3C3"/>
<line x1="194.5" y1="178" x2="194.5" y2="200" stroke="#C3C3C3"/>
<line x1="197.5" y1="178" x2="197.5" y2="200" stroke="#C3C3C3"/>
<line x1="200.5" y1="178" x2="200.5" y2="200" stroke="#C3C3C3"/>
<line x1="203.5" y1="178" x2="203.5" y2="200" stroke="#C3C3C3"/>
<line x1="207.5" y1="178" x2="207.5" y2="200" stroke="#C3C3C3"/>
<line x1="178.5" y1="178" x2="178.5" y2="200" stroke="#C3C3C3"/>
<line x1="181.5" y1="178" x2="181.5" y2="200" stroke="#C3C3C3"/>
<line x1="184.5" y1="178" x2="184.5" y2="200" stroke="#C3C3C3"/>
<line x1="188.5" y1="178" x2="188.5" y2="200" stroke="#C3C3C3"/>
<line x1="191.5" y1="178" x2="191.5" y2="200" stroke="#C3C3C3"/>
<line x1="194.5" y1="178" x2="194.5" y2="200" stroke="#C3C3C3"/>
<line x1="197.5" y1="178" x2="197.5" y2="200" stroke="#C3C3C3"/>
<line x1="200.5" y1="178" x2="200.5" y2="200" stroke="#C3C3C3"/>
<line x1="203.5" y1="178" x2="203.5" y2="200" stroke="#C3C3C3"/>
<line x1="207.5" y1="178" x2="207.5" y2="200" stroke="#C3C3C3"/>
<line x1="210.5" y1="158" x2="210.5" y2="200" stroke="#C3C3C3"/>
<line x1="214.5" y1="178" x2="214.5" y2="200" stroke="#C3C3C3"/>
<line x1="217.5" y1="178" x2="217.5" y2="200" stroke="#C3C3C3"/>
<line x1="220.5" y1="178" x2="220.5" y2="200" stroke="#C3C3C3"/>
<line x1="223.5" y1="178" x2="223.5" y2="200" stroke="#C3C3C3"/>
<line x1="226.5" y1="178" x2="226.5" y2="200" stroke="#C3C3C3"/>
<line x1="229.5" y1="178" x2="229.5" y2="200" stroke="#C3C3C3"/>
<line x1="233.5" y1="178" x2="233.5" y2="200" stroke="#C3C3C3"/>
<line x1="236.5" y1="178" x2="236.5" y2="200" stroke="#C3C3C3"/>
<line x1="239.5" y1="178" x2="239.5" y2="200" stroke="#C3C3C3"/>
<line x1="242.5" y1="178" x2="242.5" y2="200" stroke="#C3C3C3"/>
<line x1="214.5" y1="178" x2="214.5" y2="200" stroke="#C3C3C3"/>
<line x1="217.5" y1="178" x2="217.5" y2="200" stroke="#C3C3C3"/>
<line x1="220.5" y1="178" x2="220.5" y2="200" stroke="#C3C3C3"/>
<line x1="223.5" y1="178" x2="223.5" y2="200" stroke="#C3C3C3"/>
<line x1="226.5" y1="178" x2="226.5" y2="200" stroke="#C3C3C3"/>
<line x1="229.5" y1="178" x2="229.5" y2="200" stroke="#C3C3C3"/>
<line x1="233.5" y1="178" x2="233.5" y2="200" stroke="#C3C3C3"/>
<line x1="236.5" y1="178" x2="236.5" y2="200" stroke="#C3C3C3"/>
<line x1="239.5" y1="178" x2="239.5" y2="200" stroke="#C3C3C3"/>
<line x1="242.5" y1="178" x2="242.5" y2="200" stroke="#C3C3C3"/>
<line x1="247.5" y1="67" x2="247.5" y2="200" stroke="#4A4A4A"/>
<line x1="249.5" y1="178" x2="249.5" y2="200" stroke="#4A4A4A"/>
<line x1="252.5" y1="178" x2="252.5" y2="200" stroke="#4A4A4A"/>
<line x1="255.5" y1="178" x2="255.5" y2="200" stroke="#4A4A4A"/>
<line x1="259.5" y1="178" x2="259.5" y2="200" stroke="#4A4A4A"/>
<line x1="262.5" y1="178" x2="262.5" y2="200" stroke="#4A4A4A"/>
<line x1="265.5" y1="178" x2="265.5" y2="200" stroke="#4A4A4A"/>
<line x1="268.5" y1="178" x2="268.5" y2="200" stroke="#4A4A4A"/>
<line x1="271.5" y1="178" x2="271.5" y2="200" stroke="#C3C3C3"/>
<line x1="274.5" y1="178" x2="274.5" y2="200" stroke="#C3C3C3"/>
<line x1="278.5" y1="178" x2="278.5" y2="200" stroke="#C3C3C3"/>
<line x1="249.5" y1="178" x2="249.5" y2="200" stroke="#4A4A4A"/>
<line x1="252.5" y1="178" x2="252.5" y2="200" stroke="#4A4A4A"/>
<line x1="255.5" y1="178" x2="255.5" y2="200" stroke="#4A4A4A"/>
<line x1="259.5" y1="178" x2="259.5" y2="200" stroke="#4A4A4A"/>
<line x1="262.5" y1="178" x2="262.5" y2="200" stroke="#4A4A4A"/>
<line x1="265.5" y1="178" x2="265.5" y2="200" stroke="#4A4A4A"/>
<line x1="268.5" y1="178" x2="268.5" y2="200" stroke="#4A4A4A"/>
<line x1="271.5" y1="178" x2="271.5" y2="200" stroke="#C3C3C3"/>
<line x1="274.5" y1="178" x2="274.5" y2="200" stroke="#C3C3C3"/>
<line x1="278.5" y1="178" x2="278.5" y2="200" stroke="#C3C3C3"/>
<line x1="281.5" y1="158" x2="281.5" y2="200" stroke="#C3C3C3"/>
<line x1="281.5" y1="178" x2="281.5" y2="200" stroke="#C3C3C3"/>
<line x1="284.5" y1="178" x2="284.5" y2="200" stroke="#C3C3C3"/>
<line x1="287.5" y1="178" x2="287.5" y2="200" stroke="#C3C3C3"/>
<line x1="290.5" y1="178" x2="290.5" y2="200" stroke="#C3C3C3"/>
<line x1="294.5" y1="178" x2="294.5" y2="200" stroke="#C3C3C3"/>
<line x1="297.5" y1="178" x2="297.5" y2="200" stroke="#C3C3C3"/>
<line x1="300.5" y1="178" x2="300.5" y2="200" stroke="#C3C3C3"/>
<line x1="303.5" y1="178" x2="303.5" y2="200" stroke="#C3C3C3"/>
<line x1="281.5" y1="178" x2="281.5" y2="200" stroke="#C3C3C3"/>
<line x1="284.5" y1="178" x2="284.5" y2="200" stroke="#C3C3C3"/>
<line x1="287.5" y1="178" x2="287.5" y2="200" stroke="#C3C3C3"/>
<line x1="290.5" y1="178" x2="290.5" y2="200" stroke="#C3C3C3"/>
<line x1="294.5" y1="178" x2="294.5" y2="200" stroke="#C3C3C3"/>
<line x1="297.5" y1="178" x2="297.5" y2="200" stroke="#C3C3C3"/>
<line x1="300.5" y1="178" x2="300.5" y2="200" stroke="#C3C3C3"/>
<line x1="303.5" y1="178" x2="303.5" y2="200" stroke="#C3C3C3"/>
<line x1="306.5" y1="158" x2="306.5" y2="200" stroke="#C3C3C3"/>
<line x1="310.5" y1="178" x2="310.5" y2="200" stroke="#C3C3C3"/>
<line x1="313.5" y1="178" x2="313.5" y2="200" stroke="#C3C3C3"/>
<line x1="316.5" y1="178" x2="316.5" y2="200" stroke="#C3C3C3"/>
<line x1="320.5" y1="178" x2="320.5" y2="200" stroke="#C3C3C3"/>
<line x1="323.5" y1="178" x2="323.5" y2="200" stroke="#C3C3C3"/>
<line x1="326.5" y1="178" x2="326.5" y2="200" stroke="#C3C3C3"/>
<line x1="329.5" y1="178" x2="329.5" y2="200" stroke="#C3C3C3"/>
<line x1="332.5" y1="178" x2="332.5" y2="200" stroke="#C3C3C3"/>
<line x1="335.5" y1="178" x2="335.5" y2="200" stroke="#C3C3C3"/>
<line x1="339.5" y1="178" x2="339.5" y2="200" stroke="#C3C3C3"/>
<line x1="310.5" y1="178" x2="310.5" y2="200" stroke="#C3C3C3"/>
<line x1="313.5" y1="178" x2="313.5" y2="200" stroke="#C3C3C3"/>
<line x1="316.5" y1="178" x2="316.5" y2="200" stroke="#C3C3C3"/>
<line x1="320.5" y1="178" x2="320.5" y2="200" stroke="#C3C3C3"/>
<line x1="323.5" y1="178" x2="323.5" y2="200" stroke="#C3C3C3"/>
<line x1="326.5" y1="178" x2="326.5" y2="200" stroke="#C3C3C3"/>
<line x1="329.5" y1="178" x2="329.5" y2="200" stroke="#C3C3C3"/>
<line x1="332.5" y1="178" x2="332.5" y2="200" stroke="#C3C3C3"/>
<line x1="335.5" y1="178" x2="335.5" y2="200" stroke="#C3C3C3"/>
<line x1="339.5" y1="178" x2="339.5" y2="200" stroke="#C3C3C3"/>
<line x1="342.5" y1="158" x2="342.5" y2="200" stroke="#C3C3C3"/>
<line x1="346.5" y1="178" x2="346.5" y2="200" stroke="#C3C3C3"/>
<line x1="349.5" y1="178" x2="349.5" y2="200" stroke="#C3C3C3"/>
<line x1="352.5" y1="178" x2="352.5" y2="200" stroke="#C3C3C3"/>
<line x1="355.5" y1="178" x2="355.5" y2="200" stroke="#C3C3C3"/>
<line x1="358.5" y1="178" x2="358.5" y2="200" stroke="#C3C3C3"/>
<line x1="361.5" y1="178" x2="361.5" y2="200" stroke="#C3C3C3"/>
<line x1="365.5" y1="178" x2="365.5" y2="200" stroke="#C3C3C3"/>
<line x1="368.5" y1="178" x2="368.5" y2="200" stroke="#C3C3C3"/>
<line x1="371.5" y1="178" x2="371.5" y2="200" stroke="#C3C3C3"/>
<line x1="374.5" y1="178" x2="374.5" y2="200" stroke="#C3C3C3"/>
<line x1="346.5" y1="178" x2="346.5" y2="200" stroke="#C3C3C3"/>
<line x1="349.5" y1="178" x2="349.5" y2="200" stroke="#C3C3C3"/>
<line x1="352.5" y1="178" x2="352.5" y2="200" stroke="#C3C3C3"/>
<line x1="355.5" y1="178" x2="355.5" y2="200" stroke="#C3C3C3"/>
<line x1="358.5" y1="178" x2="358.5" y2="200" stroke="#C3C3C3"/>
<line x1="361.5" y1="178" x2="361.5" y2="200" stroke="#C3C3C3"/>
<line x1="365.5" y1="178" x2="365.5" y2="200" stroke="#C3C3C3"/>
<line x1="368.5" y1="178" x2="368.5" y2="200" stroke="#C3C3C3"/>
<line x1="371.5" y1="178" x2="371.5" y2="200" stroke="#C3C3C3"/>
<line x1="374.5" y1="178" x2="374.5" y2="200" stroke="#C3C3C3"/>
<line y1="-0.5" x2="74" y2="-0.5" transform="matrix(0 1 1 0 379 126)" stroke="#4A4A4A"/>
<line x1="381.5" y1="178" x2="381.5" y2="200" stroke="#4A4A4A"/>
<line x1="384.5" y1="178" x2="384.5" y2="200" stroke="#4A4A4A"/>
<line x1="387.5" y1="178" x2="387.5" y2="200" stroke="#4A4A4A"/>
<line x1="391.5" y1="178" x2="391.5" y2="200" stroke="#4A4A4A"/>
<line x1="394.5" y1="178" x2="394.5" y2="200" stroke="#4A4A4A"/>
<line x1="397.5" y1="178" x2="397.5" y2="200" stroke="#4A4A4A"/>
<line x1="400.5" y1="178" x2="400.5" y2="200" stroke="#4A4A4A"/>
<line x1="403.5" y1="178" x2="403.5" y2="200" stroke="#C3C3C3"/>
<line x1="406.5" y1="178" x2="406.5" y2="200" stroke="#C3C3C3"/>
<line x1="410.5" y1="178" x2="410.5" y2="200" stroke="#C3C3C3"/>
<line x1="381.5" y1="178" x2="381.5" y2="200" stroke="#4A4A4A"/>
<line x1="384.5" y1="178" x2="384.5" y2="200" stroke="#4A4A4A"/>
<line x1="387.5" y1="178" x2="387.5" y2="200" stroke="#4A4A4A"/>
<line x1="391.5" y1="178" x2="391.5" y2="200" stroke="#4A4A4A"/>
<line x1="394.5" y1="178" x2="394.5" y2="200" stroke="#4A4A4A"/>
<line x1="397.5" y1="178" x2="397.5" y2="200" stroke="#4A4A4A"/>
<line x1="400.5" y1="178" x2="400.5" y2="200" stroke="#4A4A4A"/>
<line x1="403.5" y1="178" x2="403.5" y2="200" stroke="#C3C3C3"/>
<line x1="406.5" y1="178" x2="406.5" y2="200" stroke="#C3C3C3"/>
<line x1="410.5" y1="178" x2="410.5" y2="200" stroke="#C3C3C3"/>
<line x1="413.5" y1="158" x2="413.5" y2="200" stroke="#C3C3C3"/>
<line x1="413.5" y1="178" x2="413.5" y2="200" stroke="#C3C3C3"/>
<line x1="416.5" y1="178" x2="416.5" y2="200" stroke="#C3C3C3"/>
<line x1="419.5" y1="178" x2="419.5" y2="200" stroke="#C3C3C3"/>
<line x1="422.5" y1="178" x2="422.5" y2="200" stroke="#C3C3C3"/>
<line x1="426.5" y1="178" x2="426.5" y2="200" stroke="#C3C3C3"/>
<line x1="429.5" y1="178" x2="429.5" y2="200" stroke="#C3C3C3"/>
<line x1="432.5" y1="178" x2="432.5" y2="200" stroke="#C3C3C3"/>
<line x1="435.5" y1="178" x2="435.5" y2="200" stroke="#C3C3C3"/>
<line x1="413.5" y1="178" x2="413.5" y2="200" stroke="#C3C3C3"/>
<line x1="416.5" y1="178" x2="416.5" y2="200" stroke="#C3C3C3"/>
<line x1="419.5" y1="178" x2="419.5" y2="200" stroke="#C3C3C3"/>
<line x1="422.5" y1="178" x2="422.5" y2="200" stroke="#C3C3C3"/>
<line x1="426.5" y1="178" x2="426.5" y2="200" stroke="#C3C3C3"/>
<line x1="429.5" y1="178" x2="429.5" y2="200" stroke="#C3C3C3"/>
<line x1="432.5" y1="178" x2="432.5" y2="200" stroke="#C3C3C3"/>
<line x1="435.5" y1="178" x2="435.5" y2="200" stroke="#C3C3C3"/>
<line x1="438.5" y1="158" x2="438.5" y2="200" stroke="#C3C3C3"/>
<line x1="442.5" y1="178" x2="442.5" y2="200" stroke="#C3C3C3"/>
<line x1="445.5" y1="178" x2="445.5" y2="200" stroke="#C3C3C3"/>
<line x1="448.5" y1="178" x2="448.5" y2="200" stroke="#C3C3C3"/>
<line x1="452.5" y1="178" x2="452.5" y2="200" stroke="#C3C3C3"/>
<line x1="442.5" y1="178" x2="442.5" y2="200" stroke="#C3C3C3"/>
<line x1="445.5" y1="178" x2="445.5" y2="200" stroke="#C3C3C3"/>
<line x1="448.5" y1="178" x2="448.5" y2="200" stroke="#C3C3C3"/>
<line x1="452.5" y1="178" x2="452.5" y2="200" stroke="#C3C3C3"/>
<rect width="464" height="56" rx="10" fill="#EDEDED"/>
<rect x="327.5" y="12.5" width="117" height="31" rx="15.5" fill="#F96118" fill-opacity="0.15" stroke="#F96118"/>
<rect x="327.5" y="12.5" width="64" height="31" rx="15.5" fill="#F96118" stroke="#F96118"/>
<path d="M357.19 33H355.734L352.472 28.226L351.52 29.122V33H350.274V23.004H351.52V27.932C351.772 27.6147 352.029 27.2973 352.29 26.98C352.551 26.6627 352.813 26.3453 353.074 26.028L355.608 23.004H357.064L353.368 27.358L357.19 33ZM361.067 25.356C361.534 25.356 361.949 25.4493 362.313 25.636C362.687 25.8227 363.004 26.1073 363.265 26.49H363.335L363.489 25.496H364.469V33.126C364.469 33.8353 364.353 34.428 364.119 34.904C363.895 35.3893 363.545 35.7533 363.069 35.996C362.603 36.2387 362.005 36.36 361.277 36.36C360.764 36.36 360.297 36.318 359.877 36.234C359.457 36.1593 359.075 36.0427 358.729 35.884V34.75C358.963 34.8713 359.215 34.974 359.485 35.058C359.765 35.1513 360.059 35.2213 360.367 35.268C360.685 35.3147 361.011 35.338 361.347 35.338C361.945 35.338 362.411 35.1467 362.747 34.764C363.093 34.3907 363.265 33.8773 363.265 33.224V32.93C363.265 32.818 363.27 32.6593 363.279 32.454C363.289 32.2393 363.298 32.09 363.307 32.006H363.251C363.009 32.3887 362.705 32.6733 362.341 32.86C361.977 33.0467 361.557 33.14 361.081 33.14C360.176 33.14 359.467 32.7993 358.953 32.118C358.44 31.4367 358.183 30.4847 358.183 29.262C358.183 28.4593 358.295 27.7687 358.519 27.19C358.753 26.602 359.084 26.1493 359.513 25.832C359.952 25.5147 360.47 25.356 361.067 25.356ZM361.263 26.392C360.881 26.392 360.549 26.504 360.269 26.728C359.999 26.952 359.793 27.2787 359.653 27.708C359.513 28.1373 359.443 28.66 359.443 29.276C359.443 30.2 359.597 30.9093 359.905 31.404C360.223 31.8893 360.685 32.132 361.291 32.132C361.637 32.132 361.935 32.0853 362.187 31.992C362.439 31.8893 362.645 31.7353 362.803 31.53C362.962 31.3153 363.079 31.0447 363.153 30.718C363.237 30.3913 363.279 30.004 363.279 29.556V29.262C363.279 28.5807 363.205 28.03 363.055 27.61C362.915 27.19 362.696 26.882 362.397 26.686C362.108 26.49 361.73 26.392 361.263 26.392Z" fill="#282A37"/>
<path d="M410.324 33H409.106V22.36H410.324V33ZM414.036 24.95C414.036 25.2673 414.026 25.566 414.008 25.846C413.998 26.1167 413.984 26.3313 413.966 26.49H414.036C414.232 26.1727 414.507 25.9067 414.862 25.692C415.216 25.4773 415.664 25.37 416.206 25.37C417.083 25.37 417.783 25.6967 418.306 26.35C418.838 26.994 419.104 27.96 419.104 29.248C419.104 30.1067 418.982 30.8253 418.74 31.404C418.497 31.9827 418.156 32.4167 417.718 32.706C417.288 32.9953 416.784 33.14 416.206 33.14C415.655 33.14 415.202 33.0327 414.848 32.818C414.502 32.6033 414.232 32.3467 414.036 32.048H413.938L413.7 33H412.818V22.36H414.036V24.95ZM415.982 26.392C415.496 26.392 415.109 26.4947 414.82 26.7C414.54 26.896 414.339 27.204 414.218 27.624C414.096 28.0347 414.036 28.562 414.036 29.206V29.262C414.036 30.186 414.171 30.8953 414.442 31.39C414.722 31.8753 415.244 32.118 416.01 32.118C416.616 32.118 417.074 31.8707 417.382 31.376C417.69 30.8813 417.844 30.1673 417.844 29.234C417.844 28.2913 417.69 27.582 417.382 27.106C417.074 26.63 416.607 26.392 415.982 26.392Z" fill="#282A37"/>
<path d="M41.912 22.576L38.904 34H37.064L35.048 26.944C34.984 26.752 34.92 26.5387 34.856 26.304C34.8027 26.0693 34.7493 25.84 34.696 25.616C34.6427 25.3813 34.5947 25.1733 34.552 24.992C34.52 24.8107 34.4933 24.672 34.472 24.576C34.4613 24.672 34.44 24.8107 34.408 24.992C34.376 25.1733 34.3333 25.3813 34.28 25.616C34.2267 25.84 34.1733 26.0747 34.12 26.32C34.0667 26.5547 34.008 26.7787 33.944 26.992L31.96 34H30.12L27.128 22.576H28.904L30.584 29.328C30.6373 29.5627 30.6907 29.8027 30.744 30.048C30.7973 30.2933 30.8453 30.5387 30.888 30.784C30.9413 31.0293 30.984 31.2693 31.016 31.504C31.0587 31.728 31.096 31.936 31.128 32.128C31.16 31.9253 31.192 31.7067 31.224 31.472C31.2667 31.2373 31.3147 30.9973 31.368 30.752C31.4213 30.496 31.4747 30.2453 31.528 30C31.592 29.7547 31.656 29.5307 31.72 29.328L33.624 22.576H35.352L37.32 29.36C37.384 29.5733 37.4427 29.8027 37.496 30.048C37.56 30.2933 37.6187 30.544 37.672 30.8C37.7253 31.0453 37.768 31.2853 37.8 31.52C37.8427 31.744 37.88 31.9467 37.912 32.128C37.944 31.8613 37.9867 31.5733 38.04 31.264C38.104 30.944 38.1733 30.6187 38.248 30.288C38.3227 29.9467 38.3973 29.6267 38.472 29.328L40.152 22.576H41.912ZM46.79 25.216C47.5473 25.216 48.198 25.376 48.742 25.696C49.286 26.0053 49.702 26.4533 49.99 27.04C50.2887 27.6267 50.438 28.32 50.438 29.12V30.048H44.646C44.6673 30.9333 44.8967 31.6107 45.334 32.08C45.782 32.5493 46.406 32.784 47.206 32.784C47.7607 32.784 48.2513 32.736 48.678 32.64C49.1153 32.5333 49.5633 32.3787 50.022 32.176V33.584C49.5953 33.776 49.158 33.92 48.71 34.016C48.2727 34.112 47.75 34.16 47.142 34.16C46.31 34.16 45.574 33.9947 44.934 33.664C44.294 33.3333 43.7927 32.8427 43.43 32.192C43.078 31.5307 42.902 30.72 42.902 29.76C42.902 28.7893 43.062 27.968 43.382 27.296C43.7127 26.624 44.166 26.112 44.742 25.76C45.3287 25.3973 46.0113 25.216 46.79 25.216ZM46.79 26.528C46.182 26.528 45.6913 26.7253 45.318 27.12C44.9553 27.5147 44.742 28.0747 44.678 28.8H48.742C48.742 28.352 48.6727 27.9573 48.534 27.616C48.3953 27.2747 48.182 27.008 47.894 26.816C47.606 26.624 47.238 26.528 46.79 26.528ZM54.5702 25.376V34H52.8742V25.376H54.5702ZM53.7382 22.096C53.9942 22.096 54.2182 22.1707 54.4102 22.32C54.6022 22.4693 54.6982 22.72 54.6982 23.072C54.6982 23.4133 54.6022 23.664 54.4102 23.824C54.2182 23.9733 53.9942 24.048 53.7382 24.048C53.4609 24.048 53.2262 23.9733 53.0342 23.824C52.8529 23.664 52.7622 23.4133 52.7622 23.072C52.7622 22.72 52.8529 22.4693 53.0342 22.32C53.2262 22.1707 53.4609 22.096 53.7382 22.096ZM60.5296 25.216C61.0843 25.216 61.5856 25.3227 62.0336 25.536C62.4816 25.7493 62.8603 26.0747 63.1696 26.512H63.2496L63.4416 25.376H64.8176V34.112C64.8176 34.9227 64.6736 35.6053 64.3856 36.16C64.0976 36.7147 63.655 37.1307 63.0576 37.408C62.471 37.696 61.7296 37.84 60.8336 37.84C60.215 37.84 59.6443 37.7973 59.1216 37.712C58.599 37.6267 58.119 37.4933 57.6816 37.312V35.824C57.991 35.9733 58.3163 36.096 58.6576 36.192C58.999 36.2987 59.3616 36.3733 59.7456 36.416C60.1296 36.4693 60.5243 36.496 60.9296 36.496C61.6336 36.496 62.1776 36.2933 62.5616 35.888C62.9456 35.4933 63.1376 34.9333 63.1376 34.208V33.92C63.1376 33.7813 63.143 33.6 63.1536 33.376C63.1643 33.1413 63.175 32.9707 63.1856 32.864H63.1216C62.823 33.312 62.455 33.6427 62.0176 33.856C61.591 34.0587 61.095 34.16 60.5296 34.16C59.4416 34.16 58.5883 33.7707 57.9696 32.992C57.3616 32.2027 57.0576 31.1093 57.0576 29.712C57.0576 28.7733 57.1963 27.9733 57.4736 27.312C57.751 26.64 58.1456 26.1227 58.6576 25.76C59.1803 25.3973 59.8043 25.216 60.5296 25.216ZM60.8816 26.624C60.4336 26.624 60.055 26.7467 59.7456 26.992C59.4363 27.2267 59.2016 27.5733 59.0416 28.032C58.8816 28.4907 58.8016 29.056 58.8016 29.728C58.8016 30.7307 58.9776 31.4933 59.3296 32.016C59.6923 32.5387 60.2203 32.8 60.9136 32.8C61.319 32.8 61.6603 32.7467 61.9376 32.64C62.2256 32.5333 62.4603 32.368 62.6416 32.144C62.8336 31.92 62.9723 31.6373 63.0576 31.296C63.1536 30.944 63.2016 30.5227 63.2016 30.032V29.712C63.2016 28.976 63.1163 28.384 62.9456 27.936C62.7856 27.4773 62.535 27.1467 62.1936 26.944C61.8523 26.7307 61.415 26.624 60.8816 26.624ZM69.4915 25.088C69.4915 25.3547 69.4808 25.6213 69.4595 25.888C69.4382 26.1547 69.4168 26.3733 69.3955 26.544H69.5075C69.6888 26.2453 69.9128 26 70.1795 25.808C70.4568 25.616 70.7608 25.472 71.0915 25.376C71.4328 25.28 71.7795 25.232 72.1315 25.232C72.8142 25.232 73.3848 25.344 73.8435 25.568C74.3128 25.7813 74.6648 26.1227 74.8995 26.592C75.1448 27.0507 75.2675 27.648 75.2675 28.384V34H73.5875V28.624C73.5875 27.952 73.4435 27.4507 73.1555 27.12C72.8782 26.7787 72.4302 26.608 71.8115 26.608C71.2248 26.608 70.7608 26.7253 70.4195 26.96C70.0888 27.1947 69.8488 27.5413 69.6995 28C69.5608 28.448 69.4915 29.0027 69.4915 29.664V34H67.7955V21.84H69.4915V25.088ZM81.2976 32.784C81.5216 32.784 81.751 32.7627 81.9856 32.72C82.2203 32.6773 82.423 32.6293 82.5936 32.576V33.856C82.4123 33.9413 82.167 34.0107 81.8576 34.064C81.5483 34.128 81.239 34.16 80.9296 34.16C80.4603 34.16 80.0283 34.08 79.6336 33.92C79.2496 33.76 78.9403 33.4827 78.7056 33.088C78.471 32.6933 78.3536 32.144 78.3536 31.44V26.672H77.1536V25.904L78.4176 25.264L79.0096 23.44H80.0496V25.376H82.5136V26.672H80.0496V31.408C80.0496 31.8773 80.1616 32.224 80.3856 32.448C80.6203 32.672 80.9243 32.784 81.2976 32.784Z" fill="#282A37"/>
<rect x="212.5" y="200" width="4" height="25" transform="rotate(-90 212.5 200)" fill="#939393"/>
</svg>
