<svg width="168" height="34" viewBox="0 0 168 34" fill="none" xmlns="http://www.w3.org/2000/svg">
<path d="M4.088 5.68L6.538 1.004H8.162L4.83 7.122V11H3.332V7.178L0 1.004H1.638L4.088 5.68ZM15.2768 7.22C15.2768 7.84533 15.1928 8.40067 15.0248 8.886C14.8568 9.37133 14.6188 9.782 14.3108 10.118C14.0028 10.454 13.6295 10.7107 13.1908 10.888C12.7522 11.056 12.2575 11.14 11.7068 11.14C11.2028 11.14 10.7362 11.056 10.3068 10.888C9.87751 10.7107 9.50418 10.454 9.18684 10.118C8.87884 9.782 8.63618 9.37133 8.45884 8.886C8.28151 8.40067 8.19284 7.84067 8.19284 7.206C8.19284 6.37533 8.33284 5.67067 8.61284 5.092C8.90218 4.51333 9.31284 4.07467 9.84484 3.776C10.3862 3.468 11.0208 3.314 11.7488 3.314C12.4395 3.314 13.0462 3.468 13.5688 3.776C14.1008 4.07467 14.5162 4.51333 14.8148 5.092C15.1228 5.67067 15.2768 6.38 15.2768 7.22ZM9.71884 7.22C9.71884 7.78 9.78884 8.26533 9.92884 8.676C10.0688 9.07733 10.2882 9.38533 10.5868 9.6C10.8855 9.81467 11.2682 9.922 11.7348 9.922C12.2015 9.922 12.5842 9.81467 12.8828 9.6C13.1815 9.38533 13.4008 9.07733 13.5408 8.676C13.6808 8.26533 13.7508 7.78 13.7508 7.22C13.7508 6.64133 13.6762 6.156 13.5268 5.764C13.3868 5.372 13.1675 5.07333 12.8688 4.868C12.5795 4.65333 12.1968 4.546 11.7208 4.546C11.0208 4.546 10.5122 4.77933 10.1948 5.246C9.87751 5.71267 9.71884 6.37067 9.71884 7.22ZM19.7621 3.314C20.2474 3.314 20.6861 3.40733 21.0781 3.594C21.4701 3.78067 21.8014 4.06533 22.0721 4.448H22.1421L22.3101 3.454H23.5141V11.098C23.5141 11.8073 23.3881 12.4047 23.1361 12.89C22.8841 13.3753 22.4968 13.7393 21.9741 13.982C21.4608 14.234 20.8121 14.36 20.0281 14.36C19.4868 14.36 18.9874 14.3227 18.5301 14.248C18.0728 14.1733 17.6528 14.0567 17.2701 13.898V12.596C17.5408 12.7267 17.8254 12.834 18.1241 12.918C18.4228 13.0113 18.7401 13.0767 19.0761 13.114C19.4121 13.1607 19.7574 13.184 20.1121 13.184C20.7281 13.184 21.2041 13.0067 21.5401 12.652C21.8761 12.3067 22.0441 11.8167 22.0441 11.182V10.93C22.0441 10.8087 22.0488 10.65 22.0581 10.454C22.0674 10.2487 22.0768 10.0993 22.0861 10.006H22.0301C21.7688 10.398 21.4468 10.6873 21.0641 10.874C20.6908 11.0513 20.2568 11.14 19.7621 11.14C18.8101 11.14 18.0634 10.7993 17.5221 10.118C16.9901 9.42733 16.7241 8.47067 16.7241 7.248C16.7241 6.42667 16.8454 5.72667 17.0881 5.148C17.3308 4.56 17.6761 4.10733 18.1241 3.79C18.5814 3.47267 19.1274 3.314 19.7621 3.314ZM20.0701 4.546C19.6781 4.546 19.3468 4.65333 19.0761 4.868C18.8054 5.07333 18.6001 5.37667 18.4601 5.778C18.3201 6.17933 18.2501 6.674 18.2501 7.262C18.2501 8.13933 18.4041 8.80667 18.7121 9.264C19.0294 9.72133 19.4914 9.95 20.0981 9.95C20.4528 9.95 20.7514 9.90333 20.9941 9.81C21.2461 9.71667 21.4514 9.572 21.6101 9.376C21.7781 9.18 21.8994 8.93267 21.9741 8.634C22.0581 8.326 22.1001 7.95733 22.1001 7.528V7.248C22.1001 6.604 22.0254 6.086 21.8761 5.694C21.7361 5.29267 21.5168 5.00333 21.2181 4.826C20.9194 4.63933 20.5368 4.546 20.0701 4.546ZM28.7657 3.314C29.7177 3.314 30.4271 3.524 30.8937 3.944C31.3604 4.35467 31.5937 5.00333 31.5937 5.89V11H30.5437L30.2497 9.95H30.1937C29.9791 10.2207 29.7551 10.4447 29.5217 10.622C29.2977 10.7993 29.0364 10.93 28.7377 11.014C28.4484 11.098 28.0937 11.14 27.6737 11.14C27.2257 11.14 26.8197 11.0607 26.4557 10.902C26.1011 10.734 25.8211 10.482 25.6157 10.146C25.4104 9.80067 25.3077 9.37133 25.3077 8.858C25.3077 8.09267 25.5971 7.50933 26.1757 7.108C26.7637 6.70667 27.6551 6.48733 28.8497 6.45L30.1377 6.408V5.988C30.1377 5.428 30.0117 5.036 29.7597 4.812C29.5077 4.588 29.1531 4.476 28.6957 4.476C28.3037 4.476 27.9304 4.532 27.5757 4.644C27.2211 4.756 26.8851 4.89133 26.5677 5.05L26.0917 3.972C26.4464 3.78533 26.8524 3.63133 27.3097 3.51C27.7764 3.37933 28.2617 3.314 28.7657 3.314ZM29.1157 7.402C28.2571 7.43933 27.6597 7.584 27.3237 7.836C26.9971 8.07867 26.8337 8.424 26.8337 8.872C26.8337 9.264 26.9504 9.54867 27.1837 9.726C27.4264 9.90333 27.7297 9.992 28.0937 9.992C28.6817 9.992 29.1671 9.82867 29.5497 9.502C29.9324 9.17533 30.1237 8.68533 30.1237 8.032V7.374L29.1157 7.402ZM41.1975 4.588H39.3355V11H37.8515V4.588H36.5775V3.888L37.8515 3.426V2.95C37.8515 2.306 37.9495 1.79267 38.1455 1.41C38.3508 1.018 38.6402 0.733333 39.0135 0.555999C39.3868 0.378666 39.8395 0.289999 40.3715 0.289999C40.6982 0.289999 40.9968 0.317999 41.2675 0.373999C41.5382 0.43 41.7668 0.490666 41.9535 0.555999L41.5755 1.69C41.4262 1.64333 41.2535 1.60133 41.0575 1.564C40.8615 1.51733 40.6562 1.494 40.4415 1.494C40.0682 1.494 39.7882 1.61533 39.6015 1.858C39.4242 2.10067 39.3355 2.46933 39.3355 2.964V3.454H41.1975V4.588ZM49.1694 7.22C49.1694 7.84533 49.0854 8.40067 48.9174 8.886C48.7494 9.37133 48.5114 9.782 48.2034 10.118C47.8954 10.454 47.5221 10.7107 47.0834 10.888C46.6448 11.056 46.1501 11.14 45.5994 11.14C45.0954 11.14 44.6288 11.056 44.1994 10.888C43.7701 10.7107 43.3968 10.454 43.0794 10.118C42.7714 9.782 42.5288 9.37133 42.3514 8.886C42.1741 8.40067 42.0854 7.84067 42.0854 7.206C42.0854 6.37533 42.2254 5.67067 42.5054 5.092C42.7948 4.51333 43.2054 4.07467 43.7374 3.776C44.2788 3.468 44.9134 3.314 45.6414 3.314C46.3321 3.314 46.9388 3.468 47.4614 3.776C47.9934 4.07467 48.4088 4.51333 48.7074 5.092C49.0154 5.67067 49.1694 6.38 49.1694 7.22ZM43.6114 7.22C43.6114 7.78 43.6814 8.26533 43.8214 8.676C43.9614 9.07733 44.1808 9.38533 44.4794 9.6C44.7781 9.81467 45.1608 9.922 45.6274 9.922C46.0941 9.922 46.4768 9.81467 46.7754 9.6C47.0741 9.38533 47.2934 9.07733 47.4334 8.676C47.5734 8.26533 47.6434 7.78 47.6434 7.22C47.6434 6.64133 47.5688 6.156 47.4194 5.764C47.2794 5.372 47.0601 5.07333 46.7614 4.868C46.4721 4.65333 46.0894 4.546 45.6134 4.546C44.9134 4.546 44.4048 4.77933 44.0874 5.246C43.7701 5.71267 43.6114 6.37067 43.6114 7.22ZM54.7747 3.314C54.9053 3.314 55.05 3.32333 55.2087 3.342C55.3673 3.35133 55.498 3.36533 55.6007 3.384L55.4467 4.77C55.344 4.742 55.2227 4.71867 55.0827 4.7C54.9427 4.68133 54.812 4.672 54.6907 4.672C54.4107 4.672 54.14 4.728 53.8787 4.84C53.6267 4.94267 53.398 5.09667 53.1927 5.302C52.9873 5.498 52.824 5.74067 52.7027 6.03C52.5907 6.31933 52.5347 6.65067 52.5347 7.024V11H51.0507V3.454H52.2267L52.4227 4.798H52.4787C52.6373 4.52733 52.8287 4.28 53.0527 4.056C53.2767 3.832 53.5333 3.65467 53.8227 3.524C54.112 3.384 54.4293 3.314 54.7747 3.314ZM63.3507 9.936C63.5467 9.936 63.7473 9.91733 63.9527 9.88C64.158 9.84267 64.3353 9.80067 64.4847 9.754V10.874C64.326 10.9487 64.1113 11.0093 63.8407 11.056C63.57 11.112 63.2993 11.14 63.0287 11.14C62.618 11.14 62.24 11.07 61.8947 10.93C61.5587 10.79 61.288 10.5473 61.0827 10.202C60.8773 9.85667 60.7747 9.376 60.7747 8.76V4.588H59.7247V3.916L60.8307 3.356L61.3487 1.76H62.2587V3.454H64.4147V4.588H62.2587V8.732C62.2587 9.14267 62.3567 9.446 62.5527 9.642C62.758 9.838 63.024 9.936 63.3507 9.936ZM67.478 3.202C67.478 3.43533 67.4687 3.66867 67.45 3.902C67.4314 4.13533 67.4127 4.32667 67.394 4.476H67.492C67.6507 4.21467 67.8467 4 68.08 3.832C68.3227 3.664 68.5887 3.538 68.878 3.454C69.1767 3.37 69.48 3.328 69.788 3.328C70.3854 3.328 70.8847 3.426 71.286 3.622C71.6967 3.80867 72.0047 4.10733 72.21 4.518C72.4247 4.91933 72.532 5.442 72.532 6.086V11H71.062V6.296C71.062 5.708 70.936 5.26933 70.684 4.98C70.4414 4.68133 70.0494 4.532 69.508 4.532C68.9947 4.532 68.5887 4.63467 68.29 4.84C68.0007 5.04533 67.7907 5.34867 67.66 5.75C67.5387 6.142 67.478 6.62733 67.478 7.206V11H65.994V0.359999H67.478V3.202ZM77.7804 3.314C78.4431 3.314 79.0124 3.454 79.4884 3.734C79.9644 4.00467 80.3284 4.39667 80.5804 4.91C80.8417 5.42333 80.9724 6.03 80.9724 6.73V7.542H75.9044C75.9231 8.31667 76.1237 8.90933 76.5064 9.32C76.8984 9.73067 77.4444 9.936 78.1444 9.936C78.6297 9.936 79.0591 9.894 79.4324 9.81C79.8151 9.71667 80.2071 9.58133 80.6084 9.404V10.636C80.2351 10.804 79.8524 10.93 79.4604 11.014C79.0777 11.098 78.6204 11.14 78.0884 11.14C77.3604 11.14 76.7164 10.9953 76.1564 10.706C75.5964 10.4167 75.1577 9.98733 74.8404 9.418C74.5324 8.83933 74.3784 8.13 74.3784 7.29C74.3784 6.44067 74.5184 5.722 74.7984 5.134C75.0877 4.546 75.4844 4.098 75.9884 3.79C76.5017 3.47267 77.0991 3.314 77.7804 3.314ZM77.7804 4.462C77.2484 4.462 76.8191 4.63467 76.4924 4.98C76.1751 5.32533 75.9884 5.81533 75.9324 6.45H79.4884C79.4884 6.058 79.4277 5.71267 79.3064 5.414C79.1851 5.11533 78.9984 4.882 78.7464 4.714C78.4944 4.546 78.1724 4.462 77.7804 4.462ZM98.3468 1.004L95.7148 11H94.1048L92.3408 4.826C92.2848 4.658 92.2288 4.47133 92.1728 4.266C92.1262 4.06067 92.0795 3.86 92.0328 3.664C91.9862 3.45867 91.9442 3.27667 91.9068 3.118C91.8788 2.95933 91.8555 2.838 91.8368 2.754C91.8275 2.838 91.8088 2.95933 91.7808 3.118C91.7528 3.27667 91.7155 3.45867 91.6688 3.664C91.6222 3.86 91.5755 4.06533 91.5288 4.28C91.4822 4.48533 91.4308 4.68133 91.3748 4.868L89.6388 11H88.0288L85.4108 1.004H86.9648L88.4348 6.912C88.4815 7.11733 88.5282 7.32733 88.5748 7.542C88.6215 7.75667 88.6635 7.97133 88.7008 8.186C88.7475 8.40067 88.7848 8.61067 88.8128 8.816C88.8502 9.012 88.8828 9.194 88.9108 9.362C88.9388 9.18467 88.9668 8.99333 88.9948 8.788C89.0322 8.58267 89.0742 8.37267 89.1208 8.158C89.1675 7.934 89.2142 7.71467 89.2608 7.5C89.3168 7.28533 89.3728 7.08933 89.4288 6.912L91.0948 1.004H92.6068L94.3288 6.94C94.3848 7.12667 94.4362 7.32733 94.4828 7.542C94.5388 7.75667 94.5902 7.976 94.6368 8.2C94.6835 8.41467 94.7208 8.62467 94.7488 8.83C94.7862 9.026 94.8188 9.20333 94.8468 9.362C94.8748 9.12867 94.9122 8.87667 94.9588 8.606C95.0148 8.326 95.0755 8.04133 95.1408 7.752C95.2062 7.45333 95.2715 7.17333 95.3368 6.912L96.8068 1.004H98.3468ZM101.125 3.202C101.125 3.43533 101.115 3.66867 101.097 3.902C101.078 4.13533 101.059 4.32667 101.041 4.476H101.139C101.297 4.21467 101.493 4 101.727 3.832C101.969 3.664 102.235 3.538 102.525 3.454C102.823 3.37 103.127 3.328 103.435 3.328C104.032 3.328 104.531 3.426 104.933 3.622C105.343 3.80867 105.651 4.10733 105.857 4.518C106.071 4.91933 106.179 5.442 106.179 6.086V11H104.709V6.296C104.709 5.708 104.583 5.26933 104.331 4.98C104.088 4.68133 103.696 4.532 103.155 4.532C102.641 4.532 102.235 4.63467 101.937 4.84C101.647 5.04533 101.437 5.34867 101.307 5.75C101.185 6.142 101.125 6.62733 101.125 7.206V11H99.6405V0.359999H101.125V3.202ZM115.109 7.22C115.109 7.84533 115.025 8.40067 114.857 8.886C114.689 9.37133 114.451 9.782 114.143 10.118C113.835 10.454 113.462 10.7107 113.023 10.888C112.584 11.056 112.09 11.14 111.539 11.14C111.035 11.14 110.568 11.056 110.139 10.888C109.71 10.7107 109.336 10.454 109.019 10.118C108.711 9.782 108.468 9.37133 108.291 8.886C108.114 8.40067 108.025 7.84067 108.025 7.206C108.025 6.37533 108.165 5.67067 108.445 5.092C108.734 4.51333 109.145 4.07467 109.677 3.776C110.218 3.468 110.853 3.314 111.581 3.314C112.272 3.314 112.878 3.468 113.401 3.776C113.933 4.07467 114.348 4.51333 114.647 5.092C114.955 5.67067 115.109 6.38 115.109 7.22ZM109.551 7.22C109.551 7.78 109.621 8.26533 109.761 8.676C109.901 9.07733 110.12 9.38533 110.419 9.6C110.718 9.81467 111.1 9.922 111.567 9.922C112.034 9.922 112.416 9.81467 112.715 9.6C113.014 9.38533 113.233 9.07733 113.373 8.676C113.513 8.26533 113.583 7.78 113.583 7.22C113.583 6.64133 113.508 6.156 113.359 5.764C113.219 5.372 113 5.07333 112.701 4.868C112.412 4.65333 112.029 4.546 111.553 4.546C110.853 4.546 110.344 4.77933 110.027 5.246C109.71 5.71267 109.551 6.37067 109.551 7.22ZM118.474 11H116.99V0.359999H118.474V11ZM123.773 3.314C124.435 3.314 125.005 3.454 125.481 3.734C125.957 4.00467 126.321 4.39667 126.573 4.91C126.834 5.42333 126.965 6.03 126.965 6.73V7.542H121.897C121.915 8.31667 122.116 8.90933 122.499 9.32C122.891 9.73067 123.437 9.936 124.137 9.936C124.622 9.936 125.051 9.894 125.425 9.81C125.807 9.71667 126.199 9.58133 126.601 9.404V10.636C126.227 10.804 125.845 10.93 125.453 11.014C125.07 11.098 124.613 11.14 124.081 11.14C123.353 11.14 122.709 10.9953 122.149 10.706C121.589 10.4167 121.15 9.98733 120.833 9.418C120.525 8.83933 120.371 8.13 120.371 7.29C120.371 6.44067 120.511 5.722 120.791 5.134C121.08 4.546 121.477 4.098 121.981 3.79C122.494 3.47267 123.091 3.314 123.773 3.314ZM123.773 4.462C123.241 4.462 122.811 4.63467 122.485 4.98C122.167 5.32533 121.981 5.81533 121.925 6.45H125.481C125.481 6.058 125.42 5.71267 125.299 5.414C125.177 5.11533 124.991 4.882 124.739 4.714C124.487 4.546 124.165 4.462 123.773 4.462ZM135.547 1.004C136.396 1.004 137.106 1.08333 137.675 1.242C138.254 1.40067 138.688 1.66667 138.977 2.04C139.276 2.404 139.425 2.88933 139.425 3.496C139.425 3.888 139.355 4.238 139.215 4.546C139.075 4.84467 138.87 5.09667 138.599 5.302C138.338 5.498 138.011 5.62867 137.619 5.694V5.764C138.02 5.82933 138.38 5.95067 138.697 6.128C139.014 6.296 139.266 6.54333 139.453 6.87C139.64 7.19667 139.733 7.62133 139.733 8.144C139.733 8.75067 139.588 9.26867 139.299 9.698C139.019 10.118 138.613 10.44 138.081 10.664C137.558 10.888 136.933 11 136.205 11H132.621V1.004H135.547ZM135.799 5.176C136.583 5.176 137.12 5.05 137.409 4.798C137.708 4.546 137.857 4.17267 137.857 3.678C137.857 3.174 137.68 2.81467 137.325 2.6C136.97 2.38533 136.406 2.278 135.631 2.278H134.133V5.176H135.799ZM134.133 6.408V9.74H135.967C136.779 9.74 137.344 9.58133 137.661 9.264C137.978 8.94667 138.137 8.52667 138.137 8.004C138.137 7.68667 138.067 7.40667 137.927 7.164C137.787 6.92133 137.549 6.73467 137.213 6.604C136.886 6.47333 136.438 6.408 135.869 6.408H134.133ZM148.291 7.22C148.291 7.84533 148.207 8.40067 148.039 8.886C147.871 9.37133 147.633 9.782 147.325 10.118C147.017 10.454 146.643 10.7107 146.205 10.888C145.766 11.056 145.271 11.14 144.721 11.14C144.217 11.14 143.75 11.056 143.321 10.888C142.891 10.7107 142.518 10.454 142.201 10.118C141.893 9.782 141.65 9.37133 141.473 8.886C141.295 8.40067 141.207 7.84067 141.207 7.206C141.207 6.37533 141.347 5.67067 141.627 5.092C141.916 4.51333 142.327 4.07467 142.859 3.776C143.4 3.468 144.035 3.314 144.763 3.314C145.453 3.314 146.06 3.468 146.583 3.776C147.115 4.07467 147.53 4.51333 147.829 5.092C148.137 5.67067 148.291 6.38 148.291 7.22ZM142.733 7.22C142.733 7.78 142.803 8.26533 142.943 8.676C143.083 9.07733 143.302 9.38533 143.601 9.6C143.899 9.81467 144.282 9.922 144.749 9.922C145.215 9.922 145.598 9.81467 145.897 9.6C146.195 9.38533 146.415 9.07733 146.555 8.676C146.695 8.26533 146.765 7.78 146.765 7.22C146.765 6.64133 146.69 6.156 146.541 5.764C146.401 5.372 146.181 5.07333 145.883 4.868C145.593 4.65333 145.211 4.546 144.735 4.546C144.035 4.546 143.526 4.77933 143.209 5.246C142.891 5.71267 142.733 6.37067 142.733 7.22ZM152.762 11.14C151.856 11.14 151.124 10.8133 150.564 10.16C150.013 9.50667 149.738 8.536 149.738 7.248C149.738 5.95067 150.018 4.97067 150.578 4.308C151.138 3.64533 151.875 3.314 152.79 3.314C153.172 3.314 153.504 3.36533 153.784 3.468C154.073 3.56133 154.32 3.692 154.526 3.86C154.74 4.028 154.922 4.21467 155.072 4.42H155.156C155.137 4.28933 155.114 4.10267 155.086 3.86C155.058 3.608 155.044 3.384 155.044 3.188V0.359999H156.528V11H155.366L155.114 9.992H155.044C154.904 10.2067 154.726 10.4027 154.512 10.58C154.306 10.748 154.059 10.8833 153.77 10.986C153.48 11.0887 153.144 11.14 152.762 11.14ZM153.112 9.922C153.84 9.922 154.353 9.72133 154.652 9.32C154.95 8.90933 155.1 8.298 155.1 7.486V7.262C155.1 6.37533 154.955 5.69867 154.666 5.232C154.386 4.76533 153.863 4.532 153.098 4.532C152.491 4.532 152.034 4.77933 151.726 5.274C151.418 5.75933 151.264 6.42667 151.264 7.276C151.264 8.12533 151.418 8.77867 151.726 9.236C152.034 9.69333 152.496 9.922 153.112 9.922ZM157.705 3.454H159.301L160.869 7.738C160.953 7.95267 161.028 8.16267 161.093 8.368C161.159 8.57333 161.215 8.77867 161.261 8.984C161.317 9.18 161.359 9.376 161.387 9.572H161.443C161.49 9.32933 161.565 9.04467 161.667 8.718C161.77 8.382 161.877 8.05067 161.989 7.724L163.473 3.454H165.069L161.835 12.022C161.658 12.5073 161.439 12.9227 161.177 13.268C160.916 13.6227 160.603 13.8933 160.239 14.08C159.885 14.2667 159.465 14.36 158.979 14.36C158.746 14.36 158.545 14.346 158.377 14.318C158.209 14.2993 158.065 14.276 157.943 14.248V13.072C158.046 13.0907 158.167 13.1093 158.307 13.128C158.457 13.1467 158.611 13.156 158.769 13.156C159.059 13.156 159.306 13.1 159.511 12.988C159.726 12.876 159.903 12.7173 160.043 12.512C160.193 12.3067 160.319 12.0733 160.421 11.812L160.729 11L157.705 3.454ZM166.026 10.174C166.026 9.81 166.12 9.55333 166.306 9.404C166.493 9.25467 166.717 9.18 166.978 9.18C167.249 9.18 167.478 9.25467 167.664 9.404C167.851 9.55333 167.944 9.81 167.944 10.174C167.944 10.538 167.851 10.7993 167.664 10.958C167.478 11.1167 167.249 11.196 166.978 11.196C166.717 11.196 166.493 11.1167 166.306 10.958C166.12 10.7993 166.026 10.538 166.026 10.174ZM166.026 4.294C166.026 3.91133 166.12 3.64533 166.306 3.496C166.493 3.34667 166.717 3.272 166.978 3.272C167.249 3.272 167.478 3.34667 167.664 3.496C167.851 3.64533 167.944 3.91133 167.944 4.294C167.944 4.64867 167.851 4.90533 167.664 5.064C167.478 5.22267 167.249 5.302 166.978 5.302C166.717 5.302 166.493 5.22267 166.306 5.064C166.12 4.90533 166.026 4.64867 166.026 4.294ZM9.422 24.904C9.422 26.024 9.212 26.962 8.792 27.718C8.372 28.474 7.76533 29.0433 6.972 29.426C6.188 29.8087 5.24067 30 4.13 30H1.33V20.004H4.424C5.44133 20.004 6.32333 20.1907 7.07 20.564C7.81667 20.9373 8.39533 21.488 8.806 22.216C9.21667 22.9347 9.422 23.8307 9.422 24.904ZM7.84 24.946C7.84 24.106 7.70467 23.4153 7.434 22.874C7.16333 22.3327 6.762 21.9313 6.23 21.67C5.70733 21.4087 5.07267 21.278 4.326 21.278H2.842V28.726H4.06C5.32 28.726 6.26267 28.4087 6.888 27.774C7.52267 27.1393 7.84 26.1967 7.84 24.946ZM14.3976 22.314C15.0602 22.314 15.6296 22.454 16.1056 22.734C16.5816 23.0047 16.9456 23.3967 17.1976 23.91C17.4589 24.4233 17.5896 25.03 17.5896 25.73V26.542H12.5216C12.5402 27.3167 12.7409 27.9093 13.1236 28.32C13.5156 28.7307 14.0616 28.936 14.7616 28.936C15.2469 28.936 15.6762 28.894 16.0496 28.81C16.4322 28.7167 16.8242 28.5813 17.2256 28.404V29.636C16.8522 29.804 16.4696 29.93 16.0776 30.014C15.6949 30.098 15.2376 30.14 14.7056 30.14C13.9776 30.14 13.3336 29.9953 12.7736 29.706C12.2136 29.4167 11.7749 28.9873 11.4576 28.418C11.1496 27.8393 10.9956 27.13 10.9956 26.29C10.9956 25.4407 11.1356 24.722 11.4156 24.134C11.7049 23.546 12.1016 23.098 12.6056 22.79C13.1189 22.4727 13.7162 22.314 14.3976 22.314ZM14.3976 23.462C13.8656 23.462 13.4362 23.6347 13.1096 23.98C12.7922 24.3253 12.6056 24.8153 12.5496 25.45H16.1056C16.1056 25.058 16.0449 24.7127 15.9236 24.414C15.8022 24.1153 15.6156 23.882 15.3636 23.714C15.1116 23.546 14.7896 23.462 14.3976 23.462ZM22.4093 22.314C23.072 22.314 23.6413 22.454 24.1173 22.734C24.5933 23.0047 24.9573 23.3967 25.2093 23.91C25.4706 24.4233 25.6013 25.03 25.6013 25.73V26.542H20.5333C20.552 27.3167 20.7526 27.9093 21.1353 28.32C21.5273 28.7307 22.0733 28.936 22.7733 28.936C23.2586 28.936 23.688 28.894 24.0613 28.81C24.444 28.7167 24.836 28.5813 25.2373 28.404V29.636C24.864 29.804 24.4813 29.93 24.0893 30.014C23.7066 30.098 23.2493 30.14 22.7173 30.14C21.9893 30.14 21.3453 29.9953 20.7853 29.706C20.2253 29.4167 19.7866 28.9873 19.4693 28.418C19.1613 27.8393 19.0073 27.13 19.0073 26.29C19.0073 25.4407 19.1473 24.722 19.4273 24.134C19.7166 23.546 20.1133 23.098 20.6173 22.79C21.1306 22.4727 21.728 22.314 22.4093 22.314ZM22.4093 23.462C21.8773 23.462 21.448 23.6347 21.1213 23.98C20.804 24.3253 20.6173 24.8153 20.5613 25.45H24.1173C24.1173 25.058 24.0566 24.7127 23.9353 24.414C23.814 24.1153 23.6273 23.882 23.3753 23.714C23.1233 23.546 22.8013 23.462 22.4093 23.462ZM31.219 22.314C32.1243 22.314 32.8523 22.6407 33.403 23.294C33.963 23.9473 34.243 24.9227 34.243 26.22C34.243 27.0693 34.117 27.788 33.865 28.376C33.613 28.964 33.2583 29.4073 32.801 29.706C32.3437 29.9953 31.8117 30.14 31.205 30.14C30.8223 30.14 30.4863 30.0933 30.197 30C29.9077 29.8973 29.6603 29.7667 29.455 29.608C29.259 29.44 29.0863 29.2627 28.937 29.076H28.839C28.867 29.244 28.8903 29.4447 28.909 29.678C28.9277 29.902 28.937 30.1027 28.937 30.28V33.36H27.453V22.454H28.657L28.867 23.462H28.937C29.0863 23.2567 29.2637 23.0653 29.469 22.888C29.6743 22.7107 29.9217 22.5707 30.211 22.468C30.5003 22.3653 30.8363 22.314 31.219 22.314ZM30.869 23.532C30.4023 23.532 30.029 23.6253 29.749 23.812C29.469 23.9893 29.2637 24.26 29.133 24.624C29.0117 24.9787 28.9463 25.4313 28.937 25.982V26.206C28.937 26.7847 28.9977 27.2793 29.119 27.69C29.2403 28.0913 29.441 28.3993 29.721 28.614C30.0103 28.8193 30.4023 28.922 30.897 28.922C31.317 28.922 31.6577 28.81 31.919 28.586C32.1897 28.3527 32.3903 28.0307 32.521 27.62C32.6517 27.2093 32.717 26.7333 32.717 26.192C32.717 25.3707 32.5677 24.722 32.269 24.246C31.9703 23.77 31.5037 23.532 30.869 23.532ZM45.6794 27.298C45.6794 27.8953 45.5347 28.404 45.2454 28.824C44.956 29.244 44.5407 29.5707 43.9994 29.804C43.458 30.028 42.814 30.14 42.0674 30.14C41.7034 30.14 41.3534 30.1167 41.0174 30.07C40.6814 30.0327 40.3687 29.9767 40.0794 29.902C39.79 29.8273 39.5334 29.734 39.3094 29.622V28.194C39.6827 28.362 40.1214 28.516 40.6254 28.656C41.1294 28.7867 41.6427 28.852 42.1654 28.852C42.6134 28.852 42.9867 28.7913 43.2854 28.67C43.584 28.5487 43.808 28.3807 43.9574 28.166C44.1067 27.9513 44.1814 27.6993 44.1814 27.41C44.1814 27.102 44.102 26.8453 43.9434 26.64C43.794 26.4253 43.556 26.2293 43.2294 26.052C42.912 25.8653 42.4827 25.6693 41.9414 25.464C41.568 25.324 41.2274 25.17 40.9194 25.002C40.6207 24.8247 40.3547 24.6193 40.1214 24.386C39.8974 24.1527 39.7247 23.882 39.6034 23.574C39.482 23.266 39.4214 22.9067 39.4214 22.496C39.4214 21.9453 39.5567 21.474 39.8274 21.082C40.1074 20.69 40.49 20.3913 40.9754 20.186C41.4607 19.9713 42.0254 19.864 42.6694 19.864C43.2107 19.864 43.71 19.92 44.1674 20.032C44.634 20.1347 45.0774 20.2793 45.4974 20.466L45.0214 21.712C44.6387 21.5533 44.2514 21.4227 43.8594 21.32C43.4674 21.2173 43.0567 21.166 42.6274 21.166C42.254 21.166 41.9414 21.222 41.6894 21.334C41.4374 21.446 41.246 21.6 41.1154 21.796C40.994 21.992 40.9334 22.2207 40.9334 22.482C40.9334 22.79 41.0034 23.0467 41.1434 23.252C41.2834 23.4573 41.5074 23.6487 41.8154 23.826C42.1234 23.994 42.5294 24.1807 43.0334 24.386C43.5934 24.6007 44.0694 24.834 44.4614 25.086C44.8627 25.338 45.166 25.6413 45.3714 25.996C45.5767 26.3413 45.6794 26.7753 45.6794 27.298ZM50.1846 28.936C50.3806 28.936 50.5813 28.9173 50.7866 28.88C50.992 28.8427 51.1693 28.8007 51.3186 28.754V29.874C51.16 29.9487 50.9453 30.0093 50.6746 30.056C50.404 30.112 50.1333 30.14 49.8626 30.14C49.452 30.14 49.074 30.07 48.7286 29.93C48.3926 29.79 48.122 29.5473 47.9166 29.202C47.7113 28.8567 47.6086 28.376 47.6086 27.76V23.588H46.5586V22.916L47.6646 22.356L48.1826 20.76H49.0926V22.454H51.2486V23.588H49.0926V27.732C49.0926 28.1427 49.1906 28.446 49.3866 28.642C49.592 28.838 49.858 28.936 50.1846 28.936ZM56.552 22.314C56.6827 22.314 56.8273 22.3233 56.986 22.342C57.1447 22.3513 57.2753 22.3653 57.378 22.384L57.224 23.77C57.1213 23.742 57 23.7187 56.86 23.7C56.72 23.6813 56.5893 23.672 56.468 23.672C56.188 23.672 55.9173 23.728 55.656 23.84C55.404 23.9427 55.1753 24.0967 54.97 24.302C54.7647 24.498 54.6013 24.7407 54.48 25.03C54.368 25.3193 54.312 25.6507 54.312 26.024V30H52.828V22.454H54.004L54.2 23.798H54.256C54.4147 23.5273 54.606 23.28 54.83 23.056C55.054 22.832 55.3107 22.6547 55.6 22.524C55.8893 22.384 56.2067 22.314 56.552 22.314ZM61.4698 22.314C62.1325 22.314 62.7018 22.454 63.1778 22.734C63.6538 23.0047 64.0178 23.3967 64.2698 23.91C64.5312 24.4233 64.6618 25.03 64.6618 25.73V26.542H59.5938C59.6125 27.3167 59.8132 27.9093 60.1958 28.32C60.5878 28.7307 61.1338 28.936 61.8338 28.936C62.3192 28.936 62.7485 28.894 63.1218 28.81C63.5045 28.7167 63.8965 28.5813 64.2978 28.404V29.636C63.9245 29.804 63.5418 29.93 63.1498 30.014C62.7672 30.098 62.3098 30.14 61.7778 30.14C61.0498 30.14 60.4058 29.9953 59.8458 29.706C59.2858 29.4167 58.8472 28.9873 58.5298 28.418C58.2218 27.8393 58.0678 27.13 58.0678 26.29C58.0678 25.4407 58.2078 24.722 58.4878 24.134C58.7772 23.546 59.1738 23.098 59.6778 22.79C60.1912 22.4727 60.7885 22.314 61.4698 22.314ZM61.4698 23.462C60.9378 23.462 60.5085 23.6347 60.1818 23.98C59.8645 24.3253 59.6778 24.8153 59.6218 25.45H63.1778C63.1778 25.058 63.1172 24.7127 62.9958 24.414C62.8745 24.1153 62.6878 23.882 62.4358 23.714C62.1838 23.546 61.8618 23.462 61.4698 23.462ZM69.2296 28.936C69.4256 28.936 69.6262 28.9173 69.8316 28.88C70.0369 28.8427 70.2142 28.8007 70.3636 28.754V29.874C70.2049 29.9487 69.9902 30.0093 69.7196 30.056C69.4489 30.112 69.1782 30.14 68.9076 30.14C68.4969 30.14 68.1189 30.07 67.7736 29.93C67.4376 29.79 67.1669 29.5473 66.9616 29.202C66.7562 28.8567 66.6536 28.376 66.6536 27.76V23.588H65.6036V22.916L66.7096 22.356L67.2276 20.76H68.1376V22.454H70.2936V23.588H68.1376V27.732C68.1376 28.1427 68.2356 28.446 68.4316 28.642C68.6369 28.838 68.9029 28.936 69.2296 28.936ZM74.9109 30.14C74.2203 30.14 73.6136 30.0047 73.0909 29.734C72.5683 29.4633 72.1623 29.0433 71.8729 28.474C71.5836 27.8953 71.4389 27.1627 71.4389 26.276C71.4389 25.3427 71.5929 24.5867 71.9009 24.008C72.2183 23.4293 72.6429 23.0047 73.1749 22.734C73.7163 22.454 74.3323 22.314 75.0229 22.314C75.4429 22.314 75.8349 22.3607 76.1989 22.454C76.5723 22.538 76.8803 22.636 77.1229 22.748L76.6749 23.952C76.4136 23.8493 76.1336 23.7607 75.8349 23.686C75.5456 23.6113 75.2703 23.574 75.0089 23.574C74.5423 23.574 74.1549 23.6767 73.8469 23.882C73.5483 24.078 73.3243 24.3767 73.1749 24.778C73.0349 25.17 72.9649 25.6647 72.9649 26.262C72.9649 26.8313 73.0396 27.312 73.1889 27.704C73.3383 28.096 73.5576 28.3947 73.8469 28.6C74.1456 28.796 74.5143 28.894 74.9529 28.894C75.3729 28.894 75.7416 28.8473 76.0589 28.754C76.3763 28.6607 76.6749 28.5393 76.9549 28.39V29.678C76.6843 29.8367 76.3903 29.9533 76.0729 30.028C75.7556 30.1027 75.3683 30.14 74.9109 30.14ZM80.2202 22.202C80.2202 22.4353 80.2109 22.6687 80.1922 22.902C80.1736 23.1353 80.1549 23.3267 80.1362 23.476H80.2342C80.3929 23.2147 80.5889 23 80.8222 22.832C81.0649 22.664 81.3309 22.538 81.6202 22.454C81.9189 22.37 82.2222 22.328 82.5302 22.328C83.1276 22.328 83.6269 22.426 84.0282 22.622C84.4389 22.8087 84.7469 23.1073 84.9522 23.518C85.1669 23.9193 85.2742 24.442 85.2742 25.086V30H83.8042V25.296C83.8042 24.708 83.6782 24.2693 83.4262 23.98C83.1836 23.6813 82.7916 23.532 82.2502 23.532C81.7369 23.532 81.3309 23.6347 81.0322 23.84C80.7429 24.0453 80.5329 24.3487 80.4022 24.75C80.2809 25.142 80.2202 25.6273 80.2202 26.206V30H78.7362V19.36H80.2202V22.202Z" fill="black"/>
</svg>
